<?xml version="1.0" encoding="utf-8"?>
<!-- Generator: Adobe Illustrator 16.0.0, SVG Export Plug-In . SVG Version: 6.00 Build 0)  -->
<!DOCTYPE svg PUBLIC "-//W3C//DTD SVG 1.1//EN" "http://www.w3.org/Graphics/SVG/1.1/DTD/svg11.dtd">
<svg version="1.1" id="Capa_1" xmlns="http://www.w3.org/2000/svg" xmlns:xlink="http://www.w3.org/1999/xlink" x="0px" y="0px"
	 width="705.58px" height="633.895px" viewBox="282.5 108.605 705.58 633.895"
	 style="enable-background:new 282.5 108.605 705.58 633.895;" xml:space="preserve">
<g>
	<path d="M908.35,558.787c-9.449-18.524-33.162-33.037-53.962-33.037H838.3c-15.537,0-37.55-9.638-48.112-21.05L657.825,361.463
		c2.987-2.263,5.037-5.7,5.037-9.801l-0.075-162.45l50.15-50.163c4.3-4.525,4.062-11.7-0.45-15.987
		c-4.513-4.375-11.638-4.15-15.938,0.362l-47.312,47.6h-32.312l-45.875-45.688c-4.287-4.512-11.462-4.737-15.975-0.362
		c-4.525,4.288-4.75,11.462-0.45,15.987l48.338,48.25v162.45c0,3.638,1.587,6.838,4.037,9.101c-0.787,1.2-1.688,2.237-2.375,3.562
		L478.5,610.062c-4.213,8.188-12.588,13.275-21.85,13.275c-3.788,0-7.45-0.851-10.863-2.562l-44.337-22.163
		c-5.65-2.812-11.975-4.312-18.35-4.312c-15.288,0-29.3,8.226-36.562,21.45l-51.85,94.45c-3.425,6.263-3.675,12.8-0.625,17.938
		c3.038,5.125,8.888,8.087,16.025,8.087h659.587c7.088,0,12.963-2.925,16.101-8.05c3.125-5.1,3.074-11.675-0.163-17.975
		L908.35,558.787z M854.388,541.838c14.774,0,32.912,11.125,39.638,24.262l35.149,68.875l-10.513-3.312
		c-8.475-2.675-15.337,1.413-15.337,9.101c0,7.712-4.213,8.112-9.413,0.899l-1.3-1.8c-5.175-7.188-12.1-13.05-15.425-13.05
		c-3.338,0-8.3-5.912-11.062-13.188c-2.775-7.287-8.175-10.5-12.062-7.162c-3.888,3.337-7.037-1.163-7.037-10.062v-6.025
		c0-8.888-6.301-16.088-14.062-16.088c-7.775,0-12.551-7.024-10.663-15.712c0,0,1.288-5.812,2.838-12.95
		c0.399-1.812,0.462-3.6,0.274-5.275c4.45,0.888,8.825,1.476,12.913,1.476h16.062V541.838z M637.912,290.812l0.075,56.65
		c-2.287-0.601-4.6-0.988-6.925-0.988c-1.112,0-2.15,0.351-3.225,0.488V290.8h10.074V290.812z M618.938,371.7
		c5.362-10.438,15.55-11.775,23.463-3.213l135.975,147.138c6.975,7.537,17.325,14.213,28.45,18.963
		c-1.65,1.887-3.15,4.1-4.138,6.925l-34.763,98.062c-2.962,8.388-10.287,9.912-16.362,3.412l-4.15-4.425
		c-6.074-6.487-14.587-17.975-19.012-25.688l-6.088-10.575c-4.438-7.7-11.625-10.787-16.062-6.899
		c-4.45,3.887-10.3,0.199-13.075-8.238l-10.037-30.524c-2.775-8.463-9.575-9.688-15.175-2.812l-17.926,22.062
		c-5.6,6.888-10.137,5.274-10.137-3.601V538.1c0-8.887-5.351-11.274-11.963-5.324l-16.3,14.675
		c-6.625,5.95-10.862,3.638-9.487-5.138l9.137-58.688c1.363-8.787-3-11.213-9.75-5.425l-3.712,3.2
		c-6.75,5.762-10.938,3.362-9.338-5.375l12.65-69.613L618.938,371.7z M394.263,613.025l44.337,22.162
		c5.663,2.825,11.75,4.263,18.062,4.263c3.188,0,6.275-0.45,9.275-1.138c-0.612,1.7-1.013,3.438-1.013,5.175v13.275
		c0,8.875-7.149,16.925-15.962,17.962l-2.238,0.263c-8.812,1.05-20.024,6.4-25.024,11.938c-4.987,5.562-15.4,6.663-23.237,2.476
		l-1.775-0.926c-7.85-4.188-21.4-7.587-30.288-7.587c-8.875,0-14.275-6.963-12.025-15.562l11.65-44.625
		c0.4-1.525,0.575-2.888,0.663-4.163c4.538-3.787,10.237-6.112,16.425-6.112C387.038,610.4,390.788,611.275,394.263,613.025z"/>
	<path d="M632.737,166.1c12.25,0,22.175-9.938,22.175-22.175c0-12.175-9.925-22.112-22.175-22.112
		c-12.175,0-22.062,9.925-22.062,22.112C610.662,156.163,620.562,166.1,632.737,166.1z"/>
</g>
</svg>
