<?xml version="1.0" encoding="utf-8"?>
<!-- Generator: Adobe Illustrator 16.0.0, SVG Export Plug-In . SVG Version: 6.00 Build 0)  -->
<!DOCTYPE svg PUBLIC "-//W3C//DTD SVG 1.1//EN" "http://www.w3.org/Graphics/SVG/1.1/DTD/svg11.dtd">
<svg version="1.1" id="Capa_1" xmlns="http://www.w3.org/2000/svg" xmlns:xlink="http://www.w3.org/1999/xlink" x="0px" y="0px"
	 width="705.58px" height="633.895px" viewBox="0 0 705.58 633.895" enable-background="new 0 0 705.58 633.895"
	 xml:space="preserve">
<g>
	<path fill="#FFCB27" d="M621.131,447.669c-9.448-18.524-33.162-33.037-53.962-33.037h-16.088c-15.537,0-37.55-9.638-48.112-21.05
		L370.606,250.345c2.987-2.263,5.037-5.7,5.037-9.801l-0.075-162.45l50.15-50.163c4.3-4.525,4.062-11.7-0.45-15.987
		c-4.514-4.375-11.639-4.15-15.938,0.362l-47.312,47.6h-32.312l-45.875-45.688c-4.287-4.512-11.462-4.737-15.975-0.362
		c-4.525,4.288-4.75,11.462-0.45,15.987l48.338,48.25v162.45c0,3.638,1.587,6.838,4.037,9.101c-0.787,1.2-1.688,2.237-2.375,3.562
		L191.281,498.944c-4.213,8.188-12.588,13.274-21.85,13.274c-3.788,0-7.45-0.851-10.863-2.562l-44.337-22.163
		c-5.65-2.812-11.975-4.312-18.35-4.312c-15.289,0-29.301,8.227-36.562,21.45l-51.85,94.45c-3.425,6.263-3.675,12.8-0.625,17.938
		c3.038,5.125,8.888,8.087,16.025,8.087h659.587c7.088,0,12.963-2.925,16.101-8.05c3.125-5.1,3.074-11.675-0.162-17.975
		L621.131,447.669z M567.169,430.72c14.774,0,32.912,11.125,39.639,24.262l35.148,68.875l-10.513-3.312
		c-8.475-2.675-15.337,1.413-15.337,9.101c0,7.712-4.213,8.112-9.413,0.899l-1.3-1.8c-5.175-7.188-12.101-13.05-15.425-13.05
		c-3.339,0-8.301-5.912-11.062-13.188c-2.775-7.287-8.175-10.5-12.062-7.162c-3.888,3.337-7.036-1.163-7.036-10.062v-6.025
		c0-8.888-6.302-16.088-14.062-16.088c-7.774,0-12.551-7.024-10.663-15.712c0,0,1.288-5.812,2.838-12.95
		c0.399-1.812,0.462-3.6,0.274-5.275c4.45,0.889,8.825,1.477,12.913,1.477h16.062V430.72z M350.693,179.694l0.075,56.65
		c-2.287-0.601-4.601-0.988-6.925-0.988c-1.112,0-2.15,0.352-3.226,0.488v-56.162h10.074L350.693,179.694L350.693,179.694z
		 M331.719,260.582c5.362-10.438,15.551-11.775,23.464-3.213l135.975,147.138c6.975,7.537,17.325,14.213,28.45,18.963
		c-1.65,1.887-3.15,4.1-4.139,6.925l-34.763,98.062c-2.962,8.388-10.287,9.912-16.362,3.412l-4.149-4.425
		c-6.074-6.487-14.587-17.976-19.012-25.688l-6.089-10.575c-4.438-7.7-11.625-10.787-16.062-6.898
		c-4.45,3.887-10.3,0.198-13.075-8.238L395.92,445.52c-2.774-8.463-9.575-9.688-15.175-2.812l-17.926,22.062
		c-5.601,6.889-10.138,5.274-10.138-3.601v-34.188c0-8.887-5.351-11.273-11.963-5.323l-16.3,14.675
		c-6.625,5.95-10.862,3.638-9.487-5.139l9.138-58.688c1.362-8.787-3-11.213-9.75-5.425l-3.712,3.2
		c-6.75,5.762-10.938,3.361-9.338-5.375l12.649-69.613L331.719,260.582z M107.044,501.907l44.337,22.162
		c5.663,2.824,11.75,4.263,18.062,4.263c3.188,0,6.275-0.45,9.275-1.138c-0.612,1.699-1.014,3.438-1.014,5.175v13.274
		c0,8.875-7.148,16.926-15.962,17.962l-2.238,0.264c-8.812,1.05-20.023,6.399-25.023,11.938c-4.987,5.562-15.4,6.663-23.237,2.477
		l-1.775-0.927c-7.85-4.188-21.399-7.587-30.288-7.587c-8.875,0-14.274-6.963-12.024-15.562l11.649-44.625
		c0.4-1.525,0.576-2.889,0.664-4.163c4.537-3.787,10.236-6.112,16.425-6.112C99.819,499.282,103.569,500.157,107.044,501.907z"/>
	<path fill="#FFCB27" d="M345.519,54.982c12.25,0,22.175-9.938,22.175-22.175c0-12.175-9.925-22.112-22.175-22.112
		c-12.175,0-22.062,9.925-22.062,22.112C323.443,45.045,333.344,54.982,345.519,54.982z"/>
</g>
</svg>
