<?xml version="1.0" encoding="utf-8"?>
<!-- Generator: Adobe Illustrator 16.0.0, SVG Export Plug-In . SVG Version: 6.00 Build 0)  -->
<!DOCTYPE svg PUBLIC "-//W3C//DTD SVG 1.1//EN" "http://www.w3.org/Graphics/SVG/1.1/DTD/svg11.dtd">
<svg version="1.1" id="Layer_1" xmlns="http://www.w3.org/2000/svg" xmlns:xlink="http://www.w3.org/1999/xlink" x="0px" y="0px"
	 width="261.334px" height="223.667px" viewBox="0 0 261.334 223.667" enable-background="new 0 0 261.334 223.667"
	 xml:space="preserve">
<path fill="#FFCB27" d="M3,62.283c3.404-7.562,10.043-10.248,17.55-11.131c28.744-3.379,57.496-6.693,86.275-9.743
	c4.556-0.483,6.605-1.993,7.408-6.587c1.25-7.146,3.267-14.16,5.137-21.979c-3.418,0-6.227,0.225-8.971-0.099
	c-1.272-0.149-2.422-1.36-3.627-2.091c1.131-0.637,2.236-1.328,3.408-1.878c0.41-0.192,0.985-0.05,1.484-0.034
	c7.518,0.236,15.379,1.361,18.463-7.741c1.148,0.238,1.624,0.198,1.734,0.38c4.035,6.642,10.037,8.543,17.396,7.389
	c1.3-0.203,2.738-0.287,3.966,0.076c0.985,0.293,1.748,1.348,2.608,2.063c-0.938,0.642-1.838,1.763-2.817,1.838
	c-3.103,0.24-6.231,0.089-9.951,0.089c2.144,9.072,3.98,17.469,6.252,25.747c0.313,1.146,2.705,2.267,4.246,2.447
	c24.451,2.858,48.926,5.521,73.383,8.331c6.595,0.758,13.203,1.587,19.707,2.879c5.354,1.062,9.754,3.952,12.349,9.042c0,2,0,4,0,6
	c-4.542,6.585-11.14,8.78-18.789,9.211c-28.104,1.585-56.194,3.409-84.305,4.89c-4.099,0.215-5.328,1.656-5.607,5.521
	c-2.049,28.407-4.241,56.801-6.491,85.192c-0.231,2.936,0.785,4.275,3.385,5.684c8.029,4.344,15.925,8.969,23.642,13.848
	c4.197,2.654,6.06,6.893,5.563,12.795c-6.631,0-13.334,0.744-19.804-0.164c-11.522-1.617-19.545,1.619-23.131,13.301
	c-0.304,0.988-1.291,1.768-2.599,3.479c-2.639-4.752-5.104-8.811-7.176-13.059c-1.364-2.797-3.207-3.676-6.264-3.629
	c-9.992,0.154-19.99,0.004-29.986-0.047c-0.307-0.002-0.61-0.207-1.238-0.436c-0.867-4.758,0.668-8.967,4.64-11.553
	c7.925-5.158,16.083-9.986,24.384-14.518c2.795-1.521,3.707-2.898,3.444-6.07c-2.315-28.217-4.524-56.443-6.539-84.686
	c-0.276-3.904-1.313-5.423-5.448-5.643c-28.607-1.519-57.206-3.239-85.799-5.022C13.048,75.888,6.209,73.411,3.001,65.28
	C3,64.283,3,63.283,3,62.283z"/>
</svg>
