<?xml version="1.0" encoding="utf-8"?>
<!-- Generator: Adobe Illustrator 16.0.0, SVG Export Plug-In . SVG Version: 6.00 Build 0)  -->
<!DOCTYPE svg PUBLIC "-//W3C//DTD SVG 1.1//EN" "http://www.w3.org/Graphics/SVG/1.1/DTD/svg11.dtd">
<svg version="1.1" id="Layer_1" xmlns="http://www.w3.org/2000/svg" xmlns:xlink="http://www.w3.org/1999/xlink" x="0px" y="0px"
	 width="261.334px" height="223.667px" viewBox="56.5 48.5 261.334 223.667"
	 style="enable-background:new 56.5 48.5 261.334 223.667;" xml:space="preserve">
<g>
	<path style="fill:#FFFFFF;" d="M825,231.67c0,57,0,114,0,171c-85.334,0-170.667,0-256,0c0-57.667,0-115.333,0-173
		c3.208,8.131,10.046,10.605,17.881,11.095c28.594,1.783,57.189,3.505,85.799,5.022c4.133,0.22,5.17,1.736,5.448,5.643
		c2.013,28.24,4.222,56.469,6.539,84.686c0.261,3.171-0.649,4.548-3.444,6.072c-8.301,4.527-16.459,9.356-24.384,14.516
		c-3.972,2.586-5.507,6.795-4.64,11.553c0.628,0.229,0.933,0.434,1.238,0.436c9.996,0.052,19.994,0.201,29.987,0.047
		c3.058-0.047,4.898,0.832,6.263,3.63c2.073,4.247,4.537,8.306,7.176,13.058c1.308-1.711,2.295-2.488,2.599-3.479
		c3.586-11.682,11.606-14.918,23.131-13.301c6.47,0.907,13.171,0.164,19.804,0.164c0.494-5.902-1.367-10.141-5.564-12.795
		c-7.717-4.88-15.611-9.504-23.641-13.849c-2.6-1.405-3.617-2.747-3.385-5.683c2.25-28.391,4.442-56.785,6.491-85.191
		c0.279-3.865,1.511-5.307,5.606-5.521c28.109-1.479,56.201-3.305,84.306-4.89C813.861,240.45,820.458,238.255,825,231.67z"/>
	<path style="fill:#FFFFFF;" d="M569,226.67c0-26.635,0-53.27,0-79.952c85.333,0,170.666,0,256,0c0,26.349,0,52.65,0,78.952
		c-2.595-5.09-6.994-7.979-12.348-9.042c-6.504-1.292-13.113-2.121-19.707-2.879c-24.457-2.81-48.932-5.472-73.383-8.331
		c-1.541-0.182-3.933-1.303-4.246-2.447c-2.271-8.277-4.109-16.675-6.252-25.746c3.719,0,6.85,0.15,9.951-0.09
		c0.979-0.074,1.881-1.195,2.817-1.838c-0.86-0.717-1.623-1.771-2.608-2.062c-1.228-0.364-2.666-0.28-3.966-0.076
		c-7.358,1.152-13.36-0.748-17.396-7.389c-0.11-0.183-0.586-0.143-1.734-0.381c-3.084,9.104-10.945,7.979-18.463,7.741
		c-0.499-0.017-1.074-0.158-1.484,0.034c-1.172,0.55-2.277,1.242-3.408,1.878c1.205,0.729,2.354,1.94,3.627,2.091
		c2.744,0.322,5.552,0.1,8.97,0.1c-1.87,7.816-3.888,14.83-5.136,21.978c-0.801,4.594-2.854,6.104-7.409,6.587
		c-28.779,3.05-57.532,6.364-86.275,9.743C579.043,216.422,572.404,219.107,569,226.67z"/>
	<path d="M60,111.264c3.404-7.562,10.043-10.248,17.55-11.131c28.744-3.379,57.496-6.693,86.275-9.743
		c4.556-0.483,6.606-1.993,7.409-6.587c1.25-7.146,3.266-14.16,5.136-21.979c-3.418,0-6.226,0.225-8.97-0.099
		c-1.273-0.149-2.422-1.36-3.627-2.091c1.131-0.637,2.236-1.328,3.408-1.878c0.41-0.192,0.985-0.05,1.484-0.034
		c7.518,0.236,15.379,1.361,18.463-7.741c1.148,0.238,1.624,0.198,1.734,0.38c4.035,6.642,10.037,8.543,17.396,7.389
		c1.3-0.203,2.738-0.287,3.966,0.076c0.985,0.293,1.748,1.348,2.608,2.063c-0.938,0.642-1.838,1.763-2.817,1.838
		c-3.103,0.24-6.232,0.089-9.951,0.089c2.143,9.072,3.98,17.469,6.252,25.747c0.313,1.146,2.705,2.267,4.246,2.447
		c24.451,2.858,48.926,5.521,73.383,8.331c6.594,0.758,13.203,1.587,19.707,2.879c5.354,1.062,9.753,3.952,12.348,9.042c0,2,0,4,0,6
		c-4.542,6.585-11.139,8.78-18.789,9.211c-28.104,1.585-56.195,3.41-84.305,4.89c-4.098,0.215-5.328,1.656-5.607,5.521
		c-2.049,28.406-4.242,56.802-6.492,85.191c-0.231,2.936,0.786,4.277,3.385,5.684c8.029,4.344,15.925,8.969,23.642,13.848
		c4.197,2.654,6.06,6.893,5.563,12.795c-6.631,0-13.334,0.744-19.803-0.164c-11.523-1.617-19.545,1.619-23.131,13.301
		c-0.304,0.988-1.291,1.768-2.599,3.479c-2.638-4.752-5.104-8.811-7.175-13.059c-1.365-2.797-3.207-3.676-6.264-3.629
		c-9.992,0.154-19.99,0.004-29.986-0.047c-0.307-0.002-0.611-0.207-1.239-0.436c-0.867-4.758,0.668-8.967,4.64-11.553
		c7.924-5.158,16.083-9.986,24.383-14.516c2.795-1.523,3.707-2.9,3.445-6.072c-2.316-28.217-4.525-56.443-6.539-84.685
		c-0.277-3.904-1.314-5.423-5.449-5.643c-28.607-1.518-57.205-3.239-85.798-5.022c-7.834-0.487-14.673-2.964-17.881-11.095
		C60,113.264,60,112.264,60,111.264z"/>
</g>
</svg>
