<?xml version="1.0" encoding="utf-8"?>
<!-- Generator: Adobe Illustrator 16.0.0, SVG Export Plug-In . SVG Version: 6.00 Build 0)  -->
<!DOCTYPE svg PUBLIC "-//W3C//DTD SVG 1.1//EN" "http://www.w3.org/Graphics/SVG/1.1/DTD/svg11.dtd">
<svg version="1.1" id="Layer_1" xmlns="http://www.w3.org/2000/svg" xmlns:xlink="http://www.w3.org/1999/xlink" x="0px" y="0px"
	 width="480px" height="320px" viewBox="0 0 480 320" enable-background="new 0 0 480 320" xml:space="preserve">
<g>
	<g>
		<path fill="#FFFFFF" d="M369,118c0,57,0,114,0,171c-85.334,0-170.667,0-256,0c0-57.667,0-115.333,0-173
			c3.208,8.131,10.046,10.606,17.881,11.095c28.593,1.783,57.19,3.505,85.798,5.022c4.134,0.22,5.171,1.737,5.449,5.643
			c2.013,28.24,4.221,56.468,6.539,84.686c0.261,3.17-0.65,4.547-3.445,6.071c-8.3,4.528-16.459,9.357-24.383,14.516
			c-3.972,2.586-5.507,6.795-4.64,11.553c0.628,0.228,0.933,0.434,1.239,0.436c9.996,0.051,19.994,0.201,29.987,0.047
			c3.057-0.047,4.898,0.831,6.263,3.629c2.073,4.248,4.537,8.306,7.175,13.058c1.308-1.711,2.295-2.489,2.599-3.479
			c3.586-11.681,11.607-14.918,23.131-13.301c6.469,0.908,13.171,0.164,19.803,0.164c0.494-5.902-1.367-10.14-5.564-12.794
			c-7.717-4.88-15.611-9.504-23.641-13.849c-2.599-1.405-3.617-2.747-3.385-5.682c2.25-28.391,4.443-56.786,6.492-85.192
			c0.279-3.865,1.51-5.307,5.607-5.522c28.109-1.479,56.2-3.304,84.305-4.889C357.861,126.78,364.458,124.585,369,118z"/>
		<path fill-rule="evenodd" clip-rule="evenodd" fill="#FFFFFF" d="M113,113c0-26.635,0-53.27,0-79.952c85.333,0,170.666,0,256,0
			c0,26.349,0,52.65,0,78.952c-2.595-5.09-6.994-7.979-12.348-9.042c-6.504-1.292-13.113-2.121-19.707-2.879
			c-24.457-2.81-48.932-5.472-73.382-8.331c-1.541-0.181-3.933-1.303-4.247-2.447c-2.271-8.278-4.109-16.675-6.252-25.747
			c3.719,0,6.85,0.151,9.951-0.089c0.98-0.075,1.881-1.196,2.818-1.838c-0.861-0.717-1.623-1.771-2.609-2.063
			c-1.227-0.364-2.666-0.28-3.965-0.076c-7.358,1.153-13.361-0.748-17.396-7.389c-0.11-0.182-0.586-0.142-1.734-0.38
			c-3.084,9.103-10.946,7.979-18.463,7.741c-0.499-0.016-1.074-0.158-1.484,0.034c-1.172,0.55-2.277,1.242-3.409,1.878
			c1.205,0.729,2.354,1.941,3.628,2.091c2.743,0.322,5.551,0.099,8.969,0.099c-1.87,7.817-3.887,14.831-5.135,21.978
			c-0.802,4.594-2.854,6.104-7.41,6.587c-28.779,3.05-57.532,6.364-86.275,9.743C123.043,102.752,116.404,105.438,113,113z"/>
		<path fill-rule="evenodd" clip-rule="evenodd" d="M113,113c3.404-7.562,10.043-10.248,17.55-11.131
			c28.744-3.379,57.496-6.693,86.275-9.743c4.556-0.483,6.607-1.993,7.41-6.587c1.249-7.146,3.265-14.16,5.135-21.978
			c-3.418,0-6.226,0.224-8.969-0.099c-1.274-0.149-2.423-1.361-3.628-2.091c1.131-0.636,2.237-1.328,3.409-1.878
			c0.41-0.192,0.985-0.05,1.484-0.034c7.517,0.237,15.379,1.361,18.463-7.741c1.148,0.238,1.624,0.198,1.734,0.38
			c4.035,6.641,10.038,8.542,17.396,7.389c1.299-0.204,2.738-0.288,3.965,0.076c0.986,0.293,1.748,1.347,2.609,2.063
			c-0.938,0.642-1.838,1.763-2.818,1.838c-3.102,0.24-6.232,0.089-9.951,0.089c2.143,9.072,3.981,17.469,6.252,25.747
			c0.314,1.145,2.706,2.267,4.247,2.447c24.45,2.859,48.925,5.521,73.382,8.331c6.594,0.758,13.203,1.587,19.707,2.879
			c5.354,1.063,9.753,3.952,12.348,9.042c0,2,0,4,0,6c-4.542,6.585-11.139,8.78-18.789,9.211
			c-28.104,1.585-56.195,3.41-84.305,4.889c-4.098,0.216-5.328,1.657-5.607,5.522c-2.049,28.406-4.242,56.802-6.492,85.192
			c-0.232,2.935,0.786,4.276,3.385,5.682c8.029,4.345,15.924,8.969,23.641,13.849c4.197,2.654,6.059,6.892,5.564,12.794
			c-6.632,0-13.334,0.744-19.803-0.164c-11.523-1.617-19.545,1.62-23.131,13.301c-0.304,0.989-1.291,1.768-2.599,3.479
			c-2.638-4.752-5.103-8.81-7.175-13.058c-1.365-2.798-3.206-3.676-6.263-3.629c-9.993,0.154-19.991,0.004-29.987-0.047
			c-0.306-0.002-0.611-0.208-1.239-0.436c-0.867-4.758,0.668-8.967,4.64-11.553c7.924-5.158,16.083-9.987,24.383-14.516
			c2.794-1.524,3.706-2.901,3.445-6.071c-2.317-28.218-4.526-56.445-6.539-84.686c-0.278-3.905-1.315-5.423-5.449-5.643
			c-28.608-1.518-57.205-3.239-85.798-5.022c-7.834-0.488-14.673-2.964-17.881-11.095C113,115,113,114,113,113z"/>
	</g>
</g>
</svg>
