<?xml version="1.0" encoding="utf-8"?>
<!-- Generator: Adobe Illustrator 16.0.0, SVG Export Plug-In . SVG Version: 6.00 Build 0)  -->
<!DOCTYPE svg PUBLIC "-//W3C//DTD SVG 1.1//EN" "http://www.w3.org/Graphics/SVG/1.1/DTD/svg11.dtd">
<svg version="1.1" id="Layer_1" xmlns="http://www.w3.org/2000/svg" xmlns:xlink="http://www.w3.org/1999/xlink" x="0px" y="0px"
	 width="180.667px" height="210.792px" viewBox="0 0 180.667 210.792" enable-background="new 0 0 180.667 210.792"
	 xml:space="preserve">
<path fill="#FFCB27" d="M20.045,2.363c5.458,1.812,8.342,5.857,10.467,11.029c5.933,14.439,12.19,28.744,18.315,43.104
	c3.584,8.399,7.195,16.787,10.709,25.214c0.722,1.731,1.74,2.822,3.49,3.609c16.43,7.393,32.793,14.936,49.236,22.298
	c3.594,1.608,6.067,4.094,7.728,7.539c11.584,24.092,23.188,48.178,34.729,72.287c2.867,5.99,1.761,12.051-2.729,16.21
	c-4.232,3.923-10.675,4.94-15.623,1.687c-2.505-1.646-4.752-4.293-6.089-6.995c-8.354-16.878-16.379-33.916-24.636-50.841
	c-0.796-1.633-2.186-3.219-3.698-4.219c-19.312-12.744-38.689-25.394-58.078-38.025c-3.131-2.041-5.367-4.699-6.834-8.142
	C26.41,72.197,15.833,47.253,5.027,22.409C1.398,14.063,4.314,4.094,15.833,2C17.238,2.121,18.641,2.242,20.045,2.363z"/>
<path fill="#FFCB27" d="M155.625,150.037c-11.555-0.928-20.522-11.504-19.508-23.004c1.033-11.662,11.414-20.271,23.146-19.445
	c11.91,0.84,19.931,12.371,19.379,22.961C178.035,142.117,167.345,150.974,155.625,150.037z"/>
</svg>
