<?xml version="1.0" encoding="utf-8"?>
<!-- Generator: Adobe Illustrator 16.0.0, SVG Export Plug-In . SVG Version: 6.00 Build 0)  -->
<!DOCTYPE svg PUBLIC "-//W3C//DTD SVG 1.1//EN" "http://www.w3.org/Graphics/SVG/1.1/DTD/svg11.dtd">
<svg version="1.1" id="Layer_1" xmlns="http://www.w3.org/2000/svg" xmlns:xlink="http://www.w3.org/1999/xlink" x="0px" y="0px"
	 width="180.667px" height="210.792px" viewBox="152.5 45.833 180.667 210.792"
	 style="enable-background:new 152.5 45.833 180.667 210.792;" xml:space="preserve">
<path style="fill:#FFFFFF;" d="M443.313,291.817c-11.101,0-22.201,0-33.302,0c0-90.212,0-180.423,0-270.635
	c16.916,0,33.83,0,50.744,0c-11.295,3.078-13.342,13.26-9.008,21.263c12.903,23.822,25.584,47.766,38.313,71.68
	c1.757,3.303,4.214,5.76,7.509,7.523c20.402,10.917,40.796,21.852,61.134,32.887c1.596,0.866,3.114,2.327,4.049,3.885
	c9.681,16.152,19.143,32.438,28.916,48.533c1.565,2.577,4.032,5.023,6.668,6.447c5.209,2.813,11.541,1.247,15.422-3.024
	c4.113-4.529,4.695-10.664,1.324-16.385c-13.576-23.029-27.205-46.026-40.822-69.032c-1.945-3.289-4.625-5.552-8.346-6.846
	c-17.016-5.921-33.967-12.027-50.972-17.979c-1.812-0.635-2.919-1.633-3.787-3.297c-4.225-8.094-8.544-16.14-12.837-24.199
	c-7.338-13.779-14.805-27.493-21.957-41.369c-2.562-4.971-5.782-8.752-11.377-10.087c71.854,0,143.708,0,215.612,0
	c0,90.212,0,180.423,0,270.635c-23.581,0-47.181,0-70.779,0c1.683-0.438,3.364-0.871,5.045-1.314
	c6.707-1.771,11.854-6.045,16.797-10.596c4.027-3.708,8.497-6.027,14.153-6.139c4.557-0.09,7.729-3.979,7.542-8.518
	c-0.176-4.289-3.718-8.045-8.127-7.652c-4.585,0.406-9.459,0.926-13.532,2.834c-4.759,2.23-9.02,5.744-13.086,9.188
	c-9.062,7.672-17.521,7.85-26.434,0.129c-1.93-1.674-3.834-3.38-5.842-4.955c-12.396-9.733-29.365-9.816-41.821-0.182
	c-2.365,1.83-4.56,3.882-6.844,5.816c-7.983,6.768-16.935,6.707-24.787-0.148c-1.657-1.447-3.389-2.816-5-4.314
	c-11.599-10.793-32.514-12.172-45.998,1.064c-4.74,4.654-10.039,8.653-17.475,8.568c-4.389-0.051-7.337,4.148-7.084,8.599
	C437.551,288.16,440.154,290.191,443.313,291.817z M605.068,257.874c3.528-0.658,7.104-1.132,10.576-2.014
	c6.833-1.736,11.776-6.51,16.839-11.012c3.758-3.342,7.953-5.293,13.094-5.381c4.57-0.078,7.943-3.894,7.803-8.308
	c-0.143-4.491-3.596-7.981-8.176-8c-7.242-0.03-13.933,1.879-19.729,6.339c-3.555,2.731-6.844,5.813-10.46,8.455
	c-5.815,4.249-13.61,4.244-19.472,0.025c-2.99-2.151-5.717-4.67-8.565-7.018c-12.953-10.666-31.124-10.474-43.87,0.433
	c-2.74,2.345-5.44,4.762-8.373,6.849c-5.453,3.881-13.367,3.858-18.846-0.066c-2.996-2.145-5.722-4.67-8.562-7.031
	c-9.483-7.885-20.217-9.655-31.948-6.538c-6.346,1.687-11.239,5.702-15.912,10.028c-4.195,3.885-8.775,6.529-14.786,6.541
	c-4.247,0.008-7.46,3.939-7.394,8.141c0.069,4.409,3.41,8.334,7.764,7.998c4.752-0.366,9.817-0.889,14.033-2.865
	c4.908-2.303,8.967-6.369,13.543-9.451c2.797-1.886,5.694-3.978,8.86-4.89c6.114-1.765,11.476,0.376,16.333,4.415
	c4.227,3.513,8.439,7.386,13.323,9.693c11.392,5.385,22.772,4.441,33.319-2.686c3.192-2.156,5.985-4.904,8.972-7.37
	c7.604-6.28,16.521-6.204,23.964,0.198c1.802,1.551,3.61,3.094,5.401,4.654C589.163,254.556,596.528,257.45,605.068,257.874z
	 M612.766,156.645c11.758-0.073,21.645-9.817,21.253-21.395c-0.36-10.601-9.344-21.396-21.281-21.209
	c-11.759,0.186-21.359,9.655-21.386,21.364C591.327,146.948,601.173,156.715,612.766,156.645z"/>
<path d="M171.846,50.074c5.458,1.812,8.342,5.857,10.467,11.029c5.932,14.439,12.191,28.744,18.316,43.104
	c3.583,8.399,7.195,16.786,10.708,25.214c0.722,1.732,1.74,2.822,3.49,3.61c16.43,7.392,32.794,14.935,49.237,22.297
	c3.594,1.609,6.068,4.094,7.726,7.538c11.585,24.093,23.188,48.178,34.73,72.289c2.868,5.99,1.761,12.05-2.729,16.21
	c-4.232,3.922-10.675,4.94-15.624,1.686c-2.503-1.645-4.751-4.294-6.087-6.996c-8.354-16.877-16.38-33.916-24.636-50.841
	c-0.796-1.633-2.184-3.219-3.698-4.219c-19.313-12.744-38.69-25.392-58.078-38.024c-3.131-2.041-5.368-4.699-6.834-8.141
	c-10.624-24.922-21.199-49.866-32.006-74.71c-3.629-8.346-0.714-18.315,10.806-20.409C169.038,49.832,170.442,49.953,171.846,50.074
	z"/>
<path d="M-157.216,291.004c-3.158-1.627-5.763-3.658-5.987-7.621c-0.253-4.447,2.696-8.648,7.084-8.598
	c7.436,0.084,12.734-3.914,17.475-8.568c13.483-13.236,34.398-11.857,45.998-1.064c1.611,1.498,3.343,2.867,5,4.314
	c7.853,6.855,16.804,6.916,24.787,0.148c2.285-1.936,4.479-3.986,6.844-5.816c12.456-9.637,29.427-9.553,41.821,0.182
	c2.008,1.574,3.912,3.281,5.842,4.955c8.912,7.721,17.371,7.543,26.434-0.129c4.066-3.441,8.327-6.955,13.086-9.188
	c4.073-1.908,8.947-2.428,13.532-2.834c4.409-0.393,7.951,3.363,8.127,7.652c0.187,4.537-2.985,8.428-7.542,8.518
	c-5.656,0.111-10.126,2.43-14.152,6.139c-4.941,4.551-10.091,8.822-16.798,10.596c-1.681,0.443-3.362,0.877-5.045,1.314
	c-2.995,0-5.989,0-8.985,0c-1.771-0.453-3.545-0.896-5.313-1.363c-7.083-1.861-12.287-6.652-17.583-11.299
	c-8.004-7.021-16.723-7.098-24.938-0.268c-3.168,2.633-6.125,5.688-9.679,7.639c-4.154,2.283-8.854,3.572-13.316,5.291
	c-2.996,0-5.991,0-8.986,0c-1.773-0.445-3.553-0.879-5.322-1.342c-7.072-1.848-12.293-6.59-17.566-11.252
	c-8.135-7.188-17.098-7.199-25.354-0.109c-2.93,2.518-5.904,4.992-8.984,7.316c-4.168,3.146-9.174,4.24-14.133,5.387
	C-152.989,291.004-155.102,291.004-157.216,291.004z"/>
<path style="fill:#FFFFFF;" d="M449.655,291.817c4.959-1.146,9.966-2.24,14.132-5.387c3.081-2.324,6.055-4.801,8.985-7.316
	c8.256-7.09,17.219-7.078,25.353,0.109c5.273,4.662,10.496,9.404,17.567,11.253c1.771,0.463,3.548,0.896,5.322,1.341
	C497.229,291.817,473.442,291.817,449.655,291.817z"/>
<path style="fill:#FFFFFF;" d="M530.002,291.817c4.463-1.719,9.162-3.007,13.316-5.29c3.554-1.952,6.511-5.007,9.679-7.64
	c8.215-6.83,16.935-6.754,24.938,0.269c5.296,4.646,10.5,9.437,17.583,11.298c1.769,0.467,3.542,0.91,5.313,1.363
	C577.22,291.817,553.611,291.817,530.002,291.817z"/>
<path d="M0.1,240.627c-8.54-0.424-15.905-3.318-22.267-8.857c-1.793-1.562-3.602-3.104-5.402-4.654
	c-7.443-6.402-16.361-6.479-23.964-0.199c-2.985,2.467-5.778,5.215-8.971,7.371c-10.549,7.127-21.929,8.068-33.32,2.686
	c-4.883-2.309-9.098-6.182-13.323-9.693c-4.858-4.039-10.219-6.18-16.333-4.416c-3.166,0.912-6.062,3.004-8.861,4.891
	c-4.574,3.082-8.634,7.148-13.543,9.451c-4.215,1.977-9.281,2.498-14.033,2.865c-4.353,0.336-7.692-3.59-7.764-7.998
	c-0.066-4.201,3.146-8.133,7.395-8.141c6.011-0.012,10.591-2.656,14.787-6.541c4.671-4.326,9.565-8.344,15.91-10.029
	c11.732-3.117,22.467-1.346,31.949,6.539c2.84,2.361,5.565,4.887,8.562,7.031c5.479,3.926,13.394,3.947,18.846,0.066
	c2.932-2.088,5.632-4.504,8.373-6.85c12.746-10.904,30.917-11.098,43.87-0.432c2.85,2.348,5.575,4.865,8.564,7.018
	c5.861,4.219,13.656,4.223,19.473-0.025c3.615-2.643,6.906-5.725,10.46-8.455c5.796-4.459,12.485-6.369,19.729-6.34
	c4.579,0.02,8.032,3.51,8.176,8c0.141,4.414-3.232,8.23-7.804,8.309c-5.141,0.088-9.336,2.039-13.094,5.381
	c-5.062,4.502-10.006,9.275-16.839,11.012C7.205,239.494,3.628,239.969,0.1,240.627z"/>
<path d="M307.426,197.747c-11.556-0.927-20.524-11.503-19.508-23.003c1.032-11.663,11.414-20.271,23.145-19.445
	c11.91,0.839,19.931,12.37,19.379,22.961C329.835,189.827,319.146,198.685,307.426,197.747z"/>
</svg>
