<?xml version="1.0" encoding="utf-8"?>
<!-- Generator: Adobe Illustrator 16.0.0, SVG Export Plug-In . SVG Version: 6.00 Build 0)  -->
<!DOCTYPE svg PUBLIC "-//W3C//DTD SVG 1.1//EN" "http://www.w3.org/Graphics/SVG/1.1/DTD/svg11.dtd">
<svg version="1.1" id="Layer_1" xmlns="http://www.w3.org/2000/svg" xmlns:xlink="http://www.w3.org/1999/xlink" x="0px" y="0px"
	 width="480px" height="329.333px" viewBox="0 0 480 329.333" enable-background="new 0 0 480 329.333" xml:space="preserve">
<path fill="#FFCB27" d="M357.576,153.34c-2.332-7.405-2.748-15.396-10.76-20.162c-5.679,3.609-12.121,7.662-18.521,11.784
	c-35.393,22.792-70.754,45.63-106.188,68.357c-2.783,1.785-4.122,3.508-3.809,7.096c0.506,5.795-1.892,10.898-6.476,14.424
	c-2.694,2.072-2.829,3.92-1.798,6.759c1.289,3.549,2.165,7.247,3.286,11.11c-2.441,0-4.59,0-7.444,0
	c-1.003-3.076-2.362-6.399-3.127-9.858c-0.622-2.813-1.963-3.813-4.755-3.892c-5.35-0.146-9.716-2.703-12.581-7.041
	c-2.084-3.151-4.309-3.61-7.871-2.274c0.417,27.412-8.555,51.146-29.113,69.849c-14.775,13.439-32.418,20.693-52.231,22.275
	c-39.54,3.158-77.146-22.482-89.308-60.577c-12.095-37.885,3.379-79.56,36.833-100.534c33.469-20.986,76.175-15.324,100.763,6.234
	c-4.727,3.994-9.291,8.123-14.208,11.777c-1.019,0.758-3.694,0.297-5.029-0.533c-35.131-21.811-81.568-6.584-96.884,31.865
	c-15.711,39.441,8.903,82.955,50.764,90.125c36.877,6.318,71.469-19.666,76.501-55.375c0.569-4.043,0.765-8.139,1.183-12.744
	c-9.099,1.076-17.305,1.994-25.496,3.033c-9.561,1.213-19.117,2.465-28.649,3.877c-1.434,0.215-3.007,1.119-4.031,2.174
	c-3.922,4.043-9.02,5.25-13.515,2.908c-4.227-2.201-6.476-7.088-5.438-11.817c1.057-4.816,5.431-7.812,11.116-8.275
	c2.099-0.17,4.47-1.112,6.087-2.463c25.206-21.013,50.324-42.132,75.385-63.317c1.052-0.889,2.147-2.846,1.876-3.987
	c-1.18-4.964-2.857-9.81-4.513-15.22c-7.439,3.645-14.983,5.316-22.831,3.957c-3.707-0.643-7.422-1.848-10.799-3.486
	c-1.373-0.667-2.639-3.223-2.523-4.816c0.114-1.567,1.742-3.862,3.213-4.37c19.407-6.706,38.902-13.156,58.383-19.648
	c0.936-0.312,2.147-0.837,2.883-0.502c1.887,0.859,3.579,2.147,5.348,3.265c-1.243,1.537-2.212,3.976-3.779,4.452
	c-6.479,1.974-12.362,4.714-17.298,9.483c-2.412,2.33-3.372,4.462-2.032,7.865c1.745,4.429,2.832,9.117,4.365,14.24
	c51.611-15.574,102.797-31.02,154.29-46.558c-1.446-4.517-2.646-8.467-3.981-12.37c-0.942-2.752-0.226-4.464,2.658-5.239
	c1.924-0.517,3.806-1.181,5.707-1.778c8.939-2.812,11.642-7.679,9.107-16.57c-4.223-14.837-8.479-29.664-12.729-44.494
	c-1.377-4.805-7.67-9.412-12.465-9.084c-3.117,0.214-6.086-0.654-6.812-3.742c-0.533-2.26-0.136-5.362,1.106-7.268
	c1.777-2.725,4.867-2.603,8.094-1.59c2.25,0.705,5.076,0.764,7.312,0.059c3.908-1.234,7.253-0.911,10.175,1.837
	c3.164,2.977,3.084,6.647,2.065,10.625c-0.606,2.38-1.14,5.138-0.528,7.411c4.512,16.816,9.312,33.557,14.042,50.314
	c0.628,2.226,1.152,4.427,4.382,4.403c0.806-0.006,2.194,1.896,2.342,3.048c0.798,6.216-1.125,8.876-7.086,10.69
	c-2.818,0.857-5.586,1.89-8.76,2.974c3.7,11.864,7.385,23.35,10.788,34.918c0.57,1.942-0.145,4.244-0.135,6.376
	c0.008,1.27,0.074,2.596,0.442,3.793c8.582,27.902,17.172,55.802,25.925,83.653c0.504,1.604,2.166,3.2,3.702,4.069
	c5.535,3.138,7.818,8.381,5.619,13.777c-2.196,5.396-8.104,7.975-13.674,5.969c-4.977-1.789-7.574-7.41-6.436-13.139
	c0.426-2.143,0.535-4.6-0.074-6.658c-4.715-15.9-9.641-31.74-14.518-47.593c-0.332-1.073-0.818-2.101-1.391-3.539
	c-12.062,5.085-21.396,13.06-28.632,23.521c-27.453,39.693-3.819,95.061,43.875,102.897c37.019,6.083,70.989-18.877,76.731-55.719
	c5.712-36.653-21.342-71.888-57.77-75.601c-0.826-0.084-1.688-0.551-2.451-0.406c-8.078,1.545-10.043-3.59-11.277-9.919
	c-0.653-3.362-1.935-6.603-2.944-9.94c31.726-5.586,77.945,13.885,92.16,60.71c13.427,44.228-9.934,91.418-52.854,107.177
	c-43.505,15.975-91.469-4.209-110.266-46.156C291.242,227.683,308.766,174.288,357.576,153.34z M187.73,160.082
	c3.231,10.709,6.407,20.807,9.3,30.984c1.755,6.172,2.771,12.164,11.076,13.571c3.072,0.52,5.147,1.232,7.941-0.579
	c28.76-18.642,57.598-37.162,86.412-55.718c13.97-8.997,27.938-17.995,42.145-27.144c-0.932-2.659-1.766-5.038-2.684-7.659
	C290.436,129.079,239.504,144.453,187.73,160.082z M109.752,225.399c0.18,0.338,0.359,0.678,0.54,1.016
	c21.078-2.604,42.144-5.312,63.242-7.74c5.219-0.602,9.741-1.426,10.84-7.59c0.081-0.449,0.433-0.979,0.817-1.229
	c5.018-3.236,3.81-7.445,2.297-12.061c-3.186-9.717-6.031-19.545-9.203-29.94c-6.335,5.317-12.116,10.169-17.369,14.58
	c4.224,8.104,8.044,15.438,12.268,23.542c-7.808,1.035-14.655,1.943-21.451,2.844c-2.412-4.191-4.697-8.167-7.25-12.605
	C132.542,206.25,121.146,215.825,109.752,225.399z"/>
<path fill="#FFFFFF" d="M-433.403,254.172c11.394-9.573,22.789-19.147,34.731-29.185c2.552,4.438,4.838,8.413,7.25,12.606
	c6.796-0.9,13.644-1.811,21.451-2.846c-4.224-8.104-8.044-15.438-12.268-23.543c5.253-4.408,11.034-9.262,17.369-14.578
	c3.172,10.396,6.017,20.226,9.203,29.939c1.513,4.613,2.721,8.823-2.297,12.061c-0.384,0.248-0.736,0.779-0.817,1.229
	c-1.099,6.164-5.622,6.99-10.84,7.592c-21.099,2.428-42.164,5.137-63.242,7.738C-433.044,254.851-433.223,254.51-433.403,254.172z"
	/>
</svg>
