<?xml version="1.0" encoding="utf-8"?>
<!-- Generator: Adobe Illustrator 16.0.0, SVG Export Plug-In . SVG Version: 6.00 Build 0)  -->
<!DOCTYPE svg PUBLIC "-//W3C//DTD SVG 1.1//EN" "http://www.w3.org/Graphics/SVG/1.1/DTD/svg11.dtd">
<svg version="1.1" id="Layer_1" xmlns="http://www.w3.org/2000/svg" xmlns:xlink="http://www.w3.org/1999/xlink" x="0px" y="0px"
	 width="480px" height="320px" viewBox="0 0 480 320" enable-background="new 0 0 480 320" xml:space="preserve">
<g>
	<path fill="#FFFFFF" d="M-14.971,417.936c0-170.918,0-341.836,0-512.845c170.847,0,341.723,0,512.753,0
		c0,170.888,0,341.866,0,512.845C326.931,417.936,155.994,417.936-14.971,417.936z M358.055,155.349
		c-48.811,20.948-66.334,74.342-47.271,116.879c18.797,41.947,66.761,62.13,110.266,46.157
		c42.921-15.759,66.279-62.951,52.854-107.177c-14.215-46.825-60.436-66.296-92.161-60.71c1.012,3.34,2.291,6.58,2.946,9.941
		c1.234,6.329,3.198,11.464,11.277,9.92c0.762-0.146,1.625,0.322,2.451,0.406c36.428,3.713,63.48,38.945,57.769,75.6
		c-5.742,36.842-39.715,61.8-76.732,55.718c-47.694-7.838-71.328-63.204-43.875-102.896c7.236-10.464,16.571-18.438,28.632-23.522
		c0.57,1.44,1.059,2.465,1.39,3.538c4.878,15.852,9.802,31.692,14.517,47.594c0.61,2.058,0.501,4.515,0.075,6.657
		c-1.141,5.728,1.458,11.35,6.435,13.14c5.571,2.005,11.477-0.573,13.674-5.969c2.199-5.397-0.085-10.642-5.62-13.778
		c-1.536-0.87-3.198-2.464-3.702-4.071c-8.753-27.85-17.342-55.749-25.924-83.652c-0.369-1.199-0.437-2.525-0.443-3.793
		c-0.01-2.133,0.705-4.435,0.134-6.377c-3.404-11.569-7.088-23.055-10.788-34.918c3.173-1.084,5.939-2.117,8.759-2.974
		c5.961-1.813,7.884-4.474,7.087-10.69c-0.147-1.15-1.537-3.054-2.342-3.048c-3.229,0.024-3.754-2.177-4.382-4.403
		c-4.731-16.757-9.53-33.498-14.042-50.314c-0.609-2.273-0.079-5.031,0.529-7.411c1.017-3.978,1.098-7.648-2.067-10.625
		c-2.921-2.749-6.265-3.072-10.174-1.837c-2.234,0.706-5.061,0.646-7.31-0.059c-3.227-1.013-6.315-1.135-8.094,1.59
		c-1.242,1.905-1.641,5.007-1.108,7.268c0.726,3.088,3.693,3.956,6.811,3.742c4.795-0.328,11.089,4.279,12.465,9.084
		c4.248,14.83,8.506,29.656,12.729,44.494c2.532,8.891-0.168,13.758-9.109,16.57c-1.901,0.598-3.783,1.262-5.706,1.778
		c-2.884,0.775-3.603,2.487-2.659,5.239c1.338,3.903,2.536,7.853,3.982,12.37c-51.492,15.538-102.678,30.983-154.29,46.557
		c-1.533-5.123-2.62-9.811-4.365-14.239c-1.34-3.403-0.38-5.536,2.032-7.865c4.936-4.769,10.819-7.51,17.298-9.483
		c1.566-0.477,2.536-2.916,3.779-4.452c-1.77-1.117-3.461-2.405-5.348-3.265c-0.736-0.335-1.948,0.19-2.883,0.502
		c-19.481,6.492-38.976,12.942-58.383,19.648c-1.471,0.508-3.099,2.801-3.213,4.37c-0.116,1.593,1.15,4.149,2.523,4.816
		c3.376,1.639,7.092,2.844,10.799,3.487c7.848,1.359,15.392-0.312,22.831-3.957c1.656,5.409,3.333,10.254,4.513,15.219
		c0.271,1.141-0.824,3.098-1.876,3.988c-25.061,21.186-50.179,42.306-75.385,63.317c-1.617,1.349-3.988,2.293-6.087,2.463
		c-5.685,0.463-10.059,3.458-11.116,8.275c-1.037,4.73,1.211,9.617,5.438,11.819c4.495,2.341,9.593,1.134,13.515-2.909
		c1.024-1.055,2.597-1.96,4.031-2.173c9.532-1.413,19.088-2.665,28.649-3.878c8.191-1.039,16.397-1.956,25.496-3.033
		c-0.418,4.606-0.613,8.702-1.183,12.745c-5.032,35.709-39.624,61.692-76.501,55.375c-41.861-7.17-66.475-50.684-50.764-90.126
		c15.316-38.45,61.753-53.676,96.884-31.865c1.335,0.829,4.01,1.29,5.029,0.533c4.917-3.654,9.48-7.784,14.208-11.777
		c-24.588-21.56-67.294-27.222-100.763-6.236c-33.454,20.977-48.928,62.65-36.833,100.535
		c12.161,38.094,49.768,63.736,89.308,60.578c19.812-1.583,37.456-8.837,52.231-22.277c20.558-18.703,29.53-42.437,29.113-69.849
		c3.562-1.335,5.787-0.876,7.871,2.276c2.865,4.337,7.231,6.896,12.581,7.041c2.792,0.075,4.133,1.076,4.755,3.891
		c0.765,3.458,2.124,6.782,3.127,9.86c2.854,0,5.003,0,7.444,0c-1.121-3.864-1.998-7.563-3.286-11.113
		c-1.03-2.838-0.896-4.684,1.798-6.757c4.584-3.525,6.981-8.629,6.476-14.424c-0.313-3.587,1.025-5.311,3.809-7.096
		c35.434-22.727,70.797-45.563,106.189-68.357c6.399-4.122,12.843-8.174,18.521-11.784
		C355.306,139.954,355.722,147.944,358.055,155.349z"/>
	<path fill-rule="evenodd" clip-rule="evenodd" d="M358.055,155.349c-2.333-7.405-2.749-15.396-10.76-20.162
		c-5.678,3.61-12.121,7.662-18.521,11.784c-35.392,22.793-70.755,45.63-106.189,68.357c-2.783,1.785-4.122,3.509-3.809,7.096
		c0.506,5.795-1.892,10.898-6.476,14.424c-2.694,2.073-2.829,3.919-1.798,6.757c1.289,3.55,2.165,7.249,3.286,11.113
		c-2.441,0-4.59,0-7.444,0c-1.003-3.078-2.362-6.402-3.127-9.86c-0.622-2.814-1.963-3.815-4.755-3.891
		c-5.35-0.146-9.716-2.704-12.581-7.041c-2.084-3.152-4.309-3.611-7.871-2.276c0.417,27.412-8.555,51.146-29.113,69.849
		c-14.775,13.44-32.418,20.694-52.231,22.277c-39.54,3.158-77.146-22.484-89.308-60.578c-12.095-37.885,3.379-79.559,36.833-100.535
		c33.469-20.986,76.175-15.324,100.763,6.236c-4.727,3.993-9.291,8.123-14.208,11.777c-1.019,0.757-3.694,0.296-5.029-0.533
		c-35.131-21.811-81.568-6.585-96.884,31.865c-15.711,39.442,8.903,82.956,50.764,90.126c36.877,6.317,71.469-19.666,76.501-55.375
		c0.569-4.043,0.765-8.139,1.183-12.745c-9.099,1.077-17.305,1.994-25.496,3.033c-9.561,1.213-19.117,2.465-28.649,3.878
		c-1.434,0.213-3.007,1.118-4.031,2.173c-3.922,4.043-9.02,5.25-13.515,2.909c-4.227-2.202-6.476-7.089-5.438-11.819
		c1.057-4.817,5.431-7.812,11.116-8.275c2.099-0.17,4.47-1.114,6.087-2.463c25.206-21.012,50.324-42.132,75.385-63.317
		c1.052-0.89,2.147-2.847,1.876-3.988c-1.18-4.964-2.857-9.81-4.513-15.219c-7.439,3.644-14.983,5.316-22.831,3.957
		c-3.707-0.643-7.422-1.848-10.799-3.487c-1.373-0.667-2.639-3.223-2.523-4.816c0.114-1.568,1.742-3.862,3.213-4.37
		c19.407-6.706,38.902-13.156,58.383-19.648c0.936-0.312,2.147-0.837,2.883-0.502c1.887,0.859,3.579,2.147,5.348,3.265
		c-1.243,1.537-2.212,3.976-3.779,4.452c-6.479,1.974-12.362,4.714-17.298,9.483c-2.412,2.33-3.372,4.462-2.032,7.865
		c1.745,4.428,2.832,9.116,4.365,14.239c51.611-15.573,102.797-31.019,154.29-46.557c-1.446-4.517-2.645-8.467-3.982-12.37
		c-0.943-2.752-0.225-4.464,2.659-5.239c1.923-0.517,3.805-1.181,5.706-1.778c8.941-2.812,11.642-7.679,9.109-16.57
		c-4.223-14.837-8.48-29.664-12.729-44.494c-1.376-4.805-7.67-9.412-12.465-9.084c-3.117,0.214-6.085-0.654-6.811-3.742
		c-0.532-2.26-0.134-5.362,1.108-7.268c1.778-2.725,4.867-2.603,8.094-1.59c2.249,0.705,5.075,0.764,7.31,0.059
		c3.909-1.234,7.253-0.911,10.174,1.837c3.165,2.977,3.084,6.647,2.067,10.625c-0.608,2.38-1.139,5.138-0.529,7.411
		c4.512,16.816,9.311,33.557,14.042,50.314c0.628,2.226,1.153,4.427,4.382,4.403c0.805-0.006,2.194,1.897,2.342,3.048
		c0.797,6.216-1.126,8.876-7.087,10.69c-2.819,0.857-5.586,1.89-8.759,2.974c3.7,11.864,7.384,23.35,10.788,34.918
		c0.571,1.942-0.144,4.244-0.134,6.377c0.007,1.269,0.074,2.595,0.443,3.793c8.582,27.903,17.171,55.802,25.924,83.652
		c0.504,1.607,2.166,3.201,3.702,4.071c5.535,3.137,7.819,8.381,5.62,13.778c-2.197,5.396-8.103,7.974-13.674,5.969
		c-4.977-1.79-7.575-7.412-6.435-13.14c0.426-2.143,0.535-4.6-0.075-6.657c-4.715-15.901-9.639-31.742-14.517-47.594
		c-0.331-1.073-0.819-2.098-1.39-3.538c-12.061,5.084-21.396,13.059-28.632,23.522c-27.453,39.692-3.819,95.059,43.875,102.896
		c37.018,6.082,70.99-18.876,76.732-55.718c5.712-36.654-21.341-71.887-57.769-75.6c-0.826-0.084-1.689-0.552-2.451-0.406
		c-8.079,1.544-10.043-3.591-11.277-9.92c-0.655-3.362-1.935-6.602-2.946-9.941c31.726-5.586,77.946,13.885,92.161,60.71
		c13.426,44.226-9.933,91.418-52.854,107.177c-43.505,15.973-91.469-4.21-110.266-46.157
		C291.721,229.691,309.244,176.297,358.055,155.349z M188.209,162.092c3.231,10.708,6.407,20.806,9.3,30.983
		c1.755,6.173,2.771,12.165,11.076,13.571c3.072,0.52,5.147,1.234,7.941-0.577c28.759-18.642,57.597-37.163,86.411-55.719
		c13.97-8.997,27.938-17.995,42.144-27.144c-0.93-2.659-1.764-5.038-2.682-7.659C290.914,131.088,239.983,146.462,188.209,162.092z
		 M110.231,227.409c0.18,0.338,0.359,0.677,0.54,1.015c21.078-2.604,42.144-5.312,63.242-7.74c5.219-0.601,9.741-1.426,10.84-7.59
		c0.081-0.45,0.433-0.98,0.817-1.229c5.018-3.235,3.81-7.446,2.297-12.059c-3.186-9.717-6.031-19.545-9.203-29.941
		c-6.335,5.318-12.116,10.169-17.369,14.58c4.224,8.104,8.044,15.437,12.268,23.541c-7.808,1.035-14.655,1.944-21.451,2.845
		c-2.412-4.193-4.697-8.167-7.25-12.606C133.02,208.26,121.625,217.835,110.231,227.409z"/>
	<path fill-rule="evenodd" clip-rule="evenodd" fill="#FFFFFF" d="M188.209,162.092c51.774-15.629,102.705-31.003,154.191-46.544
		c0.918,2.621,1.752,5,2.682,7.659c-14.205,9.149-28.174,18.147-42.144,27.144c-28.814,18.556-57.652,37.077-86.411,55.719
		c-2.794,1.812-4.87,1.097-7.941,0.577c-8.305-1.406-9.321-7.398-11.076-13.571C194.617,182.897,191.44,172.8,188.209,162.092z"/>
	<path fill-rule="evenodd" clip-rule="evenodd" fill="#FFFFFF" d="M110.231,227.409c11.394-9.574,22.789-19.149,34.731-29.185
		c2.552,4.439,4.838,8.413,7.25,12.606c6.796-0.9,13.644-1.81,21.451-2.845c-4.224-8.104-8.044-15.437-12.268-23.541
		c5.253-4.411,11.034-9.262,17.369-14.58c3.172,10.396,6.017,20.225,9.203,29.941c1.513,4.612,2.721,8.823-2.297,12.059
		c-0.384,0.248-0.736,0.778-0.817,1.229c-1.099,6.164-5.622,6.989-10.84,7.59c-21.099,2.428-42.164,5.137-63.242,7.74
		C110.59,228.086,110.411,227.747,110.231,227.409z"/>
</g>
</svg>
