<?xml version="1.0" encoding="utf-8"?>
<!-- Generator: Adobe Illustrator 16.0.0, SVG Export Plug-In . SVG Version: 6.00 Build 0)  -->
<!DOCTYPE svg PUBLIC "-//W3C//DTD SVG 1.1//EN" "http://www.w3.org/Graphics/SVG/1.1/DTD/svg11.dtd">
<svg version="1.1" id="Layer_1" xmlns="http://www.w3.org/2000/svg" xmlns:xlink="http://www.w3.org/1999/xlink" x="0px" y="0px"
	 width="132.935px" height="91.5px" viewBox="139.5 89.5 132.935 91.5" style="enable-background:new 139.5 89.5 132.935 91.5;"
	 xml:space="preserve">
<g>
	<g>
		<path style="fill:#FFFFFF;" d="M140.878,201.453c0-43.903,0-87.807,0-131.735c43.883,0,87.775,0,131.71,0
			c0,43.895,0,87.815,0,131.735C228.709,201.453,184.799,201.453,140.878,201.453z M166.518,161.5
			c0.264-0.104,0.432-0.127,0.537-0.221c0.264-0.238,0.5-0.506,0.747-0.762c-0.295-0.271-0.553-0.702-0.894-0.783
			c-1.249-0.296-2.598-0.401-3.31-1.662c-0.839-1.488-2.347-1.983-3.731-2.64c-1.049-0.498-1.979-0.157-2.569,0.852
			c-0.846,1.447-0.9,2.967-0.14,4.469c0.469,0.926,1.02,1.812,1.523,2.721c0.888,1.602,1.902,3.16,1.581,5.145
			c-0.049,0.301,0.036,0.643,0.123,0.945c0.439,1.553,2.402,2.449,3.631,1.619c0.651-0.439,1.063-1.311,2.081-0.98
			c0.068,0.023,0.266-0.176,0.317-0.305c0.364-0.926,0.89-0.473,1.278-0.096c0.575,0.559,1.039,1.176,1.539-0.061
			c0.066-0.164,0.476-0.268,0.726-0.266c0.757,0.008,1.529-0.002,2.268,0.141c3.178,0.609,6.366,1.188,9.513,1.938
			c4.121,0.979,8.14,0.865,12.168-0.479c1.888-0.631,3.852-1.049,5.798-1.486c1.312-0.295,1.401-0.156,1.433,1.229
			c0.022,0.998,0.061,1.998,0.135,2.994c0.158,2.1,1.193,3.654,2.918,4.848c0.728,0.504,1.289,0.551,2.053,0.119
			c2.423-1.369,5.053-2.01,7.831-1.859c3.154,0.17,6.301,0.482,9.453,0.635c1.418,0.066,3.033,0.293,4.238-0.256
			c4.039-1.84,7.928-3.98,10.941-7.408c1.21-1.375,2.613-2.543,4.431-3.182c6.759-2.371,11.945-6.667,15.485-12.911
			c1.396-2.461,2.734-4.923,3.554-7.682c0.461-1.553,1.013-3.027,0.797-4.653c-0.233-1.765-0.122-3.616-1.245-5.182
			c-0.168-0.235-0.168-0.604-0.209-0.917c-0.623-4.755-1.261-9.51-1.846-14.27c-0.234-1.908-0.891-3.641-1.893-5.257
			c-0.33-0.534-0.713-1.035-1.168-1.688c0.494-0.142,0.854-0.299,1.229-0.343c1.429-0.167,2.856-0.372,4.291-0.422
			c1.533-0.054,2.854-0.509,4.14-1.357c1.355-0.894,2.825-1.627,4.291-2.337c0.539-0.261,1.207-0.255,1.868-0.381
			c-0.104-0.268-0.146-0.42-0.221-0.558c-0.205-0.389-0.408-0.78-0.64-1.154c-2.42-3.932-5.745-6.949-9.627-9.369
			c-6.146-3.833-12.95-5.822-20.041-6.917c-9.088-1.404-18.178-1.162-27.238,0.28c-16.056,2.554-30.854,8.249-43.997,17.932
			c-12.703,9.359-22.019,21.285-27.035,36.361c-1.025,3.082-1.748,6.265-2.667,9.609c9.08-2.523,17.616-5.479,25.475-10.325
			c0.288,1.175,0.349,2.231,0.799,3.085c0.941,1.788,1.142,3.723,1.487,5.641c0.134,0.746,0.293,1.492,0.531,2.211
			c0.732,2.211,2.084,2.887,4.334,2.175c0.565-0.179,1.109-0.445,1.636-0.724c1.521-0.799,2.975-1.75,4.552-2.41
			c2.131-0.891,4.351-1.572,6.538-2.328c1.126-0.391,2.241-0.857,3.401-1.098c3.627-0.748,6.941-2.131,9.833-4.479
			c2.533-2.057,2.519-2.021,4.968,0.245c0.687,0.636,0.887,1.256,0.592,2.112c-0.558,1.625-1.002,3.293-1.654,4.877
			c-0.484,1.178-0.414,2.084,0.645,2.826c0.42,0.295,0.875,0.541,1.314,0.81c-2.027,0.731-3.691,1.104-5.336,1.544
			c-1.371,0.365-2.811,0.632-4.059,1.262c-2.442,1.234-4.959,1.949-7.693,2.002c-4.756,0.096-9.511,0.27-14.267,0.359
			c-1.395,0.025-2.799-0.051-4.187-0.195C168.635,162.957,167.514,162.463,166.518,161.5z"/>
		<path d="M166.518,161.5c0.996,0.963,2.117,1.457,3.358,1.588c1.388,0.145,2.792,0.221,4.187,0.193
			c4.756-0.09,9.51-0.264,14.267-0.357c2.734-0.055,5.251-0.77,7.693-2.004c1.248-0.629,2.688-0.895,4.059-1.261
			c1.646-0.44,3.309-0.812,5.336-1.544c-0.439-0.27-0.895-0.516-1.314-0.811c-1.059-0.742-1.129-1.647-0.645-2.824
			c0.652-1.584,1.097-3.254,1.654-4.877c0.295-0.857,0.095-1.479-0.592-2.113c-2.449-2.268-2.435-2.303-4.968-0.245
			c-2.892,2.349-6.206,3.729-9.833,4.479c-1.16,0.238-2.275,0.707-3.401,1.097c-2.187,0.756-4.407,1.438-6.538,2.328
			c-1.578,0.659-3.032,1.61-4.552,2.411c-0.527,0.276-1.071,0.543-1.636,0.723c-2.25,0.712-3.603,0.036-4.334-2.175
			c-0.237-0.718-0.397-1.466-0.531-2.21c-0.345-1.92-0.546-3.854-1.487-5.641c-0.45-0.854-0.511-1.912-0.799-3.086
			c-7.859,4.846-16.396,7.801-25.475,10.325c0.92-3.346,1.643-6.528,2.667-9.61c5.016-15.076,14.332-27.002,27.035-36.36
			c13.143-9.683,27.941-15.378,43.997-17.932c9.062-1.441,18.15-1.684,27.238-0.28c7.091,1.095,13.896,3.084,20.041,6.917
			c3.882,2.42,7.207,5.437,9.628,9.369c0.229,0.374,0.434,0.766,0.639,1.154c0.073,0.137,0.116,0.29,0.222,0.558
			c-0.662,0.126-1.33,0.12-1.869,0.381c-1.465,0.71-2.936,1.443-4.291,2.337c-1.283,0.848-2.605,1.303-4.14,1.357
			c-1.434,0.051-2.862,0.255-4.291,0.422c-0.375,0.044-0.735,0.201-1.229,0.343c0.454,0.653,0.837,1.154,1.168,1.688
			c1.001,1.616,1.657,3.348,1.892,5.256c0.585,4.76,1.223,9.515,1.846,14.271c0.041,0.312,0.041,0.681,0.209,0.917
			c1.123,1.564,1.012,3.417,1.246,5.182c0.215,1.627-0.336,3.102-0.798,4.653c-0.819,2.759-2.157,5.221-3.554,7.681
			c-3.54,6.244-8.729,10.54-15.484,12.911c-1.817,0.639-3.222,1.807-4.432,3.184c-3.014,3.426-6.902,5.568-10.941,7.408
			c-1.205,0.549-2.82,0.32-4.238,0.254c-3.152-0.15-6.299-0.465-9.452-0.635c-2.778-0.148-5.408,0.492-7.832,1.861
			c-0.764,0.43-1.325,0.385-2.053-0.119c-1.725-1.193-2.76-2.748-2.918-4.85c-0.074-0.996-0.112-1.994-0.135-2.994
			c-0.031-1.383-0.123-1.521-1.433-1.227c-1.947,0.438-3.91,0.854-5.798,1.484c-4.028,1.346-8.047,1.459-12.168,0.479
			c-3.146-0.748-6.334-1.326-9.513-1.938c-0.739-0.141-1.511-0.133-2.268-0.139c-0.25-0.004-0.659,0.1-0.726,0.264
			c-0.5,1.236-0.964,0.619-1.539,0.061c-0.388-0.377-0.914-0.828-1.278,0.096c-0.051,0.131-0.249,0.328-0.317,0.307
			c-1.018-0.33-1.43,0.539-2.081,0.979c-1.229,0.83-3.192-0.066-3.631-1.619c-0.086-0.303-0.171-0.645-0.123-0.945
			c0.321-1.982-0.692-3.543-1.581-5.145c-0.504-0.908-1.054-1.793-1.523-2.721c-0.761-1.501-0.706-3.02,0.14-4.468
			c0.589-1.009,1.52-1.349,2.569-0.853c1.384,0.656,2.892,1.151,3.731,2.641c0.711,1.261,2.061,1.367,3.31,1.662
			c0.34,0.081,0.598,0.513,0.894,0.784c-0.247,0.256-0.482,0.521-0.747,0.76C166.95,161.373,166.782,161.395,166.518,161.5z
			 M191.766,127.237c-6.872,5.028-13.636,9.991-20.421,14.924c-0.63,0.458-0.677,0.938-0.186,1.36
			c1.567,1.342,3.113,2.736,4.823,3.877c2.063,1.375,4.283,1.768,6.48,0.103c0.473-0.356,1.069-0.549,1.563-0.883
			c5.377-3.636,11.218-6.45,16.89-9.565c2.534-1.393,4.792-1.18,6.984,0.604c2.172,1.765,4.299,3.591,6.537,5.266
			c2.137,1.6,4.325,3.157,6.629,4.497c1.058,0.613,2.062,1.136,2.754,2.175c0.457,0.686,0.912,1.478,1.574,1.887
			c0.814,0.504,1.563,1.466,2.772,1.014c0.104-0.038,0.346,0.08,0.412,0.191c0.858,1.438,2.385,0.858,3.573,1.039
			c0.937,0.142,2.113-0.27,2.949-0.803c0.81-0.516,1.651-1.416,1.877-2.301c0.293-1.145-0.104-2.366-1.436-2.979
			c-3.077-1.418-5.741-3.441-8.273-5.666c-0.807-0.709-1.774-1.229-2.611-1.907c-1.269-1.026-2.744-1.929-3.67-3.216
			c-2.082-2.898-3.68-6.096-4.2-9.697c-0.125-0.863-0.451-0.993-1.243-0.922c-5.016,0.451-10.036,0.843-15.054,1.266
			c-2.108,0.178-4.213,0.408-6.324,0.557C193.195,128.125,192.229,128.015,191.766,127.237z M246.19,142.543
			c-0.211-0.823-0.396-1.53-0.573-2.235c-0.115-0.457-0.322-0.92-0.313-1.375c0.02-0.905,0.111-1.817,0.275-2.707
			c0.056-0.301,0.438-0.789,0.645-0.774c1.467,0.094,2.708-0.212,3.541-1.541c0.047-0.073,0.225-0.118,0.323-0.097
			c0.778,0.164,1.614,0.222,2.315,0.555c1.207,0.573,2.328,1.323,3.625,2.08c-0.033-0.448-0.063-0.785-0.084-1.122
			c-0.129-2.149-0.297-4.3-0.363-6.453c-0.031-0.991,0.23-1.993,0.199-2.983c-0.109-3.471-1.791-6.477-2.844-9.674
			c-0.18,0.062-0.269,0.071-0.324,0.119c-0.431,0.358-0.871,0.704-1.275,1.09c-2.741,2.619-5.999,4.197-9.721,4.846
			c-4.055,0.707-8.104,1.439-12.164,2.1c-2.981,0.484-5.979,0.869-9.404,1.359c2.325,3.332,3.155,7.248,6.299,9.75
			c0.545,0.433,1.217,0.836,1.883,0.961c2.969,0.556,5.621,1.744,8.021,3.572c0.505,0.385,1.208,0.529,1.839,0.726
			c1.173,0.362,2.606,0.378,3.485,1.09C243.021,142.999,244.454,142.558,246.19,142.543z"/>
		<path style="fill:#FFFFFF;" d="M191.766,127.237c0.463,0.776,1.43,0.888,2.402,0.819c2.111-0.149,4.215-0.381,6.324-0.558
			c5.019-0.422,10.04-0.815,15.054-1.267c0.792-0.07,1.118,0.06,1.243,0.923c0.521,3.601,2.118,6.799,4.2,9.696
			c0.926,1.287,2.402,2.189,3.67,3.217c0.837,0.678,1.806,1.197,2.611,1.906c2.532,2.226,5.196,4.248,8.273,5.666
			c1.33,0.612,1.729,1.834,1.436,2.979c-0.226,0.885-1.067,1.785-1.877,2.301c-0.836,0.533-2.014,0.943-2.949,0.802
			c-1.188-0.18-2.715,0.4-3.573-1.039c-0.066-0.11-0.31-0.229-0.412-0.19c-1.209,0.452-1.958-0.51-2.772-1.013
			c-0.662-0.41-1.117-1.202-1.574-1.887c-0.692-1.039-1.696-1.562-2.754-2.176c-2.304-1.34-4.491-2.896-6.629-4.497
			c-2.238-1.675-4.365-3.501-6.537-5.266c-2.192-1.782-4.45-1.995-6.984-0.603c-5.672,3.114-11.513,5.93-16.89,9.564
			c-0.495,0.334-1.09,0.525-1.563,0.883c-2.198,1.665-4.417,1.273-6.48-0.102c-1.71-1.142-3.256-2.536-4.823-3.879
			c-0.491-0.42-0.445-0.901,0.186-1.359C178.13,137.228,184.894,132.265,191.766,127.237z"/>
		<path style="fill:#FFFFFF;" d="M246.19,142.543c-1.736,0.017-3.17,0.455-4.617-0.717c-0.879-0.712-2.312-0.728-3.484-1.09
			c-0.631-0.195-1.334-0.341-1.839-0.726c-2.399-1.828-5.052-3.018-8.021-3.572c-0.668-0.125-1.34-0.528-1.884-0.961
			c-3.144-2.502-3.974-6.418-6.299-9.75c3.427-0.49,6.423-0.875,9.404-1.359c4.062-0.66,8.11-1.393,12.164-2.1
			c3.722-0.648,6.979-2.228,9.721-4.846c0.404-0.386,0.847-0.731,1.274-1.09c0.058-0.047,0.146-0.056,0.326-0.119
			c1.051,3.198,2.732,6.203,2.842,9.674c0.031,0.991-0.229,1.991-0.198,2.983c0.065,2.153,0.233,4.302,0.362,6.453
			c0.021,0.337,0.052,0.674,0.086,1.122c-1.297-0.758-2.42-1.506-3.625-2.08c-0.702-0.333-1.537-0.391-2.316-0.555
			c-0.1-0.021-0.277,0.022-0.323,0.097c-0.833,1.329-2.073,1.635-3.54,1.541c-0.207-0.013-0.59,0.474-0.646,0.774
			c-0.164,0.89-0.257,1.802-0.275,2.707c-0.009,0.455,0.198,0.918,0.313,1.375C245.795,141.013,245.979,141.72,246.19,142.543z"/>
	</g>
</g>
</svg>
