<?xml version="1.0" encoding="utf-8"?>
<!-- Generator: Adobe Illustrator 16.0.0, SVG Export Plug-In . SVG Version: 6.00 Build 0)  -->
<!DOCTYPE svg PUBLIC "-//W3C//DTD SVG 1.1//EN" "http://www.w3.org/Graphics/SVG/1.1/DTD/svg11.dtd">
<svg version="1.1" id="Layer_1" xmlns="http://www.w3.org/2000/svg" xmlns:xlink="http://www.w3.org/1999/xlink" x="0px" y="0px"
	 width="132.936px" height="91.5px" viewBox="0 0 132.936 91.5" enable-background="new 0 0 132.936 91.5" xml:space="preserve">
<g>
	<path fill="#FFCB27" d="M26.285,72.924c0.996,0.963,2.116,1.457,3.357,1.588c1.389,0.145,2.792,0.221,4.188,0.193
		c4.756-0.09,9.51-0.264,14.267-0.357c2.734-0.055,5.251-0.77,7.693-2.004c1.248-0.629,2.688-0.895,4.059-1.261
		c1.646-0.44,3.31-0.812,5.336-1.544c-0.438-0.271-0.895-0.516-1.313-0.812c-1.06-0.741-1.129-1.646-0.646-2.823
		c0.652-1.584,1.098-3.254,1.654-4.877c0.295-0.857,0.095-1.479-0.592-2.113c-2.449-2.268-2.436-2.303-4.968-0.245
		c-2.893,2.349-6.206,3.729-9.833,4.479c-1.16,0.237-2.275,0.707-3.401,1.096c-2.188,0.757-4.407,1.438-6.538,2.328
		c-1.578,0.66-3.032,1.61-4.552,2.412c-0.527,0.275-1.071,0.543-1.637,0.723c-2.25,0.712-3.603,0.035-4.334-2.176
		c-0.236-0.717-0.396-1.465-0.53-2.209c-0.346-1.92-0.546-3.854-1.487-5.642c-0.45-0.854-0.511-1.912-0.799-3.086
		C18.35,61.441,9.813,64.396,0.734,66.92c0.921-3.346,1.644-6.528,2.667-9.61c5.017-15.075,14.332-27.002,27.035-36.36
		C43.579,11.267,58.377,5.572,74.432,3.018c9.062-1.441,18.15-1.684,27.238-0.279c7.092,1.095,13.896,3.084,20.041,6.916
		c3.883,2.42,7.207,5.438,9.629,9.369c0.229,0.375,0.434,0.767,0.639,1.154c0.072,0.137,0.115,0.29,0.223,0.559
		c-0.662,0.125-1.33,0.119-1.869,0.381c-1.465,0.709-2.938,1.442-4.291,2.336c-1.283,0.849-2.605,1.304-4.141,1.357
		c-1.434,0.051-2.861,0.256-4.291,0.422c-0.375,0.045-0.734,0.201-1.229,0.344c0.453,0.652,0.836,1.154,1.168,1.688
		c1,1.616,1.656,3.348,1.891,5.256c0.586,4.76,1.225,9.516,1.848,14.271c0.041,0.312,0.041,0.681,0.209,0.917
		c1.123,1.563,1.012,3.417,1.246,5.182c0.215,1.627-0.336,3.103-0.799,4.653c-0.818,2.759-2.156,5.221-3.555,7.681
		c-3.539,6.244-8.729,10.54-15.482,12.911c-1.818,0.639-3.223,1.807-4.434,3.184c-3.014,3.426-6.9,5.568-10.939,7.408
		c-1.205,0.549-2.82,0.32-4.238,0.254c-3.152-0.149-6.299-0.465-9.453-0.635c-2.777-0.148-5.408,0.492-7.832,1.861
		c-0.764,0.43-1.325,0.385-2.053-0.119c-1.726-1.193-2.76-2.748-2.918-4.85c-0.074-0.996-0.112-1.994-0.135-2.994
		c-0.031-1.383-0.123-1.521-1.434-1.228c-1.947,0.438-3.91,0.854-5.798,1.484c-4.028,1.346-8.047,1.459-12.168,0.479
		c-3.146-0.748-6.334-1.326-9.513-1.938c-0.739-0.142-1.512-0.134-2.269-0.14c-0.25-0.004-0.659,0.101-0.726,0.265
		c-0.5,1.235-0.964,0.618-1.539,0.061c-0.388-0.377-0.914-0.827-1.278,0.097c-0.051,0.131-0.249,0.328-0.316,0.307
		c-1.019-0.33-1.431,0.539-2.081,0.979c-1.229,0.83-3.192-0.065-3.631-1.619c-0.087-0.303-0.172-0.645-0.123-0.944
		c0.32-1.981-0.692-3.543-1.581-5.146c-0.504-0.908-1.055-1.793-1.523-2.721c-0.761-1.501-0.706-3.02,0.14-4.468
		c0.59-1.009,1.521-1.349,2.569-0.853c1.384,0.655,2.893,1.15,3.731,2.641c0.711,1.261,2.061,1.367,3.31,1.662
		c0.34,0.08,0.598,0.513,0.895,0.783c-0.247,0.256-0.482,0.521-0.747,0.761C26.717,72.797,26.549,72.818,26.285,72.924z
		 M51.533,38.66c-6.872,5.029-13.637,9.992-20.421,14.925c-0.631,0.458-0.678,0.938-0.187,1.36c1.567,1.342,3.113,2.735,4.823,3.877
		c2.062,1.375,4.283,1.768,6.479,0.103c0.474-0.356,1.069-0.549,1.563-0.883c5.377-3.636,11.218-6.45,16.89-9.565
		c2.534-1.393,4.792-1.18,6.985,0.604c2.172,1.765,4.299,3.591,6.537,5.266c2.137,1.601,4.324,3.157,6.629,4.497
		c1.057,0.613,2.061,1.137,2.754,2.175c0.457,0.687,0.912,1.479,1.574,1.888c0.812,0.504,1.562,1.466,2.771,1.014
		c0.104-0.038,0.346,0.08,0.412,0.191c0.857,1.438,2.385,0.857,3.572,1.039c0.938,0.142,2.113-0.271,2.949-0.804
		c0.811-0.516,1.65-1.416,1.877-2.301c0.293-1.146-0.104-2.366-1.436-2.979c-3.078-1.418-5.742-3.44-8.273-5.666
		c-0.807-0.709-1.773-1.229-2.611-1.906c-1.268-1.026-2.744-1.93-3.67-3.217c-2.082-2.897-3.68-6.096-4.199-9.696
		c-0.125-0.863-0.451-0.993-1.244-0.923c-5.016,0.451-10.036,0.844-15.053,1.267c-2.108,0.179-4.213,0.408-6.324,0.558
		C52.962,39.549,51.996,39.439,51.533,38.66z M105.958,53.967c-0.211-0.823-0.396-1.529-0.574-2.234
		c-0.115-0.457-0.322-0.92-0.312-1.375c0.02-0.906,0.111-1.817,0.275-2.707c0.055-0.302,0.438-0.789,0.645-0.774
		c1.467,0.094,2.709-0.212,3.541-1.541c0.047-0.073,0.225-0.118,0.322-0.097c0.779,0.164,1.615,0.222,2.316,0.555
		c1.207,0.572,2.328,1.322,3.625,2.08c-0.033-0.448-0.064-0.785-0.084-1.122c-0.129-2.149-0.297-4.3-0.363-6.453
		c-0.031-0.991,0.23-1.993,0.199-2.983c-0.109-3.471-1.791-6.477-2.844-9.674c-0.182,0.062-0.27,0.071-0.324,0.119
		c-0.432,0.357-0.871,0.704-1.275,1.09c-2.74,2.619-6,4.197-9.721,4.846c-4.055,0.707-8.104,1.439-12.164,2.101
		c-2.98,0.483-5.979,0.869-9.404,1.358c2.324,3.332,3.154,7.248,6.299,9.75c0.545,0.434,1.217,0.836,1.883,0.961
		c2.969,0.557,5.621,1.744,8.021,3.572c0.504,0.385,1.207,0.529,1.838,0.727c1.174,0.361,2.607,0.378,3.486,1.09
		C102.788,54.423,104.221,53.982,105.958,53.967z"/>
</g>
</svg>
