<?xml version="1.0" encoding="utf-8"?>
<!-- Generator: Adobe Illustrator 16.0.0, SVG Export Plug-In . SVG Version: 6.00 Build 0)  -->
<!DOCTYPE svg PUBLIC "-//W3C//DTD SVG 1.1//EN" "http://www.w3.org/Graphics/SVG/1.1/DTD/svg11.dtd">
<svg version="1.1" id="Layer_1" xmlns="http://www.w3.org/2000/svg" xmlns:xlink="http://www.w3.org/1999/xlink" x="0px" y="0px"
	 width="480px" height="320px" viewBox="0 0 480 320" enable-background="new 0 0 480 320" xml:space="preserve">
<g>
	<g>
		<path fill="#FFFFFF" d="M174.25,226.001c0-43.903,0-87.807,0-131.736c43.883,0,87.776,0,131.71,0c0,43.895,0,87.815,0,131.736
			C262.081,226.001,218.171,226.001,174.25,226.001z M199.89,186.048c0.264-0.105,0.432-0.128,0.537-0.222
			c0.264-0.237,0.5-0.505,0.747-0.761c-0.295-0.271-0.553-0.702-0.894-0.783c-1.249-0.295-2.598-0.401-3.31-1.662
			c-0.839-1.488-2.347-1.983-3.731-2.64c-1.049-0.497-1.979-0.157-2.569,0.852c-0.846,1.447-0.9,2.967-0.14,4.469
			c0.469,0.926,1.02,1.812,1.523,2.72c0.888,1.602,1.902,3.161,1.581,5.145c-0.049,0.302,0.036,0.642,0.123,0.945
			c0.439,1.553,2.402,2.449,3.631,1.619c0.651-0.439,1.063-1.309,2.081-0.979c0.068,0.022,0.266-0.176,0.317-0.306
			c0.364-0.925,0.89-0.473,1.278-0.096c0.575,0.559,1.039,1.176,1.539-0.06c0.066-0.164,0.476-0.268,0.726-0.265
			c0.757,0.007,1.529-0.002,2.268,0.14c3.178,0.61,6.366,1.188,9.513,1.937c4.121,0.98,8.14,0.867,12.168-0.478
			c1.888-0.631,3.852-1.048,5.798-1.486c1.311-0.295,1.402-0.156,1.433,1.228c0.022,0.999,0.061,1.998,0.135,2.994
			c0.158,2.101,1.193,3.655,2.917,4.849c0.728,0.504,1.29,0.55,2.053,0.119c2.423-1.369,5.053-2.01,7.832-1.86
			c3.153,0.169,6.3,0.483,9.453,0.634c1.418,0.067,3.033,0.294,4.238-0.255c4.039-1.839,7.928-3.981,10.941-7.408
			c1.21-1.376,2.613-2.544,4.431-3.182c6.758-2.371,11.945-6.667,15.485-12.911c1.396-2.46,2.734-4.922,3.554-7.681
			c0.461-1.553,1.012-3.027,0.797-4.653c-0.234-1.765-0.123-3.616-1.245-5.182c-0.169-0.235-0.169-0.604-0.21-0.917
			c-0.622-4.755-1.26-9.509-1.845-14.27c-0.234-1.908-0.891-3.64-1.892-5.256c-0.331-0.534-0.714-1.035-1.168-1.688
			c0.493-0.142,0.854-0.299,1.229-0.343c1.428-0.167,2.857-0.372,4.291-0.422c1.533-0.054,2.855-0.509,4.14-1.357
			c1.355-0.894,2.825-1.627,4.291-2.337c0.538-0.261,1.207-0.255,1.868-0.381c-0.104-0.268-0.147-0.42-0.221-0.558
			c-0.205-0.389-0.408-0.78-0.639-1.154c-2.42-3.932-5.746-6.949-9.627-9.369c-6.146-3.833-12.951-5.822-20.041-6.917
			c-9.089-1.404-18.178-1.162-27.239,0.28c-16.056,2.554-30.854,8.249-43.997,17.932c-12.703,9.359-22.019,21.285-27.035,36.361
			c-1.025,3.082-1.748,6.265-2.667,9.61c9.08-2.524,17.616-5.479,25.475-10.325c0.288,1.174,0.349,2.231,0.799,3.085
			c0.941,1.788,1.142,3.722,1.487,5.641c0.134,0.745,0.293,1.492,0.531,2.21c0.732,2.211,2.084,2.887,4.334,2.175
			c0.565-0.179,1.109-0.445,1.636-0.723c1.521-0.8,2.975-1.751,4.552-2.411c2.131-0.891,4.351-1.572,6.538-2.328
			c1.126-0.39,2.241-0.857,3.401-1.097c3.627-0.748,6.941-2.131,9.833-4.479c2.533-2.057,2.518-2.022,4.968,0.245
			c0.686,0.636,0.886,1.256,0.592,2.113c-0.558,1.624-1.003,3.293-1.655,4.877c-0.484,1.177-0.414,2.083,0.645,2.825
			c0.42,0.295,0.875,0.541,1.314,0.81c-2.027,0.732-3.691,1.104-5.336,1.544c-1.371,0.366-2.811,0.632-4.059,1.262
			c-2.442,1.234-4.958,1.949-7.693,2.003c-4.756,0.095-9.511,0.268-14.267,0.358c-1.395,0.026-2.799-0.05-4.187-0.194
			C202.007,187.505,200.886,187.011,199.89,186.048z"/>
		<path fill-rule="evenodd" clip-rule="evenodd" d="M199.89,186.048c0.996,0.963,2.117,1.457,3.358,1.587
			c1.388,0.145,2.792,0.221,4.187,0.194c4.756-0.091,9.51-0.264,14.267-0.358c2.735-0.054,5.251-0.769,7.693-2.003
			c1.248-0.63,2.688-0.896,4.059-1.262c1.646-0.44,3.309-0.812,5.336-1.544c-0.439-0.269-0.894-0.515-1.314-0.81
			c-1.059-0.742-1.129-1.648-0.645-2.825c0.652-1.584,1.097-3.253,1.655-4.877c0.294-0.857,0.094-1.478-0.592-2.113
			c-2.45-2.268-2.435-2.302-4.968-0.245c-2.892,2.348-6.206,3.73-9.833,4.479c-1.16,0.239-2.275,0.707-3.401,1.097
			c-2.187,0.756-4.407,1.438-6.538,2.328c-1.578,0.66-3.032,1.611-4.552,2.411c-0.527,0.277-1.071,0.544-1.636,0.723
			c-2.25,0.712-3.603,0.036-4.334-2.175c-0.237-0.718-0.397-1.465-0.531-2.21c-0.345-1.919-0.546-3.853-1.487-5.641
			c-0.45-0.854-0.511-1.911-0.799-3.085c-7.859,4.846-16.396,7.801-25.475,10.325c0.92-3.346,1.643-6.528,2.667-9.61
			c5.016-15.077,14.332-27.002,27.035-36.361c13.143-9.683,27.941-15.378,43.997-17.932c9.062-1.441,18.15-1.684,27.239-0.28
			c7.09,1.095,13.895,3.084,20.041,6.917c3.881,2.42,7.207,5.437,9.627,9.369c0.23,0.374,0.434,0.766,0.639,1.154
			c0.073,0.137,0.116,0.29,0.221,0.558c-0.661,0.126-1.33,0.12-1.868,0.381c-1.466,0.71-2.936,1.443-4.291,2.337
			c-1.284,0.848-2.606,1.303-4.14,1.357c-1.434,0.051-2.863,0.255-4.291,0.422c-0.375,0.044-0.735,0.201-1.229,0.343
			c0.454,0.653,0.837,1.154,1.168,1.688c1.001,1.616,1.657,3.348,1.892,5.256c0.585,4.76,1.223,9.514,1.845,14.27
			c0.041,0.312,0.041,0.681,0.21,0.917c1.122,1.565,1.011,3.417,1.245,5.182c0.215,1.626-0.336,3.101-0.797,4.653
			c-0.819,2.759-2.158,5.221-3.554,7.681c-3.54,6.244-8.728,10.54-15.485,12.911c-1.817,0.638-3.221,1.806-4.431,3.182
			c-3.014,3.427-6.902,5.569-10.941,7.408c-1.205,0.549-2.82,0.322-4.238,0.255c-3.153-0.15-6.3-0.465-9.453-0.634
			c-2.778-0.149-5.408,0.491-7.832,1.86c-0.763,0.431-1.325,0.385-2.053-0.119c-1.724-1.193-2.759-2.748-2.917-4.849
			c-0.075-0.996-0.113-1.995-0.135-2.994c-0.031-1.384-0.123-1.522-1.433-1.228c-1.947,0.438-3.91,0.855-5.798,1.486
			c-4.028,1.345-8.047,1.458-12.168,0.478c-3.146-0.749-6.334-1.326-9.513-1.937c-0.739-0.142-1.511-0.133-2.268-0.14
			c-0.25-0.003-0.659,0.101-0.726,0.265c-0.5,1.235-0.964,0.618-1.539,0.06c-0.388-0.377-0.914-0.829-1.278,0.096
			c-0.051,0.13-0.249,0.328-0.317,0.306c-1.018-0.33-1.43,0.539-2.081,0.979c-1.229,0.83-3.192-0.066-3.631-1.619
			c-0.086-0.304-0.171-0.644-0.123-0.945c0.321-1.983-0.692-3.543-1.581-5.145c-0.504-0.908-1.054-1.794-1.523-2.72
			c-0.761-1.502-0.706-3.021,0.14-4.469c0.589-1.009,1.52-1.349,2.569-0.852c1.384,0.656,2.892,1.151,3.731,2.64
			c0.711,1.261,2.061,1.367,3.31,1.662c0.34,0.081,0.598,0.513,0.894,0.783c-0.247,0.256-0.482,0.523-0.747,0.761
			C200.322,185.92,200.154,185.942,199.89,186.048z M225.138,151.784c-6.872,5.029-13.636,9.991-20.421,14.924
			c-0.63,0.458-0.677,0.939-0.186,1.36c1.567,1.342,3.113,2.737,4.823,3.878c2.063,1.375,4.283,1.767,6.48,0.102
			c0.473-0.357,1.069-0.549,1.563-0.883c5.378-3.636,11.218-6.45,16.89-9.565c2.534-1.393,4.792-1.18,6.985,0.603
			c2.172,1.765,4.298,3.591,6.536,5.266c2.138,1.6,4.326,3.157,6.63,4.497c1.057,0.613,2.061,1.136,2.753,2.175
			c0.457,0.685,0.913,1.477,1.575,1.887c0.814,0.503,1.563,1.465,2.772,1.013c0.104-0.038,0.346,0.08,0.412,0.191
			c0.858,1.439,2.385,0.859,3.573,1.039c0.937,0.142,2.114-0.269,2.95-0.802c0.809-0.516,1.651-1.416,1.877-2.301
			c0.292-1.145-0.105-2.366-1.436-2.979c-3.077-1.418-5.741-3.441-8.273-5.666c-0.807-0.709-1.775-1.229-2.612-1.907
			c-1.268-1.026-2.744-1.929-3.67-3.216c-2.082-2.898-3.679-6.096-4.2-9.697c-0.125-0.863-0.451-0.993-1.243-0.922
			c-5.015,0.451-10.036,0.843-15.054,1.266c-2.108,0.177-4.213,0.408-6.324,0.557C226.568,152.672,225.601,152.562,225.138,151.784z
			 M279.563,167.091c-0.212-0.824-0.396-1.53-0.574-2.236c-0.115-0.457-0.322-0.919-0.313-1.375c0.02-0.905,0.111-1.817,0.275-2.707
			c0.056-0.301,0.438-0.788,0.645-0.774c1.467,0.094,2.708-0.212,3.541-1.541c0.046-0.073,0.224-0.118,0.323-0.097
			c0.779,0.165,1.614,0.222,2.316,0.555c1.206,0.573,2.328,1.323,3.625,2.08c-0.034-0.448-0.064-0.785-0.085-1.122
			c-0.129-2.15-0.297-4.3-0.363-6.453c-0.031-0.992,0.23-1.993,0.199-2.984c-0.109-3.47-1.791-6.476-2.843-9.674
			c-0.18,0.063-0.269,0.072-0.325,0.12c-0.43,0.358-0.871,0.704-1.275,1.09c-2.741,2.619-5.999,4.197-9.721,4.846
			c-4.054,0.707-8.103,1.439-12.164,2.099c-2.981,0.484-5.979,0.869-9.404,1.36c2.325,3.331,3.155,7.247,6.299,9.749
			c0.544,0.433,1.216,0.836,1.883,0.961c2.969,0.556,5.62,1.745,8.021,3.572c0.505,0.385,1.208,0.53,1.839,0.726
			c1.173,0.363,2.606,0.378,3.485,1.09C276.393,167.546,277.826,167.106,279.563,167.091z"/>
		<path fill-rule="evenodd" clip-rule="evenodd" fill="#FFFFFF" d="M225.138,151.784c0.463,0.777,1.43,0.888,2.402,0.819
			c2.111-0.149,4.215-0.38,6.324-0.557c5.019-0.422,10.04-0.815,15.054-1.266c0.792-0.071,1.118,0.059,1.243,0.922
			c0.521,3.601,2.118,6.799,4.2,9.697c0.926,1.287,2.402,2.189,3.67,3.216c0.837,0.678,1.806,1.198,2.612,1.907
			c2.532,2.225,5.196,4.248,8.273,5.666c1.33,0.612,1.728,1.834,1.436,2.979c-0.226,0.885-1.068,1.785-1.877,2.301
			c-0.836,0.533-2.014,0.943-2.95,0.802c-1.188-0.18-2.715,0.4-3.573-1.039c-0.066-0.111-0.309-0.229-0.412-0.191
			c-1.209,0.452-1.958-0.51-2.772-1.013c-0.662-0.41-1.118-1.202-1.575-1.887c-0.692-1.039-1.696-1.562-2.753-2.175
			c-2.304-1.34-4.492-2.897-6.63-4.497c-2.238-1.675-4.364-3.501-6.536-5.266c-2.193-1.782-4.451-1.995-6.985-0.603
			c-5.672,3.115-11.512,5.93-16.89,9.565c-0.495,0.334-1.09,0.525-1.563,0.883c-2.198,1.665-4.417,1.273-6.48-0.102
			c-1.71-1.141-3.256-2.536-4.823-3.878c-0.491-0.421-0.445-0.902,0.186-1.36C211.502,161.775,218.266,156.813,225.138,151.784z"/>
		<path fill-rule="evenodd" clip-rule="evenodd" fill="#FFFFFF" d="M279.563,167.091c-1.737,0.016-3.171,0.455-4.617-0.717
			c-0.879-0.712-2.312-0.727-3.485-1.09c-0.631-0.195-1.334-0.341-1.839-0.726c-2.4-1.827-5.052-3.017-8.021-3.572
			c-0.667-0.125-1.339-0.528-1.883-0.961c-3.144-2.501-3.974-6.418-6.299-9.749c3.426-0.491,6.423-0.876,9.404-1.36
			c4.062-0.66,8.11-1.392,12.164-2.099c3.722-0.649,6.979-2.228,9.721-4.846c0.404-0.386,0.846-0.732,1.275-1.09
			c0.057-0.047,0.146-0.056,0.325-0.12c1.052,3.199,2.733,6.204,2.843,9.674c0.031,0.992-0.23,1.992-0.199,2.984
			c0.066,2.153,0.234,4.302,0.363,6.453c0.021,0.337,0.051,0.674,0.085,1.122c-1.297-0.757-2.419-1.506-3.625-2.08
			c-0.702-0.333-1.537-0.39-2.316-0.555c-0.1-0.021-0.277,0.023-0.323,0.097c-0.833,1.329-2.074,1.635-3.541,1.541
			c-0.206-0.013-0.589,0.474-0.645,0.774c-0.164,0.89-0.256,1.802-0.275,2.707c-0.009,0.456,0.198,0.918,0.313,1.375
			C279.167,165.561,279.352,166.267,279.563,167.091z"/>
	</g>
</g>
</svg>
