<?xml version="1.0" encoding="utf-8"?>
<!-- Generator: Adobe Illustrator 16.0.0, SVG Export Plug-In . SVG Version: 6.00 Build 0)  -->
<!DOCTYPE svg PUBLIC "-//W3C//DTD SVG 1.1//EN" "http://www.w3.org/Graphics/SVG/1.1/DTD/svg11.dtd">
<svg version="1.1" id="Layer_1" xmlns="http://www.w3.org/2000/svg" xmlns:xlink="http://www.w3.org/1999/xlink" x="0px" y="0px"
	 width="220.167px" height="274px" viewBox="0 0 220.167 274" enable-background="new 0 0 220.167 274" xml:space="preserve">
<path fill="#FFCB27" d="M29.767,2c5.594,1.335,8.814,5.117,11.377,10.087c7.152,13.876,14.619,27.589,21.957,41.369
	c4.292,8.06,8.611,16.104,12.837,24.199c0.868,1.664,1.976,2.662,3.787,3.297c17.005,5.951,33.957,12.059,50.974,17.979
	c3.719,1.294,6.397,3.557,8.346,6.846c13.615,23.005,27.246,46.003,40.82,69.033c3.373,5.721,2.791,11.854-1.324,16.385
	c-3.879,4.271-10.211,5.84-15.422,3.023c-2.635-1.424-5.103-3.869-6.666-6.447c-9.774-16.096-19.236-32.381-28.918-48.533
	c-0.935-1.558-2.453-3.019-4.047-3.885c-20.34-11.035-40.731-21.969-61.136-32.887c-3.295-1.764-5.752-4.221-7.509-7.523
	c-12.729-23.916-25.41-47.857-38.314-71.68C12.195,15.26,14.242,5.077,25.539,2C26.949,2,28.359,2,29.767,2z"/>
<path fill="#FFCB27" d="M8.097,271.636c-3.158-1.627-5.764-3.658-5.986-7.621c-0.254-4.447,2.695-8.648,7.084-8.598
	c7.436,0.084,12.733-3.914,17.475-8.568c13.482-13.236,34.398-11.857,45.998-1.064c1.611,1.498,3.343,2.867,5,4.314
	c7.853,6.855,16.804,6.916,24.787,0.148c2.285-1.936,4.479-3.986,6.844-5.816c12.455-9.637,29.427-9.553,41.82,0.182
	c2.008,1.574,3.912,3.281,5.842,4.955c8.912,7.722,17.371,7.543,26.435-0.129c4.065-3.44,8.327-6.955,13.086-9.188
	c4.073-1.908,8.947-2.428,13.532-2.834c4.408-0.393,7.951,3.363,8.127,7.652c0.188,4.537-2.984,8.428-7.542,8.518
	c-5.655,0.111-10.126,2.43-14.151,6.139c-4.941,4.551-10.092,8.822-16.799,10.596c-1.681,0.443-3.361,0.877-5.045,1.314
	c-2.994,0-5.988,0-8.984,0c-1.771-0.453-3.545-0.896-5.313-1.363c-7.083-1.86-12.287-6.651-17.583-11.299
	c-8.004-7.021-16.723-7.098-24.938-0.268c-3.168,2.633-6.125,5.688-9.68,7.639c-4.154,2.283-8.854,3.572-13.316,5.291
	c-2.996,0-5.99,0-8.985,0c-1.772-0.445-3.554-0.879-5.322-1.342c-7.071-1.848-12.293-6.59-17.565-11.252
	c-8.135-7.188-17.098-7.199-25.354-0.109c-2.93,2.518-5.903,4.992-8.983,7.316c-4.168,3.146-9.174,4.24-14.133,5.387
	C12.324,271.636,10.21,271.636,8.097,271.636z"/>
<path fill="#FFCB27" d="M169.851,237.692c-8.54-0.424-15.904-3.317-22.268-8.856c-1.793-1.562-3.602-3.104-5.401-4.654
	c-7.442-6.401-16.36-6.479-23.964-0.198c-2.984,2.467-5.778,5.215-8.971,7.371c-10.549,7.127-21.93,8.067-33.32,2.686
	c-4.883-2.309-9.098-6.182-13.323-9.693c-4.858-4.039-10.219-6.18-16.333-4.416c-3.166,0.912-6.062,3.004-8.861,4.891
	c-4.574,3.082-8.633,7.148-13.543,9.451c-4.215,1.978-9.281,2.498-14.033,2.865c-4.353,0.336-7.691-3.59-7.764-7.998
	c-0.066-4.201,3.146-8.133,7.396-8.141c6.011-0.012,10.591-2.656,14.786-6.541c4.672-4.326,9.566-8.344,15.91-10.029
	c11.732-3.117,22.467-1.346,31.949,6.539c2.84,2.361,5.565,4.887,8.562,7.031c5.479,3.926,13.395,3.947,18.846,0.066
	c2.932-2.088,5.633-4.504,8.373-6.851c12.746-10.903,30.917-11.099,43.87-0.433c2.851,2.349,5.575,4.865,8.563,7.019
	c5.861,4.22,13.656,4.224,19.474-0.024c3.614-2.644,6.905-5.726,10.46-8.455c5.796-4.459,12.484-6.369,19.729-6.34
	c4.58,0.02,8.032,3.51,8.176,8c0.142,4.414-3.231,8.229-7.803,8.309c-5.142,0.088-9.336,2.039-13.095,5.381
	c-5.062,4.502-10.006,9.275-16.839,11.012C176.957,236.56,173.38,237.034,169.851,237.692z"/>
<path fill="#FFCB27" d="M177.549,136.463c-11.593,0.069-21.438-9.695-21.414-21.239c0.024-11.709,9.627-21.179,21.386-21.364
	c11.938-0.188,20.922,10.608,21.281,21.209C199.193,126.644,189.306,136.388,177.549,136.463z"/>
</svg>
