<?xml version="1.0" encoding="utf-8"?>
<!-- Generator: Adobe Illustrator 16.0.0, SVG Export Plug-In . SVG Version: 6.00 Build 0)  -->
<!DOCTYPE svg PUBLIC "-//W3C//DTD SVG 1.1//EN" "http://www.w3.org/Graphics/SVG/1.1/DTD/svg11.dtd">
<svg version="1.1" id="Layer_1" xmlns="http://www.w3.org/2000/svg" xmlns:xlink="http://www.w3.org/1999/xlink" x="0px" y="0px"
	 width="480px" height="320px" viewBox="0 0 480 320" enable-background="new 0 0 480 320" xml:space="preserve">
<g>
	<g>
		<path fill="#FFFFFF" d="M137.83,292.164c-11.101,0-22.201,0-33.301,0c0-90.212,0-180.423,0-270.635c16.915,0,33.829,0,50.744,0
			c-11.295,3.078-13.343,13.26-9.009,21.263c12.904,23.822,25.584,47.765,38.314,71.68c1.757,3.302,4.214,5.759,7.509,7.523
			c20.402,10.917,40.796,21.852,61.134,32.887c1.595,0.866,3.114,2.327,4.048,3.884c9.681,16.153,19.143,32.438,28.917,48.534
			c1.565,2.577,4.032,5.023,6.667,6.447c5.21,2.814,11.542,1.247,15.422-3.024c4.114-4.53,4.696-10.665,1.324-16.385
			c-13.575-23.029-27.205-46.026-40.821-69.032c-1.946-3.289-4.626-5.552-8.346-6.846c-17.016-5.921-33.967-12.028-50.972-17.979
			c-1.812-0.634-2.919-1.633-3.787-3.296c-4.225-8.094-8.544-16.14-12.837-24.199c-7.338-13.78-14.805-27.494-21.957-41.37
			c-2.562-4.971-5.783-8.752-11.377-10.087c71.854,0,143.708,0,215.612,0c0,90.212,0,180.423,0,270.635c-23.581,0-47.181,0-70.779,0
			c1.682-0.438,3.364-0.871,5.045-1.315c6.707-1.771,11.855-6.045,16.797-10.595c4.027-3.708,8.497-6.027,14.153-6.139
			c4.557-0.09,7.729-3.979,7.542-8.517c-0.176-4.29-3.718-8.045-8.127-7.653c-4.585,0.407-9.459,0.926-13.532,2.834
			c-4.759,2.231-9.02,5.745-13.086,9.188c-9.062,7.671-17.521,7.85-26.433,0.128c-1.93-1.673-3.835-3.379-5.842-4.955
			c-12.396-9.733-29.366-9.816-41.822-0.181c-2.365,1.83-4.559,3.882-6.843,5.817c-7.984,6.767-16.935,6.706-24.787-0.149
			c-1.658-1.448-3.389-2.816-5-4.314c-11.599-10.793-32.514-12.173-45.998,1.064c-4.741,4.654-10.04,8.653-17.475,8.568
			c-4.389-0.051-7.337,4.149-7.084,8.599C132.068,288.507,134.671,290.538,137.83,292.164z M299.585,258.22
			c3.528-0.658,7.104-1.131,10.576-2.013c6.833-1.736,11.777-6.51,16.839-11.012c3.758-3.342,7.953-5.292,13.094-5.38
			c4.57-0.078,7.943-3.894,7.803-8.308c-0.143-4.491-3.596-7.981-8.176-8c-7.242-0.031-13.933,1.879-19.729,6.338
			c-3.554,2.732-6.844,5.814-10.46,8.456c-5.815,4.249-13.61,4.244-19.472,0.025c-2.99-2.151-5.716-4.67-8.565-7.017
			c-12.953-10.666-31.124-10.474-43.87,0.432c-2.74,2.345-5.441,4.762-8.373,6.849c-5.453,3.881-13.367,3.858-18.846-0.066
			c-2.996-2.145-5.721-4.67-8.562-7.032c-9.483-7.885-20.217-9.655-31.949-6.538c-6.345,1.686-11.239,5.702-15.911,10.028
			c-4.196,3.885-8.776,6.53-14.787,6.541c-4.247,0.008-7.46,3.94-7.394,8.141c0.07,4.409,3.411,8.334,7.764,7.998
			c4.752-0.366,9.818-0.889,14.033-2.865c4.909-2.303,8.968-6.369,13.543-9.451c2.798-1.886,5.695-3.978,8.861-4.89
			c6.114-1.764,11.475,0.376,16.333,4.415c4.226,3.513,8.439,7.386,13.323,9.694c11.392,5.384,22.772,4.441,33.32-2.686
			c3.192-2.156,5.985-4.904,8.971-7.37c7.603-6.28,16.521-6.204,23.964,0.198c1.802,1.551,3.61,3.094,5.402,4.655
			C283.68,254.902,291.045,257.797,299.585,258.22z M307.282,156.991c11.758-0.073,21.645-9.817,21.253-21.394
			c-0.36-10.601-9.343-21.397-21.281-21.21c-11.759,0.186-21.36,9.656-21.386,21.365
			C285.844,147.295,295.69,157.062,307.282,156.991z"/>
		<path fill-rule="evenodd" clip-rule="evenodd" d="M159.501,21.529c5.594,1.335,8.814,5.117,11.377,10.087
			c7.152,13.876,14.619,27.589,21.957,41.37c4.292,8.059,8.612,16.104,12.837,24.199c0.868,1.663,1.975,2.662,3.787,3.296
			c17.005,5.952,33.957,12.059,50.972,17.979c3.72,1.294,6.399,3.557,8.346,6.846c13.616,23.005,27.246,46.002,40.821,69.032
			c3.372,5.72,2.79,11.854-1.324,16.385c-3.88,4.271-10.212,5.839-15.422,3.024c-2.635-1.424-5.102-3.87-6.667-6.447
			c-9.774-16.097-19.236-32.381-28.917-48.534c-0.934-1.557-2.453-3.018-4.048-3.884c-20.338-11.035-40.731-21.969-61.134-32.887
			c-3.295-1.764-5.752-4.221-7.509-7.523c-12.729-23.916-25.41-47.858-38.314-71.68c-4.334-8.003-2.287-18.186,9.009-21.263
			C156.682,21.529,158.092,21.529,159.501,21.529z"/>
		<path fill-rule="evenodd" clip-rule="evenodd" d="M137.83,292.164c-3.158-1.626-5.762-3.657-5.987-7.62
			c-0.253-4.449,2.696-8.649,7.084-8.599c7.435,0.085,12.734-3.914,17.475-8.568c13.483-13.237,34.398-11.857,45.998-1.064
			c1.611,1.498,3.342,2.866,5,4.314c7.852,6.855,16.803,6.916,24.787,0.149c2.284-1.936,4.478-3.987,6.843-5.817
			c12.456-9.636,29.427-9.553,41.822,0.181c2.007,1.576,3.912,3.282,5.842,4.955c8.911,7.722,17.37,7.543,26.433-0.128
			c4.066-3.442,8.327-6.956,13.086-9.188c4.073-1.908,8.947-2.427,13.532-2.834c4.409-0.392,7.951,3.363,8.127,7.653
			c0.187,4.537-2.985,8.427-7.542,8.517c-5.656,0.111-10.126,2.431-14.153,6.139c-4.941,4.55-10.09,8.823-16.797,10.595
			c-1.681,0.444-3.363,0.878-5.045,1.315c-2.995,0-5.99,0-8.986,0c-1.771-0.453-3.545-0.897-5.313-1.363
			c-7.083-1.861-12.287-6.652-17.583-11.298c-8.004-7.022-16.723-7.099-24.938-0.269c-3.167,2.633-6.125,5.688-9.678,7.64
			c-4.154,2.283-8.854,3.571-13.317,5.29c-2.995,0-5.991,0-8.986,0c-1.774-0.445-3.552-0.878-5.322-1.341
			c-7.072-1.849-12.293-6.591-17.567-11.252c-8.134-7.188-17.097-7.2-25.353-0.11c-2.93,2.517-5.904,4.992-8.985,7.317
			c-4.167,3.146-9.173,4.239-14.132,5.386C142.058,292.164,139.944,292.164,137.83,292.164z"/>
		<path fill-rule="evenodd" clip-rule="evenodd" fill="#FFFFFF" d="M144.172,292.164c4.959-1.146,9.965-2.24,14.132-5.386
			c3.081-2.325,6.055-4.801,8.985-7.317c8.256-7.09,17.219-7.078,25.353,0.11c5.273,4.661,10.495,9.403,17.567,11.252
			c1.77,0.463,3.548,0.896,5.322,1.341C191.745,292.164,167.959,292.164,144.172,292.164z"/>
		<path fill-rule="evenodd" clip-rule="evenodd" fill="#FFFFFF" d="M224.518,292.164c4.463-1.719,9.163-3.007,13.317-5.29
			c3.553-1.952,6.511-5.007,9.678-7.64c8.216-6.83,16.935-6.754,24.938,0.269c5.296,4.646,10.5,9.437,17.583,11.298
			c1.769,0.466,3.542,0.91,5.313,1.363C271.737,292.164,248.128,292.164,224.518,292.164z"/>
		<path fill-rule="evenodd" clip-rule="evenodd" d="M299.585,258.22c-8.54-0.423-15.905-3.317-22.267-8.856
			c-1.792-1.562-3.601-3.104-5.402-4.655c-7.443-6.402-16.361-6.479-23.964-0.198c-2.985,2.466-5.778,5.214-8.971,7.37
			c-10.548,7.127-21.928,8.069-33.32,2.686c-4.883-2.309-9.097-6.182-13.323-9.694c-4.858-4.039-10.219-6.179-16.333-4.415
			c-3.166,0.912-6.062,3.004-8.861,4.89c-4.575,3.082-8.634,7.148-13.543,9.451c-4.215,1.977-9.281,2.499-14.033,2.865
			c-4.353,0.336-7.693-3.589-7.764-7.998c-0.067-4.2,3.146-8.133,7.394-8.141c6.011-0.011,10.591-2.656,14.787-6.541
			c4.671-4.326,9.566-8.343,15.911-10.028c11.732-3.117,22.466-1.347,31.949,6.538c2.84,2.362,5.565,4.888,8.562,7.032
			c5.479,3.925,13.394,3.947,18.846,0.066c2.931-2.087,5.632-4.504,8.373-6.849c12.746-10.905,30.917-11.098,43.87-0.432
			c2.85,2.347,5.575,4.865,8.565,7.017c5.861,4.219,13.656,4.224,19.472-0.025c3.616-2.642,6.906-5.724,10.46-8.456
			c5.796-4.459,12.486-6.369,19.729-6.338c4.58,0.019,8.033,3.509,8.176,8c0.141,4.414-3.232,8.229-7.803,8.308
			c-5.141,0.088-9.336,2.038-13.094,5.38c-5.062,4.502-10.006,9.275-16.839,11.012C306.689,257.089,303.113,257.562,299.585,258.22z
			"/>
		<path fill-rule="evenodd" clip-rule="evenodd" d="M307.282,156.991c-11.592,0.071-21.438-9.695-21.414-21.239
			c0.025-11.709,9.627-21.179,21.386-21.365c11.938-0.188,20.921,10.609,21.281,21.21
			C328.927,147.173,319.04,156.917,307.282,156.991z"/>
	</g>
</g>
</svg>
