<?xml version="1.0" encoding="utf-8"?>
<!-- Generator: Adobe Illustrator 16.0.0, SVG Export Plug-In . SVG Version: 6.00 Build 0)  -->
<!DOCTYPE svg PUBLIC "-//W3C//DTD SVG 1.1//EN" "http://www.w3.org/Graphics/SVG/1.1/DTD/svg11.dtd">
<svg version="1.1" id="Layer_1" xmlns="http://www.w3.org/2000/svg" xmlns:xlink="http://www.w3.org/1999/xlink" x="0px" y="0px"
	 width="480px" height="320px" viewBox="0 0 480 320" enable-background="new 0 0 480 320" xml:space="preserve">
<g>
	<path fill="#FFFFFF" d="M120.783,256.114c0-57.647,0-115.298,0-172.947c85.056,0,170.111,0,255.168,0c0,57.648,0,115.299,0,172.947
		C290.895,256.114,205.839,256.114,120.783,256.114z M283.031,172.765c-3.246,4.394-6.449,7.915-8.727,11.958
		c-7.807,13.852-1.432,31.81,13.209,37.976c13.973,5.884,31.602-1.456,36.393-15.147c5.527-15.801-2.32-31.965-17.832-36.074
		c-4.893-1.296-10.061-1.553-15.951-2.411c-1.658-4.3-3.434-8.894-5.609-14.531c6.057-1.099,10.594-2.447,15.17-2.608
		c4.898-0.172,9.836,0.778,16.303,1.381c-10.557-13.415-24.283-9.469-37.424-11.097c-2.596-5.712-5.062-11.767-8.049-17.554
		c-3.352-6.49-5.506-6.958-12.883-3.641c2.814,4.383,5.617,8.746,8.879,13.824c-13.91,6.573-22.135,15.784-40.377,8.713
		c-6.516-2.525-13.899-2.65-20.926-3.109c-12.538-0.822-25.117-1.094-37.681-1.434c-1.843-0.05-3.708,0.775-8.504,1.86
		c6.699,3.054,10.575,4.61,14.241,6.565c2.406,1.282,6.063,2.807,6.486,4.792c2.37,11.145,11.011,12.379,19.52,12.154
		c12.937-0.338,17.932,7.689,22.989,18.709c-6.653,3.054-13.268,3.754-19.162,6.21c-5.762,2.4-14.576,0.687-16.531,9.918
		c7.405,6.559,14.85-2.31,21.819,0.764c-2.726,12.213-10.484,18.41-20.131,16.511c-10.159-2.002-17.714-12.136-16.184-21.704
		c1.636-10.23,10.966-17.078,21.706-15.657c2.752,0.362,5.36,2.09,8.093,2.259c2.798,0.175,5.666-0.795,9.662-1.453
		c-9.552-8.154-15.8-10.718-22.705-9.951c-14.169,1.569-24.523,12.371-25.07,26.153c-0.551,13.866,8.268,25.611,20.947,27.896
		c15.388,2.774,27.182-3.995,32.191-18.468c1.343-3.879,2.712-7.753,4.321-12.346c4.149,0.988,7.207,1.771,10.289,2.444
		c17.562,3.832,23.605,0.742,30.855-15.449c2.115-4.721,4.338-9.441,7.043-13.833c1.521-2.473,4.129-4.277,7.285-7.412
		C279.277,164.607,281.174,168.73,283.031,172.765z"/>
	<path fill-rule="evenodd" clip-rule="evenodd" d="M283.031,172.765c-1.857-4.034-3.754-8.157-6.348-13.792
		c-3.156,3.134-5.764,4.939-7.285,7.412c-2.705,4.392-4.928,9.112-7.043,13.833c-4.176,9.325-5.501,13.056-8.522,14.782
		c-2.333,1.333-14.885,2.292-22.333,0.667c-3.082-0.673-6.14-1.456-10.289-2.444c-1.609,4.593-2.978,8.467-4.321,12.346
		c-5.009,14.473-16.803,21.242-32.191,18.468c-12.679-2.284-21.498-14.029-20.947-27.896c0.547-13.782,10.9-24.584,25.07-26.153
		c6.905-0.767,13.153,1.797,22.705,9.951c-3.996,0.658-6.864,1.628-9.662,1.453c-2.733-0.169-5.341-1.896-8.093-2.259
		c-10.74-1.421-20.069,5.427-21.706,15.657c-1.531,9.568,6.025,19.702,16.184,21.704c9.647,1.899,17.406-4.298,20.131-16.511
		c-6.969-3.073-14.414,5.795-21.819-0.764c1.955-9.231,10.769-7.518,16.531-9.918c5.895-2.456,12.509-3.156,19.162-6.21
		c-5.057-11.02-10.052-19.047-22.989-18.709c-8.508,0.225-17.149-1.01-19.52-12.154c-0.422-1.985-4.08-3.511-6.486-4.792
		c-3.666-1.955-7.542-3.511-14.241-6.565c4.797-1.085,6.662-1.911,8.504-1.86c12.564,0.34,25.143,0.612,37.681,1.434
		c7.027,0.459,14.23,1.11,20.926,3.109c14.652,4.372,26.467-2.141,40.377-8.713c-3.262-5.078-6.064-9.441-8.879-13.824
		c3.017-1.356,6.41-2.204,8.119-2.142c2.47,0.091,2.782,1.946,4.764,5.782c2.986,5.787,5.453,11.842,8.049,17.554
		c13.141,1.628,26.867-2.317,37.424,11.097c-6.467-0.604-11.404-1.553-16.303-1.381c-4.576,0.161-9.113,1.509-15.17,2.608
		c2.176,5.637,3.951,10.231,5.609,14.531c5.891,0.858,11.059,1.115,15.951,2.411c15.512,4.109,23.359,20.273,17.832,36.074
		c-4.791,13.691-22.42,21.031-36.393,15.147c-14.641-6.166-21.016-24.124-13.209-37.976
		C276.582,180.68,279.785,177.158,283.031,172.765z M299.465,201.792c-8.182-3.486-6.84-13.522-13.037-17.612
		c-8.77,9.984-9.299,17.795-1.938,25.866c6.713,7.358,16.176,8.633,24.229,3.261c7.586-5.061,10.486-15.427,6.645-23.75
		c-3.781-8.189-9.715-10.76-18.184-8.218C295.49,188.223,304.545,193.561,299.465,201.792z"/>
	<path fill-rule="evenodd" clip-rule="evenodd" fill="#FFFFFF" d="M299.465,201.792c5.08-8.231-3.975-13.569-2.285-20.453
		c8.469-2.542,14.402,0.028,18.184,8.218c3.842,8.323,0.941,18.689-6.645,23.75c-8.053,5.372-17.516,4.098-24.229-3.261
		c-7.361-8.071-6.832-15.882,1.938-25.866C292.625,188.27,291.283,198.306,299.465,201.792z"/>
</g>
</svg>
