<?xml version="1.0" encoding="utf-8"?>
<!-- Generator: Adobe Illustrator 16.0.0, SVG Export Plug-In . SVG Version: 6.00 Build 0)  -->
<!DOCTYPE svg PUBLIC "-//W3C//DTD SVG 1.1//EN" "http://www.w3.org/Graphics/SVG/1.1/DTD/svg11.dtd">
<svg version="1.1" id="Capa_1" xmlns="http://www.w3.org/2000/svg" xmlns:xlink="http://www.w3.org/1999/xlink" x="0px" y="0px"
	 width="705.25px" height="598px" viewBox="0 0 705.25 598" enable-background="new 0 0 705.25 598" xml:space="preserve">
<g>
	<path fill="#FFCB27" d="M225.949,97.956c25.949-5.062,42.799-30.263,37.736-56.213c-5.062-25.95-30.125-42.812-56.074-37.75
		c-25.939,5.062-42.963,30.138-37.889,56.088C174.785,86.029,200.023,103.018,225.949,97.956z"/>
	<path fill="#FFCB27" d="M662.785,401.604c-7.586-14.237-19.836-14.199-27.35,0.075l-9.301,17.675
		c-7.523,14.275-26.688,25.851-42.811,25.851H561.41c-16.137,0-38.75,8.95-50.512,19.976l-42.412,39.788
		c-4.977,4.661-11.801,8.073-19.113,10.148c1-2.138,1.438-4.537,0.912-6.925L382.886,70.268l-0.289-0.825
		c-1.947-5.6-8.188-8.737-13.938-6.725c-5.174,1.8-7.75,7.225-7.086,12.675l20.787,134.85l-67.925-3.625l-34.824-74.825
		c-5.863-12.6-21.852-22.238-35.727-21.55l-44.037,3.988c-3.949,0.2-7.662,1.375-11.037,3.163c-9.551-1.225-20.551,2.8-29.275,7.225
		c-0.188-0.387-0.398-0.737-0.6-1.112c5.551-7.712,8.111-17.55,6.15-27.6c-3.764-19.275-22.5-31.9-41.775-28.125
		c-19.275,3.763-31.889,22.5-28.125,41.775c1.5,7.7,5.463,14.25,10.812,19.213c-2.725,4.212-4.113,8.862-3.076,13.45
		c4.439,19.625,9.338,46.087,6.963,59.575c-4.023,23.075-20.512,80.014,9.738,80.812c17.262,0.463,35.799-3.737,48.549-7.438
		L158.01,514.257c0.037,2.361,0.326,4.588,0.764,6.786c0.537,2.775,1.5,5.352,2.637,7.802l-15.387,12.635
		c-12.477,10.226-34.863,14.025-50,8.476l-40.275-14.774c-15.138-5.551-33.475,1.524-40.961,15.812L5.374,569.03
		c-7.487,14.3-0.462,25.875,15.663,25.875h635.299c16.125,0,31.775-12.825,34.939-28.638l10.447-52.263
		c3.164-15.812-0.424-40.176-8.023-54.412L662.785,401.604z M134.949,127.429c-8.15,1.588-16.125-1.025-21.812-6.25
		c-0.289-0.287-0.639-0.525-0.926-0.812c-0.15-0.15-0.262-0.325-0.387-0.462c-1.102-1.237-2.113-2.538-2.977-3.975
		c-3.125-5.2-3.912-11.35-2.25-17.325c1.662-5.9,5.537-10.938,10.938-14.175c4.426-2.662,9.613-3.537,14.562-2.438
		c5.014,1.113,9.199,4.088,11.775,8.4c2.15,3.587,2.699,7.837,1.561,11.962c-1.137,4.075-3.799,7.538-7.5,9.75
		c-6.449,3.85-14.713,1.975-18.41-4.2c-3.15-5.25-1.275-12.188,4.188-15.462c4.662-2.825,10.662-1.413,13.35,3.087
		c2.338,3.888,0.949,9.025-3.074,11.438c-0.189,0.113-0.375,0.212-0.562,0.312c-0.312,0.15-0.125,0.138,0.387-0.087
		c0.301-0.138,0.602-0.288,0.9-0.462c2.312-1.388,3.975-3.538,4.676-6.038c0.688-2.45,0.361-4.95-0.889-7.062
		c-1.688-2.8-4.438-4.763-7.75-5.487c-3.375-0.75-6.912-0.15-9.975,1.688c-4,2.4-6.875,6.125-8.102,10.487
		c-1.199,4.288-0.637,8.688,1.588,12.4c2.889,4.812,7.588,8.15,13.25,9.4c5.727,1.3,11.713,0.263,16.9-2.85
		c4.213-2.513,7.475-5.938,9.887-9.763C151.773,118.331,144.586,125.542,134.949,127.429z M163.387,136.38
		c-0.102-0.612-0.352-1.125-0.477-1.725c4.525-2.362,9.588-4.6,14.4-5.913c-1.986,3.613-3.264,7.613-3.412,11.875l-2.125,49.875
		L163.387,136.38z M252.686,515.518l-25.125-8.75c-0.562-0.2-1.199-0.288-1.787-0.463l7.713-182.787l90.137,173.688
		c2.113,4.612,5.275,8.514,9.051,11.639l-24.5,7.611C292.748,521.242,267.924,520.817,252.686,515.518z M397.699,507.093
		c-4.9-1.775-10.838-2.963-17.102-3.7c5.676-7.388,8.352-17,6.426-26.913c-0.488-2.5-1.25-4.774-2.15-7.112L272.16,247.854
		l0.9-28.587l9.111,20.587c7.139,13.138,20.213,12.062,20.213,12.062l80.275,4.464c1.613-0.014,3.125-0.15,4.648-0.45
		c0.701-0.139,1.34-0.412,2.014-0.601l39.773,258.024c0.088,0.274,0.053,0.601,0.102,0.738c0.412,1.188,1.1,2.175,1.838,3.111
		c-3.977-0.25-7.838-0.913-11.312-2.175L397.699,507.093z"/>
</g>
</svg>
