<?xml version="1.0" encoding="utf-8"?>
<!-- Generator: Adobe Illustrator 16.0.0, SVG Export Plug-In . SVG Version: 6.00 Build 0)  -->
<!DOCTYPE svg PUBLIC "-//W3C//DTD SVG 1.1//EN" "http://www.w3.org/Graphics/SVG/1.1/DTD/svg11.dtd">
<svg version="1.1" id="Layer_1" xmlns="http://www.w3.org/2000/svg" xmlns:xlink="http://www.w3.org/1999/xlink" x="0px" y="0px"
	 width="145.5px" height="241.244px" viewBox="3.75 3 145.5 241.244" style="enable-background:new 3.75 3 145.5 241.244;"
	 xml:space="preserve">
<g>
	<path style="fill:#FFFFFF;" d="M554.522,265.753c0-40.333,0-80.667,0-121c85.333,0,170.666,0,256,0c0,79,0,158,0,237
		c-0.273-0.413-0.673-0.791-0.805-1.245c-8.334-28.763-16.659-57.526-24.922-86.312c-0.348-1.211-0.152-2.602-0.097-3.903
		c0.361-8.255,0.935-16.506,1.056-24.765c0.055-3.648-0.782-7.311-1.273-11.459c1.324,0.578,1.969,0.771,2.52,1.115
		c4.039,2.514,7.703,1.646,10.877-1.467c3.025-2.969,3.388-6.15,1.393-10.26c-5.302-10.922-10.083-22.098-15.066-33.173
		c-2.982-6.624-5.017-7.48-11.902-4.562c-2.357,1-4.494,2.521-6.643,3.753c2.151,5.541,4.049,10.422,5.942,15.301
		c-2.003-0.916-3.302-2.189-4.263-3.683c-4.743-7.371-12.877-8.295-20.145-9.085c-4.994-0.542-11.102,1.467-13.639,7.401
		c-4.166,9.739-8.317,19.495-12.035,29.409c-1.152,3.074-2.199,5.521-5.195,7.328c-8.408,5.071-16.609,10.487-24.865,15.812
		c-8.112,5.232-8.104,5.259-4.463,14.186c0.176,0.433,0.633,0.748,0.91,1.065c1.654-0.312,3.228-0.604,4.915-0.922
		c8.976,15.866,17.527,31.68,26.808,47.051c3.744,6.199,4.49,11.753,2.483,18.668c-3.419,11.783-5.87,23.847-8.808,36.122
		c6.591,1.759,12.773,3.408,19.357,5.164c2.227-6.393,4.405-12.65,6.905-19.83c3.558,5.555,6.724,9.865,9.195,14.541
		c2.383,4.507,5.26,5.309,9.817,2.498c-1.963-3.789-3.521-7.88-5.974-11.335c-8.708-12.265-9.745-24.858-5.476-39.386
		c2.887-9.819,9.617-15.385,15.828-22.91c11.738,25.629,23.127,50.49,34.528,75.383c4.749-2.734,8.892-5.119,13.031-7.504
		c0,5.333,0,10.667,0,16c-85.334,0-170.667,0-256,0c0-44.667,0-89.333,0-134c1.956,3.191,3.912,6.384,5.897,9.625
		c1.943-0.477,3.82-0.936,5.869-1.438c10.803,18.479,21.354,36.789,32.228,54.906c2.255,3.758,2.599,7.154,1.755,11.281
		c-2.994,14.643-5.709,29.342-8.63,44.542c7.092,1.854,13.909,3.638,21.028,5.5c2.076-8.366,3.976-16.019,6.172-24.871
		c3.793,6.095,6.936,11.14,10.078,16.187c3.951,6.347,5.739,6.916,13.39,4.101c-6.271-11.208-12.546-22.367-18.744-33.567
		c-0.78-1.41-1.712-3.067-1.64-4.563c0.806-16.409,8.861-29.044,21.22-39.782c13.286,27.838,26.511,55.548,40.028,83.871
		c3.599-3.055,6.598-5.914,9.922-8.327c2.873-2.085,3.298-4.159,2.24-7.56c-9.735-31.301-19.326-62.646-28.74-94.043
		c-0.713-2.381-0.364-5.512,0.565-7.871c2.712-6.879,3.899-13.708,1.781-20.946c-1.571-5.364-2.992-10.772-4.626-16.692
		c2.302,0.449,4.029,0.893,5.785,1.108c3.928,0.483,7.039-0.899,9.652-3.952c2.527-2.953,1.047-5.447-0.176-8.229
		c-6.294-14.319-12.76-28.573-18.596-43.078c-1.988-4.94-4.707-5.212-8.779-3.788c-1.097,0.383-2.193,0.79-3.234,1.301
		c-3.939,1.935-6.485,3.985-3.862,9.218c2.701,5.389,4.218,11.368,5.89,16.067c-4.492-4.133-8.847-9.687-14.508-13.024
		c-11.867-7.004-25.751-1.209-30.213,11.661c-3.543,10.22-6.982,20.474-10.667,30.642c-0.688,1.897-1.958,3.969-3.565,5.09
		C579.618,248.783,567.048,257.233,554.522,265.753z M627.693,171.528c0.074-9.902-8.938-19.105-18.673-19.07
		c-9.596,0.035-18.337,8.799-18.596,18.641c-0.262,10.033,8.289,18.924,18.416,19.147
		C618.757,190.467,627.618,181.668,627.693,171.528z M734.511,210.778c9.488,0.086,17.812-8.273,17.773-17.848
		c-0.037-9.26-8.281-17.545-17.545-17.63c-9.335-0.086-17.443,7.892-17.691,17.403C716.798,202.336,724.872,210.694,734.511,210.778
		z"/>
	<path d="M6.522,117.456c12.525-8.52,25.096-16.97,37.518-25.636c1.607-1.121,2.877-3.191,3.565-5.089
		c3.685-10.168,7.125-20.424,10.667-30.643c4.462-12.869,18.346-18.665,30.213-11.662c5.661,3.34,10.016,8.894,14.508,13.025
		c-1.672-4.699-3.188-10.68-5.89-16.066c-2.624-5.232-0.078-7.285,3.862-9.219c1.041-0.511,2.139-0.918,3.234-1.301
		c4.072-1.424,6.791-1.152,8.779,3.788c5.836,14.505,12.302,28.759,18.596,43.077c1.223,2.781,2.704,5.275,0.176,8.229
		c-2.613,3.052-5.725,4.437-9.652,3.952c-1.756-0.217-3.483-0.659-5.785-1.107c1.634,5.918,3.055,11.327,4.626,16.691
		c2.119,7.238,0.931,14.068-1.781,20.945c-0.93,2.359-1.278,5.49-0.565,7.871c9.414,31.397,19.004,62.744,28.74,94.043
		c1.058,3.399,0.633,5.476-2.24,7.561c-3.324,2.413-6.323,5.273-9.922,8.327c-13.518-28.323-26.742-56.033-40.028-83.871
		c-12.358,10.737-20.414,23.373-21.22,39.782c-0.072,1.496,0.859,3.154,1.64,4.562c6.198,11.201,12.474,22.36,18.744,33.568
		c-7.649,2.816-9.438,2.246-13.39-4.102c-3.143-5.045-6.283-10.092-10.078-16.186c-2.196,8.854-4.096,16.505-6.172,24.871
		c-7.119-1.862-13.937-3.646-21.028-5.5c2.921-15.2,5.636-29.9,8.63-44.542c0.844-4.127,0.5-7.522-1.755-11.281
		c-10.874-18.116-21.425-36.429-32.228-54.907c-2.049,0.504-3.925,0.963-5.869,1.438c-1.985-3.241-3.941-6.435-5.897-9.625
		C6.522,118.123,6.522,117.789,6.522,117.456z M68.122,96.175c-0.586-0.076-1.175-0.152-1.763-0.229
		c-2.883,9.615-11.276,12.292-18.715,16.148c-4.429,2.297-8.923,4.461-13.365,6.732c-2.282,1.166-4.512,2.436-6.92,3.742
		c9.604,15.94,18.87,31.32,28.584,47.443c7.925-16.886,15.368-32.664,22.687-48.5c0.552-1.192,0.733-3.054,0.194-4.174
		C75.397,110.218,71.718,103.216,68.122,96.175z"/>
	<path d="M810.522,384.753c-4.141,2.385-8.282,4.77-13.031,7.504c-11.402-24.893-22.79-49.754-34.529-75.383
		c-6.211,7.525-12.94,13.091-15.828,22.91c-4.27,14.527-3.231,27.121,5.477,39.386c2.453,3.455,4.012,7.546,5.975,11.335
		c-4.56,2.811-7.437,2.009-9.818-2.498c-2.473-4.676-5.639-8.986-9.195-14.541c-2.5,7.18-4.68,13.438-6.904,19.83
		c-6.586-1.756-12.769-3.404-19.358-5.164c2.938-12.275,5.389-24.339,8.808-36.122c2.008-6.915,1.26-12.469-2.482-18.668
		c-9.28-15.371-17.832-31.185-26.809-47.051c-1.688,0.315-3.261,0.61-4.914,0.922c-0.279-0.317-0.734-0.634-0.91-1.065
		c-3.642-8.927-3.65-8.953,4.463-14.186c8.254-5.324,16.457-10.74,24.865-15.812c2.995-1.808,4.043-4.254,5.194-7.328
		c3.718-9.914,7.869-19.67,12.035-29.409c2.537-5.937,8.646-7.943,13.639-7.401c7.269,0.79,15.4,1.715,20.146,9.085
		c0.96,1.492,2.259,2.767,4.262,3.683c-1.895-4.879-3.791-9.76-5.941-15.301c2.146-1.23,4.283-2.752,6.642-3.752
		c6.887-2.92,8.92-2.062,11.901,4.562c4.984,11.075,9.767,22.251,15.067,33.173c1.995,4.109,1.634,7.291-1.394,10.26
		c-3.172,3.113-6.836,3.979-10.875,1.467c-0.551-0.344-1.195-0.537-2.521-1.115c0.491,4.148,1.328,7.811,1.274,11.459
		c-0.122,8.259-0.694,16.51-1.057,24.765c-0.057,1.303-0.25,2.692,0.098,3.903c8.262,28.783,16.587,57.549,24.921,86.312
		c0.132,0.454,0.53,0.832,0.805,1.245C810.522,382.753,810.522,383.753,810.522,384.753z M700.593,283.301
		c8.744,15.316,17.104,29.957,25.488,44.644c0.791-0.512,1.174-0.618,1.293-0.856c7.453-14.879,14.896-29.762,22.287-44.672
		c0.479-0.968,1.06-2.427,0.674-3.198c-3.383-6.763-6.976-13.421-10.822-20.714c-1.684,2.592-3.053,4.285-3.973,6.196
		c-2.455,5.105-6.351,8.076-11.774,9.833C716.189,276.983,708.841,280.139,700.593,283.301z"/>
	<path d="M79.693,23.231c-0.075,10.14-8.938,18.938-18.853,18.718c-10.127-0.226-18.678-9.114-18.416-19.147
		c0.259-9.842,9-18.604,18.596-18.641C70.755,4.126,79.768,13.329,79.693,23.231z"/>
	<path d="M734.511,210.778c-9.639-0.084-17.713-8.442-17.463-18.073c0.248-9.513,8.356-17.489,17.691-17.403
		c9.264,0.085,17.508,8.37,17.545,17.631C752.324,202.505,743.999,210.864,734.511,210.778z"/>
	<path style="fill:#FFFFFF;" d="M616.122,244.472c3.596,7.041,7.275,14.043,10.703,21.165c0.539,1.12,0.356,2.98-0.195,4.175
		c-7.317,15.836-14.76,31.613-22.686,48.5c-9.714-16.123-18.98-31.504-28.584-47.444c2.408-1.308,4.639-2.576,6.92-3.742
		c4.441-2.271,8.938-4.437,13.365-6.731c7.438-3.857,15.832-6.533,18.715-16.149C614.947,244.319,615.536,244.396,616.122,244.472z"
		/>
	<path style="fill:#FFFFFF;" d="M700.593,283.301c8.248-3.162,15.597-6.317,23.173-8.769c5.425-1.756,9.319-4.728,11.774-9.833
		c0.92-1.911,2.289-3.604,3.973-6.196c3.848,7.293,7.438,13.951,10.822,20.714c0.386,0.771-0.195,2.229-0.675,3.198
		c-7.39,14.91-14.834,29.793-22.286,44.672c-0.119,0.238-0.502,0.346-1.293,0.857C717.696,313.258,709.337,298.617,700.593,283.301z
		"/>
</g>
</svg>
