<?xml version="1.0" encoding="utf-8"?>
<!-- Generator: Adobe Illustrator 16.0.0, SVG Export Plug-In . SVG Version: 6.00 Build 0)  -->
<!DOCTYPE svg PUBLIC "-//W3C//DTD SVG 1.1//EN" "http://www.w3.org/Graphics/SVG/1.1/DTD/svg11.dtd">
<svg version="1.1" id="Capa_1" xmlns="http://www.w3.org/2000/svg" xmlns:xlink="http://www.w3.org/1999/xlink" x="0px" y="0px"
	 width="705.249px" height="598px" viewBox="310 146 705.249 598" style="enable-background:new 310 146 705.249 598;"
	 xml:space="preserve">
<g>
	<path d="M538.325,243.513c25.95-5.062,42.8-30.263,37.737-56.213c-5.062-25.95-30.125-42.812-56.075-37.75
		c-25.938,5.062-42.962,30.138-37.888,56.088C487.162,231.587,512.4,248.575,538.325,243.513z"/>
	<path d="M975.162,547.162c-7.587-14.237-19.837-14.199-27.35,0.075l-9.3,17.675c-7.525,14.275-26.688,25.851-42.812,25.851h-21.913
		c-16.137,0-38.75,8.95-50.512,19.975l-42.413,39.788c-4.975,4.662-11.8,8.074-19.112,10.149c1-2.138,1.438-4.537,0.912-6.925
		l-67.399-437.925L694.975,215c-1.949-5.6-8.188-8.737-13.938-6.725c-5.175,1.8-7.75,7.225-7.087,12.675l20.787,134.85
		l-67.925-3.625l-34.825-74.825c-5.862-12.6-21.85-22.238-35.725-21.55l-44.038,3.988c-3.949,0.2-7.662,1.375-11.037,3.163
		c-9.55-1.225-20.55,2.8-29.275,7.225c-0.188-0.387-0.399-0.737-0.6-1.112c5.55-7.712,8.112-17.55,6.15-27.6
		c-3.763-19.275-22.5-31.9-41.775-28.125c-19.275,3.763-31.888,22.5-28.125,41.775c1.5,7.7,5.463,14.25,10.812,19.213
		c-2.725,4.212-4.112,8.862-3.075,13.45c4.438,19.625,9.338,46.087,6.963,59.575c-4.025,23.075-20.513,80.013,9.737,80.812
		c17.263,0.463,35.8-3.737,48.55-7.438l-10.162,239.088c0.037,2.362,0.325,4.588,0.763,6.787c0.537,2.775,1.5,5.351,2.637,7.801
		L458.4,687.037c-12.476,10.226-34.863,14.025-50,8.476l-40.275-14.775c-15.138-5.55-33.475,1.525-40.962,15.812l-9.413,18.038
		c-7.487,14.3-0.462,25.875,15.663,25.875h635.3c16.125,0,31.774-12.825,34.938-28.638l10.449-52.263
		c3.163-15.812-0.425-40.175-8.024-54.412L975.162,547.162z M447.325,272.987c-8.15,1.588-16.125-1.025-21.812-6.25
		c-0.288-0.287-0.638-0.525-0.925-0.812c-0.15-0.15-0.263-0.325-0.388-0.462c-1.101-1.237-2.112-2.538-2.976-3.975
		c-3.125-5.2-3.912-11.35-2.25-17.325c1.663-5.9,5.538-10.938,10.938-14.175c4.426-2.662,9.613-3.537,14.562-2.438
		c5.013,1.113,9.2,4.088,11.775,8.4c2.15,3.587,2.7,7.837,1.562,11.962c-1.138,4.075-3.8,7.538-7.5,9.75
		c-6.45,3.85-14.713,1.975-18.412-4.2c-3.15-5.25-1.275-12.188,4.188-15.462c4.662-2.825,10.662-1.413,13.35,3.087
		c2.338,3.888,0.95,9.025-3.075,11.438c-0.188,0.113-0.375,0.212-0.562,0.312c-0.312,0.15-0.125,0.138,0.388-0.087
		c0.3-0.138,0.6-0.288,0.9-0.462c2.312-1.388,3.975-3.538,4.675-6.038c0.688-2.45,0.362-4.95-0.888-7.062
		c-1.688-2.8-4.438-4.763-7.75-5.487c-3.375-0.75-6.912-0.15-9.975,1.688c-4,2.4-6.875,6.125-8.101,10.487
		c-1.2,4.288-0.638,8.688,1.588,12.4c2.888,4.812,7.587,8.15,13.25,9.4c5.725,1.3,11.712,0.263,16.899-2.85
		c4.213-2.513,7.476-5.938,9.888-9.763C464.15,263.888,456.963,271.1,447.325,272.987z M475.763,281.938
		c-0.101-0.612-0.351-1.125-0.476-1.725c4.525-2.362,9.588-4.6,14.4-5.913c-1.987,3.613-3.263,7.613-3.412,11.875l-2.125,49.875
		L475.763,281.938z M565.062,661.075l-25.125-8.75c-0.562-0.2-1.2-0.288-1.787-0.463l7.712-182.787L636,642.763
		c2.112,4.612,5.275,8.513,9.05,11.638l-24.5,7.612C605.125,666.8,580.3,666.375,565.062,661.075z M710.075,652.65
		c-4.9-1.775-10.838-2.963-17.101-3.7c5.676-7.388,8.351-17,6.426-26.913c-0.488-2.5-1.25-4.774-2.15-7.112L584.537,393.412
		l0.9-28.587l9.112,20.587c7.138,13.138,20.213,12.062,20.213,12.062l80.274,4.463c1.613-0.013,3.125-0.15,4.65-0.45
		c0.7-0.138,1.338-0.412,2.013-0.6l39.774,258.024c0.088,0.275,0.051,0.601,0.101,0.738c0.412,1.188,1.1,2.175,1.837,3.112
		c-3.975-0.25-7.837-0.913-11.312-2.175L710.075,652.65z"/>
</g>
</svg>
