<?xml version="1.0" encoding="utf-8"?>
<!-- Generator: Adobe Illustrator 16.0.0, SVG Export Plug-In . SVG Version: 6.00 Build 0)  -->
<!DOCTYPE svg PUBLIC "-//W3C//DTD SVG 1.1//EN" "http://www.w3.org/Graphics/SVG/1.1/DTD/svg11.dtd">
<svg version="1.1" id="Layer_1" xmlns="http://www.w3.org/2000/svg" xmlns:xlink="http://www.w3.org/1999/xlink" x="0px" y="0px"
	 width="480px" height="320px" viewBox="0 0 480 320" enable-background="new 0 0 480 320" xml:space="preserve">
<g>
	<g>
		<path fill="#FFFFFF" d="M113,154c0-40.333,0-80.667,0-121c85.333,0,170.666,0,256,0c0,79,0,158,0,237
			c-0.274-0.413-0.673-0.791-0.805-1.245c-8.334-28.763-16.659-57.527-24.921-86.311c-0.348-1.212-0.153-2.602-0.097-3.904
			c0.361-8.255,0.934-16.506,1.056-24.765c0.054-3.648-0.783-7.31-1.274-11.458c1.324,0.578,1.969,0.771,2.52,1.114
			c4.039,2.514,7.703,1.647,10.876-1.466c3.026-2.969,3.388-6.15,1.393-10.26c-5.302-10.922-10.083-22.097-15.067-33.173
			c-2.982-6.624-5.016-7.48-11.902-4.562c-2.357,1-4.494,2.521-6.642,3.752c2.151,5.542,4.048,10.422,5.942,15.302
			c-2.003-0.916-3.302-2.19-4.262-3.683c-4.744-7.371-12.877-8.295-20.145-9.085c-4.994-0.542-11.102,1.466-13.639,7.401
			c-4.166,9.739-8.317,19.495-12.035,29.409c-1.152,3.074-2.199,5.521-5.195,7.329c-8.408,5.071-16.61,10.487-24.865,15.812
			c-8.113,5.232-8.104,5.259-4.463,14.186c0.176,0.432,0.632,0.748,0.91,1.065c1.654-0.311,3.227-0.605,4.915-0.922
			c8.976,15.867,17.527,31.68,26.808,47.051c3.743,6.199,4.49,11.753,2.483,18.668c-3.419,11.783-5.87,23.847-8.808,36.122
			c6.591,1.759,12.773,3.408,19.358,5.164c2.226-6.392,4.405-12.651,6.905-19.83c3.557,5.555,6.723,9.865,9.195,14.541
			c2.383,4.507,5.26,5.309,9.818,2.498c-1.963-3.789-3.521-7.88-5.974-11.335c-8.708-12.264-9.745-24.858-5.476-39.386
			c2.887-9.819,9.617-15.384,15.828-22.91c11.739,25.629,23.127,50.491,34.529,75.383c4.749-2.734,8.891-5.119,13.031-7.504
			c0,5.333,0,10.667,0,16c-85.334,0-170.667,0-256,0c0-44.667,0-89.333,0-134c1.956,3.191,3.912,6.384,5.898,9.625
			c1.943-0.477,3.82-0.936,5.869-1.438c10.803,18.479,21.353,36.79,32.227,54.907c2.255,3.758,2.599,7.154,1.755,11.281
			c-2.994,14.642-5.709,29.342-8.63,44.542c7.092,1.854,13.909,3.638,21.028,5.5c2.077-8.366,3.976-16.019,6.173-24.871
			c3.793,6.094,6.935,11.14,10.077,16.186c3.952,6.347,5.74,6.917,13.39,4.101c-6.271-11.208-12.546-22.367-18.744-33.568
			c-0.78-1.409-1.712-3.067-1.639-4.563c0.805-16.409,8.861-29.044,21.219-39.782c13.286,27.838,26.511,55.548,40.029,83.871
			c3.598-3.054,6.597-5.914,9.921-8.327c2.873-2.085,3.298-4.16,2.24-7.56c-9.735-31.3-19.326-62.646-28.739-94.043
			c-0.714-2.381-0.365-5.512,0.565-7.871c2.711-6.878,3.899-13.708,1.781-20.946c-1.571-5.364-2.992-10.773-4.626-16.692
			c2.302,0.449,4.029,0.892,5.785,1.108c3.928,0.484,7.039-0.9,9.653-3.952c2.527-2.953,1.046-5.448-0.176-8.229
			c-6.294-14.319-12.76-28.573-18.596-43.078c-1.988-4.94-4.707-5.212-8.779-3.788c-1.097,0.383-2.194,0.79-3.235,1.301
			c-3.939,1.934-6.485,3.985-3.862,9.218c2.701,5.388,4.218,11.368,5.89,16.067c-4.492-4.133-8.847-9.686-14.508-13.025
			c-11.867-7.003-25.751-1.208-30.213,11.662c-3.543,10.219-6.983,20.474-10.667,30.642c-0.688,1.897-1.958,3.968-3.565,5.089
			C138.096,137.03,125.525,145.481,113,154z M186.171,59.776c0.074-9.903-8.938-19.106-18.673-19.071
			c-9.596,0.035-18.337,8.799-18.595,18.641c-0.262,10.033,8.288,18.923,18.416,19.147
			C177.234,78.714,186.096,69.915,186.171,59.776z M292.988,99.026c9.488,0.085,17.813-8.274,17.774-17.848
			c-0.038-9.26-8.282-17.545-17.545-17.63c-9.335-0.086-17.444,7.891-17.692,17.403C275.275,90.583,283.35,98.941,292.988,99.026z"
			/>
		<path fill-rule="evenodd" clip-rule="evenodd" d="M113,154c12.525-8.519,25.096-16.97,37.518-25.636
			c1.607-1.121,2.877-3.191,3.565-5.089c3.684-10.168,7.125-20.423,10.667-30.642c4.462-12.87,18.346-18.665,30.213-11.662
			c5.661,3.34,10.016,8.893,14.508,13.025c-1.672-4.699-3.189-10.68-5.89-16.067c-2.624-5.232-0.078-7.284,3.862-9.218
			c1.041-0.511,2.139-0.918,3.235-1.301c4.072-1.424,6.791-1.152,8.779,3.788c5.836,14.505,12.302,28.759,18.596,43.078
			c1.222,2.78,2.704,5.275,0.176,8.229c-2.614,3.052-5.725,4.437-9.653,3.952c-1.755-0.217-3.483-0.659-5.785-1.108
			c1.634,5.919,3.055,11.328,4.626,16.692c2.119,7.238,0.931,14.068-1.781,20.946c-0.93,2.359-1.279,5.49-0.565,7.871
			c9.413,31.397,19.003,62.743,28.739,94.043c1.058,3.399,0.633,5.475-2.24,7.56c-3.324,2.413-6.323,5.273-9.921,8.327
			c-13.518-28.323-26.743-56.033-40.029-83.871c-12.358,10.738-20.414,23.373-21.219,39.782c-0.073,1.496,0.859,3.154,1.639,4.563
			c6.198,11.201,12.473,22.36,18.744,33.568c-7.649,2.816-9.438,2.246-13.39-4.101c-3.142-5.046-6.283-10.092-10.077-16.186
			c-2.197,8.853-4.097,16.505-6.173,24.871c-7.119-1.862-13.936-3.646-21.028-5.5c2.921-15.2,5.636-29.9,8.63-44.542
			c0.844-4.127,0.5-7.523-1.755-11.281c-10.874-18.117-21.424-36.429-32.227-54.907c-2.049,0.503-3.925,0.962-5.869,1.438
			c-1.986-3.241-3.942-6.434-5.898-9.625C113,154.667,113,154.333,113,154z M174.6,132.719c-0.587-0.076-1.175-0.152-1.763-0.229
			c-2.883,9.616-11.276,12.292-18.715,16.149c-4.428,2.296-8.923,4.461-13.365,6.732c-2.282,1.166-4.512,2.436-6.92,3.742
			c9.604,15.941,18.87,31.321,28.584,47.444c7.925-16.886,15.368-32.664,22.686-48.5c0.552-1.193,0.734-3.054,0.195-4.174
			C181.875,146.762,178.196,139.76,174.6,132.719z"/>
		<path fill-rule="evenodd" clip-rule="evenodd" d="M369,273c-4.141,2.385-8.282,4.77-13.031,7.504
			c-11.402-24.892-22.79-49.754-34.529-75.383c-6.211,7.526-12.941,13.091-15.828,22.91c-4.27,14.527-3.232,27.122,5.476,39.386
			c2.453,3.455,4.011,7.546,5.974,11.335c-4.559,2.811-7.436,2.009-9.818-2.498c-2.473-4.676-5.639-8.986-9.195-14.541
			c-2.5,7.179-4.68,13.438-6.905,19.83c-6.585-1.756-12.768-3.405-19.358-5.164c2.938-12.275,5.389-24.339,8.808-36.122
			c2.007-6.915,1.26-12.469-2.483-18.668c-9.28-15.371-17.832-31.184-26.808-47.051c-1.688,0.316-3.261,0.611-4.915,0.922
			c-0.278-0.317-0.734-0.634-0.91-1.065c-3.641-8.927-3.65-8.953,4.463-14.186c8.255-5.324,16.457-10.74,24.865-15.812
			c2.996-1.808,4.043-4.255,5.195-7.329c3.718-9.914,7.869-19.67,12.035-29.409c2.537-5.936,8.645-7.943,13.639-7.401
			c7.268,0.79,15.4,1.714,20.145,9.085c0.96,1.492,2.259,2.767,4.262,3.683c-1.895-4.88-3.791-9.76-5.942-15.302
			c2.147-1.23,4.284-2.752,6.642-3.752c6.887-2.919,8.92-2.062,11.902,4.562c4.984,11.076,9.766,22.251,15.067,33.173
			c1.995,4.109,1.634,7.291-1.393,10.26c-3.173,3.113-6.837,3.979-10.876,1.466c-0.551-0.343-1.195-0.536-2.52-1.114
			c0.491,4.148,1.328,7.81,1.274,11.458c-0.122,8.259-0.694,16.51-1.056,24.765c-0.057,1.303-0.251,2.692,0.097,3.904
			c8.262,28.783,16.587,57.548,24.921,86.311c0.132,0.454,0.53,0.832,0.805,1.245C369,271,369,272,369,273z M259.07,171.548
			c8.744,15.316,17.104,29.957,25.488,44.644c0.791-0.513,1.174-0.619,1.293-0.857c7.453-14.879,14.897-29.762,22.287-44.672
			c0.479-0.968,1.06-2.427,0.674-3.198c-3.383-6.763-6.975-13.421-10.822-20.714c-1.684,2.592-3.053,4.285-3.973,6.196
			c-2.454,5.106-6.35,8.077-11.774,9.833C274.667,165.23,267.318,168.386,259.07,171.548z"/>
		<path fill-rule="evenodd" clip-rule="evenodd" d="M186.171,59.776c-0.075,10.139-8.938,18.938-18.852,18.717
			c-10.128-0.225-18.678-9.114-18.416-19.147c0.258-9.842,8.999-18.605,18.595-18.641C177.233,40.67,186.245,49.873,186.171,59.776z
			"/>
		<path fill-rule="evenodd" clip-rule="evenodd" d="M292.988,99.026c-9.639-0.085-17.713-8.443-17.463-18.074
			c0.248-9.513,8.357-17.489,17.692-17.403c9.263,0.085,17.507,8.37,17.545,17.63C310.802,90.752,302.477,99.111,292.988,99.026z"/>
		<path fill-rule="evenodd" clip-rule="evenodd" fill="#FFFFFF" d="M174.6,132.719c3.596,7.041,7.275,14.043,10.703,21.165
			c0.539,1.12,0.356,2.98-0.195,4.174c-7.318,15.836-14.761,31.614-22.686,48.5c-9.714-16.123-18.98-31.503-28.584-47.444
			c2.408-1.307,4.638-2.576,6.92-3.742c4.441-2.271,8.937-4.437,13.365-6.732c7.438-3.857,15.832-6.533,18.715-16.149
			C173.425,132.566,174.013,132.643,174.6,132.719z"/>
		<path fill-rule="evenodd" clip-rule="evenodd" fill="#FFFFFF" d="M259.07,171.548c8.248-3.162,15.597-6.317,23.173-8.769
			c5.425-1.756,9.32-4.727,11.774-9.833c0.92-1.911,2.289-3.604,3.973-6.196c3.848,7.293,7.439,13.951,10.822,20.714
			c0.386,0.771-0.195,2.23-0.674,3.198c-7.39,14.91-14.834,29.793-22.287,44.672c-0.119,0.238-0.502,0.345-1.293,0.857
			C276.174,201.505,267.814,186.864,259.07,171.548z"/>
	</g>
</g>
</svg>
