<?xml version="1.0" encoding="utf-8"?>
<!-- Generator: Adobe Illustrator 16.0.0, SVG Export Plug-In . SVG Version: 6.00 Build 0)  -->
<!DOCTYPE svg PUBLIC "-//W3C//DTD SVG 1.1//EN" "http://www.w3.org/Graphics/SVG/1.1/DTD/svg11.dtd">
<svg version="1.1" id="Layer_1" xmlns="http://www.w3.org/2000/svg" xmlns:xlink="http://www.w3.org/1999/xlink" x="0px" y="0px"
	 width="480px" height="320px" viewBox="0 0 480 320" enable-background="new 0 0 480 320" xml:space="preserve">
<g>
	<g>
		<path fill="#FFFFFF" d="M69.658,325.568c0-107.936,0-215.871,0-323.871c107.883,0,215.792,0,323.806,0
			c0,107.914,0,215.892,0,323.871C285.588,325.568,177.636,325.568,69.658,325.568z M144.705,221.782
			c1.275,0.157,2.095,0.313,2.921,0.353c17.018,0.809,32.878,6.012,47.868,13.622c17.898,9.087,35.518,18.736,53.094,28.441
			c26.935,14.873,54.476,15.412,82.655,4.156c4.197-1.677,4.32-1.809,3.08-6.304c-1.702-6.17-3.527-12.315-5.56-18.385
			c-3.992-11.919-10.743-21.576-22.529-27.134c-1.381-0.65-2.429-2.52-3.113-4.055c-20.223-45.299-40.361-90.635-60.597-135.928
			c-0.957-2.142-0.927-3.862-0.015-5.94c2.534-5.771,4.17-11.855,2.791-18.122c-2.83-12.862-8.32-24.648-15.481-35.667
			c-2.157-3.318-5.377-5.034-9.166-4.188c-4.971,1.11-9.99,2.458-14.617,4.532c-4.972,2.23-5.925,4.925-5.15,10.295
			c1.528,10.602,5.278,20.496,9.508,30.266c3.328,7.686,8.699,13.502,16.011,17.229c4.518,2.302,5.977,6.096,7.386,10.407
			c-0.709,0.411-1.337,0.774-1.962,1.139c-17.246,10.047-31.793,22.875-41.238,40.761c-5.709,10.813-7.926,22.315-5.721,34.522
			c0.152,0.843-0.379,2.124-1.028,2.748c-5.23,5.024-10.99,9.562-15.781,14.966C157.249,191.693,149.906,205.943,144.705,221.782z
			 M140.469,252.6c12.816-0.115,25.042,2.873,36.25,8.598c15.244,7.786,29.926,16.67,44.899,24.993
			c8.54,4.747,16.894,9.982,25.835,13.824c18.562,7.972,38.02,10.191,58.106,7.26c16.079-2.347,31.325-7.025,45.672-14.67
			c12.56-6.692,21.492-16.464,25.41-30.298c0.793-2.799,0.531-5.965,0.338-8.935c-0.059-0.9-1.436-2.262-2.363-2.403
			c-0.93-0.143-2.488,0.708-3.021,1.581c-4.672,7.647-11.323,13.309-18.496,18.348c-26.091,18.327-54.677,23.336-85.559,15.631
			c-13.579-3.389-25.221-10.893-37.264-17.532c-16.752-9.236-33.275-18.929-51.21-25.809c-16.279-6.242-32.882-9.556-50.323-5.572
			c-17,3.882-32.001,11.486-44.467,23.76c-2.058,2.025-3.594,4.643-5.06,7.167c-0.414,0.712-0.068,2.467,0.562,3.011
			c0.609,0.527,2.053,0.228,3.092,0.059c0.564-0.092,1.042-0.679,1.574-1.019C101.54,259.65,120.1,253.293,140.469,252.6z"/>
		<path fill-rule="evenodd" clip-rule="evenodd" d="M144.705,221.782c5.201-15.839,12.544-30.089,23.356-42.285
			c4.791-5.403,10.551-9.941,15.781-14.966c0.649-0.624,1.18-1.905,1.028-2.748c-2.205-12.207,0.012-23.709,5.721-34.522
			c9.444-17.885,23.992-30.713,41.238-40.761c0.625-0.365,1.253-0.728,1.962-1.139c-1.409-4.311-2.868-8.104-7.386-10.407
			c-7.312-3.727-12.683-9.542-16.011-17.229c-4.23-9.77-7.98-19.664-9.508-30.266c-0.774-5.371,0.178-8.065,5.15-10.295
			c4.627-2.075,9.646-3.422,14.617-4.532c3.789-0.846,7.009,0.869,9.166,4.188c7.161,11.019,12.651,22.805,15.481,35.667
			c1.379,6.267-0.257,12.351-2.791,18.122c-0.912,2.078-0.942,3.798,0.015,5.94c20.235,45.293,40.374,90.629,60.597,135.928
			c0.685,1.535,1.732,3.404,3.113,4.055c11.786,5.558,18.537,15.215,22.529,27.134c2.032,6.069,3.857,12.215,5.56,18.385
			c1.24,4.495,1.117,4.627-3.08,6.304c-28.18,11.256-55.721,10.717-82.655-4.156c-17.576-9.705-35.195-19.354-53.094-28.441
			c-14.99-7.61-30.85-12.813-47.868-13.622C146.8,222.096,145.98,221.939,144.705,221.782z M283.445,196.254
			c-14.199-31.875-27.974-62.796-41.733-93.685c-1.769,0.738-3.161,1.063-4.258,1.816c-9.147,6.281-17.819,13.113-24.578,22.06
			c-4.484,5.937-8.086,12.366-9.674,19.675c-2.521,11.609,1.649,21.155,9.935,29.064c14.806,14.134,32.64,21.216,53.004,21.839
			C271.676,197.191,277.235,196.554,283.445,196.254z M290.805,213.229c-1.292,0.229-2.429,0.412-3.557,0.635
			c-10.855,2.149-21.791,2.243-32.697,0.769c-12.625-1.706-24.509-5.812-35.549-12.217c-1.588-0.921-2.655-0.907-4.193,0.259
			c-6.379,4.834-10.343,11.274-12.866,18.697c-1.364,4.013-0.517,5.129,3.674,6.108c11.214,2.621,22.483,5.055,33.588,8.083
			c15.733,4.29,30.895,10.235,45.693,17.086c3.438,1.592,6.905,3.122,11.052,4.994c-0.708-1.732-1.093-2.68-1.481-3.625
			c-3.87-9.419-6.859-19.021-2.085-28.92C294.556,220.595,293.131,217.122,290.805,213.229z"/>
		<path fill-rule="evenodd" clip-rule="evenodd" d="M140.469,252.6c-20.369,0.693-38.929,7.051-56.025,17.993
			c-0.532,0.34-1.009,0.927-1.574,1.019c-1.04,0.169-2.483,0.469-3.092-0.059c-0.63-0.544-0.976-2.299-0.562-3.011
			c1.466-2.524,3.002-5.142,5.06-7.167c12.466-12.273,27.468-19.878,44.467-23.76c17.441-3.983,34.044-0.67,50.323,5.572
			c17.935,6.88,34.458,16.572,51.21,25.809c12.043,6.64,23.685,14.144,37.264,17.532c30.882,7.705,59.468,2.696,85.559-15.631
			c7.173-5.039,13.824-10.7,18.496-18.348c0.533-0.873,2.092-1.724,3.021-1.581c0.928,0.142,2.305,1.503,2.363,2.403
			c0.193,2.97,0.455,6.136-0.338,8.935c-3.918,13.834-12.851,23.605-25.41,30.298c-14.347,7.645-29.593,12.323-45.672,14.67
			c-20.087,2.932-39.545,0.712-58.106-7.26c-8.942-3.842-17.295-9.077-25.835-13.824c-14.973-8.323-29.655-17.207-44.899-24.993
			C165.51,255.473,153.285,252.484,140.469,252.6z"/>
		<path fill-rule="evenodd" clip-rule="evenodd" fill="#FFFFFF" d="M283.445,196.254c-6.21,0.3-11.77,0.938-17.304,0.769
			c-20.364-0.623-38.198-7.705-53.004-21.839c-8.286-7.909-12.457-17.455-9.935-29.064c1.588-7.309,5.19-13.738,9.674-19.675
			c6.759-8.947,15.43-15.779,24.578-22.06c1.097-0.753,2.489-1.078,4.258-1.816C255.472,133.458,269.246,164.379,283.445,196.254z
			 M233.109,177.542c11.959-0.028,20.654-8.955,20.635-21.187c-0.015-10.556-9.605-19.868-20.487-19.89
			c-11.088-0.023-20.524,9.373-20.626,20.541C212.53,168.1,221.972,177.569,233.109,177.542z"/>
		<path fill-rule="evenodd" clip-rule="evenodd" fill="#FFFFFF" d="M290.805,213.229c2.326,3.893,3.751,7.365,1.579,11.869
			c-4.774,9.899-1.785,19.501,2.085,28.92c0.389,0.945,0.773,1.893,1.481,3.625c-4.146-1.872-7.613-3.402-11.052-4.994
			c-14.799-6.851-29.96-12.796-45.693-17.086c-11.105-3.028-22.374-5.462-33.588-8.083c-4.19-0.979-5.038-2.096-3.674-6.108
			c2.523-7.423,6.487-13.863,12.866-18.697c1.539-1.166,2.605-1.18,4.193-0.259c11.04,6.405,22.924,10.511,35.549,12.217
			c10.906,1.475,21.842,1.381,32.697-0.769C288.376,213.642,289.513,213.459,290.805,213.229z"/>
		<path fill-rule="evenodd" clip-rule="evenodd" d="M233.109,177.542c-11.137,0.027-20.579-9.442-20.478-20.537
			c0.102-11.167,9.538-20.564,20.626-20.541c10.881,0.022,20.472,9.334,20.487,19.89
			C253.763,168.587,245.068,177.514,233.109,177.542z"/>
	</g>
</g>
</svg>
