<?xml version="1.0" encoding="utf-8"?>
<!-- Generator: Adobe Illustrator 16.0.0, SVG Export Plug-In . SVG Version: 6.00 Build 0)  -->
<!DOCTYPE svg PUBLIC "-//W3C//DTD SVG 1.1//EN" "http://www.w3.org/Graphics/SVG/1.1/DTD/svg11.dtd">
<svg version="1.1" id="Layer_1" xmlns="http://www.w3.org/2000/svg" xmlns:xlink="http://www.w3.org/1999/xlink" x="0px" y="0px"
	 width="300.999px" height="300.334px" viewBox="-559.166 -5.5 300.999 300.334"
	 style="enable-background:new -559.166 -5.5 300.999 300.334;" xml:space="preserve">
<path style="fill:#FFFFFF;" d="M-0.558,358.565c0-107.938,0-215.874,0-323.873c107.883,0,215.792,0,323.806,0
	c0,107.914,0,215.893,0,323.873C215.372,358.565,107.419,358.565-0.558,358.565z M74.489,254.778
	c1.275,0.158,2.095,0.314,2.921,0.354c17.018,0.809,32.878,6.012,47.868,13.621c17.898,9.088,35.518,18.736,53.094,28.441
	c26.936,14.873,54.477,15.412,82.656,4.156c4.195-1.678,4.318-1.809,3.08-6.305c-1.703-6.17-3.527-12.314-5.561-18.385
	c-3.992-11.918-10.744-21.576-22.529-27.133c-1.381-0.65-2.43-2.52-3.113-4.055c-20.223-45.301-40.361-90.637-60.598-135.93
	c-0.957-2.143-0.926-3.862-0.015-5.94c2.534-5.771,4.171-11.854,2.791-18.122c-2.829-12.862-8.32-24.648-15.481-35.667
	c-2.157-3.318-5.377-5.034-9.166-4.188c-4.971,1.11-9.99,2.458-14.617,4.532c-4.972,2.23-5.925,4.925-5.15,10.295
	c1.528,10.602,5.278,20.496,9.508,30.266c3.328,7.686,8.699,13.502,16.011,17.229c4.518,2.303,5.977,6.096,7.386,10.407
	c-0.709,0.411-1.337,0.774-1.962,1.14c-17.246,10.047-31.793,22.875-41.238,40.76c-5.709,10.814-7.926,22.316-5.721,34.524
	c0.152,0.842-0.379,2.123-1.028,2.748c-5.23,5.023-10.99,9.561-15.781,14.965C87.033,224.69,79.69,238.94,74.489,254.778z
	 M70.252,285.597c12.816-0.115,25.042,2.873,36.25,8.598c15.244,7.787,29.926,16.67,44.899,24.994
	c8.54,4.746,16.894,9.98,25.835,13.824c18.562,7.971,38.02,10.189,58.105,7.26c16.08-2.348,31.326-7.025,45.671-14.67
	c12.561-6.693,21.492-16.465,25.41-30.299c0.793-2.799,0.531-5.965,0.338-8.936c-0.059-0.898-1.436-2.262-2.361-2.402
	c-0.932-0.143-2.488,0.707-3.021,1.58c-4.672,7.648-11.324,13.311-18.496,18.35c-26.092,18.326-54.677,23.336-85.559,15.631
	c-13.579-3.389-25.222-10.893-37.264-17.533c-16.752-9.234-33.275-18.928-51.21-25.809c-16.279-6.242-32.882-9.557-50.323-5.572
	c-17,3.883-32.001,11.486-44.467,23.76c-2.058,2.025-3.594,4.645-5.06,7.168c-0.414,0.711-0.068,2.467,0.562,3.012
	c0.609,0.525,2.053,0.227,3.092,0.059c0.564-0.092,1.042-0.68,1.574-1.02C31.324,292.647,49.884,286.29,70.252,285.597z"/>
<path d="M-491.511,206.319c5.201-15.838,12.544-30.088,23.356-42.285c4.791-5.404,10.551-9.941,15.781-14.967
	c0.649-0.623,1.18-1.904,1.028-2.748c-2.205-12.208,0.012-23.71,5.721-34.522c9.444-17.885,23.992-30.713,41.238-40.762
	c0.625-0.365,1.253-0.728,1.962-1.139c-1.409-4.311-2.868-8.104-7.386-10.406c-7.312-3.728-12.683-9.543-16.011-17.229
	c-4.23-9.77-7.98-19.664-9.508-30.266c-0.774-5.371,0.178-8.065,5.15-10.295c4.627-2.075,9.646-3.422,14.617-4.532
	c3.789-0.846,7.009,0.869,9.166,4.188c7.161,11.019,12.652,22.805,15.481,35.667c1.38,6.267-0.257,12.351-2.791,18.122
	c-0.911,2.078-0.942,3.799,0.015,5.939c20.235,45.293,40.375,90.629,60.598,135.93c0.686,1.535,1.732,3.404,3.113,4.055
	c11.785,5.559,18.537,15.215,22.529,27.135c2.031,6.068,3.857,12.215,5.561,18.385c1.238,4.494,1.115,4.627-3.08,6.305
	c-28.181,11.256-55.722,10.717-82.656-4.156c-17.576-9.705-35.195-19.355-53.094-28.441c-14.99-7.609-30.85-12.812-47.868-13.623
	C-489.417,206.634-490.236,206.478-491.511,206.319z M-352.771,180.792c-14.199-31.877-27.975-62.798-41.733-93.687
	c-1.769,0.738-3.161,1.063-4.258,1.815c-9.147,6.281-17.819,13.113-24.578,22.061c-4.484,5.937-8.086,12.367-9.674,19.675
	c-2.521,11.609,1.649,21.155,9.935,29.063c14.806,14.137,32.64,21.219,53.003,21.842
	C-364.541,181.729-358.982,181.093-352.771,180.792z M-345.412,197.767c-1.291,0.229-2.429,0.412-3.557,0.635
	c-10.855,2.15-21.791,2.244-32.697,0.77c-12.625-1.707-24.509-5.812-35.549-12.217c-1.588-0.922-2.655-0.908-4.193,0.258
	c-6.379,4.834-10.343,11.275-12.866,18.697c-1.364,4.014-0.517,5.129,3.674,6.109c11.214,2.621,22.483,5.055,33.588,8.082
	c15.732,4.291,30.895,10.234,45.693,17.086c3.438,1.592,6.904,3.123,11.052,4.994c-0.708-1.732-1.093-2.68-1.481-3.625
	c-3.869-9.418-6.859-19.021-2.085-28.92C-341.66,205.134-343.085,201.659-345.412,197.767z"/>
<path d="M-495.748,237.138c-20.369,0.693-38.929,7.051-56.025,17.992c-0.532,0.342-1.009,0.928-1.574,1.02
	c-1.04,0.17-2.483,0.469-3.092-0.059c-0.63-0.545-0.976-2.299-0.562-3.012c1.466-2.523,3.002-5.141,5.06-7.166
	c12.466-12.273,27.468-19.879,44.467-23.76c17.441-3.984,34.044-0.67,50.323,5.572c17.935,6.879,34.458,16.572,51.21,25.809
	c12.042,6.641,23.685,14.145,37.264,17.531c30.882,7.705,59.467,2.697,85.559-15.631c7.172-5.039,13.824-10.699,18.496-18.348
	c0.533-0.873,2.092-1.725,3.021-1.58c0.928,0.141,2.305,1.502,2.361,2.402c0.193,2.969,0.455,6.135-0.338,8.936
	c-3.918,13.834-12.85,23.604-25.41,30.297c-14.346,7.645-29.592,12.324-45.671,14.67c-20.086,2.932-39.545,0.713-58.105-7.26
	c-8.942-3.842-17.295-9.076-25.835-13.824c-14.973-8.322-29.655-17.207-44.899-24.992
	C-470.707,240.011-482.931,237.022-495.748,237.138z"/>
<path style="fill:#FFFFFF;" d="M213.229,229.251c-6.211,0.301-11.771,0.938-17.305,0.77c-20.363-0.623-38.198-7.705-53.003-21.842
	c-8.286-7.908-12.457-17.454-9.935-29.063c1.588-7.309,5.19-13.738,9.674-19.675c6.759-8.947,15.43-15.779,24.578-22.061
	c1.097-0.752,2.489-1.077,4.258-1.815C185.256,166.453,199.03,197.374,213.229,229.251z M162.893,210.538
	c11.959-0.029,20.655-8.955,20.635-21.188c-0.016-10.557-9.605-19.867-20.487-19.891c-11.088-0.021-20.524,9.373-20.626,20.541
	C142.313,201.095,151.756,210.563,162.893,210.538z"/>
<path style="fill:#FFFFFF;" d="M220.588,246.226c2.326,3.893,3.752,7.365,1.579,11.869c-4.774,9.898-1.784,19.502,2.085,28.92
	c0.389,0.945,0.773,1.893,1.481,3.625c-4.146-1.871-7.613-3.402-11.052-4.994c-14.799-6.852-29.961-12.795-45.693-17.086
	c-11.105-3.027-22.374-5.461-33.588-8.082c-4.19-0.98-5.038-2.098-3.674-6.109c2.523-7.422,6.487-13.863,12.866-18.697
	c1.539-1.166,2.605-1.18,4.193-0.258c11.04,6.404,22.924,10.51,35.549,12.217c10.906,1.475,21.842,1.381,32.697-0.77
	C218.16,246.64,219.297,246.456,220.588,246.226z"/>
<path d="M-403.107,162.079c-11.137,0.025-20.579-9.443-20.478-20.538c0.102-11.168,9.538-20.564,20.626-20.541
	c10.882,0.021,20.472,9.334,20.487,19.891C-382.453,153.124-391.148,162.05-403.107,162.079z"/>
</svg>
