<?xml version="1.0" encoding="utf-8"?>
<!-- Generator: Adobe Illustrator 16.0.0, SVG Export Plug-In . SVG Version: 6.00 Build 0)  -->
<!DOCTYPE svg PUBLIC "-//W3C//DTD SVG 1.1//EN" "http://www.w3.org/Graphics/SVG/1.1/DTD/svg11.dtd">
<svg version="1.1" id="Layer_1" xmlns="http://www.w3.org/2000/svg" xmlns:xlink="http://www.w3.org/1999/xlink" x="0px" y="0px"
	 width="301px" height="300.334px" viewBox="0 0 301 300.334" enable-background="new 0 0 301 300.334" xml:space="preserve">
<path fill="#FFCB27" d="M67.099,211.484c5.201-15.838,12.544-30.088,23.356-42.285c4.791-5.404,10.551-9.941,15.781-14.968
	c0.649-0.623,1.18-1.903,1.028-2.748c-2.205-12.208,0.012-23.709,5.721-34.521c9.444-17.885,23.992-30.713,41.238-40.762
	c0.625-0.365,1.254-0.728,1.963-1.139c-1.41-4.311-2.869-8.104-7.387-10.406c-7.312-3.728-12.683-9.543-16.011-17.229
	c-4.23-9.77-7.98-19.664-9.508-30.266c-0.774-5.371,0.178-8.065,5.15-10.295c4.627-2.075,9.646-3.422,14.617-4.532
	c3.789-0.846,7.009,0.869,9.166,4.188c7.161,11.019,12.652,22.805,15.48,35.667c1.381,6.267-0.256,12.351-2.791,18.122
	c-0.91,2.078-0.941,3.799,0.016,5.939c20.234,45.293,40.375,90.629,60.598,135.931c0.687,1.534,1.732,3.403,3.113,4.055
	c11.785,5.559,18.537,15.215,22.529,27.135c2.031,6.068,3.857,12.215,5.561,18.385c1.238,4.494,1.115,4.627-3.08,6.305
	c-28.181,11.256-55.722,10.717-82.656-4.156c-17.576-9.704-35.194-19.354-53.093-28.44c-14.99-7.608-30.85-12.812-47.868-13.623
	C69.192,211.799,68.374,211.643,67.099,211.484z M205.838,185.957c-14.199-31.877-27.976-62.798-41.733-93.687
	c-1.769,0.738-3.16,1.063-4.258,1.815c-9.147,6.281-17.819,13.113-24.578,22.061c-4.484,5.937-8.086,12.367-9.674,19.675
	c-2.521,11.609,1.649,21.155,9.935,29.062c14.806,14.138,32.64,21.22,53.002,21.843
	C194.068,186.895,199.627,186.258,205.838,185.957z M213.197,202.932c-1.291,0.229-2.428,0.412-3.557,0.635
	c-10.855,2.15-21.791,2.244-32.697,0.771c-12.625-1.707-24.508-5.812-35.548-12.217c-1.588-0.922-2.655-0.908-4.193,0.258
	c-6.379,4.834-10.343,11.274-12.866,18.697c-1.364,4.014-0.517,5.129,3.674,6.108c11.214,2.621,22.483,5.056,33.588,8.082
	c15.732,4.291,30.895,10.234,45.693,17.086c3.438,1.592,6.904,3.123,11.052,4.994c-0.708-1.731-1.093-2.68-1.481-3.625
	c-3.869-9.418-6.858-19.021-2.084-28.92C216.949,210.299,215.525,206.824,213.197,202.932z"/>
<path fill="#FFCB27" d="M62.861,242.303c-20.369,0.693-38.929,7.051-56.025,17.992c-0.532,0.342-1.009,0.928-1.574,1.02
	c-1.04,0.17-2.483,0.47-3.092-0.059c-0.63-0.545-0.976-2.299-0.562-3.012c1.466-2.523,3.002-5.141,5.06-7.166
	c12.466-12.273,27.468-19.879,44.467-23.76c17.441-3.984,34.044-0.67,50.323,5.572c17.935,6.879,34.458,16.571,51.21,25.809
	c12.042,6.641,23.685,14.145,37.265,17.531c30.881,7.705,59.467,2.697,85.559-15.631c7.172-5.039,13.824-10.699,18.496-18.349
	c0.533-0.873,2.092-1.726,3.021-1.58c0.929,0.142,2.306,1.502,2.36,2.402c0.193,2.969,0.455,6.135-0.338,8.937
	c-3.918,13.834-12.85,23.604-25.409,30.297c-14.347,7.645-29.593,12.323-45.671,14.67c-20.086,2.932-39.545,0.713-58.105-7.261
	c-8.941-3.842-17.295-9.075-25.835-13.823c-14.973-8.322-29.655-17.207-44.899-24.992C87.902,245.176,75.678,242.188,62.861,242.303
	z"/>
<path fill="#FFCB27" d="M155.502,167.244c-11.137,0.025-20.579-9.443-20.478-20.538c0.102-11.168,9.538-20.564,20.625-20.541
	c10.883,0.021,20.473,9.334,20.487,19.891C176.156,158.289,167.461,167.215,155.502,167.244z"/>
</svg>
