<?xml version="1.0" encoding="utf-8"?>
<!-- Generator: Adobe Illustrator 16.0.0, SVG Export Plug-In . SVG Version: 6.00 Build 0)  -->
<!DOCTYPE svg PUBLIC "-//W3C//DTD SVG 1.1//EN" "http://www.w3.org/Graphics/SVG/1.1/DTD/svg11.dtd">
<svg version="1.1" id="Layer_1" xmlns="http://www.w3.org/2000/svg" xmlns:xlink="http://www.w3.org/1999/xlink" x="0px" y="0px"
	 width="172.872px" height="111.703px" viewBox="0 0 172.872 111.703" enable-background="new 0 0 172.872 111.703"
	 xml:space="preserve">
<path fill="#FFCB27" d="M126.01,57.724c-1.857-4.035-3.754-8.158-6.35-13.792c-3.154,3.134-5.764,4.938-7.283,7.41
	c-2.705,4.394-4.93,9.113-7.043,13.834c-4.178,9.324-5.502,13.056-8.523,14.781c-2.332,1.334-14.884,2.293-22.332,0.668
	c-3.082-0.674-6.142-1.457-10.29-2.444c-1.609,4.594-2.979,8.467-4.32,12.346c-5.01,14.474-16.804,21.241-32.191,18.47
	C14.999,106.711,6.181,94.967,6.732,81.1c0.547-13.781,10.9-24.584,25.07-26.152c6.904-0.768,13.152,1.797,22.705,9.951
	c-3.996,0.658-6.864,1.627-9.662,1.453c-2.733-0.17-5.342-1.896-8.094-2.26C26.012,62.67,16.683,69.52,15.046,79.749
	c-1.531,9.567,6.024,19.703,16.184,21.705c9.646,1.897,17.406-4.3,20.131-16.513c-6.969-3.071-14.414,5.795-21.818-0.765
	c1.955-9.229,10.769-7.518,16.53-9.918c5.896-2.455,12.509-3.155,19.162-6.209C60.178,57.028,55.183,49.002,42.246,49.34
	c-8.508,0.226-17.148-1.01-19.52-12.154c-0.422-1.984-4.08-3.512-6.486-4.791C12.574,30.44,8.698,28.883,2,25.831
	c4.797-1.086,6.662-1.912,8.504-1.861c12.563,0.341,25.143,0.613,37.681,1.435c7.026,0.459,14.229,1.111,20.925,3.109
	c14.652,4.372,26.468-2.142,40.376-8.714c-3.262-5.077-6.062-9.44-8.879-13.823c3.018-1.354,6.41-2.203,8.119-2.142
	c2.471,0.09,2.783,1.945,4.764,5.781c2.986,5.787,5.453,11.842,8.051,17.555c13.141,1.627,26.865-2.317,37.424,11.097
	c-6.467-0.604-11.404-1.554-16.303-1.382c-4.576,0.162-9.113,1.511-15.172,2.609c2.178,5.637,3.951,10.229,5.609,14.53
	c5.891,0.856,11.061,1.115,15.951,2.41c15.512,4.108,23.357,20.272,17.832,36.073c-4.791,13.691-22.42,21.031-36.395,15.147
	c-14.641-6.165-21.016-24.124-13.209-37.976C119.561,65.638,122.764,62.116,126.01,57.724z M142.444,86.75
	c-8.182-3.485-6.84-13.522-13.037-17.612c-8.77,9.983-9.299,17.795-1.938,25.866c6.713,7.357,16.176,8.634,24.229,3.261
	c7.586-5.062,10.486-15.427,6.645-23.75c-3.781-8.188-9.715-10.761-18.184-8.218C138.469,73.181,147.524,78.519,142.444,86.75z"/>
</svg>
