<?xml version="1.0" encoding="utf-8"?>
<!-- Generator: Adobe Illustrator 16.0.0, SVG Export Plug-In . SVG Version: 6.00 Build 0)  -->
<!DOCTYPE svg PUBLIC "-//W3C//DTD SVG 1.1//EN" "http://www.w3.org/Graphics/SVG/1.1/DTD/svg11.dtd">
<svg version="1.1" id="Layer_1" xmlns="http://www.w3.org/2000/svg" xmlns:xlink="http://www.w3.org/1999/xlink" x="0px" y="0px"
	 width="172.872px" height="111.702px" viewBox="18.224 198.225 172.872 111.702"
	 style="enable-background:new 18.224 198.225 172.872 111.702;" xml:space="preserve">
<path d="M144.732,254.723c-1.857-4.035-3.754-8.158-6.348-13.792c-3.156,3.134-5.765,4.938-7.285,7.411
	c-2.705,4.393-4.928,9.112-7.043,13.833c-4.176,9.325-5.502,13.056-8.522,14.782c-2.333,1.333-14.885,2.292-22.333,0.667
	c-3.082-0.673-6.141-1.456-10.289-2.444c-1.609,4.594-2.979,8.467-4.32,12.346c-5.01,14.474-16.804,21.242-32.191,18.469
	c-12.68-2.284-21.498-14.029-20.947-27.896c0.547-13.781,10.9-24.584,25.07-26.152c6.904-0.768,13.152,1.797,22.705,9.951
	c-3.996,0.658-6.864,1.627-9.662,1.453c-2.733-0.17-5.342-1.896-8.094-2.26c-10.739-1.421-20.068,5.428-21.705,15.657
	c-1.531,9.567,6.024,19.702,16.184,21.704c9.646,1.898,17.406-4.299,20.131-16.512c-6.969-3.072-14.414,5.795-21.818-0.764
	c1.955-9.23,10.769-7.518,16.53-9.918c5.896-2.456,12.509-3.156,19.162-6.21c-5.057-11.021-10.052-19.047-22.989-18.709
	c-8.508,0.226-17.148-1.01-19.52-12.154c-0.422-1.984-4.08-3.511-6.486-4.791c-3.666-1.955-7.542-3.512-14.24-6.565
	c4.797-1.085,6.662-1.911,8.504-1.86c12.563,0.34,25.143,0.612,37.681,1.434c7.026,0.459,14.229,1.111,20.926,3.109
	c14.652,4.372,26.468-2.141,40.377-8.713c-3.262-5.078-6.063-9.441-8.879-13.824c3.017-1.355,6.41-2.203,8.119-2.142
	c2.47,0.091,2.782,1.946,4.764,5.782c2.986,5.787,5.453,11.842,8.05,17.554c13.14,1.628,26.866-2.317,37.424,11.097
	c-6.467-0.604-11.404-1.553-16.303-1.381c-4.577,0.161-9.114,1.51-15.171,2.608c2.176,5.637,3.951,10.23,5.609,14.531
	c5.891,0.857,11.06,1.115,15.95,2.41c15.512,4.109,23.359,20.273,17.832,36.074c-4.791,13.691-22.42,21.031-36.394,15.147
	c-14.64-6.166-21.015-24.124-13.208-37.976C138.283,262.637,141.486,259.115,144.732,254.723z M161.167,283.749
	c-8.183-3.485-6.841-13.522-13.038-17.612c-8.769,9.984-9.298,17.795-1.938,25.866c6.713,7.358,16.177,8.634,24.229,3.261
	c7.586-5.061,10.486-15.427,6.645-23.75c-3.781-8.188-9.715-10.76-18.184-8.218C157.191,270.18,166.247,275.518,161.167,283.749z"/>
</svg>
