<?xml version="1.0" encoding="utf-8"?>
<!-- Generator: Adobe Illustrator 16.0.0, SVG Export Plug-In . SVG Version: 6.00 Build 0)  -->
<!DOCTYPE svg PUBLIC "-//W3C//DTD SVG 1.1//EN" "http://www.w3.org/Graphics/SVG/1.1/DTD/svg11.dtd">
<svg version="1.1" id="Layer_1" xmlns="http://www.w3.org/2000/svg" xmlns:xlink="http://www.w3.org/1999/xlink" x="0px" y="0px"
	 width="480px" height="329.333px" viewBox="0 -3.5 480 329.333" style="enable-background:new 0 -3.5 480 329.333;"
	 xml:space="preserve">
<path style="fill:#FFFFFF;" d="M-558.605,444.7c0-170.918,0-341.836,0-512.845c170.847,0,341.723,0,512.753,0
	c0,170.888,0,341.867,0,512.845C-216.703,444.7-387.64,444.7-558.605,444.7z M-185.58,182.113
	c-48.811,20.947-66.334,74.343-47.271,116.88c18.797,41.945,66.761,62.129,110.266,46.156
	c42.921-15.76,66.279-62.951,52.854-107.178c-14.215-46.825-60.437-66.296-92.161-60.71c1.012,3.34,2.291,6.58,2.946,9.941
	c1.233,6.328,3.197,11.463,11.276,9.92c0.763-0.146,1.625,0.322,2.451,0.406c36.428,3.713,63.479,38.944,57.769,75.601
	c-5.741,36.842-39.715,61.799-76.731,55.717c-47.694-7.838-71.328-63.203-43.875-102.896c7.235-10.465,16.571-18.438,28.632-23.521
	c0.57,1.439,1.059,2.465,1.391,3.537c4.877,15.852,9.801,31.692,14.517,47.595c0.61,2.059,0.501,4.516,0.075,6.656
	c-1.142,5.729,1.457,11.352,6.435,13.141c5.571,2.006,11.478-0.572,13.674-5.969c2.199-5.396-0.085-10.643-5.62-13.777
	c-1.535-0.871-3.197-2.465-3.701-4.072c-8.754-27.851-17.342-55.749-25.924-83.651c-0.369-1.199-0.438-2.525-0.443-3.793
	c-0.01-2.133,0.705-4.436,0.134-6.377c-3.404-11.569-7.088-23.055-10.788-34.918c3.173-1.084,5.939-2.117,8.759-2.974
	c5.962-1.813,7.884-4.474,7.087-10.69c-0.146-1.15-1.537-3.054-2.342-3.048c-3.229,0.024-3.754-2.177-4.382-4.403
	c-4.731-16.757-9.53-33.498-14.042-50.314c-0.609-2.273-0.079-5.031,0.529-7.411c1.017-3.978,1.098-7.648-2.067-10.625
	c-2.921-2.749-6.265-3.072-10.174-1.837c-2.234,0.706-5.062,0.646-7.31-0.059c-3.228-1.013-6.315-1.135-8.095,1.59
	c-1.241,1.905-1.641,5.007-1.108,7.268c0.727,3.088,3.693,3.956,6.812,3.742c4.795-0.328,11.089,4.279,12.465,9.084
	c4.248,14.83,8.507,29.656,12.729,44.494c2.531,8.891-0.168,13.758-9.109,16.57c-1.9,0.598-3.783,1.262-5.706,1.778
	c-2.884,0.775-3.603,2.487-2.659,5.239c1.338,3.903,2.536,7.853,3.982,12.37c-51.492,15.538-102.678,30.982-154.29,46.557
	c-1.533-5.123-2.62-9.811-4.365-14.238c-1.34-3.403-0.38-5.537,2.032-7.865c4.936-4.769,10.819-7.51,17.298-9.483
	c1.566-0.478,2.536-2.916,3.779-4.452c-1.77-1.117-3.461-2.405-5.348-3.265c-0.736-0.335-1.948,0.19-2.883,0.502
	c-19.481,6.492-38.976,12.942-58.383,19.648c-1.471,0.508-3.099,2.801-3.213,4.371c-0.116,1.592,1.15,4.148,2.523,4.815
	c3.376,1.64,7.092,2.845,10.799,3.487c7.848,1.359,15.392-0.312,22.831-3.957c1.656,5.408,3.333,10.254,4.513,15.219
	c0.271,1.141-0.824,3.098-1.876,3.988c-25.061,21.186-50.179,42.305-75.385,63.317c-1.617,1.348-3.988,2.293-6.087,2.463
	c-5.685,0.463-10.059,3.457-11.116,8.275c-1.037,4.729,1.211,9.617,5.438,11.818c4.495,2.342,9.593,1.135,13.515-2.908
	c1.024-1.057,2.597-1.961,4.031-2.174c9.532-1.412,19.088-2.664,28.649-3.879c8.191-1.039,16.397-1.955,25.496-3.031
	c-0.418,4.605-0.613,8.701-1.183,12.744c-5.032,35.709-39.624,61.691-76.501,55.375c-41.861-7.17-66.475-50.684-50.764-90.127
	c15.316-38.45,61.753-53.675,96.884-31.863c1.335,0.827,4.01,1.288,5.029,0.531c4.917-3.653,9.48-7.784,14.208-11.776
	c-24.588-21.561-67.294-27.223-100.763-6.236c-33.454,20.977-48.928,62.651-36.833,100.536
	c12.161,38.094,49.768,63.734,89.308,60.578c19.812-1.584,37.456-8.838,52.231-22.277c20.558-18.703,29.53-42.438,29.113-69.85
	c3.562-1.334,5.787-0.875,7.871,2.275c2.865,4.338,7.231,6.896,12.581,7.041c2.792,0.076,4.133,1.076,4.755,3.893
	c0.765,3.457,2.124,6.781,3.127,9.859c2.854,0,5.003,0,7.444,0c-1.121-3.863-1.998-7.562-3.286-11.113
	c-1.03-2.838-0.896-4.684,1.798-6.756c4.584-3.525,6.981-8.629,6.476-14.426c-0.313-3.586,1.025-5.311,3.809-7.096
	c35.434-22.728,70.797-45.563,106.189-68.356c6.398-4.122,12.843-8.174,18.521-11.784
	C-188.328,166.719-187.912,174.708-185.58,182.113z"/>
<path d="M357.576,153.34c-2.332-7.405-2.748-15.396-10.76-20.162c-5.678,3.609-12.121,7.662-18.521,11.784
	c-35.392,22.792-70.754,45.63-106.188,68.357c-2.783,1.785-4.122,3.508-3.809,7.096c0.506,5.795-1.892,10.898-6.476,14.424
	c-2.694,2.072-2.829,3.92-1.798,6.758c1.289,3.549,2.165,7.248,3.286,11.111c-2.441,0-4.59,0-7.444,0
	c-1.003-3.076-2.362-6.4-3.127-9.859c-0.622-2.814-1.963-3.814-4.755-3.891c-5.35-0.146-9.716-2.703-12.581-7.041
	c-2.084-3.152-4.309-3.611-7.871-2.275c0.417,27.412-8.555,51.145-29.113,69.848c-14.775,13.441-32.418,20.695-52.231,22.277
	c-39.54,3.158-77.146-22.484-89.308-60.578c-12.095-37.885,3.379-79.56,36.833-100.534c33.469-20.986,76.175-15.324,100.763,6.234
	c-4.727,3.994-9.291,8.123-14.208,11.778c-1.019,0.757-3.694,0.296-5.029-0.533c-35.131-21.812-81.568-6.585-96.884,31.865
	c-15.711,39.441,8.903,82.955,50.764,90.125c36.877,6.318,71.469-19.666,76.501-55.375c0.569-4.043,0.765-8.139,1.183-12.744
	c-9.099,1.076-17.305,1.994-25.496,3.033c-9.561,1.213-19.117,2.465-28.649,3.877c-1.434,0.215-3.007,1.119-4.031,2.174
	c-3.922,4.043-9.02,5.25-13.515,2.908c-4.227-2.201-6.476-7.088-5.438-11.818c1.057-4.816,5.431-7.812,11.116-8.275
	c2.099-0.17,4.47-1.113,6.087-2.463c25.206-21.013,50.324-42.132,75.385-63.317c1.052-0.889,2.147-2.846,1.876-3.987
	c-1.18-4.964-2.857-9.81-4.513-15.22c-7.439,3.645-14.983,5.316-22.831,3.957c-3.707-0.643-7.422-1.848-10.799-3.486
	c-1.373-0.667-2.639-3.223-2.523-4.816c0.114-1.567,1.742-3.862,3.213-4.37c19.407-6.706,38.902-13.156,58.383-19.648
	c0.936-0.312,2.147-0.837,2.883-0.502c1.887,0.859,3.579,2.147,5.348,3.265c-1.243,1.537-2.212,3.976-3.779,4.452
	c-6.479,1.974-12.362,4.714-17.298,9.483c-2.412,2.33-3.372,4.462-2.032,7.865c1.745,4.429,2.832,9.117,4.365,14.24
	c51.611-15.574,102.797-31.02,154.29-46.558c-1.446-4.517-2.646-8.467-3.982-12.37c-0.942-2.752-0.225-4.464,2.659-5.239
	c1.923-0.517,3.805-1.181,5.706-1.778c8.94-2.812,11.642-7.679,9.108-16.57c-4.223-14.837-8.479-29.664-12.729-44.494
	c-1.376-4.805-7.67-9.412-12.465-9.084c-3.117,0.214-6.085-0.654-6.811-3.742c-0.533-2.26-0.135-5.362,1.107-7.268
	c1.777-2.725,4.867-2.603,8.094-1.59c2.249,0.705,5.075,0.764,7.311,0.059c3.908-1.234,7.253-0.911,10.174,1.837
	c3.165,2.977,3.084,6.647,2.066,10.625c-0.607,2.38-1.139,5.138-0.528,7.411c4.512,16.816,9.311,33.557,14.042,50.314
	c0.628,2.226,1.152,4.427,4.382,4.403c0.805-0.006,2.194,1.896,2.342,3.048c0.797,6.216-1.126,8.876-7.087,10.69
	c-2.818,0.857-5.586,1.89-8.759,2.974c3.7,11.864,7.384,23.35,10.788,34.918c0.57,1.942-0.145,4.244-0.135,6.376
	c0.008,1.27,0.074,2.596,0.443,3.793c8.582,27.902,17.171,55.803,25.924,83.653c0.504,1.605,2.166,3.201,3.702,4.07
	c5.535,3.137,7.819,8.381,5.62,13.777c-2.197,5.396-8.104,7.975-13.674,5.969c-4.977-1.789-7.575-7.41-6.436-13.139
	c0.426-2.143,0.535-4.6-0.074-6.658c-4.715-15.9-9.64-31.741-14.518-47.593c-0.331-1.074-0.818-2.1-1.39-3.539
	c-12.062,5.085-21.396,13.059-28.632,23.521c-27.453,39.692-3.819,95.06,43.875,102.897c37.018,6.082,70.989-18.877,76.731-55.719
	c5.712-36.654-21.341-71.888-57.769-75.601c-0.826-0.084-1.689-0.551-2.451-0.406c-8.079,1.545-10.043-3.59-11.277-9.919
	c-0.654-3.362-1.935-6.603-2.945-9.94c31.726-5.586,77.945,13.885,92.16,60.71c13.427,44.227-9.933,91.418-52.854,107.176
	c-43.505,15.975-91.469-4.209-110.266-46.156C291.242,227.683,308.766,174.287,357.576,153.34z M187.73,160.082
	c3.231,10.709,6.407,20.807,9.3,30.984c1.755,6.172,2.771,12.164,11.076,13.571c3.072,0.52,5.147,1.232,7.941-0.579
	c28.759-18.641,57.597-37.162,86.412-55.718c13.97-8.997,27.938-17.995,42.144-27.144c-0.931-2.659-1.765-5.038-2.683-7.659
	C290.436,129.079,239.504,144.453,187.73,160.082z M109.752,225.399c0.18,0.338,0.359,0.678,0.54,1.016
	c21.078-2.604,42.144-5.312,63.242-7.74c5.219-0.602,9.741-1.426,10.84-7.59c0.081-0.449,0.433-0.98,0.817-1.229
	c5.018-3.236,3.81-7.446,2.297-12.06c-3.186-9.717-6.031-19.546-9.203-29.941c-6.335,5.318-12.116,10.169-17.369,14.58
	c4.224,8.104,8.044,15.438,12.268,23.542c-7.808,1.035-14.655,1.943-21.451,2.844c-2.412-4.191-4.697-8.167-7.25-12.606
	C132.542,206.251,121.146,215.825,109.752,225.399z"/>
<path style="fill:#FFFFFF;" d="M-355.425,188.855c51.774-15.629,102.705-31.002,154.191-46.543c0.918,2.621,1.752,5,2.682,7.659
	c-14.205,9.149-28.174,18.147-42.145,27.144c-28.813,18.557-57.651,37.076-86.411,55.719c-2.794,1.812-4.87,1.097-7.941,0.577
	c-8.305-1.405-9.321-7.397-11.076-13.571C-349.017,209.66-352.194,199.564-355.425,188.855z"/>
<path style="fill:#FFFFFF;" d="M-433.403,254.173c11.394-9.574,22.789-19.148,34.731-29.185c2.552,4.439,4.838,8.413,7.25,12.606
	c6.796-0.9,13.644-1.811,21.451-2.846c-4.224-8.104-8.044-15.437-12.268-23.542c5.253-4.409,11.034-9.262,17.369-14.578
	c3.172,10.396,6.017,20.225,9.203,29.939c1.513,4.613,2.721,8.823-2.297,12.06c-0.384,0.248-0.736,0.779-0.817,1.229
	c-1.099,6.164-5.622,6.99-10.84,7.592c-21.099,2.428-42.164,5.137-63.242,7.738C-433.044,254.851-433.223,254.511-433.403,254.173z"
	/>
</svg>
