<?xml version="1.0" encoding="utf-8"?>
<!-- Generator: Adobe Illustrator 16.0.0, SVG Export Plug-In . SVG Version: 6.00 Build 0)  -->
<!DOCTYPE svg PUBLIC "-//W3C//DTD SVG 1.1//EN" "http://www.w3.org/Graphics/SVG/1.1/DTD/svg11.dtd">
<svg version="1.1" id="Capa_1" xmlns="http://www.w3.org/2000/svg" xmlns:xlink="http://www.w3.org/1999/xlink" x="0px" y="0px"
	 width="64px" height="64px" viewBox="0 0 64 64" enable-background="new 0 0 64 64" xml:space="preserve">
<g>
	<path fill="#FFCB27" d="M2.686,33.75c0,0,1.314,0.938,0.626,1.375s-0.625,1.062-0.625,1.062l3.506-0.09
		C5.912,35.454,5.75,34.747,5.75,34c0-2.895,2.355-5.25,5.25-5.25s5.25,2.355,5.25,5.25c0,0.684-0.141,1.335-0.38,1.936
		c6.549-0.037,19.288-0.111,27.519-0.166c-0.199-0.556-0.326-1.146-0.326-1.769c0-2.929,2.383-5.312,5.312-5.312
		s5.312,2.383,5.312,5.312c0,0.524-0.1,1.021-0.242,1.5c3.188-0.346,7.931-1,7.931-1l-0.75-0.708L62,32.667
		c1.417-1.375-0.917-2.5-0.917-2.5c0.833-2.375-0.542-4-0.542-4C61.542,25.583,60.5,25,60.5,25l1-1.292l-3.875-1.042
		C55.25,22.458,53,24,53,24s-7.802-4.59-9.475-4.739c0.173-0.129,0.348-0.248,0.515-0.388c0.992-0.827-0.431-2.234-1.414-1.414
		c-0.97,0.809-2.095,1.398-3.267,1.857c-4.815,0.136-12.173,0.474-13.401,1.059c-1.75,0.833-7.375,4.958-7.375,4.958
		C5.5,26.208,2.648,29,2.648,29l0.451,2.167C0.406,32.417,2.686,33.75,2.686,33.75z"/>
	<path fill="#FFCB27" d="M11,29.75c-2.347,0-4.25,1.903-4.25,4.25c0,0.756,0.214,1.455,0.559,2.07
		c0.728,1.295,2.099,2.18,3.691,2.18c1.644,0,3.054-0.943,3.76-2.309c0.302-0.584,0.49-1.238,0.49-1.941
		C15.25,31.653,13.347,29.75,11,29.75z"/>
	<path fill="#FFCB27" d="M48.375,29.688c-2.382,0-4.312,1.931-4.312,4.312c0,0.629,0.143,1.223,0.385,1.762
		c0.675,1.502,2.176,2.551,3.928,2.551c1.812,0,3.357-1.121,3.995-2.703c0.2-0.498,0.317-1.039,0.317-1.609
		C52.688,31.618,50.757,29.688,48.375,29.688z"/>
</g>
</svg>
