<?xml version="1.0" encoding="utf-8"?>
<!-- Generator: Adobe Illustrator 16.0.0, SVG Export Plug-In . SVG Version: 6.00 Build 0)  -->
<!DOCTYPE svg PUBLIC "-//W3C//DTD SVG 1.1//EN" "http://www.w3.org/Graphics/SVG/1.1/DTD/svg11.dtd">
<svg version="1.1" id="Layer_1" xmlns="http://www.w3.org/2000/svg" xmlns:xlink="http://www.w3.org/1999/xlink" x="0px" y="0px"
	 width="226.25px" height="267.5px" viewBox="0 0 226.25 267.5" enable-background="new 0 0 226.25 267.5" xml:space="preserve">
<g>
	<path fill="#FFCB27" d="M2.569,245.479c0-0.311,0-0.617,0-0.924c16.161-0.467,32.323-0.9,48.481-1.42
		c3.531-0.113,7.567,0.297,10.415-1.051c2.418-1.145,3.46-4.477,5.109-6.838c0.184-0.264,0.413-0.516,0.53-0.801
		c0.71-1.723,2.094-2.061,4.136-2.027c12.79,0.184,25.582,0.229,38.374,0.305c0.93,0.004,1.862-0.115,2.712-0.172
		c0-2.156,0-4.031,0-6.037c-1.266,0-2.321,0-3.377,0c-29.589,0-59.179,0.006-88.768-0.008c-4.807-0.002-6.327-1.512-4.842-5.449
		c1.84-4.887,4.065-9.668,6.318-14.428C53.574,139.227,85.523,71.836,117.494,4.452c0.421-0.887,1.229-1.638,1.854-2.452
		c0.711,0,1.422,0,2.133,0c0.41,1.431,1.177,2.861,1.178,4.292c0.06,69.062,0.051,138.124,0.051,207.188
		c0,0.883,0.001,1.768,0.001,2.65c1.567-1.793,2.615-3.688,3.496-5.643c8.599-19.043,12.099-39.004,13.892-59.23
		c1.562-17.618,1.237-35.229-1.604-52.753c-2.128-13.122-4.801-26.132-11.735-38.151c-0.194-0.339-0.528-0.779-0.418-1.059
		c0.263-0.662,0.597-1.483,1.204-1.795c0.407-0.209,1.587,0.172,1.977,0.596c0.699,0.76,1.162,1.718,1.549,2.646
		c23.671,57.062,47.324,114.125,70.977,171.19c0.592,1.422,1.166,2.852,1.756,4.291c5.868-0.436,11.521-0.889,17.184-1.264
		c3.035-0.203,3.811,0.551,2.914,3.047c-1.074,2.998-2.063,6.08-3.699,8.857c-4.713,8-10.544,15.174-20.861,18.479
		c-63.277,0-126.557,0-189.834,0c-0.543-1.529-1.094-3.059-1.627-4.59C6.102,255.664,4.337,250.57,2.569,245.479z M122.839,232.426
		c4.3,0,8.287-0.035,12.275,0.012c3.276,0.041,6.618-0.141,9.813,0.35c5.756,0.883,11.426,2.189,17.131,3.324
		c9.483,1.889,21.99,2.029,29.92,0.166c-23.037-5.262-46.026-6.828-69.142-8.527C122.839,229.596,122.839,230.953,122.839,232.426z"
		/>
</g>
</svg>
