<?xml version="1.0" encoding="utf-8"?>
<!-- Generator: Adobe Illustrator 16.0.0, SVG Export Plug-In . SVG Version: 6.00 Build 0)  -->
<!DOCTYPE svg PUBLIC "-//W3C//DTD SVG 1.1//EN" "http://www.w3.org/Graphics/SVG/1.1/DTD/svg11.dtd">
<svg version="1.1" id="Layer_1" xmlns="http://www.w3.org/2000/svg" xmlns:xlink="http://www.w3.org/1999/xlink" x="0px" y="0px"
	 width="480px" height="320px" viewBox="0 0 480 320" enable-background="new 0 0 480 320" xml:space="preserve">
<g>
	<path d="M130.533,272.706c0-0.309,0-0.616,0-0.924c16.161-0.465,32.323-0.9,48.481-1.419c3.531-0.113,7.567,0.297,10.415-1.051
		c2.418-1.144,3.46-4.475,5.109-6.838c0.184-0.263,0.413-0.514,0.53-0.8c0.71-1.722,2.094-2.059,4.136-2.028
		c12.79,0.183,25.582,0.228,38.374,0.304c0.93,0.005,1.862-0.114,2.712-0.171c0-2.156,0-4.031,0-6.038c-1.266,0-2.321,0-3.377,0
		c-29.589,0-59.179,0.006-88.768-0.007c-4.807-0.001-6.327-1.511-4.842-5.45c1.84-4.885,4.065-9.668,6.318-14.426
		c31.917-67.403,63.866-134.794,95.837-202.178c0.421-0.887,1.229-1.638,1.855-2.452c0.711,0,1.422,0,2.133,0
		c0.409,1.431,1.175,2.861,1.176,4.292c0.059,69.062,0.051,138.125,0.051,207.188c0,0.884,0.001,1.768,0.001,2.652
		c1.567-1.793,2.615-3.689,3.496-5.643c8.597-19.042,12.098-39.003,13.891-59.23c1.562-17.619,1.238-35.229-1.603-52.755
		c-2.128-13.121-4.801-26.132-11.736-38.151c-0.195-0.339-0.528-0.779-0.417-1.059c0.262-0.662,0.596-1.483,1.204-1.795
		c0.407-0.209,1.587,0.172,1.976,0.596c0.698,0.76,1.162,1.718,1.548,2.648c23.671,57.06,47.324,114.125,70.977,171.189
		c0.591,1.423,1.166,2.852,1.755,4.292c5.869-0.435,11.522-0.887,17.183-1.263c3.036-0.203,3.811,0.551,2.915,3.047
		c-1.075,2.999-2.064,6.081-3.7,8.857c-4.713,8-10.544,15.175-20.861,18.478c-63.278,0-126.557,0-189.834,0
		c-0.543-1.529-1.094-3.057-1.627-4.589C134.066,282.892,132.301,277.798,130.533,272.706z M250.803,259.654
		c4.298,0,8.287-0.036,12.275,0.012c3.277,0.041,6.619-0.14,9.814,0.35c5.756,0.882,11.426,2.188,17.131,3.324
		c9.484,1.889,21.99,2.029,29.921,0.165c-23.039-5.261-46.028-6.828-69.142-8.527C250.803,256.824,250.803,258.181,250.803,259.654z
		"/>
	<path fill-rule="evenodd" clip-rule="evenodd" fill="#FFFFFF" d="M327.3,292.572c10.317-3.303,16.148-10.478,20.861-18.478
		c1.636-2.776,2.625-5.858,3.7-8.857c0.896-2.496,0.121-3.25-2.915-3.047c-5.66,0.376-11.313,0.828-17.183,1.263
		c-0.589-1.44-1.164-2.869-1.755-4.292c-23.652-57.064-47.306-114.13-70.977-171.189c-0.386-0.93-0.85-1.889-1.548-2.648
		c-0.389-0.424-1.568-0.805-1.976-0.596c-0.608,0.312-0.942,1.134-1.204,1.795c-0.111,0.279,0.222,0.719,0.417,1.059
		c6.936,12.019,9.608,25.03,11.736,38.151c2.841,17.526,3.165,35.136,1.603,52.755c-1.793,20.228-5.294,40.188-13.891,59.23
		c-0.881,1.953-1.929,3.85-3.496,5.643c0-0.885-0.001-1.769-0.001-2.652c0-69.062,0.008-138.125-0.051-207.188
		c-0.001-1.431-0.767-2.861-1.176-4.292c34.483,0,68.966,0,103.448,0c0,87.781,0,175.562,0,263.344
		C344.363,292.572,335.831,292.572,327.3,292.572z"/>
	<path fill-rule="evenodd" clip-rule="evenodd" fill="#FFFFFF" d="M247.313,29.229c-0.627,0.814-1.435,1.564-1.855,2.452
		c-31.971,67.384-63.919,134.775-95.837,202.178c-2.253,4.758-4.479,9.541-6.318,14.426c-1.484,3.939,0.036,5.449,4.842,5.45
		c29.589,0.013,59.179,0.007,88.768,0.007c1.056,0,2.111,0,3.377,0c0,2.007,0,3.882,0,6.038c-0.851,0.057-1.782,0.176-2.712,0.171
		c-12.792-0.076-25.584-0.121-38.374-0.304c-2.042-0.03-3.426,0.307-4.136,2.028c-0.117,0.286-0.346,0.537-0.53,0.8
		c-1.649,2.363-2.69,5.694-5.109,6.838c-2.848,1.348-6.884,0.938-10.415,1.051c-16.159,0.519-32.321,0.954-48.481,1.419
		c0-80.798,0-161.594,0-242.554C169.459,29.229,208.387,29.229,247.313,29.229z"/>
	<path fill-rule="evenodd" clip-rule="evenodd" fill="#FFFFFF" d="M130.533,272.706c1.768,5.092,3.533,10.186,5.305,15.277
		c0.533,1.532,1.084,3.06,1.627,4.589c-2.311,0-4.621,0-6.932,0C130.533,285.951,130.533,279.328,130.533,272.706z"/>
	<path fill-rule="evenodd" clip-rule="evenodd" fill="#FFFFFF" d="M250.803,259.654c0-1.474,0-2.83,0-4.677
		c23.113,1.699,46.103,3.267,69.142,8.527c-7.931,1.864-20.437,1.724-29.921-0.165c-5.705-1.136-11.375-2.442-17.131-3.324
		c-3.195-0.489-6.537-0.309-9.814-0.35C259.09,259.618,255.101,259.654,250.803,259.654z"/>
</g>
</svg>
