<?xml version="1.0" encoding="utf-8"?>
<!-- Generator: Adobe Illustrator 16.0.0, SVG Export Plug-In . SVG Version: 6.00 Build 0)  -->
<!DOCTYPE svg PUBLIC "-//W3C//DTD SVG 1.1//EN" "http://www.w3.org/Graphics/SVG/1.1/DTD/svg11.dtd">
<svg version="1.1" id="Layer_1" xmlns="http://www.w3.org/2000/svg" xmlns:xlink="http://www.w3.org/1999/xlink" x="0px" y="0px"
	 width="102.832px" height="102.5px" viewBox="-0.918 -0.5 102.832 102.5" enable-background="new -0.918 -0.5 102.832 102.5"
	 xml:space="preserve">
<path fill="#FFFFFF" d="M214.305,294.396c0-66.992,0-133.982,0-200.975c66.99,0,133.981,0,200.975,0c0,66.99,0,133.981,0,200.975
	C348.286,294.396,281.295,294.396,214.305,294.396z M313.191,226.403c7.33,0,14.66-0.067,21.988,0.033
	c3.034,0.043,5.418-0.856,7.497-3.149c2.794-3.082,5.625-6.203,8.852-8.804c4.112-3.312,5.456-7.297,4.497-12.306
	c-0.155-0.812-0.191-1.651-0.28-2.479c-1.172-11.078-2.39-22.148-3.504-33.232c-0.8-7.94-1.442-15.897-2.197-23.844
	c-0.226-2.356-4.687-6.654-7.014-6.769c-0.613-0.03-1.332,0.201-1.855,0.538c-2.352,1.51-2.325,5.121,0.404,5.936
	c3.754,1.117,3.67,3.654,3.851,6.541c0.288,4.648,0.729,9.287,1.178,13.924c1.322,13.736,2.588,27.48,4.104,41.196
	c0.275,2.505-0.426,4.093-2.104,5.688c-2.896,2.755-5.797,5.521-8.469,8.49c-2.179,2.42-4.61,3.396-7.895,3.345
	c-10.658-0.166-21.322,0.022-31.982-0.083c-12.898-0.127-8.492,1.537-17.697-7.293c-1.439-1.383-2.808-2.877-4.424-4.016
	c-0.603-0.424-2.299-0.317-2.648,0.162c-0.553,0.76-0.696,2.121-0.439,3.074c0.232,0.859,1.203,1.547,1.902,2.254
	c2.578,2.605,5.305,5.076,7.729,7.814c2.076,2.342,4.473,3.092,7.52,3.023C299.195,226.302,306.195,226.405,313.191,226.403z
	 M271.904,219.442c-4.748-0.013-8.121,3.347-8.201,8.162c-0.069,4.174,3.977,8.196,8.354,8.31c4.264,0.108,8.075-3.863,8.088-8.431
	C280.158,222.771,276.762,219.457,271.904,219.442z M364.098,228c0.059-4.347-3.863-8.355-8.205-8.394
	c-4.369-0.035-8.267,3.927-8.222,8.354c0.042,4.219,3.711,8.043,7.872,8.205C359.491,236.324,364.043,231.978,364.098,228z"/>
<path fill="#FFCB27" d="M49.488,90.549c-6.997,0-13.995-0.104-20.989,0.049c-3.045,0.066-5.443-0.684-7.518-3.023
	c-2.426-2.738-5.152-5.209-7.73-7.812c-0.699-0.709-1.67-1.396-1.902-2.256c-0.256-0.951-0.112-2.313,0.44-3.074
	c0.351-0.479,2.047-0.586,2.649-0.162c1.617,1.139,2.984,2.634,4.424,4.016c9.204,8.831,4.796,7.166,17.697,7.293
	c10.66,0.105,21.325-0.083,31.983,0.083c3.281,0.052,5.715-0.925,7.895-3.345c2.67-2.969,5.572-5.734,8.469-8.49
	c1.678-1.598,2.379-3.186,2.104-5.688c-1.52-13.717-2.781-27.463-4.105-41.199c-0.445-4.637-0.889-9.274-1.178-13.922
	c-0.182-2.889-0.094-5.424-3.85-6.541c-2.729-0.814-2.758-4.425-0.404-5.937c0.523-0.337,1.242-0.568,1.854-0.538
	c2.328,0.113,6.791,4.413,7.016,6.767c0.756,7.945,1.398,15.902,2.195,23.846c1.115,11.083,2.332,22.154,3.506,33.23
	c0.09,0.828,0.123,1.666,0.279,2.479c0.959,5.009-0.383,8.992-4.498,12.308c-3.225,2.598-6.057,5.721-8.85,8.803
	c-2.078,2.293-4.463,3.191-7.496,3.147C64.15,90.479,56.82,90.547,49.488,90.549z"/>
<path fill="#FFCB27" d="M8.202,83.586c4.857,0.016,8.253,3.328,8.241,8.041c-0.013,4.566-3.824,8.539-8.087,8.432
	c-4.379-0.111-8.424-4.137-8.355-8.311C0.08,86.934,3.454,83.575,8.202,83.586z"/>
<path fill="#FFCB27" d="M100.395,92.143c-0.053,3.979-4.605,8.324-8.553,8.17c-4.162-0.163-7.83-3.987-7.873-8.206
	c-0.045-4.431,3.852-8.392,8.221-8.354C96.531,83.788,100.453,87.797,100.395,92.143z"/>
<rect x="312.5" y="152.548" fill="#FFFFFF" width="175" height="205.695"/>
</svg>
