<?xml version="1.0" encoding="utf-8"?>
<!-- Generator: Adobe Illustrator 16.0.0, SVG Export Plug-In . SVG Version: 6.00 Build 0)  -->
<!DOCTYPE svg PUBLIC "-//W3C//DTD SVG 1.1//EN" "http://www.w3.org/Graphics/SVG/1.1/DTD/svg11.dtd">
<svg version="1.1" id="Layer_1" xmlns="http://www.w3.org/2000/svg" xmlns:xlink="http://www.w3.org/1999/xlink" x="0px" y="0px"
	 width="101.914px" height="101.999px" viewBox="48.917 44.834 101.914 101.999"
	 style="enable-background:new 48.917 44.834 101.914 101.999;" xml:space="preserve">
<path style="fill:#FFFFFF;" d="M214.304,294.396c0-66.992,0-133.982,0-200.975c66.991,0,133.982,0,200.975,0
	c0,66.991,0,133.982,0,200.975C348.286,294.396,281.295,294.396,214.304,294.396z M313.191,226.403c7.33,0,14.66-0.068,21.989,0.033
	c3.034,0.043,5.418-0.856,7.497-3.149c2.793-3.082,5.625-6.204,8.851-8.804c4.113-3.312,5.457-7.297,4.498-12.306
	c-0.156-0.813-0.192-1.651-0.281-2.479c-1.172-11.077-2.39-22.148-3.504-33.231c-0.799-7.941-1.442-15.898-2.197-23.845
	c-0.225-2.356-4.687-6.654-7.014-6.768c-0.613-0.03-1.332,0.201-1.855,0.538c-2.352,1.51-2.325,5.121,0.404,5.936
	c3.754,1.117,3.67,3.654,3.85,6.541c0.289,4.648,0.73,9.287,1.178,13.923c1.323,13.737,2.588,27.481,4.105,41.197
	c0.275,2.505-0.426,4.093-2.104,5.688c-2.896,2.755-5.798,5.521-8.469,8.49c-2.179,2.42-4.611,3.396-7.895,3.345
	c-10.658-0.166-21.322,0.022-31.982-0.083c-12.899-0.127-8.493,1.538-17.697-7.293c-1.44-1.382-2.808-2.877-4.424-4.015
	c-0.603-0.424-2.299-0.318-2.649,0.162c-0.553,0.76-0.696,2.121-0.439,3.074c0.232,0.86,1.203,1.547,1.902,2.254
	c2.578,2.605,5.305,5.076,7.729,7.814c2.075,2.342,4.472,3.092,7.519,3.024C299.195,226.302,306.195,226.405,313.191,226.403z
	 M271.904,219.442c-4.748-0.013-8.121,3.347-8.201,8.162c-0.069,4.174,3.977,8.197,8.354,8.31c4.263,0.108,8.075-3.863,8.087-8.431
	C280.158,222.771,276.762,219.457,271.904,219.442z M364.097,227.999c0.059-4.346-3.863-8.355-8.205-8.393
	c-4.369-0.035-8.266,3.926-8.221,8.354c0.042,4.219,3.711,8.043,7.872,8.206C359.491,236.323,364.043,231.978,364.097,227.999z"/>
<path d="M99.079,136.705c-6.997,0-13.995-0.104-20.989,0.049c-3.045,0.066-5.443-0.684-7.518-3.024
	c-2.425-2.739-5.152-5.209-7.73-7.813c-0.7-0.709-1.67-1.395-1.902-2.256c-0.257-0.951-0.113-2.313,0.44-3.073
	c0.351-0.48,2.047-0.587,2.649-0.162c1.617,1.138,2.984,2.633,4.424,4.015c9.204,8.831,4.796,7.166,17.697,7.293
	c10.661,0.105,21.324-0.083,31.983,0.083c3.281,0.052,5.715-0.925,7.894-3.345c2.671-2.969,5.573-5.734,8.47-8.49
	c1.678-1.597,2.379-3.185,2.103-5.688c-1.519-13.716-2.782-27.462-4.105-41.198c-0.446-4.637-0.889-9.275-1.178-13.923
	c-0.181-2.888-0.095-5.423-3.849-6.541c-2.73-0.814-2.758-4.425-0.405-5.936c0.524-0.337,1.241-0.568,1.854-0.538
	c2.328,0.113,6.791,4.413,7.015,6.768c0.755,7.945,1.399,15.902,2.196,23.845c1.115,11.083,2.332,22.154,3.506,33.23
	c0.088,0.828,0.123,1.666,0.279,2.48c0.959,5.008-0.384,8.992-4.498,12.307c-3.225,2.599-6.057,5.721-8.85,8.803
	c-2.079,2.293-4.463,3.191-7.497,3.148C113.74,136.635,106.41,136.703,99.079,136.705z"/>
<path d="M57.793,129.742c4.857,0.015,8.253,3.328,8.241,8.041c-0.013,4.566-3.824,8.539-8.087,8.431
	c-4.378-0.111-8.424-4.136-8.355-8.31C49.671,133.089,53.045,129.73,57.793,129.742z"/>
<path d="M149.985,138.299c-0.054,3.979-4.605,8.324-8.554,8.169c-4.161-0.163-7.83-3.987-7.872-8.206
	c-0.045-4.43,3.852-8.391,8.221-8.354C146.122,129.943,150.043,133.953,149.985,138.299z"/>
<rect x="312.5" y="152.548" style="fill:#FFFFFF;" width="175" height="205.695"/>
</svg>
