<?xml version="1.0" encoding="utf-8"?>
<!-- Generator: Adobe Illustrator 16.0.0, SVG Export Plug-In . SVG Version: 6.00 Build 0)  -->
<!DOCTYPE svg PUBLIC "-//W3C//DTD SVG 1.1//EN" "http://www.w3.org/Graphics/SVG/1.1/DTD/svg11.dtd">
<svg version="1.1" id="Layer_1" xmlns="http://www.w3.org/2000/svg" xmlns:xlink="http://www.w3.org/1999/xlink" x="0px" y="0px"
	 width="480px" height="320px" viewBox="0 0 480 320" enable-background="new 0 0 480 320" xml:space="preserve">
<g>
	<g>
		<path fill="#FFFFFF" d="M141,261.975c0-66.992,0-133.983,0-200.975c66.991,0,133.982,0,200.975,0c0,66.991,0,133.982,0,200.975
			C274.982,261.975,207.991,261.975,141,261.975z M239.887,193.982c7.331,0,14.661-0.068,21.99,0.033
			c3.034,0.043,5.418-0.856,7.497-3.149c2.793-3.082,5.625-6.204,8.85-8.803c4.114-3.313,5.457-7.298,4.498-12.306
			c-0.156-0.814-0.192-1.652-0.28-2.48c-1.173-11.077-2.39-22.148-3.505-33.231c-0.798-7.941-1.442-15.898-2.197-23.845
			c-0.224-2.356-4.686-6.654-7.014-6.768c-0.613-0.03-1.331,0.201-1.855,0.538c-2.352,1.511-2.325,5.121,0.405,5.936
			c3.754,1.118,3.669,3.654,3.849,6.541c0.289,4.648,0.731,9.287,1.178,13.923c1.323,13.737,2.588,27.482,4.105,41.198
			c0.276,2.504-0.425,4.092-2.103,5.688c-2.896,2.755-5.798,5.521-8.469,8.49c-2.179,2.42-4.611,3.396-7.894,3.345
			c-10.659-0.166-21.323,0.022-31.983-0.083c-12.9-0.127-8.493,1.538-17.697-7.293c-1.44-1.382-2.808-2.877-4.424-4.015
			c-0.603-0.424-2.299-0.318-2.649,0.162c-0.553,0.76-0.697,2.122-0.44,3.074c0.232,0.861,1.203,1.547,1.902,2.255
			c2.578,2.605,5.305,5.075,7.73,7.814c2.075,2.342,4.472,3.092,7.518,3.024C225.892,193.881,232.891,193.985,239.887,193.982z
			 M198.601,187.022c-4.748-0.013-8.122,3.346-8.202,8.162c-0.069,4.174,3.977,8.197,8.355,8.309
			c4.263,0.108,8.075-3.863,8.087-8.431C206.854,190.35,203.458,187.036,198.601,187.022z M290.793,195.578
			c0.058-4.346-3.863-8.356-8.205-8.392c-4.369-0.035-8.266,3.926-8.221,8.354c0.042,4.219,3.711,8.043,7.872,8.206
			C286.188,203.902,290.739,199.556,290.793,195.578z"/>
		<path fill-rule="evenodd" clip-rule="evenodd" d="M239.887,193.984c-6.997,0.001-13.995-0.104-20.989,0.049
			c-3.045,0.067-5.443-0.683-7.518-3.024c-2.425-2.739-5.152-5.209-7.73-7.814c-0.7-0.708-1.67-1.394-1.902-2.255
			c-0.257-0.952-0.113-2.314,0.44-3.074c0.351-0.48,2.047-0.586,2.649-0.162c1.617,1.138,2.984,2.633,4.424,4.015
			c9.204,8.831,4.796,7.166,17.697,7.293c10.661,0.105,21.324-0.083,31.983,0.083c3.282,0.051,5.715-0.925,7.894-3.345
			c2.671-2.969,5.573-5.735,8.469-8.49c1.678-1.597,2.379-3.185,2.103-5.688c-1.518-13.716-2.782-27.461-4.105-41.198
			c-0.446-4.636-0.889-9.275-1.178-13.923c-0.18-2.887-0.095-5.423-3.849-6.541c-2.73-0.814-2.757-4.424-0.405-5.936
			c0.524-0.337,1.242-0.568,1.855-0.538c2.328,0.113,6.79,4.412,7.014,6.768c0.755,7.946,1.399,15.903,2.197,23.845
			c1.115,11.083,2.332,22.154,3.505,33.231c0.088,0.828,0.124,1.666,0.28,2.48c0.959,5.008-0.384,8.992-4.498,12.306
			c-3.225,2.599-6.057,5.721-8.85,8.803c-2.079,2.293-4.463,3.192-7.497,3.149C254.548,193.914,247.218,193.982,239.887,193.984z"/>
		<path fill-rule="evenodd" clip-rule="evenodd" d="M198.601,187.022c4.857,0.014,8.253,3.327,8.241,8.04
			c-0.013,4.567-3.824,8.539-8.087,8.431c-4.378-0.111-8.424-4.135-8.355-8.309C190.479,190.368,193.853,187.01,198.601,187.022z"/>
		<path fill-rule="evenodd" clip-rule="evenodd" d="M290.793,195.578c-0.054,3.978-4.605,8.324-8.554,8.169
			c-4.161-0.163-7.83-3.987-7.872-8.206c-0.045-4.429,3.852-8.39,8.221-8.354C286.93,187.222,290.851,191.232,290.793,195.578z"/>
	</g>
</g>
</svg>
