<?xml version="1.0" encoding="utf-8"?>
<!-- Generator: Adobe Illustrator 16.0.0, SVG Export Plug-In . SVG Version: 6.00 Build 0)  -->
<!DOCTYPE svg PUBLIC "-//W3C//DTD SVG 1.1//EN" "http://www.w3.org/Graphics/SVG/1.1/DTD/svg11.dtd">
<svg version="1.1" id="Layer_1" xmlns="http://www.w3.org/2000/svg" xmlns:xlink="http://www.w3.org/1999/xlink" x="0px" y="0px"
	 width="277px" height="279.5px" viewBox="84.5 0 277 279.5" style="enable-background:new 84.5 0 277 279.5;" xml:space="preserve"
	>
<path d="M263.193,36.303c5.51,2.613,9.572,6.453,10.717,12.733c1.393,7.641-3.219,15.562-10.324,17.772
	c-6.539,2.034-13.668-1.396-16.836-8.1c-3.377-7.149-0.916-16.104,5.592-20.233c1.244-0.788,2.566-1.451,3.852-2.173
	C258.527,36.303,260.859,36.303,263.193,36.303z"/>
<path d="M156.193,236.303c-0.562-0.58-1.157-1.133-1.68-1.746c-2.43-2.855-2.454-5.859,0.311-8.299
	c2.76-2.434,5.982-2.199,8.234,0.74c2.197,2.869,1.81,5.861-1.243,8.188c-0.521,0.396-1.081,0.746-1.622,1.117
	C158.86,236.303,157.526,236.303,156.193,236.303z"/>
<path d="M232.193,236.303c-0.139-0.283-0.205-0.66-0.428-0.84c-3.271-2.637-3.979-5.885-1.107-8.939
	c2.449-2.609,5.881-2.67,8.312,0.092c2.752,3.127,2.168,6.342-1.281,8.879c-0.234,0.174-0.334,0.535-0.496,0.811
	C235.527,236.303,233.859,236.303,232.193,236.303z"/>
<path style="fill:#44FF10;" d="M269.969,90.968c5.686-6.159,10.898-11.75,16.049-17.401c4.305-4.726,8.477-5.604,12.025-2.41
	c3.547,3.188,3.473,8.532-0.484,12.899c-6.82,7.531-13.715,15.001-20.738,22.345c-5.023,5.252-8.961,5.049-13.895-0.289
	c-3.943-4.268-7.896-8.526-12.107-13.074c-8.326,10.272-16.375,20.203-24.711,30.488c6.764,6.375,13.326,12.668,20.014,18.828
	c4.062,3.744,5.34,8.117,4.189,13.5c-3.447,16.106-6.752,32.241-10.111,48.366c-1.443,6.92-5.598,10.348-11.26,9.295
	c-5.385-1.002-8.379-6.225-7.066-12.814c2.566-12.893,5.424-25.727,7.779-38.654c0.396-2.17-0.381-5.467-1.891-6.913
	c-6.611-6.34-13.691-12.189-20.917-18.491c-4.205,5.042-10.012,11.635-15.375,18.571c-3.383,4.375-7.51,6.249-12.881,6.219
	c-12.828-0.072-25.658,0.037-38.486-0.043c-6.572-0.041-10.434-3.938-10.376-10.139c0.053-5.74,3.993-9.721,10.34-9.826
	c9.659-0.16,19.327,0.129,28.983-0.072c1.875-0.039,4.361-0.928,5.48-2.305c15.225-18.748,30.26-37.648,45.331-56.521
	c0.393-0.49,0.668-1.072,1.336-2.168c-6.83-0.625-12.617-1.564-17.106,5.442c-4.733,7.394-10.806,13.938-16.375,20.786
	c-3.513,4.318-7.877,5.172-11.195,2.381c-3.242-2.727-3.622-7.84-0.555-11.701c7.875-9.911,15.736-19.839,23.949-29.466
	c1.604-1.881,4.73-3.361,7.207-3.442c10.983-0.365,22-0.437,32.975,0.039c2.938,0.129,6.395,1.932,8.549,4.049
	C255.881,75.548,262.635,83.139,269.969,90.968z"/>
<path d="M196.431,222.436c-15.986,0-31.993,0.449-47.947-0.266c-4.967-0.223-9.855-3.453-14.627-5.641
	c-0.842-0.387-0.932-2.416-1.368-3.686c1.312-0.012,3-0.561,3.873,0.055c6.78,4.771,14.363,5.547,22.366,5.498
	c26.143-0.158,52.288-0.146,78.43,0.023c6.895,0.045,13.145-1.307,18.957-5.082c1.188-0.771,3.119-0.393,4.709-0.541
	c-0.686,1.477-0.977,3.477-2.123,4.346c-6.416,4.865-14.018,5.816-21.779,5.846c-13.496,0.049-26.992,0.016-40.488,0.016
	C196.432,222.814,196.431,222.623,196.431,222.436z"/>
</svg>
