<?xml version="1.0" encoding="utf-8"?>
<!-- Generator: Adobe Illustrator 16.0.0, SVG Export Plug-In . SVG Version: 6.00 Build 0)  -->
<!DOCTYPE svg PUBLIC "-//W3C//DTD SVG 1.1//EN" "http://www.w3.org/Graphics/SVG/1.1/DTD/svg11.dtd">
<svg version="1.1" id="Layer_1" xmlns="http://www.w3.org/2000/svg" xmlns:xlink="http://www.w3.org/1999/xlink" x="0px" y="0px"
	 width="368px" height="364.5px" viewBox="71.5 73.5 368 364.5" style="enable-background:new 71.5 73.5 368 364.5;"
	 xml:space="preserve">
<g>
	<path d="M411.055,101.972l-1.025-1.026c-26.104-26.104-65.416-30.941-96.422-14.521c-9.107-9.089-23.911-9.084-33.013,0.017
		l-34.176,34.176c-8.23,8.23-9.021,21.125-2.374,30.253l-93.173,93.173c-9.129-6.646-22.023-5.856-30.254,2.374l-34.176,34.176
		c-9.101,9.102-9.106,23.905-0.018,33.014c-16.42,31.005-11.583,70.316,14.521,96.421l1.025,1.025
		c26.104,26.104,65.416,30.941,96.422,14.521c9.108,9.089,23.912,9.084,33.014-0.018l34.174-34.176
		c8.23-8.229,9.021-21.125,2.375-30.253l93.174-93.174c9.127,6.646,22.023,5.857,30.252-2.374l34.178-34.176
		c9.101-9.101,9.105-23.904,0.017-33.012C441.995,167.389,437.159,128.076,411.055,101.972z M254.624,380.424L220.448,414.6
		c-3.069,3.069-8.045,3.069-11.115,0l-25.008-25.008c-3.068-3.068-3.068-8.046,0.001-11.115l9.253-9.252l-50.805-50.804
		l-9.252,9.252c-3.069,3.069-8.046,3.07-11.115,0.001l-25.008-25.008c-3.068-3.068-3.068-8.045,0-11.113l34.177-34.178
		c3.069-3.069,8.045-3.069,11.114,0l25.008,25.008c3.068,3.069,3.068,8.045,0,11.114l-9.34,9.339l8.386,8.386
		c9.521-7.314,23.217-6.62,31.937,2.098c8.717,8.718,9.412,22.415,2.096,31.935l8.387,8.386l9.34-9.339
		c3.068-3.069,8.045-3.068,11.113,0l25.008,25.007C257.693,372.379,257.693,377.354,254.624,380.424z M414.601,220.447
		l-34.176,34.177c-3.069,3.069-8.045,3.069-11.114,0l-25.009-25.008c-3.067-3.069-3.067-8.045,0-11.114l9.341-9.339l-8.388-8.386
		c-9.521,7.316-23.215,6.621-31.934-2.097c-8.72-8.719-9.414-22.415-2.099-31.935l-8.387-8.386l-9.34,9.339
		c-3.068,3.07-8.044,3.069-11.113,0l-25.008-25.007c-3.068-3.069-3.069-8.045,0-11.115L291.552,97.4
		c3.069-3.069,8.046-3.069,11.114,0l25.008,25.007c3.068,3.069,3.068,8.046,0,11.115l-9.253,9.252l50.804,50.804l9.254-9.252
		c3.068-3.069,8.045-3.069,11.113,0l25.008,25.007C417.67,212.402,417.67,217.378,414.601,220.447z"/>
	<path d="M336.266,168.249c-1.07-1.07-2.627-1.487-4.089-1.097l-10.229,2.741c-1.46,0.393-2.601,1.533-2.994,2.993l-2.74,10.229
		c-0.391,1.461,0.027,3.019,1.099,4.088l7.487,7.488c1.068,1.069,2.625,1.486,4.086,1.095l10.229-2.74
		c1.46-0.393,2.602-1.533,2.992-2.993l2.742-10.228c0.39-1.461-0.027-3.019-1.097-4.087L336.266,168.249z M334.562,185.502
		l-5.508,1.475l-4.031-4.032l1.477-5.508l5.508-1.476l4.031,4.032L334.562,185.502z"/>
	<path d="M187.202,317.311c-1.068-1.069-2.627-1.486-4.088-1.096l-10.229,2.741c-1.46,0.393-2.601,1.533-2.993,2.992l-2.74,10.229
		c-0.391,1.461,0.027,3.02,1.096,4.088l7.488,7.488c1.068,1.069,2.625,1.486,4.088,1.096l10.228-2.74
		c1.46-0.394,2.601-1.533,2.993-2.993l2.74-10.229c0.391-1.461-0.025-3.019-1.096-4.087L187.202,317.311z M185.502,334.562
		l-5.507,1.477l-4.033-4.032l1.477-5.508l5.508-1.476l4.032,4.031L185.502,334.562z"/>
</g>
</svg>
