<?xml version="1.0" encoding="utf-8"?>
<!-- Generator: Adobe Illustrator 16.0.0, SVG Export Plug-In . SVG Version: 6.00 Build 0)  -->
<!DOCTYPE svg PUBLIC "-//W3C//DTD SVG 1.1//EN" "http://www.w3.org/Graphics/SVG/1.1/DTD/svg11.dtd">
<svg version="1.1" id="Layer_1" xmlns="http://www.w3.org/2000/svg" xmlns:xlink="http://www.w3.org/1999/xlink" x="0px" y="0px"
	 width="368px" height="364.5px" viewBox="0 0 368 364.5" enable-background="new 0 0 368 364.5" xml:space="preserve">
<g>
	<path fill="#FFCB27" d="M317.416,42.919l-0.92-0.922c-23.444-23.444-58.75-27.788-86.597-13.042
		c-8.179-8.163-21.474-8.158-29.649,0.016l-30.692,30.693c-7.392,7.391-8.102,18.972-2.132,27.17l-83.679,83.678
		c-8.198-5.968-19.778-5.26-27.171,2.132l-30.693,30.693c-8.174,8.175-8.178,21.469-0.016,29.649
		c-14.747,27.847-10.403,63.151,13.041,86.597l0.921,0.919c23.444,23.445,58.75,27.788,86.597,13.042
		c8.179,8.163,21.475,8.158,29.649-0.017l30.691-30.692c7.392-7.391,8.103-18.973,2.133-27.171l83.68-83.68
		c8.196,5.97,19.779,5.261,27.169-2.131l30.694-30.693c8.175-8.174,8.178-21.468,0.017-29.647
		C345.203,101.669,340.86,66.363,317.416,42.919z M176.927,292.995l-30.693,30.693c-2.757,2.756-7.226,2.756-9.983,0l-22.459-22.46
		c-2.756-2.755-2.756-7.227,0-9.982l8.31-8.309L76.475,237.31l-8.31,8.31c-2.756,2.757-7.226,2.757-9.982,0.002l-22.46-22.46
		c-2.755-2.756-2.755-7.225,0-9.98l30.695-30.695c2.756-2.756,7.225-2.756,9.981,0l22.46,22.46c2.755,2.756,2.755,7.225,0,9.98
		l-8.389,8.388l7.532,7.531c8.551-6.567,20.851-5.945,28.683,1.885c7.829,7.829,8.452,20.131,1.882,28.68l7.532,7.532l8.388-8.388
		c2.755-2.756,7.225-2.754,9.98,0l22.459,22.459C179.683,285.771,179.683,290.237,176.927,292.995z M320.601,149.321l-30.693,30.694
		c-2.757,2.757-7.225,2.757-9.981,0l-22.46-22.459c-2.755-2.756-2.755-7.226,0-9.981l8.389-8.387l-7.533-7.531
		c-8.55,6.57-20.849,5.946-28.68-1.884c-7.831-7.831-8.454-20.131-1.885-28.681l-7.532-7.531l-8.389,8.388
		c-2.756,2.757-7.224,2.756-9.98,0l-22.459-22.459c-2.755-2.756-2.757-7.226,0-9.982l30.694-30.693c2.757-2.756,7.226-2.756,9.981,0
		l22.46,22.459c2.756,2.756,2.756,7.226,0,9.982l-8.311,8.309l45.627,45.627l8.311-8.309c2.756-2.756,7.226-2.756,9.981,0
		l22.459,22.458C323.357,142.096,323.357,146.564,320.601,149.321z"/>
	<path fill="#FFCB27" d="M250.248,102.441c-0.961-0.961-2.359-1.335-3.672-0.985l-9.187,2.462c-1.311,0.353-2.335,1.377-2.688,2.688
		l-2.461,9.187c-0.352,1.312,0.024,2.711,0.986,3.671l6.725,6.725c0.959,0.959,2.357,1.334,3.669,0.983l9.188-2.461
		c1.312-0.353,2.336-1.376,2.688-2.688l2.462-9.185c0.351-1.312-0.024-2.711-0.985-3.671L250.248,102.441z M248.719,117.937
		l-4.946,1.324l-3.621-3.621l1.326-4.947l4.946-1.326l3.621,3.622L248.719,117.937z"/>
	<path fill="#FFCB27" d="M116.375,236.313c-0.959-0.959-2.359-1.335-3.671-0.984l-9.187,2.461c-1.311,0.353-2.335,1.377-2.688,2.688
		l-2.461,9.187c-0.352,1.312,0.024,2.714,0.984,3.671l6.725,6.726c0.959,0.961,2.357,1.335,3.672,0.983l9.186-2.459
		c1.311-0.354,2.335-1.377,2.688-2.688l2.461-9.187c0.351-1.312-0.023-2.712-0.984-3.671L116.375,236.313z M114.848,251.808
		l-4.946,1.326l-3.622-3.622l1.327-4.947l4.946-1.324l3.621,3.619L114.848,251.808z"/>
</g>
</svg>
