<?xml version="1.0" encoding="utf-8"?>
<!-- Generator: Adobe Illustrator 16.0.0, SVG Export Plug-In . SVG Version: 6.00 Build 0)  -->
<!DOCTYPE svg PUBLIC "-//W3C//DTD SVG 1.1//EN" "http://www.w3.org/Graphics/SVG/1.1/DTD/svg11.dtd">
<svg version="1.1" id="Layer_1" xmlns="http://www.w3.org/2000/svg" xmlns:xlink="http://www.w3.org/1999/xlink" x="0px" y="0px"
	 width="480px" height="320px" viewBox="0 0 480 320" enable-background="new 0 0 480 320" xml:space="preserve">
<g>
	<g>
		<path fill="#FFFFFF" d="M257,261c-24,0-48,0-72,0c0.542-0.371,1.101-0.719,1.622-1.116c3.053-2.326,3.44-5.319,1.243-8.188
			c-2.251-2.94-5.475-3.173-8.234-0.74c-2.765,2.438-2.74,5.443-0.31,8.299c0.522,0.613,1.117,1.166,1.679,1.746
			c-13.316,0-26.632,0-39.974,0c0-66.562,0-133.123,0-200c46.64,0,93.307,0,139.974,0c-1.285,0.722-2.608,1.385-3.852,2.173
			c-6.509,4.13-8.97,13.084-5.592,20.233c3.168,6.704,10.296,10.134,16.836,8.1c7.105-2.211,11.717-10.132,10.324-17.772
			C297.572,67.453,293.51,63.613,288,61c17.666,0,35.334,0,53,0c0,66.667,0,133.333,0,200c-26.334,0-52.666,0-79,0
			c0.162-0.274,0.261-0.636,0.497-0.809c3.448-2.537,4.032-5.752,1.28-8.879c-2.432-2.763-5.863-2.702-8.312-0.093
			c-2.87,3.057-2.164,6.304,1.107,8.94C256.795,260.34,256.861,260.716,257,261z M295.775,114.665
			c-7.334-7.829-14.087-15.42-21.32-22.523c-2.155-2.116-5.611-3.92-8.55-4.048c-10.976-0.476-21.991-0.404-32.974-0.04
			c-2.478,0.082-5.604,1.562-7.208,3.443c-8.212,9.627-16.074,19.555-23.948,29.466c-3.068,3.861-2.688,8.976,0.554,11.701
			c3.319,2.791,7.684,1.938,11.196-2.381c5.569-6.849,11.641-13.393,16.375-20.786c4.488-7.008,10.275-6.067,17.106-5.442
			c-0.668,1.095-0.945,1.677-1.336,2.167c-15.071,18.872-30.106,37.773-45.331,56.521c-1.119,1.378-3.606,2.266-5.48,2.305
			c-9.658,0.201-19.325-0.088-28.984,0.073c-6.347,0.106-10.287,4.085-10.34,9.826c-0.058,6.201,3.804,10.097,10.376,10.138
			c12.828,0.081,25.658-0.029,38.486,0.043c5.372,0.03,9.5-1.844,12.881-6.218c5.363-6.937,11.17-13.529,15.376-18.571
			c7.224,6.301,14.304,12.151,20.916,18.49c1.509,1.447,2.285,4.742,1.89,6.912c-2.355,12.929-5.213,25.764-7.779,38.655
			c-1.312,6.591,1.682,11.813,7.067,12.814c5.662,1.053,9.815-2.375,11.259-9.295c3.36-16.124,6.664-32.26,10.111-48.364
			c1.15-5.383-0.128-9.757-4.189-13.5c-6.687-6.161-13.251-12.454-20.013-18.829c8.336-10.285,16.384-20.215,24.71-30.488
			c4.212,4.548,8.164,8.808,12.107,13.075c4.934,5.338,8.87,5.54,13.895,0.288c7.023-7.343,13.918-14.812,20.738-22.344
			c3.957-4.367,4.031-9.712,0.485-12.9c-3.55-3.192-7.722-2.314-12.026,2.411C306.676,102.915,301.461,108.506,295.775,114.665z
			 M221.238,247.133c0,0.188,0.001,0.378,0.001,0.567c13.496,0,26.992,0.035,40.487-0.014c7.764-0.028,15.365-0.98,21.781-5.847
			c1.146-0.869,1.437-2.868,2.122-4.346c-1.589,0.15-3.521-0.229-4.708,0.542c-5.814,3.775-12.064,5.126-18.957,5.081
			c-26.143-0.17-52.288-0.181-78.431-0.022c-8.003,0.048-15.586-0.727-22.366-5.499c-0.872-0.613-2.562-0.065-3.873-0.055
			c0.437,1.271,0.525,3.3,1.368,3.686c4.772,2.187,9.66,5.419,14.627,5.641C189.245,247.581,205.251,247.133,221.238,247.133z"/>
		<path fill-rule="evenodd" clip-rule="evenodd" d="M288,61c5.51,2.613,9.572,6.453,10.717,12.733
			c1.393,7.641-3.219,15.562-10.324,17.772c-6.54,2.034-13.668-1.396-16.836-8.1c-3.378-7.149-0.917-16.104,5.592-20.233
			c1.243-0.788,2.566-1.451,3.852-2.173C283.334,61,285.666,61,288,61z"/>
		<path fill-rule="evenodd" clip-rule="evenodd" d="M181,261c-0.562-0.58-1.157-1.133-1.679-1.746
			c-2.43-2.855-2.455-5.86,0.31-8.299c2.759-2.433,5.982-2.2,8.234,0.74c2.197,2.869,1.81,5.862-1.243,8.188
			c-0.521,0.397-1.081,0.745-1.622,1.116C183.667,261,182.333,261,181,261z"/>
		<path fill-rule="evenodd" clip-rule="evenodd" d="M257,261c-0.139-0.284-0.205-0.66-0.428-0.84
			c-3.271-2.637-3.978-5.884-1.107-8.94c2.449-2.609,5.881-2.67,8.312,0.093c2.752,3.127,2.168,6.342-1.28,8.879
			c-0.236,0.173-0.335,0.534-0.497,0.809C260.334,261,258.666,261,257,261z"/>
		<path fill-rule="evenodd" clip-rule="evenodd" d="M295.775,114.665c5.686-6.159,10.9-11.75,16.049-17.401
			c4.305-4.726,8.477-5.604,12.026-2.411c3.546,3.188,3.472,8.533-0.485,12.9c-6.82,7.531-13.715,15.001-20.738,22.344
			c-5.024,5.252-8.961,5.05-13.895-0.288c-3.943-4.268-7.896-8.527-12.107-13.075c-8.326,10.273-16.374,20.203-24.71,30.488
			c6.762,6.375,13.326,12.668,20.013,18.829c4.062,3.743,5.34,8.117,4.189,13.5c-3.447,16.104-6.751,32.24-10.111,48.364
			c-1.443,6.92-5.597,10.348-11.259,9.295c-5.386-1.001-8.379-6.224-7.067-12.814c2.566-12.892,5.424-25.727,7.779-38.655
			c0.396-2.17-0.381-5.465-1.89-6.912c-6.612-6.339-13.692-12.189-20.916-18.49c-4.206,5.042-10.013,11.635-15.376,18.571
			c-3.382,4.374-7.51,6.248-12.881,6.218c-12.828-0.072-25.658,0.038-38.486-0.043c-6.572-0.041-10.434-3.937-10.376-10.138
			c0.053-5.741,3.994-9.72,10.34-9.826c9.659-0.161,19.327,0.128,28.984-0.073c1.874-0.039,4.361-0.927,5.48-2.305
			c15.225-18.747,30.26-37.648,45.331-56.521c0.391-0.49,0.668-1.072,1.336-2.167c-6.831-0.625-12.618-1.565-17.106,5.442
			c-4.734,7.394-10.806,13.938-16.375,20.786c-3.513,4.319-7.877,5.172-11.196,2.381c-3.242-2.726-3.622-7.84-0.554-11.701
			c7.874-9.911,15.736-19.839,23.948-29.466c1.604-1.881,4.731-3.361,7.208-3.443c10.983-0.364,21.999-0.436,32.974,0.04
			c2.938,0.128,6.395,1.932,8.55,4.048C281.688,99.245,288.441,106.836,295.775,114.665z"/>
		<path fill-rule="evenodd" clip-rule="evenodd" d="M221.238,247.133c-15.986,0-31.993,0.448-47.947-0.266
			c-4.967-0.222-9.855-3.454-14.627-5.641c-0.842-0.386-0.931-2.415-1.368-3.686c1.311-0.011,3-0.559,3.873,0.055
			c6.78,4.772,14.363,5.547,22.366,5.499c26.143-0.158,52.288-0.147,78.431,0.022c6.893,0.045,13.143-1.306,18.957-5.081
			c1.187-0.771,3.119-0.392,4.708-0.542c-0.686,1.478-0.976,3.477-2.122,4.346c-6.416,4.866-14.018,5.818-21.781,5.847
			c-13.495,0.049-26.991,0.014-40.487,0.014C221.239,247.511,221.238,247.321,221.238,247.133z"/>
	</g>
</g>
</svg>
