<?xml version="1.0" encoding="utf-8"?>
<!-- Generator: Adobe Illustrator 17.0.0, SVG Export Plug-In . SVG Version: 6.00 Build 0)  -->
<!DOCTYPE svg PUBLIC "-//W3C//DTD SVG 1.1//EN" "http://www.w3.org/Graphics/SVG/1.1/DTD/svg11.dtd">
<svg version="1.1" id="Capa_1" xmlns="http://www.w3.org/2000/svg" xmlns:xlink="http://www.w3.org/1999/xlink" x="0px" y="0px"
	 width="17.225px" height="20.222px" viewBox="0 0 17.225 20.222" enable-background="new 0 0 17.225 20.222" xml:space="preserve">
<path fill="#231F20" d="M1.779,0C1.297,0,0.746,0.236,0.746,1.521v17.17c0,0.994,0.551,1.325,1.033,1.325s1.039-0.331,1.039-1.325
	V1.521C2.818,0.236,2.262,0,1.779,0z M2.047,13.297H1.518l-0.299-0.885V11.06l0.234-0.354h0.65l0.244,0.354v1.352h0.001
	L2.047,13.297z M13.74,18.299V4.597l0.287-0.09v13.792H13.74z M0.199,10.947h0.492v0.248H0.408L0.26,12.029H0L0.199,10.947z
	 M15.451,1.248c-0.078-0.094-0.224-0.165-0.16-0.342c0.043-0.12,0.15-0.122,0.287-0.13c0.465-0.026,1.092-0.013,1.092-0.013
	s0.381-0.052,0.213,0.274c-0.178,0.337-0.207,0.579-0.053,0.791c0,0-0.359,0.371,0,0.797c0,0-0.369,0.365,0,0.765
	c0,0-0.398,0.379,0,0.77l-1.404,0.469c0,0,0.19-0.207,0.256-0.536c0.033-0.181,0.021-0.423-0.059-0.627
	c-0.172-0.423-0.25-0.787-0.068-1.364C15.719,1.596,15.553,1.357,15.451,1.248z M13.111,1.248c-0.078-0.094-0.223-0.165-0.162-0.342
	c0.045-0.12,0.156-0.122,0.285-0.13c0.471-0.026,1.096-0.013,1.096-0.013s0.383-0.052,0.215,0.274
	c-0.182,0.337-0.211,0.579-0.055,0.791c0,0-0.359,0.371,0,0.797c0,0-0.369,0.365,0,0.765c0,0-0.398,0.379,0,0.77l-1.404,0.469
	c0,0,0.192-0.207,0.256-0.536c0.035-0.181,0.019-0.423-0.059-0.627c-0.171-0.423-0.25-0.787-0.066-1.364
	C13.379,1.596,13.211,1.357,13.111,1.248z M16.08,18.299V4.597l0.287-0.09v13.792H16.08z M13.678,18.931h0.414v1.291h-0.414V18.931z
	 M16.018,18.931h0.414v1.291h-0.414V18.931z M12.885,18.469h2.002v0.288h-2.002V18.469z M3.363,10.947l0.201,1.082H3.302
	l-0.148-0.834H2.871v-0.248H3.363z M17.225,18.469v0.288h-2v-0.288H17.225z M6.002,10.947h0.496v0.248H6.215l-0.148,0.834h-0.26
	L6.002,10.947z M9.172,10.947l0.199,1.082H9.109l-0.15-0.834H8.678v-0.248H9.172z M7.588,0C7.105,0,6.553,0.236,6.553,1.521v17.17
	c0,0.994,0.553,1.325,1.035,1.325c0.48,0,1.035-0.331,1.035-1.325V1.521C8.623,0.236,8.068,0,7.588,0z M8.154,12.412L7.85,13.297
	H7.324L7.02,12.412V11.06l0.236-0.354h0.65l0.248,0.354V12.412z"/>
</svg>
