<?xml version="1.0" encoding="utf-8"?>
<!-- Generator: Adobe Illustrator 16.0.0, SVG Export Plug-In . SVG Version: 6.00 Build 0)  -->
<!DOCTYPE svg PUBLIC "-//W3C//DTD SVG 1.1//EN" "http://www.w3.org/Graphics/SVG/1.1/DTD/svg11.dtd">
<svg version="1.1" id="Layer_1" xmlns="http://www.w3.org/2000/svg" xmlns:xlink="http://www.w3.org/1999/xlink" x="0px" y="0px"
	 width="260.25px" height="211.25px" viewBox="-1.75 14.5 260.25 211.25" enable-background="new -1.75 14.5 260.25 211.25"
	 xml:space="preserve">
<path fill="#FFFFFF" d="M546,268.59c0,15,0,30,0,45c-85.334,0-170.667,0-256,0c0-85.333,0-170.667,0-256c85.333,0,170.666,0,256,0
	c0,64.667,0,129.333,0,194c-8.045,5.896-16.109,11.766-24.126,17.703c-5.538,4.104-11.558,6.037-18.589,5.979
	c-26.816-0.224-53.637-0.111-80.455-0.033c-1.869,0.006-4.615,0.146-5.441,1.304c-2.533,3.548-4.332,7.621-6.971,12.521
	c3.428,0,5.555,0,7.682,0c29.151,0,58.303-0.062,87.453,0.039c8.344,0.03,15.641-2.468,22.271-7.449
	C533.789,277.172,539.936,272.936,546,268.59z M404.925,182.076c2.271-0.146,4.05-0.342,5.832-0.357
	c6.499-0.056,13.001,0.1,19.493-0.12c4.766-0.161,8.244-3.725,8.543-8.182c0.301-4.464-2.712-8.326-7.443-9.203
	c-1.94-0.36-3.979-0.28-5.972-0.29c-6.616-0.029-13.231-0.012-19.485-0.012c-0.515-0.943-0.799-1.225-0.803-1.51
	c-0.083-5.66-0.076-11.323-0.206-16.982c-0.226-9.846-5.462-17.623-13.161-19.697c-13.3-3.584-24.375,4.705-24.668,18.791
	c-0.25,11.992-0.087,23.994-0.054,35.991c0.024,8.563-1.394,17.47,7.031,24.821c-3.103,0.175-4.696,0.338-6.292,0.342
	c-10.831,0.023-21.664,0.119-32.492-0.055c-3.066-0.051-4.786,0.937-6.24,3.66c-6.271,11.75-12.775,23.377-19.184,35.056
	c-4.852,8.84-2.326,13.211,7.679,13.214c51.156,0.012,102.313,0.105,153.468-0.166c4.557-0.023,9.812-1.438,13.525-3.98
	c14.973-10.25,29.471-21.197,44.131-31.901c0.38-0.277,0.622-0.741,1.109-1.345c-4.426-7.759-9.026-15.459-13.256-23.355
	c-2.97-5.544-7.33-9.062-13.365-10.271c-10.438-2.091-20.908-4.02-31.405-5.773c-3.226-0.54-5.38-1.777-7.03-4.713
	c-4.162-7.399-8.611-14.639-13.023-21.896c-2.691-4.422-6.01-5.626-9.473-3.639c-3.457,1.981-4.021,5.556-1.438,9.972
	c3.107,5.318,6.479,10.494,9.371,15.928c0.753,1.414,0.802,3.91,0.049,5.301c-3.803,7.025-8.053,13.808-11.979,20.769
	c-1.272,2.259-2.526,3.093-5.138,2.048c-8.346-3.338-16.802-6.396-25.126-9.783c-1.244-0.508-2.678-2.092-2.861-3.35
	C404.636,188.486,404.925,185.482,404.925,182.076z M388.945,275.865c-1.447-0.328-2.082-0.601-2.719-0.601
	c-28.435-0.034-56.867-0.067-85.302,0.009c-1.297,0.004-3.17,0.646-3.782,1.613c-2.257,3.576-4.096,7.416-6.229,11.417
	c1.407,0.354,2.042,0.647,2.677,0.647c28.434,0.043,56.867,0.089,85.301-0.012c1.379-0.006,3.299-0.951,4.029-2.072
	C385.074,283.57,386.756,279.961,388.945,275.865z M395.275,119.859c10.19-0.068,18.651-8.565,18.688-18.767
	c0.035-10.108-8.5-18.78-18.613-18.912c-10.115-0.133-19.332,9.096-19.063,19.088C376.559,111.454,385.214,119.928,395.275,119.859z
	"/>
<g>
	<path fill="#FFCB27" d="M255.543,202.81c-6.064,4.346-12.211,8.582-18.176,13.062c-6.633,4.98-13.928,7.479-22.271,7.449
		c-29.15-0.104-58.302-0.039-87.453-0.039c-2.125,0-4.254,0-7.682,0c2.639-4.9,4.438-8.976,6.971-12.521
		c0.826-1.157,3.572-1.297,5.441-1.303c26.818-0.078,53.639-0.189,80.455,0.033c7.031,0.06,13.051-1.875,18.589-5.979
		c8.017-5.938,16.081-11.808,24.126-17.703C255.543,191.477,255.543,197.143,255.543,202.81z"/>
	<path fill="#FFCB27" d="M114.468,116.296c0,3.404-0.29,6.41,0.136,9.31c0.184,1.257,1.617,2.843,2.861,3.349
		c8.324,3.389,16.781,6.446,25.126,9.785c2.609,1.043,3.863,0.209,5.138-2.049c3.926-6.961,8.176-13.742,11.979-20.77
		c0.753-1.391,0.704-3.885-0.049-5.301c-2.894-5.433-6.263-10.607-9.371-15.927c-2.584-4.416-2.019-7.989,1.438-9.972
		c3.465-1.987,6.779-0.783,9.473,3.639c4.412,7.256,8.863,14.494,13.023,21.895c1.65,2.936,3.807,4.173,7.03,4.713
		c10.497,1.756,20.969,3.685,31.405,5.775c6.033,1.209,10.396,4.726,13.363,10.27c4.229,7.898,8.83,15.599,13.258,23.357
		c-0.487,0.602-0.729,1.063-1.109,1.342c-14.66,10.707-29.158,21.652-44.131,31.904c-3.717,2.543-8.971,3.954-13.525,3.979
		c-51.154,0.271-102.312,0.178-153.468,0.166c-10.004-0.003-12.53-4.374-7.679-13.215c6.408-11.678,12.912-23.305,19.184-35.055
		c1.454-2.726,3.174-3.711,6.24-3.662c10.829,0.174,21.661,0.078,32.492,0.057c1.595-0.004,3.189-0.167,6.292-0.344
		c-8.425-7.352-7.007-16.256-7.031-24.819c-0.033-11.997-0.196-23.999,0.054-35.991c0.293-14.086,11.368-22.375,24.668-18.791
		c7.698,2.074,12.936,9.854,13.161,19.697c0.13,5.658,0.123,11.322,0.206,16.982c0.004,0.284,0.289,0.565,0.803,1.51
		c6.254,0,12.869-0.02,19.485,0.012c1.993,0.01,4.029-0.07,5.974,0.29c4.729,0.877,7.742,4.739,7.441,9.203
		c-0.299,4.457-3.775,8.021-8.543,8.182c-6.491,0.22-12.994,0.063-19.493,0.12C118.52,115.954,116.738,116.151,114.468,116.296z"/>
	<path fill="#FFCB27" d="M98.488,210.085c-2.189,4.096-3.871,7.705-6.024,11.006c-0.729,1.119-2.649,2.066-4.03,2.07
		c-28.433,0.101-56.867,0.056-85.3,0.014c-0.635-0.001-1.269-0.297-2.677-0.649c2.134-4.001,3.972-7.841,6.229-11.417
		c0.612-0.97,2.486-1.611,3.783-1.613c28.434-0.076,56.867-0.043,85.301-0.008C96.404,209.486,97.041,209.757,98.488,210.085z"/>
	<path fill="#FFCB27" d="M104.818,54.079c-10.062,0.068-18.717-8.404-18.989-18.59c-0.269-9.992,8.948-19.221,19.063-19.088
		c10.113,0.132,18.648,8.804,18.613,18.912C123.471,45.513,115.01,54.01,104.818,54.079z"/>
</g>
</svg>
