<?xml version="1.0" encoding="utf-8"?>
<!-- Generator: Adobe Illustrator 16.0.0, SVG Export Plug-In . SVG Version: 6.00 Build 0)  -->
<!DOCTYPE svg PUBLIC "-//W3C//DTD SVG 1.1//EN" "http://www.w3.org/Graphics/SVG/1.1/DTD/svg11.dtd">
<svg version="1.1" id="Layer_1" xmlns="http://www.w3.org/2000/svg" xmlns:xlink="http://www.w3.org/1999/xlink" x="0px" y="0px"
	 width="480px" height="320px" viewBox="0 0 480 320" enable-background="new 0 0 480 320" xml:space="preserve">
<g>
	<g>
		<path fill="#FFFFFF" d="M369,244c0,15,0,30,0,45c-85.334,0-170.667,0-256,0c0-85.333,0-170.667,0-256c85.333,0,170.666,0,256,0
			c0,64.667,0,129.333,0,194c-8.045,5.897-16.11,11.766-24.126,17.703c-5.538,4.103-11.557,6.037-18.589,5.979
			c-26.816-0.224-53.637-0.112-80.455-0.033c-1.869,0.005-4.615,0.145-5.441,1.302c-2.534,3.548-4.332,7.621-6.971,12.521
			c3.427,0,5.555,0,7.682,0c29.151,0,58.303-0.063,87.453,0.04c8.344,0.03,15.64-2.468,22.271-7.45
			C356.789,252.582,362.935,248.345,369,244z M227.925,157.487c2.271-0.146,4.05-0.343,5.832-0.358
			c6.499-0.056,13.001,0.099,19.493-0.12c4.766-0.161,8.244-3.725,8.543-8.182c0.301-4.464-2.712-8.326-7.443-9.203
			c-1.942-0.36-3.979-0.28-5.972-0.29c-6.616-0.03-13.231-0.012-19.486-0.012c-0.514-0.943-0.798-1.225-0.802-1.51
			c-0.083-5.66-0.077-11.323-0.206-16.982c-0.226-9.845-5.462-17.623-13.161-19.697c-13.3-3.584-24.375,4.705-24.668,18.791
			c-0.25,11.992-0.087,23.994-0.054,35.991c0.024,8.564-1.394,17.47,7.031,24.821c-3.102,0.175-4.696,0.338-6.292,0.342
			c-10.831,0.023-21.664,0.119-32.492-0.055c-3.066-0.05-4.786,0.937-6.24,3.661c-6.272,11.75-12.775,23.377-19.184,35.055
			c-4.852,8.84-2.326,13.211,7.679,13.214c51.156,0.012,102.313,0.106,153.468-0.166c4.557-0.024,9.811-1.437,13.525-3.98
			c14.973-10.251,29.471-21.197,44.131-31.903c0.38-0.277,0.622-0.741,1.11-1.343c-4.427-7.759-9.027-15.459-13.257-23.357
			c-2.968-5.544-7.33-9.061-13.365-10.27c-10.437-2.091-20.908-4.02-31.405-5.775c-3.226-0.54-5.38-1.777-7.03-4.713
			c-4.162-7.399-8.612-14.639-13.025-21.894c-2.691-4.422-6.008-5.626-9.472-3.639c-3.456,1.982-4.022,5.556-1.438,9.972
			c3.109,5.318,6.479,10.494,9.371,15.927c0.753,1.415,0.802,3.91,0.049,5.301c-3.803,7.025-8.053,13.808-11.979,20.769
			c-1.273,2.258-2.527,3.092-5.137,2.048c-8.346-3.338-16.802-6.397-25.126-9.784c-1.244-0.507-2.678-2.092-2.862-3.349
			C227.636,163.896,227.925,160.892,227.925,157.487z M211.946,251.276c-1.448-0.329-2.083-0.6-2.72-0.6
			c-28.434-0.035-56.867-0.068-85.301,0.008c-1.297,0.003-3.17,0.645-3.783,1.614c-2.256,3.576-4.095,7.416-6.229,11.417
			c1.408,0.353,2.042,0.648,2.677,0.649c28.433,0.042,56.867,0.087,85.3-0.013c1.38-0.005,3.3-0.951,4.03-2.071
			C208.074,258.98,209.756,255.371,211.946,251.276z M218.275,95.27c10.191-0.069,18.652-8.566,18.688-18.767
			c0.035-10.108-8.5-18.78-18.614-18.912c-10.115-0.133-19.331,9.096-19.063,19.088C199.559,86.864,208.214,95.338,218.275,95.27z"
			/>
		<path fill-rule="evenodd" clip-rule="evenodd" d="M369,244c-6.065,4.345-12.211,8.582-18.176,13.062
			c-6.632,4.982-13.928,7.48-22.271,7.45c-29.15-0.104-58.302-0.04-87.453-0.04c-2.127,0-4.255,0-7.682,0
			c2.639-4.9,4.437-8.974,6.971-12.521c0.826-1.157,3.572-1.297,5.441-1.302c26.818-0.079,53.639-0.19,80.455,0.033
			c7.032,0.059,13.051-1.876,18.589-5.979C352.89,238.766,360.955,232.897,369,227C369,232.667,369,238.333,369,244z"/>
		<path fill-rule="evenodd" clip-rule="evenodd" d="M227.925,157.487c0,3.404-0.29,6.409,0.135,9.309
			c0.184,1.257,1.618,2.842,2.862,3.349c8.324,3.387,16.781,6.446,25.126,9.784c2.609,1.044,3.863,0.21,5.137-2.048
			c3.926-6.961,8.176-13.743,11.979-20.769c0.753-1.391,0.704-3.886-0.049-5.301c-2.892-5.433-6.262-10.608-9.371-15.927
			c-2.584-4.416-2.018-7.989,1.438-9.972c3.464-1.987,6.78-0.783,9.472,3.639c4.413,7.255,8.863,14.494,13.025,21.894
			c1.65,2.936,3.805,4.173,7.03,4.713c10.497,1.756,20.969,3.685,31.405,5.775c6.035,1.209,10.397,4.726,13.365,10.27
			c4.229,7.898,8.83,15.599,13.257,23.357c-0.488,0.602-0.73,1.065-1.11,1.343c-14.66,10.706-29.158,21.652-44.131,31.903
			c-3.715,2.544-8.969,3.956-13.525,3.98c-51.155,0.272-102.312,0.178-153.468,0.166c-10.004-0.003-12.53-4.374-7.679-13.214
			c6.409-11.678,12.912-23.305,19.184-35.055c1.454-2.725,3.174-3.711,6.24-3.661c10.829,0.174,21.661,0.078,32.492,0.055
			c1.595-0.004,3.19-0.167,6.292-0.342c-8.425-7.352-7.007-16.257-7.031-24.821c-0.033-11.997-0.196-23.999,0.054-35.991
			c0.293-14.086,11.368-22.375,24.668-18.791c7.698,2.074,12.935,9.853,13.161,19.697c0.129,5.659,0.123,11.322,0.206,16.982
			c0.004,0.285,0.289,0.566,0.802,1.51c6.255,0,12.87-0.019,19.486,0.012c1.993,0.01,4.029-0.07,5.972,0.29
			c4.731,0.877,7.744,4.739,7.443,9.203c-0.299,4.457-3.777,8.021-8.543,8.182c-6.491,0.219-12.994,0.064-19.493,0.12
			C231.976,157.145,230.196,157.342,227.925,157.487z"/>
		<path fill-rule="evenodd" clip-rule="evenodd" d="M211.946,251.276c-2.19,4.095-3.872,7.704-6.025,11.005
			c-0.73,1.12-2.65,2.066-4.03,2.071c-28.433,0.1-56.867,0.055-85.3,0.013c-0.635-0.001-1.269-0.297-2.677-0.649
			c2.134-4.001,3.972-7.841,6.229-11.417c0.612-0.97,2.486-1.611,3.783-1.614c28.434-0.076,56.867-0.043,85.301-0.008
			C209.862,250.677,210.498,250.947,211.946,251.276z"/>
		<path fill-rule="evenodd" clip-rule="evenodd" d="M218.275,95.27c-10.061,0.068-18.717-8.405-18.989-18.591
			c-0.268-9.992,8.948-19.221,19.063-19.088c10.114,0.132,18.649,8.804,18.614,18.912C236.928,86.703,228.467,95.2,218.275,95.27z"
			/>
	</g>
</g>
</svg>
