<?xml version="1.0" encoding="utf-8"?>
<!-- Generator: Adobe Illustrator 16.0.0, SVG Export Plug-In . SVG Version: 6.00 Build 0)  -->
<!DOCTYPE svg PUBLIC "-//W3C//DTD SVG 1.1//EN" "http://www.w3.org/Graphics/SVG/1.1/DTD/svg11.dtd">
<svg version="1.1" id="SnowFlakeSVG" xmlns:svg="http://www.w3.org/2000/svg"
	 xmlns="http://www.w3.org/2000/svg" xmlns:xlink="http://www.w3.org/1999/xlink" x="0px" y="0px" width="299px" height="327px"
	 viewBox="0 0 299 327" enable-background="new 0 0 299 327" xml:space="preserve">
<path id="snowflake" fill="#FFCB27" d="M133.719,0v40.719l-30.594-17.688L87.594,49.844l46.125,26.719v60.094l-51.812-29.938
	l-0.094-53.531l-31,0.062l0.062,35.562L15.5,68.375L0,95.219l35.281,20.375L4.656,133.219l15.438,26.875L66.312,133.5l52,30.031
	L66.5,193.438L20.094,166.75L4.656,193.625l30.812,17.75L0.094,231.781l15.5,26.844l35.281-20.375l-0.062,35.344l31,0.062
	l0.094-53.312l52-30v59.812L87.594,277l15.531,26.812L133.906,286v40.844h31v-40.719l30.594,17.688L211.031,277l-46.125-26.719
	v-60.094l51.812,29.938l0.094,53.531l31-0.062l-0.062-35.562l35.375,20.438l15.5-26.844l-35.281-20.375l30.625-17.625
	l-15.438-26.875l-46.188,26.594l-52.031-30.031l51.844-29.938l46.375,26.719l15.438-26.875l-30.812-17.75l35.375-20.406
	l-15.5-26.844L247.75,88.594l0.062-35.344l-31-0.062l-0.094,53.312l-52,30V76.688l46.312-26.844L195.5,23.031l-30.781,17.812V0
	H133.719z"/>
</svg>
