<?xml version="1.0" encoding="utf-8"?>
<!-- Generator: Adobe Illustrator 16.0.0, SVG Export Plug-In . SVG Version: 6.00 Build 0)  -->
<!DOCTYPE svg PUBLIC "-//W3C//DTD SVG 1.1//EN" "http://www.w3.org/Graphics/SVG/1.1/DTD/svg11.dtd">
<svg version="1.1" id="Layer_1" xmlns="http://www.w3.org/2000/svg" xmlns:xlink="http://www.w3.org/1999/xlink" x="0px" y="0px"
	 width="256px" height="234.5px" viewBox="113 54.5 256 234.5" style="enable-background:new 113 54.5 256 234.5;"
	 xml:space="preserve">
<g>
	<g>
		<path style="fill:#FFFFFF;" d="M369,244c0,15,0,30,0,45c-85.334,0-170.667,0-256,0c0-85.333,0-170.667,0-256
			c85.333,0,170.666,0,256,0c0,64.667,0,129.333,0,194c-8.045,5.896-16.109,11.766-24.126,17.703
			c-5.538,4.104-11.558,6.037-18.589,5.979c-26.816-0.224-53.637-0.111-80.455-0.033c-1.869,0.006-4.615,0.146-5.441,1.303
			c-2.534,3.548-4.332,7.621-6.971,12.521c3.427,0,5.555,0,7.682,0c29.151,0,58.303-0.063,87.453,0.039
			c8.344,0.03,15.641-2.468,22.271-7.449C356.789,252.582,362.936,248.346,369,244z M227.925,157.487
			c2.271-0.146,4.05-0.343,5.832-0.358c6.499-0.056,13.001,0.099,19.493-0.12c4.766-0.161,8.244-3.725,8.543-8.182
			c0.301-4.464-2.712-8.326-7.443-9.203c-1.941-0.36-3.979-0.28-5.972-0.29c-6.616-0.03-13.231-0.012-19.486-0.012
			c-0.514-0.943-0.798-1.225-0.802-1.51c-0.083-5.66-0.077-11.323-0.206-16.982c-0.226-9.845-5.462-17.623-13.161-19.697
			c-13.3-3.584-24.375,4.705-24.668,18.791c-0.25,11.992-0.087,23.994-0.054,35.991c0.024,8.563-1.394,17.47,7.031,24.821
			c-3.102,0.175-4.696,0.338-6.292,0.342c-10.831,0.023-21.664,0.119-32.492-0.055c-3.066-0.051-4.786,0.937-6.24,3.66
			c-6.272,11.75-12.775,23.377-19.184,35.056c-4.852,8.84-2.326,13.211,7.679,13.214c51.156,0.012,102.313,0.105,153.468-0.166
			c4.557-0.023,9.812-1.438,13.525-3.98c14.973-10.25,29.471-21.197,44.131-31.902c0.38-0.277,0.622-0.741,1.109-1.344
			c-4.426-7.759-9.026-15.459-13.256-23.356c-2.969-5.544-7.33-9.062-13.365-10.271c-10.438-2.091-20.908-4.02-31.405-5.774
			c-3.226-0.54-5.38-1.777-7.03-4.713c-4.162-7.399-8.611-14.639-13.024-21.895c-2.691-4.422-6.009-5.626-9.472-3.639
			c-3.457,1.982-4.022,5.556-1.438,9.972c3.108,5.318,6.479,10.494,9.371,15.927c0.753,1.415,0.802,3.91,0.049,5.301
			c-3.803,7.025-8.053,13.808-11.979,20.769c-1.272,2.259-2.526,3.093-5.137,2.048c-8.346-3.338-16.802-6.396-25.126-9.783
			c-1.244-0.508-2.678-2.092-2.862-3.35C227.636,163.896,227.925,160.893,227.925,157.487z M211.946,251.275
			c-1.448-0.328-2.083-0.6-2.72-0.6c-28.434-0.035-56.867-0.068-85.301,0.008c-1.297,0.004-3.17,0.646-3.783,1.614
			c-2.256,3.576-4.095,7.416-6.229,11.417c1.408,0.354,2.042,0.648,2.677,0.648c28.433,0.043,56.867,0.088,85.3-0.012
			c1.38-0.006,3.3-0.951,4.03-2.072C208.074,258.98,209.756,255.371,211.946,251.275z M218.275,95.27
			c10.191-0.069,18.652-8.566,18.688-18.767c0.035-10.108-8.5-18.78-18.614-18.912c-10.115-0.133-19.331,9.096-19.063,19.088
			C199.559,86.864,208.214,95.338,218.275,95.27z"/>
		<path d="M369,244c-6.064,4.346-12.211,8.582-18.176,13.062c-6.633,4.981-13.928,7.479-22.271,7.449
			c-29.15-0.104-58.302-0.039-87.453-0.039c-2.126,0-4.254,0-7.682,0c2.639-4.9,4.437-8.975,6.971-12.521
			c0.826-1.157,3.572-1.297,5.441-1.303c26.818-0.078,53.639-0.189,80.455,0.033c7.031,0.06,13.051-1.875,18.589-5.979
			c8.017-5.938,16.081-11.807,24.126-17.703C369,232.667,369,238.333,369,244z"/>
		<path d="M227.925,157.487c0,3.404-0.29,6.41,0.135,9.309c0.184,1.257,1.618,2.843,2.862,3.349
			c8.324,3.388,16.781,6.446,25.126,9.785c2.609,1.043,3.863,0.209,5.138-2.049c3.926-6.961,8.176-13.742,11.979-20.769
			c0.753-1.391,0.704-3.886-0.049-5.301c-2.893-5.433-6.262-10.608-9.371-15.927c-2.584-4.416-2.018-7.989,1.438-9.972
			c3.465-1.987,6.78-0.783,9.473,3.639c4.412,7.255,8.863,14.494,13.024,21.894c1.65,2.936,3.806,4.173,7.03,4.713
			c10.497,1.756,20.969,3.685,31.405,5.775c6.034,1.209,10.396,4.726,13.364,10.27c4.229,7.898,8.83,15.599,13.258,23.357
			c-0.488,0.602-0.73,1.064-1.11,1.342c-14.66,10.707-29.158,21.652-44.131,31.904c-3.716,2.543-8.97,3.955-13.525,3.979
			c-51.155,0.272-102.312,0.178-153.468,0.166c-10.004-0.003-12.53-4.374-7.679-13.214c6.409-11.678,12.912-23.305,19.184-35.055
			c1.454-2.726,3.174-3.711,6.24-3.662c10.829,0.174,21.661,0.078,32.492,0.056c1.595-0.004,3.19-0.167,6.292-0.343
			c-8.425-7.352-7.007-16.256-7.031-24.82c-0.033-11.997-0.196-23.999,0.054-35.991c0.293-14.086,11.368-22.375,24.668-18.791
			c7.698,2.074,12.935,9.853,13.161,19.697c0.129,5.659,0.123,11.322,0.206,16.982c0.004,0.285,0.289,0.566,0.802,1.51
			c6.255,0,12.87-0.019,19.486,0.012c1.993,0.01,4.029-0.07,5.973,0.29c4.73,0.877,7.743,4.739,7.442,9.203
			c-0.299,4.457-3.776,8.021-8.543,8.182c-6.491,0.219-12.994,0.064-19.493,0.12C231.976,157.145,230.196,157.342,227.925,157.487z"
			/>
		<path d="M211.946,251.275c-2.19,4.096-3.872,7.705-6.025,11.006c-0.73,1.119-2.65,2.066-4.03,2.07
			c-28.433,0.101-56.867,0.056-85.3,0.014c-0.635-0.001-1.269-0.297-2.677-0.649c2.134-4.001,3.972-7.841,6.229-11.417
			c0.612-0.97,2.486-1.611,3.783-1.613c28.434-0.076,56.867-0.043,85.301-0.008C209.862,250.677,210.498,250.947,211.946,251.275z"
			/>
		<path d="M218.275,95.27c-10.061,0.068-18.717-8.405-18.989-18.591c-0.268-9.992,8.948-19.221,19.063-19.088
			c10.114,0.132,18.649,8.804,18.614,18.912C236.928,86.703,228.467,95.2,218.275,95.27z"/>
	</g>
</g>
</svg>
