<?xml version="1.0" encoding="utf-8"?>
<!-- Generator: Adobe Illustrator 16.0.0, SVG Export Plug-In . SVG Version: 6.00 Build 0)  -->
<!DOCTYPE svg PUBLIC "-//W3C//DTD SVG 1.1//EN" "http://www.w3.org/Graphics/SVG/1.1/DTD/svg11.dtd">
<svg version="1.1" id="Capa_1" xmlns="http://www.w3.org/2000/svg" xmlns:xlink="http://www.w3.org/1999/xlink" x="0px" y="0px"
	 width="749px" height="222.75px" viewBox="264.5 320 749 222.75" style="enable-background:new 264.5 320 749 222.75;"
	 xml:space="preserve">
<g>
	<path d="M285.312,525.062c21.763,6.475,61.075,14.2,124.812,14.2h0.025c76.25,0,167.225-11.075,270.387-32.925
		c73.275-15.525,130.2-30.113,174.5-43.351c10.138,13.3,30.676,34.788,60.625,39.812c13.613,2.288,22.638-10.774,20.875-24.462
		c-1.649-12.713-2.987-28.426-2.274-42.463c33.763-13.525,52.412-24.525,62.6-32.2c11.625-8.737,15.987-23.1,14.2-32.149
		l-3.338-17.038c-1.762-9.062-11.237-20.7-25.3-24.425c-15.763-4.162-38.075-6.25-66.325-6.25
		c-63.024,0-152.3,10.375-265.337,30.825c-242.976,43.975-341.775,107.024-372.975,132.087c-7.1,5.7-10.425,13.801-8.875,21.663
		C270.462,516.237,276.587,522.475,285.312,525.062z"/>
</g>
</svg>
