<?xml version="1.0" encoding="utf-8"?>
<!-- Generator: Adobe Illustrator 16.0.0, SVG Export Plug-In . SVG Version: 6.00 Build 0)  -->
<!DOCTYPE svg PUBLIC "-//W3C//DTD SVG 1.1//EN" "http://www.w3.org/Graphics/SVG/1.1/DTD/svg11.dtd">
<svg version="1.1" id="Capa_1" xmlns="http://www.w3.org/2000/svg" xmlns:xlink="http://www.w3.org/1999/xlink" x="0px" y="0px"
	 width="749px" height="222.75px" viewBox="0 0 749 222.75" enable-background="new 0 0 749 222.75" xml:space="preserve">
<g>
	<path fill="#FFCB27" d="M19.819,204.901c21.763,6.475,61.075,14.199,124.812,14.199h0.025c76.25,0,167.225-11.074,270.387-32.925
		c73.274-15.524,130.2-30.113,174.5-43.351c10.138,13.3,30.676,34.788,60.625,39.812c13.612,2.288,22.638-10.773,20.875-24.462
		c-1.649-12.713-2.987-28.426-2.274-42.463c33.764-13.525,52.412-24.525,62.601-32.2c11.625-8.737,15.986-23.1,14.2-32.148
		l-3.339-17.038c-1.762-9.062-11.236-20.7-25.3-24.426c-15.763-4.161-38.075-6.25-66.325-6.25
		c-63.023,0-152.3,10.375-265.337,30.825C142.293,78.45,43.494,141.499,12.294,166.562c-7.1,5.7-10.425,13.802-8.875,21.663
		C4.969,196.076,11.094,202.313,19.819,204.901z"/>
</g>
</svg>
