<?xml version="1.0" encoding="utf-8"?>
<!-- Generator: Adobe Illustrator 16.0.0, SVG Export Plug-In . SVG Version: 6.00 Build 0)  -->
<!DOCTYPE svg PUBLIC "-//W3C//DTD SVG 1.1//EN" "http://www.w3.org/Graphics/SVG/1.1/DTD/svg11.dtd">
<svg version="1.1" id="Layer_1" xmlns="http://www.w3.org/2000/svg" xmlns:xlink="http://www.w3.org/1999/xlink" x="0px" y="0px"
	 width="389.5px" height="282px" viewBox="0 0 389.5 282" enable-background="new 0 0 389.5 282" xml:space="preserve">
<path fill="#FFCB27" d="M387.052,278.938c-8.793,0.111-16.949-2.305-24.979-5.738c-15.902-6.807-31.852-6.357-47.611,0.648
	c-7.771,3.457-15.822,5.166-24.359,5.045c-7.633-0.105-14.879-1.652-21.785-4.775c-16.807-7.604-33.538-7.518-50.401-0.08
	c-15.342,6.764-30.796,6.652-46.13-0.145c-16.33-7.238-32.671-7.4-49.003-0.174c-15.876,7.027-31.658,6.965-47.528-0.029
	c-15.524-6.844-31.222-7.229-46.903-0.559c-8.129,3.455-16.416,5.986-25.352,5.807c0-11.752,0-23.504,0-35.256
	c8.102,1.002,15.734-1.113,22.91-4.361c16.738-7.576,33.195-7.555,49.997-0.137c15.813,6.98,31.803,6.521,47.604-0.467
	c15.187-6.715,30.536-7.252,45.776-0.508c17.237,7.629,34.202,7.684,51.479,0.031c15.058-6.668,30.352-6.391,45.435,0.285
	c16.449,7.279,32.861,7.459,49.359,0.164c15.852-7.01,31.67-6.877,47.554,0.148c7.567,3.348,15.438,5.818,23.938,4.844
	C387.052,255.434,387.052,267.186,387.052,278.938z"/>
<path fill="#FFCB27" d="M67.155,203.744c5.527-3.105,10.281-5.801,15.055-8.457c37.893-21.084,75.79-42.156,113.683-63.238
	c4.061-2.258,4.074-2.299,1.728-6.598c-10.901-19.96-21.856-39.893-32.709-59.879c-6.479-11.932-5.099-23.531,3.592-32.022
	c3.032-2.962,6.55-4.916,10.759-5.691c29.604-5.451,59.2-10.947,88.803-16.41c14.617-2.697,29.229-5.416,43.865-8.011
	c15.598-2.766,28.379,6.426,30.875,22.064c2.012,12.616-6.828,25.309-20.268,28.278c-11.336,2.503-22.811,4.384-34.232,6.495
	c-16.705,3.087-33.418,6.133-50.125,9.196c-0.369,0.067-0.738,0.135-1.104,0.211c-5.039,1.044-5.187,1.388-2.636,6.04
	c23.734,43.28,47.471,86.561,71.203,129.842c2.297,4.186,2.108,4.57-2.465,5.551c-11.992,2.574-23.631,1.457-34.789-3.609
	c-16.816-7.641-33.523-7.648-50.391-0.076c-15.188,6.82-30.602,6.848-45.771,0.037c-17.021-7.643-33.723-7.449-50.725,0.188
	c-14.494,6.516-29.333,6.383-44.078,0.402C74.311,206.791,71.229,205.457,67.155,203.744z"/>
<path fill="#FFCB27" d="M376.45,132.221c-0.137,25.488-20.124,45.386-45.497,45.292c-25.53-0.098-44.974-19.938-44.871-45.798
	c0.099-25.437,20.556-45.67,45.952-45.452C357.026,86.479,376.587,106.717,376.45,132.221z"/>
</svg>
