<?xml version="1.0" encoding="utf-8"?>
<!-- Generator: Adobe Illustrator 16.0.0, SVG Export Plug-In . SVG Version: 6.00 Build 0)  -->
<!DOCTYPE svg PUBLIC "-//W3C//DTD SVG 1.1//EN" "http://www.w3.org/Graphics/SVG/1.1/DTD/svg11.dtd">
<svg version="1.1" id="Layer_1" xmlns="http://www.w3.org/2000/svg" xmlns:xlink="http://www.w3.org/1999/xlink" x="0px" y="0px"
	 width="389.5px" height="282px" viewBox="-271 18.5 389.5 282" style="enable-background:new -271 18.5 389.5 282;"
	 xml:space="preserve">
<path style="fill:#FFFFFF;" d="M246.75,297.51c0-97.139,0.014-194.276-0.07-291.416c-0.003-2.812,0.633-3.448,3.445-3.446
	c125.768,0.082,251.535,0.082,377.303,0c2.812-0.002,3.448,0.634,3.445,3.446c-0.084,97.139-0.07,194.277-0.07,291.416
	c-8.502,0.977-16.37-1.496-23.938-4.844c-15.884-7.023-31.702-7.156-47.554-0.148c-16.498,7.295-32.91,7.115-49.359-0.164
	c-15.083-6.674-30.377-6.953-45.434-0.285c-17.277,7.652-34.242,7.598-51.479-0.031c-15.24-6.744-30.59-6.205-45.776,0.51
	c-15.803,6.984-31.791,7.447-47.604,0.467c-16.802-7.42-33.259-7.443-49.997,0.135C262.484,296.396,254.852,298.512,246.75,297.51z
	 M310.908,257.572c4.074,1.713,7.156,3.049,10.271,4.312c14.744,5.979,29.582,6.109,44.077-0.402
	c17.001-7.637,33.703-7.83,50.724-0.188c15.17,6.811,30.582,6.783,45.772-0.037c16.865-7.572,33.572-7.562,50.392,0.076
	c11.157,5.066,22.797,6.186,34.787,3.609c4.574-0.98,4.762-1.365,2.467-5.551c-23.734-43.281-47.47-86.562-71.203-129.842
	c-2.553-4.651-2.405-4.995,2.634-6.04c0.366-0.076,0.735-0.144,1.104-0.211c16.709-3.063,33.422-6.109,50.125-9.196
	c11.424-2.111,22.897-3.992,34.233-6.495c13.438-2.969,22.278-15.662,20.267-28.278c-2.496-15.639-15.277-24.83-30.875-22.064
	c-14.637,2.596-29.25,5.314-43.867,8.011c-29.603,5.462-59.198,10.958-88.803,16.41c-4.209,0.775-7.726,2.729-10.758,5.691
	c-8.689,8.491-10.07,20.09-3.592,32.022c10.854,19.987,21.807,39.918,32.709,59.879c2.35,4.299,2.333,4.34-1.727,6.598
	c-37.894,21.082-75.791,42.154-113.683,63.238C321.188,251.771,316.436,254.467,310.908,257.572z M620.203,186.049
	c0.137-25.504-19.423-45.742-44.416-45.958c-25.396-0.218-45.854,20.015-45.952,45.452c-0.103,25.857,19.341,45.701,44.871,45.799
	C600.079,231.436,620.066,211.537,620.203,186.049z"/>
<path style="fill:#FFFFFF;" d="M630.804,332.766c0,17.002-0.07,34.006,0.076,51.006c0.022,2.572-0.508,3.074-3.076,3.072
	c-102.015-0.084-204.028-0.07-306.043-0.07c-24.254,0-48.507-0.023-72.76,0.049c-1.875,0.006-2.31-0.424-2.299-2.299
	c0.083-17.254,0.049-34.506,0.049-51.758c8.937,0.182,17.222-2.352,25.351-5.809c15.683-6.668,31.381-6.283,46.904,0.561
	c15.87,6.994,31.652,7.059,47.528,0.029c16.332-7.229,32.673-7.064,49.003,0.174c15.334,6.797,30.789,6.904,46.13,0.143
	c16.863-7.436,33.597-7.521,50.401,0.08c6.908,3.123,14.154,4.67,21.787,4.777c8.537,0.121,16.588-1.588,24.358-5.045
	c15.761-7.01,31.709-7.455,47.611-0.65C613.854,330.461,622.012,332.877,630.804,332.766z"/>
<path d="M115.804,297.938c-8.792,0.111-16.948-2.305-24.978-5.74c-15.902-6.805-31.852-6.357-47.611,0.65
	c-7.771,3.457-15.822,5.166-24.359,5.045c-7.633-0.107-14.879-1.654-21.785-4.777c-16.807-7.602-33.539-7.516-50.402-0.08
	c-15.342,6.764-30.796,6.654-46.13-0.143c-16.33-7.238-32.671-7.402-49.003-0.174c-15.876,7.027-31.658,6.965-47.528-0.029
	c-15.524-6.844-31.222-7.229-46.903-0.559c-8.129,3.455-16.416,5.986-25.352,5.807c0-11.752,0-23.504,0-35.256
	c8.102,1.002,15.734-1.113,22.91-4.361c16.738-7.578,33.195-7.555,49.997-0.137c15.813,6.98,31.803,6.52,47.604-0.467
	c15.187-6.715,30.536-7.252,45.776-0.508c17.237,7.629,34.202,7.684,51.479,0.031c15.057-6.668,30.351-6.391,45.434,0.285
	c16.449,7.279,32.861,7.459,49.359,0.164c15.852-7.01,31.67-6.877,47.554,0.148c7.568,3.348,15.438,5.818,23.938,4.844
	C115.804,274.434,115.804,286.186,115.804,297.938z"/>
<path d="M-204.092,222.744c5.527-3.105,10.281-5.801,15.055-8.457c37.893-21.084,75.79-42.156,113.682-63.238
	c4.061-2.258,4.075-2.299,1.728-6.598c-10.901-19.96-21.856-39.893-32.709-59.879c-6.479-11.932-5.099-23.531,3.592-32.022
	c3.032-2.962,6.55-4.916,10.759-5.691c29.604-5.451,59.2-10.947,88.803-16.41c14.617-2.697,29.229-5.416,43.865-8.011
	c15.598-2.766,28.379,6.426,30.875,22.064C73.57,57.118,64.73,69.811,51.291,72.78c-11.336,2.503-22.811,4.384-34.232,6.495
	c-16.705,3.087-33.418,6.133-50.125,9.196c-0.369,0.067-0.738,0.135-1.105,0.211c-5.039,1.044-5.186,1.388-2.635,6.04
	c23.734,43.28,47.47,86.561,71.203,129.842c2.297,4.186,2.108,4.57-2.465,5.551c-11.992,2.574-23.631,1.457-34.789-3.609
	c-16.817-7.641-33.524-7.648-50.391-0.076c-15.189,6.82-30.602,6.848-45.771,0.037c-17.021-7.643-33.723-7.449-50.725,0.188
	c-14.494,6.514-29.333,6.381-44.078,0.402C-196.936,225.791-200.018,224.457-204.092,222.744z"/>
<path d="M105.203,151.221c-0.137,25.488-20.124,45.387-45.497,45.293c-25.53-0.098-44.974-19.939-44.871-45.799
	c0.099-25.437,20.556-45.67,45.952-45.452C85.78,105.479,105.34,125.717,105.203,151.221z"/>
</svg>
