<?xml version="1.0" encoding="utf-8"?>
<!-- Generator: Adobe Illustrator 16.0.0, SVG Export Plug-In . SVG Version: 6.00 Build 0)  -->
<!DOCTYPE svg PUBLIC "-//W3C//DTD SVG 1.1//EN" "http://www.w3.org/Graphics/SVG/1.1/DTD/svg11.dtd">
<svg version="1.1" id="Layer_1" xmlns="http://www.w3.org/2000/svg" xmlns:xlink="http://www.w3.org/1999/xlink" x="0px" y="0px"
	 width="480px" height="320px" viewBox="0 0 480 320" enable-background="new 0 0 480 320" xml:space="preserve">
<g>
	<g>
		<path fill="#FFFFFF" d="M48.75,263.541c0-97.139,0.014-194.277-0.071-291.416c-0.002-2.812,0.634-3.448,3.446-3.446
			c125.768,0.082,251.535,0.082,377.303,0c2.812-0.002,3.448,0.634,3.445,3.446c-0.084,97.139-0.07,194.277-0.07,291.416
			c-8.502,0.976-16.37-1.496-23.939-4.844c-15.884-7.024-31.702-7.157-47.554-0.148c-16.498,7.295-32.91,7.115-49.359-0.164
			c-15.083-6.675-30.377-6.953-45.434-0.285c-17.277,7.651-34.242,7.598-51.479-0.031c-15.24-6.745-30.59-6.206-45.776,0.508
			c-15.803,6.986-31.792,7.448-47.605,0.467c-16.801-7.419-33.258-7.442-49.997,0.136C64.485,262.427,56.852,264.543,48.75,263.541z
			 M112.908,223.604c4.074,1.713,7.157,3.048,10.271,4.311c14.745,5.979,29.583,6.111,44.078-0.401
			c17.001-7.638,33.703-7.83,50.724-0.188c15.17,6.81,30.582,6.783,45.772-0.038c16.865-7.572,33.572-7.562,50.391,0.076
			c11.158,5.067,22.797,6.186,34.788,3.611c4.574-0.981,4.762-1.365,2.466-5.552c-23.734-43.281-47.469-86.562-71.203-129.842
			c-2.552-4.651-2.405-4.995,2.634-6.04c0.367-0.076,0.736-0.144,1.105-0.211c16.708-3.063,33.421-6.109,50.125-9.196
			c11.423-2.111,22.897-3.992,34.233-6.495c13.439-2.969,22.278-15.662,20.266-28.278c-2.496-15.639-15.277-24.83-30.875-22.064
			c-14.636,2.596-29.249,5.314-43.866,8.011c-29.603,5.462-59.199,10.958-88.803,16.41c-4.209,0.775-7.726,2.729-10.758,5.691
			c-8.69,8.491-10.071,20.09-3.592,32.022c10.853,19.987,21.807,39.919,32.709,59.879c2.349,4.299,2.333,4.34-1.727,6.598
			c-37.893,21.082-75.79,42.155-113.682,63.239C123.188,217.803,118.436,220.497,112.908,223.604z M422.203,152.079
			c0.137-25.504-19.423-45.741-44.416-45.957c-25.396-0.218-45.854,20.015-45.952,45.452c-0.102,25.858,19.341,45.701,44.871,45.798
			C402.079,197.467,422.066,177.568,422.203,152.079z"/>
		<path fill-rule="evenodd" clip-rule="evenodd" fill="#FFFFFF" d="M432.804,298.796c0,17.003-0.071,34.006,0.076,51.007
			c0.022,2.572-0.508,3.074-3.076,3.072c-102.015-0.084-204.029-0.071-306.043-0.071c-24.254,0-48.507-0.024-72.76,0.049
			c-1.875,0.006-2.309-0.423-2.299-2.299c0.083-17.253,0.049-34.505,0.049-51.758c8.936,0.182,17.222-2.35,25.351-5.807
			c15.682-6.669,31.38-6.284,46.904,0.559c15.87,6.995,31.652,7.059,47.528,0.03c16.332-7.229,32.673-7.065,49.003,0.173
			c15.334,6.798,30.789,6.906,46.13,0.143c16.863-7.436,33.597-7.521,50.402,0.08c6.907,3.124,14.153,4.671,21.786,4.778
			c8.537,0.12,16.589-1.588,24.359-5.045c15.761-7.009,31.709-7.456,47.611-0.65C415.854,296.492,424.012,298.907,432.804,298.796z"
			/>
		<path fill-rule="evenodd" clip-rule="evenodd" d="M432.804,298.796c-8.792,0.111-16.949-2.304-24.978-5.739
			c-15.902-6.806-31.851-6.358-47.611,0.65c-7.771,3.457-15.822,5.165-24.359,5.045c-7.633-0.107-14.879-1.654-21.786-4.778
			c-16.806-7.602-33.539-7.516-50.402-0.08c-15.342,6.764-30.796,6.655-46.13-0.143c-16.33-7.238-32.671-7.402-49.003-0.173
			c-15.876,7.028-31.658,6.965-47.528-0.03c-15.524-6.843-31.222-7.228-46.904-0.559c-8.129,3.457-16.415,5.988-25.351,5.807
			c0-11.752,0-23.503,0-35.255c8.102,1.002,15.735-1.114,22.91-4.362c16.739-7.578,33.196-7.555,49.997-0.136
			c15.814,6.981,31.803,6.52,47.605-0.467c15.186-6.714,30.536-7.253,45.776-0.508c17.238,7.629,34.202,7.683,51.479,0.031
			c15.057-6.668,30.351-6.39,45.434,0.285c16.449,7.279,32.861,7.459,49.359,0.164c15.852-7.009,31.67-6.876,47.554,0.148
			c7.569,3.348,15.438,5.819,23.939,4.844C432.804,275.293,432.804,287.044,432.804,298.796z"/>
		<path fill-rule="evenodd" clip-rule="evenodd" d="M112.908,223.604c5.528-3.106,10.281-5.801,15.055-8.457
			c37.892-21.084,75.79-42.157,113.682-63.239c4.06-2.258,4.075-2.299,1.727-6.598c-10.902-19.96-21.856-39.893-32.709-59.879
			c-6.479-11.932-5.098-23.531,3.592-32.022c3.032-2.962,6.549-4.916,10.758-5.691c29.604-5.451,59.201-10.947,88.803-16.41
			c14.617-2.697,29.23-5.416,43.866-8.011c15.598-2.766,28.379,6.426,30.875,22.064c2.013,12.616-6.826,25.309-20.266,28.278
			c-11.336,2.503-22.811,4.384-34.233,6.495c-16.704,3.087-33.417,6.133-50.125,9.196c-0.369,0.067-0.738,0.135-1.105,0.211
			c-5.039,1.044-5.186,1.388-2.634,6.04c23.734,43.28,47.469,86.561,71.203,129.842c2.296,4.187,2.108,4.57-2.466,5.552
			c-11.991,2.574-23.63,1.456-34.788-3.611c-16.818-7.639-33.525-7.648-50.391-0.076c-15.19,6.821-30.602,6.848-45.772,0.038
			c-17.021-7.642-33.722-7.449-50.724,0.188c-14.494,6.513-29.333,6.381-44.078,0.401
			C120.065,226.651,116.982,225.316,112.908,223.604z"/>
		<path fill-rule="evenodd" clip-rule="evenodd" d="M422.203,152.079c-0.137,25.489-20.124,45.388-45.497,45.293
			c-25.53-0.097-44.973-19.939-44.871-45.798c0.099-25.437,20.556-45.67,45.952-45.452
			C402.78,106.338,422.34,126.575,422.203,152.079z"/>
	</g>
</g>
</svg>
