<?xml version="1.0" encoding="utf-8"?>
<!-- Generator: Adobe Illustrator 16.0.0, SVG Export Plug-In . SVG Version: 6.00 Build 0)  -->
<!DOCTYPE svg PUBLIC "-//W3C//DTD SVG 1.1//EN" "http://www.w3.org/Graphics/SVG/1.1/DTD/svg11.dtd">
<svg version="1.1" id="Capa_1" xmlns="http://www.w3.org/2000/svg" xmlns:xlink="http://www.w3.org/1999/xlink" x="0px" y="0px"
	 width="64px" height="64px" viewBox="0 0 64 64" enable-background="new 0 0 64 64" xml:space="preserve">
<polygon fill="#FFCB27" points="11.852,18.047 8.949,57.189 5.297,57.189 8.013,24.133 "/>
<polygon fill="#FFCB27" points="53.336,24.416 55.49,57.189 57.925,57.189 55.63,28.724 "/>
<path fill="#FFCB27" d="M22.994,14.302l-7.116,42.888h15.264V6.81L22.994,14.302z M29.644,49.136L18.15,53.443l0.655-4.495
	l10.839-4.4V49.136L29.644,49.136z M29.644,42.395l-10.675,4.4l0.655-4.495l10.02-4.493V42.395z M29.644,35.654l-9.692,4.212
	l0.656-4.495l9.036-4.306V35.654z M29.644,29.004l-8.521,4.401l0.655-4.495l7.865-4.495L29.644,29.004L29.644,29.004z
	 M29.644,22.167l-7.538,4.497l0.655-4.495l6.883-4.59V22.167z M29.644,15.519l-6.555,4.4l0.936-4.4l5.619-4.589V15.519z"/>
<path fill="#FFCB27" d="M38.54,12.428L31.984,6.81v50.379h14.795L38.54,12.428z M32.922,10.93l4.869,3.465l0.891,4.027l-5.76-3.372
	V10.93z M32.922,17.579l5.76,2.786l0.701,3.863L32.922,21.7V17.579z M32.922,24.227l6.461,2.437l0.887,4.212l-7.348-2.529V24.227z
	 M32.922,30.875l7.348,2.53l0.941,4.938l-8.288-2.878L32.922,30.875L32.922,30.875z M32.922,37.523l8.521,3.045l0.921,4.602
	l-9.441-3.174L32.922,37.523L32.922,37.523z M32.922,44.173l9.441,3.419l1.06,4.292l-10.501-3.146V44.173z"/>
<path fill="#FFCB27" d="M12.601,18.422L9.604,57.189h5.618l0.776-4.776l-5.184-1.358l0.187-2.201l5.312,1.627l0.247-1.521
	l-5.459-1.587l0.187-2.201l5.585,1.875l0.249-1.542l-5.774-1.691l0.187-2.201l5.896,2l0.254-1.562l-6.02-1.854l0.187-2.201
	l6.139,2.184l0.258-1.583l-6.396-2.026l0.188-2.202l6.365,2.319v0.941l1.219-7.498V21.42L12.601,18.422z M18.545,35.043
	l-6.272-2.248l0.187-2.202l6.085,2.483V35.043z M18.687,31.438l-6.099-2.189l0.188-2.201l5.911,2.424V31.438z M18.828,27.833
	l-5.899-2.106l0.187-2.201l5.713,2.341L18.828,27.833L18.828,27.833z M18.969,24.227l-5.9-2.106l0.187-2.202l5.713,2.342V24.227z"/>
<path fill="#FFCB27" d="M52.867,23.946l-7.023,2.809l-1.217,15.171l0.652,3.225l7.824-1.932l0.139,2.551l-7.512,1.609l0.318,1.572
	l7.286-1.451l0.228,2.75l-7.051,0.988l1.205,5.951h6.93L52.867,23.946z M46.469,28.281l5.758-2.115l0.101,2.415l-6.015,1.815
	L46.469,28.281z M46.156,31.656l6.363-1.969l0.125,2.167L46,33.771L46.156,31.656z M45.844,35.031l6.803-2.115l0.104,2.291
	l-7.062,1.938L45.844,35.031z M45.531,38.406l7.322-2.115l0.084,2.332l-7.562,1.898L45.531,38.406z M45.062,43.896l0.155-2.114
	l7.72-2.115l0.166,2.228L45.062,43.896z"/>
</svg>
