<?xml version="1.0" encoding="utf-8"?>
<!-- Generator: Adobe Illustrator 16.0.0, SVG Export Plug-In . SVG Version: 6.00 Build 0)  -->
<!DOCTYPE svg PUBLIC "-//W3C//DTD SVG 1.1//EN" "http://www.w3.org/Graphics/SVG/1.1/DTD/svg11.dtd">
<svg version="1.1" id="Layer_1" xmlns="http://www.w3.org/2000/svg" xmlns:xlink="http://www.w3.org/1999/xlink" x="0px" y="0px"
	 width="418px" height="294.833px" viewBox="30.833 17 418 294.833" style="enable-background:new 30.833 17 418 294.833;"
	 xml:space="preserve">
<path style="fill:#FFFFFF;" d="M-536.859,403.28c0-158,0-316,0-474c158,0,316,0,474,0c0,158,0,316,0,474
	C-220.86,403.28-378.859,403.28-536.859,403.28z M-132.59,190.186c0.334-0.985,0.633-1.595,0.74-2.235
	c0.312-1.869,0.419-3.781,0.84-5.623c1.961-8.58,4.379-17.072,4.564-25.969c0.016-0.684,0.415-1.521,0.912-2
	c2.13-2.049,4.374-3.978,6.557-5.972c2.26-2.064,2.49-4.395,0.662-6.83c-0.747-0.997-1.709-1.85-2.359-2.899
	c-2.671-4.295-5.296-8.619-7.86-12.979c-0.953-1.621-2.137-2.58-4.104-2.493c-1.479,0.064-2.117-0.736-2.454-2.228
	c-0.413-1.826-1.025-3.706-1.998-5.288c-2.627-4.275-5.855-7.883-10.406-10.451c-4.311-2.434-8.13-5.734-12.183-8.631
	c-6.197-4.429-12.443-8.792-18.607-13.268c-8.131-5.905-16.262-11.812-24.267-17.885c-3.146-2.386-6.458-4.457-9.124-7.65
	c-4.063-4.868-7.343-10.084-9.925-15.786c-1.996-4.408-5.354-8.167-6.237-13.109c-0.072-0.409-0.511-0.749-0.769-1.129
	c-0.693-1.025-1.444-2.018-2.062-3.087c-3.064-5.295-7.054-9.796-13.509-9.917c-5.862-0.109-11.778,0.776-17.612,1.625
	c-4.059,0.591-7.988,2.016-12.027,2.795c-7.465,1.438-14.951,2.634-22.027,5.68c-5.105,2.198-10.38,3.917-15.925,4.947
	c-7.739,1.438-15.367,3.479-23.042,5.261c-1.791,0.416-3.59,0.796-5.369,1.259c-2.852,0.743-5.667,1.642-8.539,2.292
	c-4.879,1.103-8.743,3.801-11.98,7.456c-0.795,0.898-0.953,2.369-1.764,3.244c-2.226,2.403-4.659,4.613-6.977,6.933
	c-1.197,1.197-2.511,2.337-3.449,3.722c-2.415,3.566-4.673,7.239-6.95,10.896c-9.894,15.887-19.771,31.783-29.66,47.673
	c-0.328,0.527-1.127,1.161-1.008,1.501c0.616,1.759-0.663,2.225-1.723,2.811c-5.38,2.978-11.294,4.232-17.259,5.349
	c-5.613,1.049-11.214,2.167-16.813,3.281c-5.927,1.179-11.85,2.381-17.771,3.589c-4.948,1.011-9.911,1.965-14.83,3.104
	c-2.743,0.635-5.364,1.867-8.124,2.351c-4.674,0.818-8.994,2.462-13.085,4.764c-0.719,0.403-1.465,1.202-1.693,1.968
	c-2.063,6.93-4.345,13.817-5.913,20.862c-1.914,8.603-1.335,17.404-0.941,26.148c0.02,0.438,0.236,0.895,0.448,1.295
	c2.181,4.11,4.396,8.204,6.552,12.328c0.28,0.536,0.366,1.221,0.38,1.84c0.021,0.938-0.102,1.879-0.145,2.53
	c-0.577,0.851-1.257,1.465-1.439,2.203c-0.294,1.194-0.421,2.483-0.331,3.711c0.137,1.858-0.67,2.585-2.418,2.788
	c-0.771,0.09-1.939,0.441-2.159,0.984c-1.304,3.22-2.401,6.523-3.521,9.814c-0.196,0.575,0.054,1.505-0.295,1.789
	c-1.417,1.156-1.234,2.432-0.407,3.673c1.629,2.448,2.452,4.718-0.683,6.642c-0.146,0.09-0.181,0.345-0.283,0.513
	c-1.284,2.106-0.673,4.051,0.582,5.882c0.793,1.157,1.168,2.072-0.15,3.219c-1.042,0.906-0.767,2.1,0.41,2.799
	c1.551,0.922,1.149,1.89,0.412,3.108c-0.399,0.661-0.82,1.655-0.604,2.283c1.168,3.407,2.267,6.914,5.418,9.157
	c1.53,1.089,2.188,2.404,1.907,4.381c-0.447,3.13,1.303,5.658,4.134,6.943c1.127,0.512,2.19,1.412,2.972,2.385
	c1.85,2.305,3.476,4.785,5.265,7.14c1.345,1.771,3.207,2.536,5.4,2.119c2.268-0.431,3.958,0.569,5.517,1.97
	c0.831,0.745,1.631,1.539,2.356,2.389c2.101,2.459,4.618,3.092,7.6,1.854c1.584-0.657,2.43-0.174,2.801,1.53
	c0.488,2.243,1.843,2.943,3.701,1.598c2.2-1.595,4.526-1.834,7.07-1.852c1.487-0.012,3.021-0.295,4.447-0.739
	c2.556-0.796,4.974-0.806,7.515,0.151c0.979,0.367,2.465,0.375,3.338-0.123c5.596-3.192,11.11-6.532,16.584-9.932
	c0.942-0.584,1.989-1.568,2.254-2.564c0.592-2.228,2.085-2.865,4.032-3.104c3.587-0.439,5.016-1.348,5.506-4.917
	c0.456-3.319,2.083-5.541,4.566-7.457c1.308-1.01,2.008-2.434,1.248-4.006c-1.052-2.176-0.152-3.722,1.375-5.028
	c1.854-1.587,3.344-3.14,1.244-5.431c4.346-4.808,4.569-5.376,3.225-6.792c0-2.402,0.095-4.461-0.03-6.507
	c-0.097-1.584,0.269-2.284,2.039-2.187c2.424,0.133,4.863-0.027,7.296-0.039c0.454-0.002,1.004-0.035,1.348,0.192
	c2.796,1.845,5.95,1.438,9,1.39c12.763-0.205,25.525-0.519,38.288-0.754c2.135-0.039,4.188-0.09,5.928-1.629
	c0.417-0.369,1.232-0.395,1.863-0.391c1.71,0.011,3.423,0.08,5.129,0.201c12.746,0.9,25.485,1.306,38.249,0.183
	c9.894-0.871,19.807-1.501,29.707-2.272c3.93-0.307,7.85-0.744,11.778-1.037c0.949-0.07,1.923,0.293,2.888,0.297
	c7.763,0.031,15.526,0.136,23.287-0.012c4.76-0.091,9.514-0.552,14.265-0.914c1.768-0.136,3.517-0.508,5.282-0.697
	c2.735-0.293,5.18,1.459,4.819,3.896c-0.661,4.48,1.25,8.044,3.255,11.706c0.935,1.705,2.075,3.342,1.565,5.618
	c-0.417,1.858,0.935,3.177,2.623,3.679c3.276,0.973,4.146,3.438,4.604,6.407c0.166,1.074,0.685,2.302,1.445,3.042
	c4.28,4.157,9.188,7.182,15.264,8.005c1.029,0.14,2.426,0.617,2.877,1.39c1.25,2.146,3.049,2.726,5.28,2.748
	c2.104,0.021,4.214,0.008,6.31,0.156c1.556,0.108,3.357,0.023,4.587,0.78c2.61,1.606,5.166,1.673,7.934,0.89
	c2.023-0.574,4.078-1.047,6.073-1.705c1.642-0.539,3.027-0.67,4.584,0.474c1.769,1.3,3.484,0.591,4.007-1.323
	c0.672-2.465,2.634-3.486,5.034-2.621c2.926,1.057,7.47-1.812,7.576-4.878c0.048-1.364,0.414-2.366,1.562-3.178
	c0.734-0.519,1.354-1.257,1.879-1.999c0.886-1.248,2.033-1.905,3.524-1.657c1.097,0.185,1.549-0.248,2.173-1.104
	c0.878-1.205,0.579-2.297,0.081-3.321c-0.729-1.499-0.233-2.479,0.889-3.437c0.436-0.369,0.696-0.937,1.115-1.328
	c0.457-0.428,0.963-0.985,1.521-1.088c2.55-0.466,4.146-3.844,2.842-6.099c-0.414-0.716-1.02-1.58-0.917-2.287
	c0.334-2.321,0.934-4.606,1.489-6.892c0.057-0.23,0.509-0.368,0.78-0.543c2.499-1.607,2.782-3.246,0.761-5.457
	c-1.006-1.098-1.578-2.18-1.327-3.698c0.113-0.694,0.073-1.479-0.13-2.151c-0.399-1.316-0.149-2.355,1.07-2.979
	c1.607-0.822,1.466-2.183,0.773-3.287c-0.346-0.552-1.63-0.465-2.44-0.789c-0.603-0.24-1.477-0.569-1.625-1.048
	c-0.61-1.967-0.815-4.067-1.521-5.989c-0.421-1.146-0.612-2.051-0.046-3.139c0.84-1.614,0.274-2.829-1.188-3.835
	c-0.412,0.859-0.78,1.63-0.912,1.904c-1.148,0-1.709,0-1.771,0c-1.137-2.274-2.135-4.277-3.221-6.451
	c0.5,0.178,0.771,0.271,0.802,0.283c-0.502-1.318-1.169-2.738-1.575-4.229c-0.453-1.662-1.236-2.805-3.075-2.905
	c-0.994-0.056-2.408,0.329-2.908-0.187c-1.583-1.635-4.706-2.006-4.521-5.188c0.015-0.245-0.311-0.604-0.566-0.762
	C-127.391,191.243-129.353,189.153-132.59,190.186z"/>
<path d="M414.074,196.335c3.236-1.032,5.199,1.058,7.42,2.403c0.258,0.156,0.582,0.516,0.566,0.762
	c-0.186,3.184,2.938,3.555,4.521,5.188c0.5,0.517,1.914,0.132,2.908,0.188c1.838,0.102,2.621,1.243,3.074,2.905
	c0.406,1.489,1.074,2.909,1.576,4.229c-0.031-0.013-0.303-0.106-0.803-0.283c1.086,2.173,2.084,4.176,3.221,6.451
	c0.062,0,0.623,0,1.771,0c0.131-0.275,0.5-1.047,0.912-1.906c1.463,1.007,2.027,2.222,1.188,3.836
	c-0.566,1.088-0.375,1.994,0.047,3.139c0.705,1.922,0.91,4.023,1.521,5.989c0.148,0.478,1.021,0.808,1.625,1.048
	c0.811,0.324,2.096,0.236,2.439,0.789c0.691,1.104,0.834,2.465-0.773,3.287c-1.221,0.624-1.471,1.662-1.07,2.979
	c0.203,0.674,0.244,1.457,0.131,2.152c-0.252,1.52,0.32,2.602,1.326,3.697c2.021,2.212,1.738,3.851-0.76,5.457
	c-0.271,0.176-0.725,0.312-0.781,0.543c-0.557,2.285-1.154,4.57-1.488,6.893c-0.104,0.707,0.502,1.571,0.916,2.287
	c1.305,2.255-0.291,5.633-2.842,6.098c-0.559,0.104-1.062,0.661-1.521,1.088c-0.418,0.394-0.68,0.961-1.115,1.33
	c-1.121,0.954-1.617,1.937-0.889,3.436c0.498,1.023,0.797,2.115-0.08,3.322c-0.625,0.855-1.076,1.287-2.174,1.104
	c-1.49-0.248-2.641,0.409-3.523,1.657c-0.525,0.741-1.145,1.479-1.879,1.999c-1.146,0.811-1.514,1.812-1.562,3.178
	c-0.105,3.064-4.65,5.934-7.576,4.878c-2.4-0.864-4.361,0.156-5.033,2.621c-0.523,1.914-2.238,2.623-4.008,1.323
	c-1.557-1.145-2.941-1.014-4.584-0.473c-1.994,0.656-4.049,1.131-6.072,1.703c-2.768,0.784-5.324,0.719-7.934-0.889
	c-1.23-0.757-3.031-0.672-4.588-0.781c-2.096-0.148-4.205-0.134-6.309-0.156c-2.23-0.021-4.031-0.603-5.281-2.746
	c-0.451-0.772-1.848-1.25-2.877-1.391c-6.076-0.824-10.982-3.848-15.264-8.005c-0.762-0.739-1.279-1.968-1.445-3.042
	c-0.461-2.97-1.328-5.436-4.604-6.408c-1.689-0.502-3.041-1.818-2.623-3.678c0.51-2.275-0.633-3.913-1.566-5.618
	c-2.004-3.663-3.916-7.226-3.254-11.706c0.359-2.438-2.084-4.189-4.82-3.896c-1.766,0.189-3.516,0.562-5.281,0.699
	c-4.752,0.361-9.506,0.822-14.266,0.912c-7.76,0.147-15.523,0.043-23.287,0.012c-0.965-0.004-1.938-0.366-2.887-0.297
	c-3.93,0.293-7.85,0.731-11.777,1.039c-9.902,0.771-19.814,1.4-29.707,2.271c-12.765,1.123-25.504,0.719-38.25-0.184
	c-1.706-0.121-3.419-0.189-5.129-0.2c-0.63-0.005-1.446,0.021-1.863,0.391c-1.74,1.539-3.792,1.591-5.928,1.629
	c-12.763,0.235-25.524,0.55-38.288,0.753c-3.049,0.049-6.203,0.456-9-1.389c-0.344-0.229-0.894-0.193-1.348-0.191
	c-2.433,0.01-4.873,0.17-7.296,0.037c-1.771-0.098-2.136,0.604-2.039,2.188c0.125,2.046,0.03,4.104,0.03,6.507
	c1.344,1.416,1.122,1.985-3.225,6.792c2.1,2.291,0.611,3.844-1.244,5.432c-1.528,1.307-2.428,2.853-1.375,5.027
	c0.76,1.572,0.06,2.996-1.248,4.006c-2.482,1.916-4.11,4.139-4.566,7.457c-0.49,3.568-1.919,4.479-5.506,4.917
	c-1.946,0.238-3.439,0.877-4.032,3.104c-0.265,0.994-1.312,1.979-2.254,2.563c-5.475,3.397-10.989,6.738-16.584,9.933
	c-0.873,0.498-2.359,0.489-3.338,0.121c-2.541-0.957-4.959-0.947-7.515-0.15c-1.425,0.443-2.959,0.729-4.447,0.738
	c-2.544,0.019-4.87,0.258-7.07,1.853c-1.858,1.347-3.213,0.646-3.701-1.597c-0.371-1.705-1.216-2.188-2.801-1.531
	c-2.982,1.236-5.5,0.604-7.6-1.855c-0.725-0.849-1.525-1.643-2.356-2.388c-1.559-1.399-3.249-2.399-5.517-1.97
	c-2.194,0.417-4.056-0.35-5.4-2.119c-1.789-2.354-3.415-4.835-5.265-7.139c-0.782-0.974-1.845-1.875-2.972-2.387
	c-2.831-1.285-4.581-3.812-4.134-6.943c0.282-1.975-0.376-3.291-1.907-4.381c-3.152-2.242-4.25-5.748-5.418-9.156
	c-0.216-0.629,0.205-1.622,0.604-2.283c0.737-1.221,1.139-2.188-0.412-3.109c-1.177-0.697-1.451-1.892-0.41-2.798
	c1.318-1.146,0.943-2.062,0.15-3.219c-1.254-1.831-1.865-3.774-0.582-5.882c0.102-0.168,0.139-0.424,0.283-0.512
	c3.135-1.926,2.312-4.193,0.683-6.643c-0.827-1.242-1.011-2.518,0.407-3.673c0.349-0.284,0.099-1.214,0.295-1.789
	c1.121-3.291,2.217-6.597,3.521-9.815c0.22-0.543,1.388-0.895,2.159-0.983c1.748-0.203,2.555-0.931,2.418-2.788
	c-0.09-1.229,0.036-2.516,0.331-3.711c0.182-0.738,0.862-1.354,1.439-2.203c0.043-0.652,0.165-1.594,0.145-2.531
	c-0.014-0.619-0.1-1.303-0.38-1.839c-2.155-4.124-4.371-8.218-6.552-12.329c-0.212-0.4-0.429-0.855-0.448-1.294
	c-0.395-8.743-0.973-17.547,0.941-26.147c1.567-7.045,3.849-13.935,5.913-20.863c0.228-0.767,0.974-1.563,1.693-1.968
	c4.091-2.301,8.411-3.945,13.085-4.764c2.76-0.483,5.38-1.716,8.124-2.351c4.919-1.139,9.881-2.093,14.83-3.104
	c5.921-1.208,11.844-2.41,17.771-3.589c5.601-1.114,11.201-2.232,16.814-3.281c5.964-1.116,11.879-2.371,17.259-5.349
	c1.06-0.586,2.338-1.052,1.723-2.811c-0.119-0.34,0.68-0.974,1.008-1.501c9.889-15.89,19.767-31.786,29.66-47.673
	c2.277-3.657,4.536-7.33,6.95-10.896c0.938-1.385,2.251-2.525,3.449-3.722c2.318-2.319,4.751-4.53,6.977-6.933
	c0.811-0.875,0.969-2.345,1.764-3.244c3.238-3.655,7.101-6.353,11.98-7.456c2.872-0.65,5.687-1.549,8.539-2.292
	c1.778-0.463,3.578-0.843,5.369-1.259c7.675-1.783,15.303-3.823,23.042-5.261c5.545-1.03,10.819-2.749,15.925-4.947
	c7.078-3.046,14.562-4.242,22.027-5.68c4.039-0.779,7.971-2.204,12.027-2.795c5.834-0.849,11.75-1.735,17.613-1.625
	c6.455,0.121,10.443,4.621,13.508,9.917c0.619,1.069,1.369,2.062,2.064,3.087c0.256,0.38,0.693,0.72,0.768,1.129
	c0.883,4.942,4.24,8.701,6.236,13.109c2.584,5.702,5.861,10.918,9.926,15.786c2.666,3.193,5.979,5.264,9.123,7.65
	c8.006,6.073,16.137,11.98,24.268,17.885c6.164,4.477,12.41,8.839,18.607,13.268c4.053,2.896,7.871,6.197,12.182,8.631
	c4.551,2.568,7.779,6.176,10.406,10.451c0.973,1.582,1.586,3.462,1.998,5.288c0.338,1.491,0.975,2.292,2.455,2.228
	c1.967-0.087,3.148,0.872,4.104,2.493c2.564,4.359,5.189,8.684,7.859,12.979c0.65,1.05,1.613,1.902,2.359,2.899
	c1.828,2.437,1.598,4.767-0.662,6.83c-2.182,1.994-4.426,3.923-6.557,5.971c-0.496,0.479-0.896,1.317-0.912,2
	c-0.186,8.896-2.604,17.391-4.564,25.971c-0.42,1.841-0.525,3.752-0.84,5.621C414.707,194.74,414.408,195.348,414.074,196.335z
	 M85.226,186.723c-0.527,3.687-1.054,7.371-1.58,11.059c0.128,0.118,0.257,0.236,0.386,0.354c2.616-3.215,6.13-3.396,9.801-3.119
	c-2.889-1.689-5.794-1.088-8.669-0.162c-0.332-2.239,1.052-3.842,3.938-4.234c2.054-0.279,4.177-0.055,6.551-0.055
	c-3.234-2.096-6.422-1.463-9.6-0.668c-0.095-2.215,1.357-3.76,3.996-3.908c2.074-0.118,4.176,0.246,6.417,0.406
	c-2.617-2.23-5.692-1.737-8.683-1.744c2.7-2.105,5.552-1.686,8.512-0.607c-1.615-2.773-4.169-2.933-6.591-2.91
	c0-0.529,0-0.933,0-1.336c-0.364,0.194-0.768,0.342-1.077,0.604c-0.172,0.146-0.152,0.496-0.278,0.722
	c-1.053,1.894-2.119,3.78-3.181,5.669c0.016-0.873-0.135-1.788,0.074-2.611c1.031-4.047,2.008-8.119,3.311-12.082
	c0.691-2.103-0.358-2.508-1.686-2.922c-1.137,1.938-2.312,3.717-3.258,5.609c-1.336,2.674-2.488,5.438-3.75,8.15
	c-0.604,1.299-0.267,2.173,1.082,2.592C82.356,185.965,83.794,186.33,85.226,186.723z M280.572,72.289
	c0.193,0.007,0.389,0.013,0.582,0.02c-0.334-2.605-0.424-5.27-1.051-7.802c-1.545-6.245-3.469-12.37-6.627-18.049
	c-0.68-1.218-1.367-1.999-2.779-2.125c-0.643-0.058-1.262-0.349-1.896-0.518c-6.451-1.72-12.885-3.123-19.592-1.126
	c-8.75,2.605-17.588,4.917-26.331,7.548c-9.242,2.782-18.394,5.866-27.631,8.667c-3.71,1.125-6.181,3.343-7.937,6.753
	c-1.622,3.151-3.63,6.104-5.47,9.142c-7.908,13.057-15.803,26.12-23.747,39.154c-0.658,1.081-0.674,1.898,0.16,2.809
	c2.146,2.344,4.414,4.386,7.89,4.416c9.404,0.08,18.809,0.204,28.212,0.357c1.402,0.023,1.708-0.626,1.538-1.815
	c-0.279-1.953-0.703-3.902-0.765-5.862c-0.038-1.185-1.197-2.832,0.469-3.562c1.714-0.751,2.441,1.04,3.456,1.984
	c2.908,2.707,4.503,6.675,8.22,8.597c0.753,0.39,1.585,0.899,2.379,0.897c7.499-0.017,14.998-0.226,22.496-0.194
	c7.691,0.032,15.38,0.341,23.072,0.391c4.34,0.028,8.682-0.209,13.021-0.347c3.008-0.096,6.967-3.341,7.111-6.229
	c0.189-3.806,0.57-7.602,0.791-11.406c0.047-0.823-0.359-1.668-0.344-2.499c0.021-1.178-0.131-2.592,0.445-3.483
	c1.947-3.02,1.521-6.313,1.521-9.57c0-0.54-0.275-1.259-0.674-1.589c-2.146-1.771-1.656-3.755-0.701-5.875
	c0.914-2.027,1.699-4.113,2.625-6.135C279.43,73.939,280.049,73.136,280.572,72.289z M287.23,60.979
	c0.283,1.145,0.723,2.708,1.053,4.292c0.537,2.564,0.852,5.186,1.564,7.695c0.303,1.06,1.188,2.263,2.143,2.777
	c5.371,2.889,10.852,5.578,16.279,8.36c1,0.512,1.672,0.417,2.592-0.381c1.111-0.965,2.602-1.479,3.855-2.3
	c0.521-0.341,1.213-0.973,1.207-1.466c-0.02-1.792,0.227-3.886-0.596-5.306c-1.553-2.683-0.895-4.902,0.086-7.435
	c0.984-2.538,1.506-5.252,2.371-7.842c0.277-0.832,0.842-1.799,1.561-2.21c1.992-1.146,2.205-1.372,0.559-3.125
	c-2.871-3.061-5.861-6.015-8.883-8.929c-0.369-0.356-1.367-0.459-1.861-0.228c-5.777,2.692-11.498,5.507-17.27,8.214
	C288.707,54.589,287.473,57.193,287.23,60.979z M391.076,113.285c0.018-0.223,0.031-0.445,0.047-0.667
	c-16.902-11.912-33.807-23.825-50.709-35.737c-0.145,0.156-0.289,0.312-0.432,0.468c0.432,1.158,0.746,2.376,1.312,3.462
	c2.201,4.212,2.172,8.572,1.053,13.036c-0.447,1.785-0.812,3.595-1.352,5.351c-0.342,1.114-0.035,1.729,0.967,2.198
	c1.426,0.668,2.822,1.402,4.229,2.112c5.91,2.981,11.779,6.046,17.748,8.904c2.285,1.093,4.768,2.305,7.211,2.423
	c4.506,0.217,9.057-0.267,13.578-0.595C386.857,114.086,388.961,113.613,391.076,113.285z M310.02,37.302
	c-0.709-1.489-1.139-2.674-1.795-3.714c-1.961-3.1-4.488-5.459-8.484-5.033c-3.381,0.361-6.748,0.903-10.09,1.528
	c-9.045,1.693-18.074,3.47-27.107,5.229c-0.439,0.085-0.852,0.317-1.592,0.601c4.051,0.9,7.674,1.833,11.348,2.486
	c3.58,0.637,5.904,2.618,7.357,5.846c0.857,1.903,1.814,3.761,2.785,5.762C291.678,45.753,300.809,41.546,310.02,37.302z
	 M103.477,247.516c0.016,0.211,0.032,0.422,0.048,0.634c2.712,0.133,5.423,0.319,8.137,0.378c1.702,0.037,3.414-0.233,5.112-0.158
	c2.46,0.107,4.922,0.33,7.364,0.648c1.621,0.211,2.947-0.713,2.907-2.35c-0.086-3.537-1.554-6.703-2.998-9.805
	c-0.901-1.938-2.399-3.596-3.619-5.364c-0.512,0.237-1.272,0.49-1.252,0.595c0.469,2.426-1.914,2.064-2.927,2.996
	c-0.746,0.687-1.848,1-2.55,1.717C110.248,240.334,106.876,243.939,103.477,247.516z M113.936,257.508
	c-0.002-0.053-0.005-0.104-0.007-0.158c-2.693,0-5.387,0-8.081,0.002c-1.045,0-1.808,0.508-1.37,1.545
	c0.418,0.988,1.135,1.957,1.96,2.65c2.551,2.148,5.22,4.156,7.829,6.235c0.341,0.272,0.629,0.624,0.894,0.976
	c0.768,1.021,1.376,2.205,2.288,3.069c3.591,3.41,4.846,2.565,6.408-1.308c1.121-2.777,2.156-5.6,3.07-8.451
	c0.977-3.047-0.811-5.208-3.99-5.033C119.937,257.2,116.936,257.35,113.936,257.508z M337.873,113.254
	c2.006,0,3.762-0.058,5.51,0.014c2.354,0.097,4.473,0.612,6.01,2.744c2.266,3.139,4.848,6.051,7.076,9.213
	c1.361,1.936,2.895,2.692,5.27,2.519c4.096-0.3,8.217-0.279,12.324-0.421c0.789-0.027,1.574-0.182,2.607-0.307
	c-3.945-4.175-8.518-6.594-13.5-8.499c-4.098-1.569-8.062-3.509-12.012-5.442c-3.412-1.671-6.707-3.579-10.074-5.347
	c-0.48-0.253-1.066-0.307-1.748-0.491C338.844,109.264,338.398,111.094,337.873,113.254z M95.801,266.016
	c-1.431,3.121,0.493,19.897,2.205,23.121c5.784-1.164,10.916-3.701,15.958-7.761C107.81,276.172,101.889,271.165,95.801,266.016z
	 M106.416,199.125c4.376,0,8.431,0,12.062,0c0.103-0.794-0.063-1.892,0.334-2.16c1.773-1.207,2.116-2.537,0.688-4.217
	c-1.233-1.452-2.653-2.751-3.821-4.25c-1.093-1.402-3.625-1.298-3.791-3.68c-0.009-0.133-0.939-0.285-1.44-0.285
	c-2.5,0-5.003,0.117-7.502,0.055c-1.497-0.037-1.896,0.583-1.941,1.99c-0.084,2.607-0.495,5.21-0.495,7.812
	c0,0.721,0.835,1.655,1.537,2.099c0.655,0.414,1.648,0.45,2.478,0.397C106.032,196.792,106.835,197.234,106.416,199.125z
	 M425.318,264.393c0.602-0.375,1.938-0.78,2.523-1.678c1.027-1.568,1.73-3.393,2.32-5.19c0.736-2.246,1.27-4.564,1.799-6.872
	c0.316-1.381-0.457-1.899-1.768-1.901c-2.5-0.005-5-0.048-7.502-0.091c-0.52-0.01-1.172,0.094-1.531-0.171
	c-1.51-1.111-2.754-0.715-4.088,0.332c-0.359,0.282-1.363,0.348-1.602,0.085c-1.324-1.469-4.451-1.948-6.379-0.667
	c0.893,1.19,1.891,2.315,2.637,3.589c0.639,1.087,1.938,1.029,2.582,1.657c2.086,2.024,3.824,4.401,5.768,6.579
	c0.688,0.77,1.568,1.365,2.371,2.025C423.314,262.799,424.193,263.491,425.318,264.393z M71.258,283.961
	c4.75,3.426,10.194,5.252,16.656,5.95c-1.039-7.976-2.017-15.478-3.047-23.386c-3.659,4.324-7.055,8.337-10.319,12.193
	c-0.618,0.991-1.079,1.733-1.543,2.475C72.479,282.027,71.953,282.859,71.258,283.961z M64.478,277.834
	c4.427-6.521,8.668-12.768,13.216-19.466c-3.859,0.442-7.152,0.752-10.421,1.222c-2.095,0.301-4.142,0.937-6.237,1.241
	c-1.925,0.28-3.61,1.959-3.229,3.701C58.859,269.338,61.194,273.52,64.478,277.834z M332.125,95.701
	c0.822-1.119,1.893-2.083,2.336-3.278c1.006-2.706,1.209-5.476-0.258-8.197c-0.744-1.381-1.17-2.93-1.844-4.354
	c-1.262-2.671-2.535-5.341-3.955-7.929c-0.271-0.498-1.223-0.787-1.887-0.843c-0.342-0.029-1.031,0.633-1.078,1.04
	c-0.43,3.664-0.867,7.333-1.062,11.014c-0.129,2.455,0.223,4.931,0.189,7.395c-0.016,1.237,0.379,1.99,1.48,2.467
	C328.086,93.895,330.109,94.807,332.125,95.701z M112.043,225.227c-3.869-3.166-14.822-6.506-15.696-4.871
	c0.318,0.166,0.636,0.328,0.736,0.382c0.043,3.225-2.077,5.851-1.656,9.216c0.42,3.367,0.092,6.828,0.092,10.414
	C101.079,235.273,106.487,230.319,112.043,225.227z M427.941,228.6c-2.439-1.803-3.303-1.765-5.391,0.07
	c-1.176,1.033-2.393,2.083-3.756,2.82c-1.602,0.865-2.998,1.688-2.674,3.372c-0.932-0.101-1.82-0.417-2.592-0.235
	c-2.484,0.581-2.131,2.373-1.572,4.037c6.178,0.626,12.328,1.25,18.516,1.877c0.047-0.752,0.092-1.467,0.139-2.249
	c1.436,0.524,1.586-0.293,1.328-1.298c-0.777-3.046-1.523-6.105-2.492-9.094c-0.307-0.949-1.271-1.686-1.932-2.521
	c-0.158,0.116-0.314,0.232-0.473,0.35C427.344,226.686,427.643,227.643,427.941,228.6z M417.395,271.807
	c-5.096-5.426-10.07-10.742-15.088-16.019c-0.334-0.353-0.994-0.397-1.502-0.585c-0.133,0.531-0.43,1.084-0.363,1.591
	c0.279,2.188,0.57,4.384,1.062,6.529c0.197,0.86,0.926,1.601,1.461,2.476c-0.514,3.527,0.836,6.916,1.912,10.487
	C409.686,275.711,413.986,274.139,417.395,271.807z M57.417,250.383c6.718-0.231,13.272-0.457,19.813-0.683
	c-0.016-2.271-8.658-10.552-14.035-13.834C60.244,240.324,58.105,245.075,57.417,250.383z M380.375,120.851
	c-0.031,0.213-0.062,0.425-0.094,0.638c0.744,0.73,1.568,1.397,2.209,2.211c0.668,0.849,1.449,1.78,1.648,2.782
	c0.242,1.218,0.807,1.476,1.848,1.514c4.582,0.167,9.164,0.363,13.746,0.562c0.299,0.013,0.59,0.152,0.891,0.212
	c1.545,0.31,3.094,0.612,5.172,1.021c-0.357-1.588-0.381-2.68-0.84-3.533c-1.826-3.386-4.467-5.937-8.521-5.947
	C391.08,120.298,385.727,120.654,380.375,120.851z M385.014,265.694c-1.627-0.052,0.072,4.12-2.982,3.194
	c-0.418,3.078,9.75,8.069,13.896,7.211c-1.477-6.863-2.949-13.729-4.459-20.754c-0.414,0.446-0.896,0.86-1.252,1.364
	c-1.363,1.937-2.738,3.867-3.998,5.87C385.725,263.364,385.525,264.332,385.014,265.694z M70.609,228.001
	c4.619,4.146,9.06,8.13,13.501,12.115c0.18-0.047,0.36-0.093,0.54-0.14c0-6.291,0-12.584,0-19.193
	C79.073,222.338,74.409,224.557,70.609,228.001z M411.809,224.275c1.016-0.762,1.93-1.516,2.916-2.158
	c0.691-0.451,1.562-0.646,2.215-1.141c1.1-0.832,2.725-1.687,2.936-2.765c0.186-0.944-1.059-2.475-2.055-3.265
	c-1.277-1.016-2.881-1.725-4.449-2.244c-1.812-0.604-3.742-0.857-5.061-1.143c-0.717,2.451-1.26,4.312-1.793,6.138
	c0.252,0.194,0.857,0.655,1.846,1.407c-2.629,0.029-2.623,0.031-3.318,2.441c-0.041,0.143-0.391,0.194-0.43,0.336
	c-0.57,2.018-1.115,4.043-1.664,6.065c0.172,0.053,0.346,0.104,0.52,0.155c2.656-1.52,5.314-3.039,7.99-4.567
	C411.439,223.493,411.59,223.814,411.809,224.275z M295.785,87.052c0.443,3.3,0.805,6.136,1.213,8.965
	c0.199,1.364,0.533,2.709,0.734,4.072c0.553,3.783,0.533,3.717,4.33,3.528c1.449-0.072,2.113-0.601,2.336-2.016
	c0.178-1.124,0.604-2.209,0.918-3.312c0.113,0.025,0.227,0.05,0.34,0.076c-0.193,1.614-0.387,3.229-0.58,4.844
	c0.254,0.082,0.506,0.165,0.758,0.247c0.256-0.528,0.664-1.034,0.74-1.587c0.336-2.432,0.328-4.94,0.938-7.294
	c0.416-1.604-0.184-2.185-1.316-2.77c-2.219-1.146-4.426-2.321-6.676-3.401C298.484,87.91,297.357,87.613,295.785,87.052z
	 M385.758,247.561c-0.211-0.258-0.418-0.516-0.627-0.772c-4.49,0.347-8.982,0.694-13.645,1.056c0.623,5.068,1.945,9.555,4.48,13.893
	C379.357,256.827,382.557,252.194,385.758,247.561z M386.125,238.043c-2.93-4.955-5.463-9.24-8.113-13.729
	c-3.008,4.384-5.188,8.904-5.875,13.729C376.805,238.043,381.205,238.043,386.125,238.043z M397.08,212.094
	c-4.623,0.142-10.371,2.828-12.287,5.898c0.701,0,1.381,0,1.996,0c0,0.832-0.27,1.716,0.047,2.266
	c1.309,2.27,2.791,4.438,4.209,6.645c0.508,0.789,1.006,1.584,1.541,2.429C394.113,223.471,395.592,217.807,397.08,212.094z
	 M186.402,134.772c-0.085-0.2-0.171-0.4-0.256-0.6c-0.786,0.548-1.938,0.948-2.236,1.691c-0.225,0.561,0.465,1.742,1.062,2.328
	c1.395,1.368,3.053,2.465,4.467,3.815c2.294,2.192,4.554,4.382,8.049,4.186c0.851-0.048,1.688-0.321,2.532-0.491
	c-0.292-0.875-0.396-1.887-0.913-2.599c-1.528-2.104-3.112-4.193-4.895-6.079c-0.925-0.979-2.234-1.814-3.52-2.17
	C189.355,134.484,187.839,134.772,186.402,134.772z M223.157,146.468c3.77-0.004,4.438-0.997,3.309-4.481
	c-0.619-1.91-0.947-3.913-1.542-5.832c-0.142-0.459-0.78-0.983-1.267-1.077c-1.628-0.312-3.287-0.488-4.941-0.629
	c-1.06-0.09-2.134-0.023-3.201-0.027c0.183,1.037,0.15,2.177,0.588,3.092c1.125,2.349,2.502,4.575,3.691,6.895
	C220.538,145.856,221.585,146.62,223.157,146.468z M239.739,139.57c0.394-5.79-1.104-5.509-5.266-5.496
	c-0.522,0.002-1.053,0.014-1.566,0.098c-1.896,0.307-2.672,1.304-2.25,3.156c0.507,2.228,1.114,4.438,1.804,6.616
	c0.597,1.886,2.481,2.558,5.123,1.987c1.734-0.375,2.506-1.536,2.348-3.498C239.842,141.326,239.782,140.216,239.739,139.57z
	 M204.47,133.97c-0.634,0.113-1.555,0.012-1.992,0.424c-0.533,0.503-1.137,1.8-0.887,2.128c2.549,3.355,4.227,7.496,8.01,9.74
	c0.887,0.526,2.479,0.172,3.605-0.201c0.33-0.109,0.51-1.832,0.181-2.551c-0.969-2.121-2.393-4.037-3.328-6.17
	C208.958,134.829,206.936,134.221,204.47,133.97z M404.465,192.042c3.748,1.493,4.387,1.084,5.117-2.455
	c1.01-4.874,2.182-9.714,3.219-14.582c0.529-2.48,0.918-4.993,1.371-7.489c-0.322-0.08-0.646-0.158-0.971-0.237
	C409.229,175.102,407.684,183.805,404.465,192.042z M331.398,103.931c-0.998-0.043-2.121-0.263-3.188-0.099
	c-1.664,0.258-3.318,0.686-4.914,1.231c-0.559,0.191-1.285,0.929-1.311,1.446c-0.09,1.958-0.002,3.938,0.209,5.887
	c0.049,0.43,0.902,1.123,1.348,1.097c1.949-0.118,3.898-0.394,5.82-0.761c0.438-0.085,1.025-0.72,1.096-1.171
	C330.834,109.181,331.064,106.777,331.398,103.931z M285.52,97.606c-0.084,0.478-0.229,1.244-0.35,2.014
	c-0.293,1.878-0.006,4.063-2.609,4.678c-0.217,0.051-0.473,0.521-0.479,0.801c-0.039,2.288-0.02,4.577-0.02,7.404
	c0.701-2.096,1.223-3.648,1.742-5.2c0.094,0.134,0.188,0.268,0.281,0.401c0.391-0.331,1.033-0.604,1.125-1.003
	c0.412-1.786,0.58-3.628,0.998-5.411c0.543-2.332,1.219-4.635,1.877-6.938c0.195-0.685,0.914-1.485,0.727-1.972
	c-1.02-2.61-2.25-5.138-3.406-7.695c-0.273,0.075-0.547,0.149-0.82,0.225c-0.188,3.776-0.412,7.553-0.504,11.331
	C284.074,96.626,284.889,97.031,285.52,97.606z M252.369,133.4c-0.039,0.115-0.076,0.229-0.113,0.345
	c-1.891,0.103-3.82,0.013-5.65,0.401c-0.742,0.157-1.719,1.312-1.795,2.09c-0.203,2.069-0.031,4.185,0.119,6.272
	c0.041,0.551,0.543,1.069,0.832,1.603c0.523-0.297,1.178-0.48,1.553-0.909c2.055-2.359,4.062-4.764,6.037-7.191
	c0.375-0.461,0.885-1.314,0.707-1.609C253.76,133.907,252.957,133.718,252.369,133.4z M303.139,112.772
	c-0.01,0-0.018-0.001-0.023-0.002c0.057-0.847,0.172-1.695,0.152-2.541c-0.02-0.895,0.049-2.025-1.383-1.779
	c-1.186,0.204-3.051-0.545-2.957,1.774c0.07,1.76,0.168,3.523,0.391,5.268c0.049,0.377,0.66,0.927,1.061,0.973
	c2.072,0.237,2.613-0.291,2.656-2.324C303.045,113.683,303.102,113.228,303.139,112.772z M73.417,182.424
	c0.179,0.202,0.358,0.404,0.536,0.606c0.475-0.408,1.26-0.745,1.373-1.235c0.757-3.305,3.881-6.076,2.314-9.938
	c-0.875,1.181-1.415,2.461-1.811,3.783c-0.376,1.264-0.5,2.604-0.926,3.847C74.552,180.514,73.923,181.448,73.417,182.424z
	 M101.096,174.541c0.478-1.621-0.775-4.688-2.418-5.92C96.893,171.469,97.576,173.139,101.096,174.541z M376.783,128.938
	c-1.229,0.254-2.463,0.51-3.697,0.766c0.191,0.911,0.381,1.822,0.635,3.039C375.314,131.593,377.666,131.931,376.783,128.938z
	 M70.045,194.072c2.451-4.084,2.718-5.061,1.719-6.294C69.34,189.932,68.529,192.9,70.045,194.072z M100.571,180.001
	c-2.047-0.135-2.605,1.134-2.608,2.677c-0.001,0.547,0.673,1.096,1.038,1.644c0.523-0.396,1.364-0.703,1.501-1.204
	C100.748,182.219,100.571,181.203,100.571,180.001z M99.199,185.624c-0.236-0.067-0.472-0.134-0.708-0.2
	c-0.242,0.566-0.822,1.288-0.65,1.668c0.286,0.629,1.055,1.041,1.622,1.543c0.177-0.134,0.354-0.268,0.53-0.4
	C99.728,187.363,99.464,186.493,99.199,185.624z M389.115,130.356c-0.076-0.144-0.152-0.288-0.227-0.432c-1.066,0-2.133,0-3.199,0
	c-0.062,0.178-0.125,0.355-0.189,0.533c0.621,0.327,1.248,0.917,1.863,0.906C387.953,131.352,388.531,130.718,389.115,130.356z"/>
<path style="fill:#FFFFFF;" d="M-266.092,66.14c-0.523,0.847-1.143,1.65-1.555,2.548c-0.926,2.022-1.711,4.108-2.625,6.135
	c-0.955,2.12-1.443,4.105,0.701,5.875c0.398,0.331,0.674,1.05,0.674,1.589c0,3.256,0.428,6.55-1.521,9.57
	c-0.575,0.892-0.423,2.306-0.445,3.483c-0.016,0.831,0.392,1.676,0.344,2.499c-0.221,3.805-0.601,7.601-0.791,11.406
	c-0.146,2.888-4.104,6.133-7.11,6.229c-4.341,0.138-8.683,0.375-13.022,0.347c-7.69-0.05-15.38-0.358-23.071-0.391
	c-7.498-0.031-14.997,0.178-22.496,0.194c-0.794,0.002-1.626-0.508-2.379-0.897c-3.717-1.922-5.312-5.89-8.22-8.597
	c-1.014-0.944-1.741-2.735-3.456-1.984c-1.666,0.73-0.506,2.378-0.469,3.562c0.062,1.96,0.486,3.909,0.765,5.862
	c0.17,1.189-0.135,1.839-1.538,1.815c-9.403-0.153-18.808-0.277-28.212-0.357c-3.476-0.03-5.745-2.072-7.89-4.416
	c-0.833-0.91-0.818-1.728-0.16-2.809c7.944-13.034,15.839-26.098,23.747-39.154c1.84-3.038,3.848-5.991,5.47-9.142
	c1.756-3.41,4.227-5.627,7.937-6.753c9.237-2.801,18.389-5.885,27.631-8.667c8.742-2.632,17.581-4.943,26.331-7.548
	c6.707-1.997,13.14-0.594,19.591,1.126c0.635,0.169,1.254,0.46,1.896,0.518c1.412,0.126,2.102,0.907,2.779,2.125
	c3.158,5.679,5.082,11.804,6.627,18.049c0.627,2.532,0.717,5.197,1.052,7.802C-265.704,66.153-265.899,66.146-266.092,66.14z"/>
<path style="fill:#FFFFFF;" d="M-259.434,54.83c0.242-3.787,1.478-6.39,4.66-7.883c5.771-2.707,11.492-5.521,17.27-8.214
	c0.495-0.231,1.492-0.128,1.861,0.228c3.021,2.914,6.012,5.868,8.884,8.929c1.646,1.753,1.435,1.979-0.56,3.125
	c-0.718,0.411-1.281,1.378-1.561,2.21c-0.865,2.59-1.386,5.304-2.37,7.842c-0.981,2.533-1.639,4.752-0.087,7.435
	c0.822,1.42,0.577,3.514,0.596,5.306c0.006,0.493-0.686,1.125-1.207,1.466c-1.254,0.821-2.744,1.335-3.855,2.3
	c-0.92,0.798-1.592,0.893-2.592,0.381c-5.43-2.783-10.907-5.471-16.279-8.36c-0.955-0.514-1.839-1.717-2.143-2.777
	c-0.713-2.509-1.027-5.131-1.563-7.695C-258.711,57.538-259.151,55.975-259.434,54.83z"/>
<path style="fill:#FFFFFF;" d="M-155.588,107.136c-2.114,0.328-4.219,0.801-6.348,0.955c-4.521,0.328-9.07,0.812-13.577,0.595
	c-2.442-0.118-4.927-1.33-7.21-2.423c-5.969-2.858-11.838-5.923-17.748-8.904c-1.407-0.71-2.805-1.444-4.229-2.112
	c-1.002-0.47-1.308-1.084-0.966-2.198c0.538-1.756,0.903-3.565,1.35-5.351c1.119-4.464,1.149-8.823-1.052-13.036
	c-0.567-1.086-0.882-2.305-1.312-3.462c0.144-0.156,0.288-0.312,0.432-0.468c16.903,11.912,33.808,23.825,50.71,35.737
	C-155.557,106.691-155.571,106.913-155.588,107.136z"/>
<path style="fill:#FFFFFF;" d="M-236.645,31.153c-9.211,4.244-18.344,8.452-27.577,12.706c-0.972-2.001-1.929-3.859-2.785-5.762
	c-1.454-3.229-3.778-5.209-7.358-5.846c-3.673-0.653-7.297-1.586-11.347-2.486c0.739-0.284,1.151-0.516,1.592-0.601
	c9.032-1.759,18.062-3.536,27.106-5.229c3.343-0.625,6.71-1.167,10.09-1.528c3.996-0.427,6.523,1.933,8.484,5.033
	C-237.782,28.479-237.354,29.663-236.645,31.153z"/>
<path style="fill:#FFFFFF;" d="M-443.188,241.366c3.4-3.576,6.771-7.183,10.223-10.709c0.702-0.717,1.804-1.03,2.55-1.717
	c1.013-0.932,3.396-0.57,2.927-2.996c-0.02-0.104,0.74-0.356,1.252-0.595c1.22,1.769,2.718,3.429,3.619,5.364
	c1.444,3.102,2.912,6.268,2.998,9.805c0.04,1.637-1.286,2.561-2.907,2.35c-2.442-0.318-4.904-0.541-7.364-0.648
	c-1.698-0.075-3.41,0.195-5.112,0.158c-2.714-0.059-5.425-0.245-8.137-0.378C-443.155,241.788-443.171,241.577-443.188,241.366z"/>
<path style="fill:#FFFFFF;" d="M-432.729,251.358c3-0.156,6.001-0.308,9.001-0.473c3.179-0.175,4.967,1.986,3.99,5.033
	c-0.915,2.853-1.95,5.674-3.07,8.451c-1.562,3.873-2.817,4.718-6.408,1.308c-0.912-0.865-1.52-2.048-2.288-3.069
	c-0.264-0.352-0.552-0.703-0.894-0.976c-2.609-2.079-5.278-4.087-7.829-6.236c-0.825-0.692-1.542-1.661-1.96-2.649
	c-0.438-1.037,0.324-1.545,1.37-1.545c2.694-0.002,5.388-0.002,8.081-0.002C-432.733,251.253-432.731,251.306-432.729,251.358z"/>
<path style="fill:#FFFFFF;" d="M-208.791,107.104c0.524-2.16,0.97-3.99,1.462-6.018c0.682,0.185,1.268,0.238,1.749,0.491
	c3.366,1.768,6.662,3.676,10.074,5.347c3.946,1.934,7.913,3.873,12.012,5.442c4.982,1.905,9.554,4.324,13.5,8.499
	c-1.034,0.125-1.819,0.279-2.608,0.307c-4.107,0.142-8.229,0.121-12.323,0.421c-2.374,0.174-3.907-0.583-5.271-2.519
	c-2.229-3.162-4.812-6.074-7.076-9.213c-1.537-2.132-3.654-2.647-6.01-2.744C-205.03,107.047-206.786,107.104-208.791,107.104z"/>
<path style="fill:#FFFFFF;" d="M-450.863,259.866c6.088,5.148,12.009,10.156,18.163,15.36c-5.042,4.06-10.174,6.597-15.958,7.761
	C-450.371,279.765-452.294,262.987-450.863,259.866z"/>
<path style="fill:#FFFFFF;" d="M-440.249,192.976c0.42-1.891-0.384-2.333-1.891-2.238c-0.829,0.053-1.823,0.018-2.478-0.396
	c-0.701-0.441-1.537-1.378-1.537-2.098c0-2.604,0.411-5.205,0.495-7.813c0.045-1.407,0.444-2.026,1.941-1.99
	c2.499,0.062,5.001-0.055,7.502-0.055c0.501,0,1.431,0.151,1.44,0.285c0.166,2.382,2.697,2.276,3.791,3.68
	c1.168,1.499,2.588,2.798,3.821,4.25c1.427,1.679,1.085,3.009-0.688,4.216c-0.397,0.271-0.231,1.367-0.334,2.161
	C-431.817,192.976-435.873,192.976-440.249,192.976z"/>
<path style="fill:#FFFFFF;" d="M-121.345,258.243c-1.126-0.901-2.004-1.594-2.868-2.303c-0.804-0.66-1.686-1.257-2.371-2.024
	c-1.943-2.179-3.683-4.556-5.768-6.58c-0.646-0.628-1.943-0.57-2.582-1.657c-0.747-1.271-1.745-2.398-2.637-3.589
	c1.928-1.281,5.054-0.802,6.379,0.667c0.236,0.263,1.24,0.197,1.602-0.085c1.334-1.047,2.578-1.443,4.087-0.332
	c0.359,0.265,1.014,0.161,1.532,0.171c2.501,0.043,5.001,0.086,7.501,0.091c1.312,0.002,2.085,0.521,1.768,1.901
	c-0.529,2.308-1.062,4.626-1.799,6.872c-0.59,1.799-1.292,3.622-2.319,5.19C-119.408,257.463-120.745,257.868-121.345,258.243z"/>
<path style="fill:#FFFFFF;" d="M-475.406,277.812c0.695-1.102,1.222-1.934,1.746-2.768c0.465-0.74,0.926-1.482,1.543-2.475
	c3.264-3.856,6.66-7.869,10.319-12.193c1.031,7.908,2.008,15.41,3.047,23.386C-465.212,283.063-470.656,281.237-475.406,277.812z"/>
<path style="fill:#FFFFFF;" d="M-482.187,271.685c-3.284-4.312-5.619-8.496-6.671-13.302c-0.381-1.742,1.304-3.421,3.229-3.701
	c2.095-0.306,4.142-0.94,6.237-1.241c3.27-0.47,6.562-0.779,10.421-1.222C-473.519,258.917-477.759,265.163-482.187,271.685z"/>
<path style="fill:#FFFFFF;" d="M-214.539,89.552c-2.017-0.894-4.04-1.806-6.077-2.687c-1.103-0.477-1.496-1.23-1.48-2.467
	c0.031-2.464-0.317-4.94-0.188-7.395c0.192-3.681,0.631-7.351,1.061-11.014c0.048-0.407,0.736-1.068,1.078-1.04
	c0.664,0.056,1.613,0.345,1.887,0.843c1.42,2.588,2.693,5.258,3.956,7.929c0.673,1.425,1.1,2.973,1.844,4.354
	c1.466,2.721,1.263,5.491,0.257,8.197C-212.649,87.469-213.716,88.433-214.539,89.552z"/>
<path style="fill:#FFFFFF;" d="M-434.621,219.077c-5.557,5.093-10.964,10.047-16.524,15.141c0-3.586,0.328-7.047-0.092-10.414
	c-0.42-3.365,1.699-5.991,1.656-9.216c-0.1-0.054-0.417-0.216-0.736-0.382C-449.442,212.573-438.489,215.911-434.621,219.077z"/>
<path style="fill:#FFFFFF;" d="M-118.722,222.45c-0.3-0.957-0.6-1.914-0.898-2.871c0.157-0.115,0.314-0.231,0.472-0.348
	c0.662,0.834,1.625,1.57,1.934,2.521c0.968,2.987,1.715,6.048,2.492,9.094c0.257,1.005,0.105,1.822-1.328,1.298
	c-0.048,0.782-0.092,1.497-0.139,2.249c-6.188-0.627-12.339-1.251-18.517-1.877c-0.559-1.664-0.911-3.456,1.572-4.037
	c0.771-0.182,1.661,0.136,2.593,0.235c-0.324-1.686,1.072-2.508,2.674-3.372c1.363-0.737,2.58-1.787,3.756-2.82
	C-122.026,220.687-121.162,220.649-118.722,222.45z"/>
<path style="fill:#FFFFFF;" d="M-129.269,265.657c-3.409,2.332-7.709,3.904-12.519,4.479c-1.076-3.571-2.426-6.96-1.911-10.487
	c-0.536-0.875-1.264-1.613-1.462-2.476c-0.492-2.146-0.782-4.343-1.062-6.529c-0.064-0.507,0.231-1.06,0.363-1.591
	c0.509,0.188,1.168,0.232,1.502,0.585C-139.339,254.915-134.364,260.231-129.269,265.657z"/>
<path style="fill:#FFFFFF;" d="M-489.247,244.233c0.688-5.308,2.827-10.059,5.778-14.517c5.377,3.282,14.019,11.562,14.035,13.834
	C-475.975,243.776-482.528,244.001-489.247,244.233z"/>
<path style="fill:#FFFFFF;" d="M-166.29,114.702c5.354-0.197,10.706-0.554,16.059-0.54c4.057,0.011,6.696,2.562,8.521,5.947
	c0.46,0.854,0.481,1.945,0.841,3.533c-2.078-0.409-3.627-0.712-5.173-1.021c-0.3-0.06-0.591-0.199-0.89-0.212
	c-4.582-0.199-9.164-0.396-13.747-0.562c-1.041-0.038-1.604-0.296-1.848-1.514c-0.199-1.002-0.98-1.934-1.648-2.782
	c-0.641-0.813-1.465-1.48-2.209-2.211C-166.352,115.127-166.321,114.915-166.29,114.702z"/>
<path style="fill:#FFFFFF;" d="M-161.651,259.545c0.514-1.362,0.713-2.33,1.205-3.113c1.26-2.003,2.633-3.935,3.996-5.87
	c0.355-0.504,0.838-0.918,1.254-1.363c1.508,7.023,2.982,13.89,4.457,20.754c-4.146,0.857-14.312-4.135-13.895-7.213
	C-161.579,263.665-163.278,259.493-161.651,259.545z"/>
<path style="fill:#FFFFFF;" d="M-476.055,221.852c3.8-3.444,8.464-5.663,14.041-7.218c0,6.609,0,12.902,0,19.193
	c-0.18,0.047-0.359,0.093-0.54,0.14C-466.997,229.981-471.438,225.995-476.055,221.852z"/>
<path style="fill:#FFFFFF;" d="M-134.856,218.126c-0.219-0.461-0.369-0.782-0.349-0.737c-2.676,1.529-5.333,3.049-7.991,4.567
	c-0.173-0.051-0.346-0.104-0.518-0.155c0.549-2.022,1.093-4.049,1.664-6.065c0.039-0.142,0.389-0.193,0.43-0.336
	c0.694-2.41,0.688-2.412,3.317-2.44c-0.986-0.753-1.593-1.214-1.847-1.408c0.534-1.826,1.078-3.687,1.795-6.138
	c1.316,0.285,3.246,0.539,5.06,1.143c1.569,0.521,3.172,1.229,4.45,2.244c0.995,0.79,2.238,2.32,2.054,3.266
	c-0.211,1.077-1.835,1.932-2.935,2.764c-0.652,0.494-1.522,0.688-2.217,1.141C-132.926,216.61-133.839,217.364-134.856,218.126z"/>
<path style="fill:#FFFFFF;" d="M-250.878,80.903c1.571,0.561,2.699,0.859,3.731,1.354c2.252,1.08,4.457,2.255,6.678,3.401
	c1.133,0.585,1.732,1.166,1.316,2.77c-0.609,2.354-0.602,4.862-0.938,7.294c-0.077,0.553-0.484,1.059-0.74,1.587
	c-0.253-0.082-0.505-0.165-0.759-0.247c0.192-1.615,0.387-3.229,0.58-4.844c-0.113-0.026-0.226-0.051-0.339-0.076
	c-0.315,1.103-0.74,2.188-0.918,3.312c-0.223,1.415-0.889,1.943-2.338,2.016c-3.795,0.188-3.776,0.255-4.329-3.528
	c-0.2-1.363-0.535-2.708-0.733-4.072C-250.076,87.039-250.436,84.203-250.878,80.903z"/>
<path style="fill:#FFFFFF;" d="M-160.907,241.411c-3.201,4.634-6.399,9.267-9.789,14.175c-2.535-4.339-3.858-8.823-4.481-13.894
	c4.661-0.359,9.153-0.707,13.646-1.055C-161.325,240.896-161.116,241.155-160.907,241.411z"/>
<path style="fill:#FFFFFF;" d="M-160.54,231.894c-4.92,0-9.32,0-13.988,0c0.688-4.824,2.867-9.345,5.875-13.729
	C-166.002,222.653-163.468,226.938-160.54,231.894z"/>
<path style="fill:#FFFFFF;" d="M-149.584,205.944c-1.488,5.713-2.966,11.377-4.493,17.236c-0.536-0.845-1.034-1.641-1.542-2.429
	c-1.417-2.207-2.9-4.375-4.209-6.646c-0.314-0.549-0.047-1.433-0.047-2.265c-0.615,0-1.295,0-1.995,0
	C-159.955,208.772-154.207,206.085-149.584,205.944z"/>
<path style="fill:#FFFFFF;" d="M-360.262,128.623c1.438,0,2.955-0.288,4.291,0.082c1.286,0.355,2.595,1.191,3.52,2.17
	c1.783,1.886,3.366,3.975,4.895,6.079c0.518,0.712,0.621,1.724,0.913,2.599c-0.844,0.17-1.681,0.443-2.532,0.491
	c-3.495,0.196-5.755-1.993-8.049-4.186c-1.414-1.351-3.073-2.447-4.467-3.815c-0.597-0.586-1.287-1.768-1.062-2.328
	c0.298-0.743,1.451-1.144,2.236-1.691C-360.434,128.223-360.348,128.423-360.262,128.623z"/>
<path style="fill:#FFFFFF;" d="M-323.507,140.319c-1.571,0.152-2.619-0.611-3.363-2.061c-1.189-2.319-2.566-4.546-3.691-6.895
	c-0.438-0.915-0.405-2.055-0.588-3.092c1.067,0.004,2.142-0.062,3.201,0.027c1.654,0.141,3.313,0.316,4.941,0.629
	c0.486,0.094,1.125,0.618,1.267,1.077c0.595,1.919,0.923,3.922,1.542,5.832C-319.069,139.322-319.737,140.315-323.507,140.319z"/>
<path style="fill:#FFFFFF;" d="M-306.925,133.421c0.043,0.646,0.103,1.756,0.192,2.863c0.158,1.962-0.613,3.123-2.348,3.498
	c-2.642,0.57-4.526-0.102-5.123-1.987c-0.689-2.179-1.297-4.389-1.804-6.616c-0.422-1.853,0.354-2.85,2.25-3.156
	c0.514-0.084,1.044-0.096,1.566-0.098C-308.029,127.912-306.531,127.631-306.925,133.421z"/>
<path style="fill:#FFFFFF;" d="M-342.194,127.821c2.466,0.251,4.488,0.859,5.589,3.37c0.935,2.133,2.359,4.049,3.328,6.17
	c0.329,0.719,0.149,2.441-0.181,2.551c-1.127,0.373-2.719,0.728-3.605,0.201c-3.783-2.244-5.461-6.385-8.01-9.74
	c-0.25-0.328,0.354-1.625,0.887-2.128C-343.75,127.832-342.829,127.934-342.194,127.821z"/>
<path style="fill:#FFFFFF;" d="M-142.199,185.893c3.22-8.237,4.765-16.938,8.736-24.765c0.323,0.078,0.646,0.158,0.97,0.236
	c-0.452,2.498-0.842,5.01-1.371,7.49c-1.037,4.868-2.209,9.708-3.218,14.582C-137.813,186.977-138.452,187.386-142.199,185.893z"/>
<path style="fill:#FFFFFF;" d="M-215.266,97.782c-0.333,2.847-0.563,5.25-0.938,7.631c-0.069,0.451-0.657,1.086-1.097,1.171
	c-1.921,0.367-3.87,0.643-5.819,0.761c-0.446,0.026-1.3-0.667-1.348-1.097c-0.212-1.949-0.3-3.929-0.209-5.887
	c0.022-0.518,0.752-1.255,1.31-1.446c1.596-0.546,3.25-0.974,4.915-1.231C-217.387,97.519-216.263,97.739-215.266,97.782z"/>
<path style="fill:#FFFFFF;" d="M-461.441,180.577c-1.429-0.396-2.867-0.762-4.282-1.201c-1.349-0.42-1.686-1.293-1.082-2.592
	c1.262-2.713,2.414-5.478,3.75-8.15c0.946-1.895,2.121-3.672,3.258-5.609c1.328,0.414,2.377,0.819,1.686,2.922
	c-1.302,3.963-2.28,8.035-3.311,12.082c-0.209,0.823-0.059,1.738-0.074,2.611L-461.441,180.577z"/>
<path style="fill:#FFFFFF;" d="M-461.497,180.64c1.062-1.889,2.128-3.775,3.181-5.669c0.126-0.226,0.106-0.576,0.278-0.722
	c0.309-0.262,0.712-0.408,1.077-0.604c0,0.404,0,0.808,0,1.336c2.422-0.021,4.976,0.138,6.591,2.911
	c-2.96-1.077-5.812-1.498-8.512,0.607c2.991,0.007,6.066-0.486,8.683,1.744c-2.242-0.16-4.343-0.524-6.417-0.406
	c-2.638,0.148-4.09,1.693-3.996,3.908c3.177-0.795,6.365-1.428,9.6,0.668c-2.374,0-4.498-0.227-6.551,0.055
	c-2.886,0.395-4.27,1.995-3.938,4.234c2.875-0.926,5.78-1.527,8.669,0.162c-3.67-0.277-7.185-0.096-9.801,3.119
	c-0.129-0.117-0.257-0.236-0.386-0.354c0.526-3.688,1.053-7.372,1.579-11.057C-461.441,180.577-461.497,180.64-461.497,180.64z"/>
<path style="fill:#FFFFFF;" d="M-261.145,91.457c-0.631-0.575-1.445-0.98-1.438-1.365c0.09-3.778,0.314-7.555,0.503-11.331
	c0.273-0.075,0.548-0.15,0.82-0.225c1.157,2.557,2.388,5.084,3.405,7.695c0.189,0.487-0.528,1.287-0.726,1.972
	c-0.657,2.303-1.334,4.606-1.877,6.938c-0.417,1.783-0.586,3.625-0.997,5.411c-0.092,0.399-0.734,0.672-1.125,1.003
	c-0.094-0.134-0.188-0.268-0.283-0.401c-0.52,1.552-1.039,3.104-1.742,5.2c0-2.827-0.018-5.116,0.021-7.404
	c0.005-0.28,0.262-0.75,0.479-0.801c2.604-0.614,2.316-2.8,2.609-4.678C-261.373,92.701-261.229,91.935-261.145,91.457z"/>
<path style="fill:#FFFFFF;" d="M-294.295,127.251c0.589,0.317,1.391,0.507,1.688,1.001c0.179,0.295-0.33,1.148-0.705,1.609
	c-1.976,2.428-3.982,4.832-6.039,7.191c-0.373,0.429-1.026,0.612-1.551,0.909c-0.291-0.533-0.793-1.052-0.832-1.603
	c-0.15-2.088-0.322-4.203-0.119-6.272c0.076-0.778,1.053-1.933,1.795-2.09c1.828-0.389,3.76-0.299,5.648-0.401
	C-294.372,127.48-294.333,127.366-294.295,127.251z"/>
<path style="fill:#FFFFFF;" d="M-243.526,106.623c-0.037,0.456-0.094,0.911-0.104,1.368c-0.044,2.033-0.584,2.562-2.656,2.324
	c-0.4-0.046-1.013-0.596-1.062-0.973c-0.224-1.744-0.319-3.508-0.392-5.268c-0.093-2.319,1.772-1.57,2.959-1.774
	c1.432-0.246,1.362,0.885,1.383,1.779c0.019,0.846-0.098,1.694-0.153,2.541C-243.543,106.622-243.535,106.623-243.526,106.623z"/>
<path style="fill:#FFFFFF;" d="M-473.248,176.274c0.506-0.976,1.135-1.908,1.487-2.938c0.425-1.242,0.549-2.583,0.926-3.846
	c0.396-1.323,0.935-2.604,1.811-3.784c1.567,3.862-1.557,6.634-2.314,9.938c-0.113,0.49-0.898,0.827-1.373,1.235
	C-472.889,176.679-473.068,176.477-473.248,176.274z"/>
<path style="fill:#FFFFFF;" d="M-445.568,168.392c-3.52-1.402-4.202-3.072-2.418-5.92
	C-446.344,163.704-445.091,166.771-445.568,168.392z"/>
<path style="fill:#FFFFFF;" d="M-169.881,122.789c0.884,2.993-1.469,2.654-3.062,3.805c-0.254-1.217-0.442-2.128-0.634-3.039
	C-172.343,123.299-171.108,123.043-169.881,122.789z"/>
<path style="fill:#FFFFFF;" d="M-476.619,187.923c-1.517-1.172-0.707-4.141,1.719-6.294
	C-473.9,182.862-474.167,183.839-476.619,187.923z"/>
<path style="fill:#FFFFFF;" d="M-446.093,173.852c0,1.202,0.177,2.218-0.069,3.115c-0.137,0.501-0.978,0.81-1.501,1.204
	c-0.365-0.549-1.039-1.098-1.038-1.645C-448.698,174.985-448.14,173.717-446.093,173.852z"/>
<path style="fill:#FFFFFF;" d="M-447.465,179.475c0.265,0.869,0.529,1.739,0.793,2.609c-0.177,0.134-0.354,0.268-0.53,0.401
	c-0.566-0.504-1.336-0.914-1.622-1.545c-0.172-0.379,0.408-1.101,0.65-1.668C-447.938,179.341-447.701,179.407-447.465,179.475z"/>
<path style="fill:#FFFFFF;" d="M-157.548,124.207c-0.584,0.361-1.162,0.996-1.752,1.008c-0.615,0.011-1.242-0.579-1.863-0.906
	c0.063-0.178,0.127-0.355,0.188-0.533c1.066,0,2.134,0,3.199,0C-157.701,123.919-157.625,124.063-157.548,124.207z"/>
</svg>
