<?xml version="1.0" encoding="utf-8"?>
<!-- Generator: Adobe Illustrator 16.0.0, SVG Export Plug-In . SVG Version: 6.00 Build 0)  -->
<!DOCTYPE svg PUBLIC "-//W3C//DTD SVG 1.1//EN" "http://www.w3.org/Graphics/SVG/1.1/DTD/svg11.dtd">
<svg version="1.1" id="Layer_1" xmlns="http://www.w3.org/2000/svg" xmlns:xlink="http://www.w3.org/1999/xlink" x="0px" y="0px"
	 width="418px" height="294.833px" viewBox="0 0 418 294.833" enable-background="new 0 0 418 294.833" xml:space="preserve">
<path fill="#FFCB27" d="M383.062,180.197c3.236-1.031,5.199,1.059,7.42,2.403c0.258,0.156,0.582,0.517,0.566,0.763
	c-0.186,3.184,2.938,3.555,4.521,5.188c0.5,0.518,1.914,0.132,2.908,0.188c1.838,0.103,2.621,1.244,3.072,2.906
	c0.406,1.488,1.074,2.908,1.576,4.229c-0.029-0.014-0.303-0.106-0.803-0.283c1.086,2.173,2.084,4.176,3.221,6.451
	c0.062,0,0.623,0,1.771,0c0.131-0.275,0.5-1.047,0.912-1.906c1.463,1.007,2.027,2.223,1.188,3.836
	c-0.564,1.088-0.375,1.994,0.047,3.139c0.705,1.922,0.91,4.023,1.521,5.989c0.148,0.478,1.021,0.808,1.625,1.048
	c0.811,0.324,2.096,0.236,2.439,0.789c0.691,1.104,0.834,2.465-0.773,3.287c-1.221,0.624-1.471,1.662-1.07,2.979
	c0.203,0.675,0.244,1.457,0.131,2.152c-0.252,1.521,0.32,2.602,1.326,3.697c2.021,2.212,1.738,3.852-0.76,5.457
	c-0.271,0.176-0.725,0.312-0.781,0.543c-0.557,2.285-1.154,4.57-1.488,6.893c-0.104,0.707,0.502,1.571,0.916,2.287
	c1.307,2.256-0.291,5.633-2.842,6.098c-0.559,0.104-1.061,0.662-1.52,1.089c-0.418,0.394-0.682,0.961-1.115,1.329
	c-1.121,0.955-1.617,1.938-0.889,3.437c0.496,1.022,0.797,2.115-0.08,3.322c-0.625,0.854-1.076,1.287-2.176,1.104
	c-1.488-0.248-2.641,0.408-3.521,1.656c-0.525,0.741-1.146,1.479-1.879,1.999c-1.146,0.812-1.516,1.812-1.562,3.179
	c-0.105,3.063-4.65,5.934-7.576,4.877c-2.4-0.863-4.361,0.156-5.033,2.621c-0.523,1.914-2.238,2.623-4.008,1.323
	c-1.557-1.146-2.941-1.014-4.584-0.473c-1.994,0.655-4.049,1.131-6.072,1.702c-2.768,0.785-5.324,0.72-7.934-0.889
	c-1.23-0.757-3.031-0.672-4.588-0.781c-2.096-0.147-4.205-0.133-6.309-0.155c-2.23-0.021-4.031-0.603-5.281-2.746
	c-0.451-0.772-1.848-1.25-2.877-1.392c-6.076-0.823-10.982-3.848-15.266-8.004c-0.762-0.74-1.277-1.969-1.443-3.043
	c-0.461-2.97-1.328-5.436-4.605-6.408c-1.688-0.502-3.041-1.817-2.623-3.678c0.512-2.274-0.633-3.912-1.564-5.617
	c-2.004-3.664-3.916-7.227-3.254-11.707c0.357-2.438-2.084-4.188-4.82-3.896c-1.766,0.188-3.516,0.562-5.281,0.699
	c-4.752,0.36-9.506,0.821-14.266,0.911c-7.76,0.148-15.523,0.044-23.287,0.013c-0.965-0.004-1.939-0.366-2.887-0.297
	c-3.932,0.293-7.852,0.731-11.777,1.039c-9.902,0.771-19.814,1.399-29.707,2.271c-12.766,1.123-25.504,0.719-38.25-0.184
	c-1.707-0.121-3.42-0.189-5.13-0.2c-0.63-0.005-1.446,0.021-1.863,0.392c-1.74,1.539-3.792,1.59-5.928,1.629
	c-12.763,0.234-25.524,0.55-38.288,0.752c-3.049,0.05-6.203,0.457-9-1.389c-0.344-0.229-0.894-0.193-1.348-0.19
	c-2.433,0.01-4.873,0.17-7.296,0.036c-1.771-0.098-2.136,0.604-2.039,2.188c0.125,2.046,0.03,4.104,0.03,6.507
	c1.344,1.416,1.122,1.985-3.225,6.793c2.1,2.291,0.611,3.844-1.244,5.432c-1.528,1.307-2.428,2.853-1.375,5.027
	c0.76,1.571,0.06,2.996-1.248,4.006c-2.482,1.916-4.11,4.139-4.566,7.457c-0.49,3.567-1.919,4.479-5.506,4.916
	c-1.946,0.238-3.439,0.877-4.032,3.104c-0.265,0.994-1.312,1.979-2.254,2.563c-5.475,3.396-10.989,6.737-16.584,9.932
	c-0.873,0.498-2.359,0.49-3.338,0.121c-2.541-0.956-4.959-0.946-7.515-0.148c-1.425,0.441-2.959,0.729-4.447,0.736
	c-2.544,0.02-4.87,0.26-7.07,1.854c-1.858,1.348-3.213,0.646-3.701-1.596c-0.371-1.706-1.216-2.189-2.801-1.531
	c-2.982,1.236-5.5,0.604-7.6-1.855c-0.725-0.85-1.525-1.643-2.356-2.389c-1.559-1.398-3.249-2.398-5.517-1.97
	c-2.194,0.417-4.056-0.35-5.4-2.118c-1.789-2.354-3.415-4.836-5.265-7.14c-0.782-0.974-1.845-1.875-2.972-2.388
	c-2.831-1.284-4.581-3.811-4.134-6.942c0.282-1.976-0.376-3.291-1.907-4.381c-3.152-2.242-4.25-5.748-5.418-9.156
	c-0.216-0.629,0.205-1.622,0.604-2.282c0.737-1.222,1.139-2.188-0.412-3.109c-1.177-0.697-1.451-1.893-0.41-2.799
	c1.318-1.146,0.943-2.062,0.15-3.219c-1.254-1.83-1.865-3.773-0.582-5.881c0.102-0.169,0.139-0.425,0.283-0.513
	c3.135-1.927,2.312-4.192,0.683-6.644c-0.827-1.242-1.011-2.518,0.407-3.672c0.349-0.285,0.099-1.215,0.295-1.789
	c1.121-3.291,2.217-6.598,3.521-9.815c0.22-0.543,1.388-0.896,2.159-0.983c1.748-0.203,2.555-0.931,2.418-2.787
	c-0.09-1.229,0.036-2.517,0.331-3.711c0.182-0.738,0.862-1.354,1.439-2.203c0.043-0.652,0.165-1.595,0.145-2.531
	c-0.014-0.619-0.1-1.303-0.38-1.84c-2.155-4.123-4.371-8.217-6.552-12.328c-0.212-0.4-0.429-0.855-0.448-1.295
	c-0.395-8.742-0.973-17.547,0.941-26.146c1.567-7.045,3.849-13.936,5.913-20.863c0.228-0.767,0.974-1.562,1.693-1.968
	c4.091-2.301,8.411-3.945,13.085-4.764c2.76-0.483,5.38-1.716,8.124-2.351c4.919-1.139,9.881-2.093,14.83-3.104
	c5.921-1.208,11.844-2.41,17.771-3.589c5.601-1.114,11.201-2.232,16.814-3.281c5.964-1.116,11.879-2.371,17.259-5.349
	c1.06-0.586,2.338-1.052,1.723-2.811c-0.119-0.34,0.68-0.974,1.008-1.501c9.889-15.89,19.767-31.786,29.66-47.673
	c2.277-3.657,4.536-7.33,6.95-10.896c0.938-1.385,2.251-2.525,3.449-3.722c2.318-2.319,4.751-4.53,6.977-6.933
	c0.811-0.875,0.969-2.345,1.764-3.244c3.238-3.655,7.101-6.353,11.98-7.456c2.872-0.65,5.687-1.549,8.539-2.292
	c1.778-0.463,3.578-0.843,5.369-1.259c7.675-1.783,15.304-3.823,23.042-5.261c5.544-1.03,10.82-2.749,15.925-4.947
	c7.078-3.046,14.562-4.242,22.027-5.68c4.039-0.779,7.971-2.204,12.027-2.795c5.834-0.849,11.75-1.735,17.611-1.625
	c6.455,0.121,10.443,4.621,13.508,9.917c0.619,1.069,1.369,2.062,2.064,3.087c0.256,0.38,0.693,0.72,0.768,1.129
	c0.885,4.942,4.24,8.701,6.236,13.109c2.584,5.702,5.861,10.918,9.926,15.786c2.666,3.193,5.98,5.264,9.123,7.65
	c8.006,6.073,16.139,11.98,24.27,17.885c6.164,4.477,12.41,8.839,18.605,13.268c4.055,2.896,7.871,6.197,12.184,8.631
	c4.551,2.568,7.777,6.176,10.406,10.451c0.973,1.582,1.586,3.462,1.996,5.288c0.34,1.491,0.977,2.292,2.455,2.228
	c1.969-0.087,3.148,0.872,4.105,2.493c2.562,4.359,5.188,8.684,7.857,12.979c0.65,1.05,1.613,1.902,2.359,2.899
	c1.828,2.437,1.598,4.767-0.662,6.83c-2.182,1.994-4.426,3.924-6.557,5.971c-0.496,0.48-0.896,1.318-0.912,2
	c-0.186,8.896-2.604,17.392-4.564,25.972c-0.42,1.841-0.523,3.752-0.84,5.621C383.695,178.603,383.396,179.21,383.062,180.197z
	 M54.215,170.585c-0.527,3.688-1.054,7.371-1.58,11.059c0.128,0.118,0.257,0.236,0.386,0.354c2.616-3.216,6.13-3.396,9.801-3.119
	c-2.889-1.688-5.794-1.088-8.669-0.162c-0.332-2.239,1.052-3.842,3.938-4.233c2.054-0.279,4.177-0.056,6.551-0.056
	c-3.234-2.096-6.422-1.463-9.6-0.668c-0.095-2.215,1.357-3.76,3.996-3.907c2.074-0.119,4.176,0.245,6.417,0.405
	c-2.617-2.229-5.692-1.737-8.683-1.744c2.7-2.104,5.552-1.687,8.512-0.606c-1.615-2.773-4.169-2.934-6.591-2.91
	c0-0.529,0-0.934,0-1.336c-0.364,0.193-0.768,0.342-1.077,0.604c-0.172,0.146-0.152,0.496-0.278,0.723
	c-1.053,1.894-2.119,3.779-3.181,5.668c0.016-0.873-0.135-1.787,0.074-2.61c1.031-4.047,2.008-8.119,3.311-12.082
	c0.691-2.103-0.358-2.509-1.686-2.922c-1.137,1.938-2.312,3.717-3.258,5.608c-1.336,2.674-2.488,5.438-3.75,8.15
	c-0.604,1.299-0.267,2.173,1.082,2.592C51.345,169.828,52.783,170.193,54.215,170.585z M249.561,56.151
	c0.193,0.007,0.389,0.013,0.582,0.02c-0.334-2.605-0.424-5.27-1.051-7.802c-1.545-6.245-3.469-12.37-6.627-18.049
	c-0.68-1.218-1.367-1.999-2.779-2.125c-0.643-0.058-1.262-0.349-1.896-0.518c-6.451-1.72-12.885-3.123-19.592-1.126
	c-8.75,2.605-17.587,4.917-26.331,7.548c-9.242,2.782-18.394,5.866-27.631,8.667c-3.71,1.125-6.181,3.343-7.937,6.753
	c-1.622,3.151-3.63,6.104-5.47,9.142c-7.908,13.057-15.803,26.12-23.747,39.154c-0.658,1.081-0.674,1.898,0.16,2.809
	c2.146,2.344,4.414,4.386,7.89,4.416c9.404,0.08,18.809,0.204,28.212,0.357c1.402,0.023,1.708-0.626,1.538-1.815
	c-0.279-1.953-0.703-3.902-0.765-5.862c-0.038-1.185-1.197-2.832,0.469-3.562c1.714-0.751,2.441,1.04,3.456,1.984
	c2.908,2.707,4.503,6.675,8.22,8.597c0.753,0.39,1.585,0.899,2.379,0.897c7.498-0.017,14.998-0.226,22.496-0.194
	c7.691,0.032,15.378,0.341,23.072,0.391c4.34,0.028,8.682-0.209,13.021-0.347c3.008-0.096,6.967-3.341,7.109-6.229
	c0.189-3.806,0.57-7.602,0.791-11.406c0.047-0.823-0.357-1.668-0.344-2.499c0.021-1.178-0.131-2.592,0.445-3.483
	c1.947-3.02,1.521-6.313,1.521-9.57c0-0.54-0.275-1.259-0.674-1.589c-2.146-1.771-1.656-3.755-0.701-5.875
	c0.914-2.027,1.699-4.113,2.625-6.135C248.418,57.801,249.037,56.998,249.561,56.151z M256.219,44.841
	c0.283,1.145,0.723,2.708,1.053,4.292c0.537,2.564,0.852,5.186,1.564,7.695c0.303,1.06,1.188,2.263,2.143,2.777
	c5.371,2.889,10.852,5.578,16.279,8.36c1,0.512,1.672,0.417,2.592-0.381c1.111-0.965,2.602-1.479,3.855-2.3
	c0.521-0.341,1.213-0.973,1.207-1.466c-0.02-1.792,0.227-3.886-0.596-5.306c-1.555-2.683-0.896-4.902,0.086-7.435
	c0.982-2.538,1.506-5.252,2.371-7.842c0.275-0.832,0.842-1.799,1.561-2.21c1.992-1.146,2.205-1.372,0.559-3.125
	c-2.871-3.061-5.861-6.015-8.883-8.929c-0.369-0.356-1.367-0.459-1.861-0.228c-5.777,2.692-11.498,5.507-17.27,8.214
	C257.695,38.451,256.461,41.055,256.219,44.841z M360.064,97.147c0.018-0.223,0.031-0.445,0.047-0.667
	c-16.902-11.912-33.807-23.825-50.709-35.737c-0.145,0.156-0.289,0.312-0.432,0.468c0.432,1.158,0.746,2.376,1.312,3.462
	c2.201,4.212,2.172,8.572,1.053,13.036c-0.447,1.785-0.812,3.595-1.352,5.351c-0.344,1.114-0.035,1.729,0.967,2.198
	c1.426,0.668,2.822,1.402,4.229,2.112c5.91,2.981,11.779,6.046,17.748,8.904c2.285,1.093,4.768,2.305,7.211,2.423
	c4.506,0.217,9.057-0.267,13.578-0.595C355.846,97.948,357.949,97.475,360.064,97.147z M279.008,21.164
	c-0.709-1.489-1.139-2.674-1.795-3.714c-1.961-3.1-4.488-5.459-8.482-5.033c-3.383,0.361-6.748,0.903-10.092,1.528
	c-9.045,1.693-18.072,3.47-27.105,5.229c-0.439,0.085-0.854,0.317-1.592,0.601c4.051,0.9,7.674,1.833,11.348,2.486
	c3.58,0.637,5.904,2.618,7.357,5.846c0.855,1.903,1.812,3.761,2.783,5.762C260.666,29.615,269.797,25.408,279.008,21.164z
	 M72.466,231.378c0.016,0.211,0.032,0.422,0.048,0.634c2.712,0.134,5.423,0.319,8.137,0.378c1.702,0.037,3.414-0.232,5.112-0.158
	c2.46,0.107,4.922,0.33,7.364,0.648c1.621,0.211,2.947-0.713,2.907-2.35c-0.086-3.537-1.554-6.703-2.998-9.806
	c-0.901-1.938-2.399-3.596-3.619-5.364c-0.512,0.237-1.272,0.49-1.252,0.596c0.469,2.426-1.914,2.064-2.927,2.996
	c-0.746,0.687-1.848,1-2.55,1.717C79.237,224.197,75.865,227.801,72.466,231.378z M82.925,241.371
	c-0.002-0.053-0.005-0.104-0.007-0.158c-2.693,0-5.387,0-8.081,0.002c-1.045,0-1.808,0.508-1.37,1.545
	c0.418,0.988,1.135,1.957,1.96,2.65c2.551,2.147,5.22,4.156,7.829,6.234c0.341,0.272,0.629,0.625,0.894,0.977
	c0.768,1.021,1.376,2.205,2.288,3.068c3.591,3.41,4.846,2.565,6.408-1.308c1.121-2.776,2.156-5.601,3.07-8.451
	c0.977-3.047-0.811-5.208-3.99-5.032C88.926,241.062,85.925,241.212,82.925,241.371z M306.861,97.116
	c2.006,0,3.762-0.058,5.51,0.014c2.354,0.097,4.473,0.612,6.01,2.744c2.268,3.139,4.85,6.051,7.076,9.213
	c1.361,1.936,2.896,2.692,5.271,2.519c4.096-0.3,8.217-0.279,12.322-0.421c0.789-0.027,1.574-0.182,2.607-0.307
	c-3.945-4.175-8.518-6.594-13.5-8.499c-4.098-1.569-8.062-3.509-12.012-5.442c-3.412-1.671-6.707-3.579-10.074-5.347
	c-0.48-0.253-1.066-0.307-1.748-0.491C307.832,93.126,307.387,94.956,306.861,97.116z M64.79,249.878
	C63.359,253,65.283,269.775,66.995,273c5.784-1.164,10.916-3.701,15.958-7.762C76.799,260.035,70.878,255.027,64.79,249.878z
	 M75.405,182.988c4.376,0,8.431,0,12.062,0c0.103-0.795-0.063-1.893,0.334-2.16c1.773-1.207,2.116-2.537,0.688-4.217
	c-1.233-1.453-2.653-2.752-3.821-4.25c-1.093-1.402-3.625-1.299-3.791-3.681c-0.009-0.133-0.939-0.284-1.44-0.284
	c-2.5,0-5.003,0.116-7.502,0.055c-1.497-0.037-1.896,0.582-1.941,1.99c-0.084,2.606-0.495,5.209-0.495,7.812
	c0,0.721,0.835,1.655,1.537,2.099c0.655,0.414,1.648,0.45,2.478,0.396C75.021,180.654,75.824,181.096,75.405,182.988z
	 M394.307,248.255c0.602-0.375,1.938-0.78,2.523-1.678c1.027-1.568,1.73-3.394,2.32-5.19c0.734-2.246,1.27-4.563,1.799-6.872
	c0.316-1.381-0.457-1.898-1.768-1.9c-2.5-0.006-5-0.049-7.502-0.092c-0.521-0.01-1.174,0.094-1.531-0.17
	c-1.51-1.111-2.754-0.716-4.088,0.331c-0.359,0.282-1.363,0.349-1.604,0.085c-1.324-1.469-4.451-1.947-6.379-0.666
	c0.895,1.189,1.891,2.314,2.637,3.588c0.641,1.088,1.939,1.029,2.582,1.657c2.086,2.024,3.824,4.401,5.77,6.579
	c0.688,0.77,1.566,1.365,2.371,2.025C392.303,246.662,393.182,247.353,394.307,248.255z M40.247,267.824
	c4.75,3.426,10.194,5.252,16.656,5.949c-1.039-7.976-2.017-15.478-3.047-23.386c-3.659,4.324-7.055,8.337-10.319,12.192
	c-0.618,0.992-1.079,1.734-1.543,2.476C41.468,265.889,40.942,266.721,40.247,267.824z M33.467,261.697
	c4.427-6.521,8.668-12.769,13.216-19.467c-3.859,0.442-7.152,0.752-10.421,1.223c-2.095,0.301-4.142,0.937-6.237,1.24
	c-1.925,0.28-3.61,1.959-3.229,3.701C27.848,253.201,30.183,257.382,33.467,261.697z M301.113,79.563
	c0.822-1.119,1.893-2.083,2.336-3.278c1.006-2.706,1.209-5.476-0.258-8.197c-0.744-1.381-1.17-2.93-1.844-4.354
	c-1.262-2.671-2.535-5.341-3.955-7.929c-0.271-0.498-1.223-0.787-1.887-0.843c-0.342-0.029-1.031,0.633-1.078,1.04
	c-0.43,3.664-0.867,7.333-1.062,11.014c-0.129,2.455,0.223,4.931,0.189,7.395c-0.016,1.237,0.379,1.99,1.48,2.467
	C297.074,77.757,299.098,78.669,301.113,79.563z M81.032,209.089c-3.869-3.166-14.822-6.506-15.696-4.871
	c0.318,0.166,0.636,0.328,0.736,0.382c0.043,3.226-2.077,5.851-1.656,9.216c0.42,3.367,0.092,6.828,0.092,10.414
	C70.068,219.135,75.476,214.181,81.032,209.089z M396.93,212.462c-2.439-1.803-3.303-1.766-5.391,0.07
	c-1.176,1.033-2.393,2.082-3.756,2.82c-1.602,0.864-2.998,1.688-2.674,3.371c-0.934-0.101-1.82-0.417-2.592-0.234
	c-2.484,0.58-2.133,2.373-1.572,4.037c6.178,0.625,12.328,1.25,18.516,1.877c0.047-0.752,0.092-1.467,0.139-2.25
	c1.436,0.524,1.586-0.293,1.328-1.297c-0.777-3.047-1.523-6.105-2.492-9.095c-0.307-0.948-1.271-1.687-1.932-2.521
	c-0.158,0.115-0.314,0.231-0.473,0.35C396.332,210.548,396.631,211.505,396.93,212.462z M386.383,255.669
	c-5.096-5.426-10.068-10.742-15.088-16.02c-0.334-0.353-0.994-0.396-1.502-0.584c-0.133,0.53-0.43,1.084-0.361,1.59
	c0.277,2.188,0.568,4.385,1.061,6.529c0.197,0.86,0.926,1.602,1.461,2.477c-0.514,3.527,0.836,6.916,1.912,10.486
	C378.674,259.574,382.975,258.001,386.383,255.669z M26.406,234.246c6.718-0.231,13.272-0.457,19.813-0.684
	c-0.016-2.271-8.658-10.552-14.035-13.834C29.233,224.187,27.094,228.937,26.406,234.246z M349.363,104.713
	c-0.031,0.213-0.062,0.425-0.094,0.638c0.744,0.729,1.568,1.396,2.209,2.211c0.668,0.849,1.449,1.78,1.648,2.782
	c0.242,1.218,0.807,1.476,1.848,1.514c4.582,0.167,9.164,0.363,13.746,0.562c0.299,0.013,0.59,0.152,0.891,0.212
	c1.545,0.31,3.094,0.612,5.172,1.021c-0.357-1.588-0.381-2.68-0.84-3.533c-1.826-3.386-4.467-5.937-8.521-5.947
	C360.068,104.16,354.715,104.516,349.363,104.713z M354.002,249.556c-1.627-0.052,0.072,4.12-2.98,3.194
	c-0.418,3.077,9.75,8.069,13.895,7.211c-1.477-6.863-2.949-13.729-4.459-20.754c-0.414,0.446-0.895,0.86-1.252,1.364
	c-1.363,1.937-2.738,3.867-3.998,5.869C354.713,247.226,354.514,248.195,354.002,249.556z M39.598,211.863
	c4.619,4.146,9.06,8.131,13.501,12.115c0.18-0.047,0.36-0.093,0.54-0.14c0-6.291,0-12.584,0-19.192
	C48.062,206.201,43.398,208.419,39.598,211.863z M380.797,208.137c1.018-0.762,1.932-1.517,2.916-2.157
	c0.691-0.451,1.562-0.646,2.215-1.142c1.102-0.832,2.727-1.687,2.938-2.765c0.186-0.944-1.059-2.476-2.055-3.266
	c-1.277-1.016-2.883-1.725-4.449-2.244c-1.812-0.604-3.742-0.857-5.062-1.143c-0.717,2.451-1.26,4.312-1.793,6.138
	c0.252,0.194,0.857,0.655,1.848,1.407c-2.629,0.029-2.623,0.031-3.318,2.441c-0.041,0.143-0.391,0.193-0.43,0.336
	c-0.57,2.018-1.115,4.043-1.664,6.064c0.172,0.053,0.346,0.104,0.52,0.155c2.656-1.521,5.314-3.039,7.99-4.567
	C380.428,207.355,380.578,207.676,380.797,208.137z M264.773,70.914c0.443,3.3,0.805,6.136,1.213,8.965
	c0.199,1.364,0.533,2.709,0.734,4.072c0.553,3.783,0.533,3.717,4.33,3.528c1.449-0.072,2.113-0.601,2.336-2.016
	c0.178-1.124,0.604-2.209,0.918-3.312c0.113,0.025,0.227,0.05,0.34,0.076c-0.193,1.614-0.387,3.229-0.58,4.844
	c0.254,0.082,0.506,0.165,0.758,0.247c0.256-0.528,0.664-1.034,0.74-1.587c0.336-2.432,0.328-4.94,0.938-7.294
	c0.416-1.604-0.184-2.185-1.316-2.77c-2.219-1.146-4.426-2.321-6.676-3.401C267.473,71.772,266.346,71.475,264.773,70.914z
	 M354.746,231.423c-0.211-0.258-0.418-0.516-0.627-0.771c-4.49,0.346-8.982,0.693-13.645,1.056c0.623,5.067,1.945,9.555,4.48,13.893
	C348.346,240.689,351.545,236.056,354.746,231.423z M355.113,221.906c-2.93-4.955-5.463-9.24-8.113-13.729
	c-3.008,4.384-5.188,8.903-5.875,13.729C345.793,221.906,350.193,221.906,355.113,221.906z M366.068,195.957
	c-4.623,0.142-10.371,2.828-12.287,5.898c0.701,0,1.381,0,1.996,0c0,0.832-0.27,1.715,0.047,2.266
	c1.309,2.27,2.791,4.438,4.209,6.645c0.508,0.789,1.006,1.584,1.541,2.43C363.102,207.333,364.58,201.669,366.068,195.957z
	 M155.391,118.634c-0.085-0.2-0.171-0.4-0.256-0.6c-0.786,0.548-1.938,0.948-2.236,1.691c-0.225,0.561,0.465,1.742,1.062,2.328
	c1.395,1.368,3.053,2.465,4.467,3.815c2.294,2.192,4.554,4.382,8.049,4.186c0.851-0.048,1.688-0.321,2.532-0.491
	c-0.292-0.875-0.396-1.887-0.913-2.599c-1.528-2.104-3.112-4.193-4.895-6.079c-0.925-0.979-2.234-1.814-3.52-2.17
	C158.344,118.346,156.828,118.634,155.391,118.634z M192.146,130.33c3.77-0.004,4.438-0.997,3.309-4.481
	c-0.618-1.91-0.946-3.913-1.542-5.832c-0.142-0.459-0.779-0.983-1.267-1.077c-1.628-0.312-3.287-0.488-4.941-0.629
	c-1.06-0.09-2.134-0.023-3.2-0.027c0.183,1.037,0.149,2.177,0.588,3.092c1.125,2.349,2.502,4.575,3.69,6.895
	C189.527,129.718,190.574,130.482,192.146,130.33z M208.729,123.432c0.393-5.79-1.105-5.509-5.267-5.496
	c-0.521,0.002-1.053,0.014-1.565,0.098c-1.896,0.307-2.673,1.304-2.25,3.156c0.507,2.228,1.114,4.438,1.804,6.616
	c0.598,1.886,2.48,2.558,5.123,1.987c1.734-0.375,2.505-1.536,2.347-3.498C208.83,125.188,208.771,124.078,208.729,123.432z
	 M173.459,117.832c-0.634,0.113-1.555,0.012-1.992,0.424c-0.533,0.503-1.137,1.8-0.887,2.128c2.549,3.355,4.227,7.496,8.011,9.74
	c0.887,0.526,2.479,0.172,3.604-0.201c0.33-0.109,0.51-1.832,0.181-2.551c-0.969-2.121-2.393-4.037-3.328-6.17
	C177.947,118.691,175.925,118.083,173.459,117.832z M373.453,175.904c3.748,1.494,4.387,1.084,5.117-2.455
	c1.01-4.873,2.182-9.713,3.219-14.582c0.529-2.479,0.918-4.992,1.371-7.488c-0.322-0.08-0.645-0.158-0.971-0.237
	C378.217,158.964,376.672,167.667,373.453,175.904z M300.387,87.793c-0.998-0.043-2.121-0.263-3.188-0.099
	c-1.664,0.258-3.318,0.686-4.914,1.231c-0.559,0.191-1.285,0.929-1.312,1.446c-0.09,1.958-0.002,3.938,0.209,5.887
	c0.051,0.43,0.902,1.123,1.35,1.097c1.949-0.118,3.896-0.394,5.82-0.761c0.438-0.085,1.023-0.72,1.096-1.171
	C299.822,93.043,300.053,90.639,300.387,87.793z M254.508,81.468c-0.084,0.478-0.229,1.244-0.35,2.014
	c-0.293,1.878-0.006,4.063-2.609,4.678c-0.217,0.051-0.473,0.521-0.479,0.801c-0.039,2.288-0.02,4.577-0.02,7.404
	c0.701-2.096,1.223-3.648,1.742-5.2c0.094,0.134,0.188,0.268,0.281,0.401c0.391-0.331,1.033-0.604,1.125-1.003
	c0.412-1.786,0.58-3.628,0.998-5.411c0.543-2.332,1.219-4.635,1.877-6.938c0.195-0.685,0.914-1.485,0.727-1.972
	c-1.02-2.61-2.25-5.138-3.406-7.695c-0.273,0.075-0.547,0.149-0.82,0.225c-0.188,3.776-0.412,7.553-0.504,11.331
	C253.062,80.488,253.877,80.894,254.508,81.468z M221.357,117.262c-0.039,0.115-0.076,0.229-0.113,0.345
	c-1.891,0.103-3.82,0.013-5.65,0.401c-0.74,0.157-1.719,1.312-1.795,2.09c-0.203,2.069-0.031,4.185,0.119,6.272
	c0.041,0.551,0.543,1.069,0.832,1.603c0.523-0.297,1.178-0.48,1.553-0.909c2.057-2.359,4.062-4.764,6.037-7.191
	c0.375-0.461,0.885-1.313,0.707-1.609C222.748,117.77,221.945,117.58,221.357,117.262z M272.127,96.634
	c-0.01,0-0.018-0.001-0.021-0.002c0.057-0.847,0.172-1.695,0.15-2.541c-0.02-0.895,0.049-2.025-1.383-1.779
	c-1.186,0.204-3.051-0.545-2.957,1.774c0.07,1.76,0.168,3.523,0.391,5.268c0.051,0.377,0.66,0.927,1.062,0.973
	c2.072,0.237,2.613-0.291,2.656-2.324C272.033,97.545,272.09,97.09,272.127,96.634z M42.406,166.287
	c0.179,0.201,0.358,0.404,0.536,0.605c0.475-0.408,1.26-0.744,1.373-1.234c0.757-3.305,3.881-6.076,2.314-9.938
	c-0.875,1.181-1.415,2.461-1.811,3.783c-0.376,1.264-0.5,2.604-0.926,3.847C43.541,164.376,42.912,165.31,42.406,166.287z
	 M70.085,158.404c0.478-1.621-0.775-4.688-2.418-5.92C65.882,155.332,66.565,157.001,70.085,158.404z M345.771,112.8
	c-1.229,0.254-2.463,0.51-3.697,0.766c0.191,0.911,0.381,1.822,0.635,3.039C344.303,115.455,346.654,115.793,345.771,112.8z
	 M39.034,177.935c2.451-4.084,2.718-5.062,1.719-6.295C38.329,173.794,37.518,176.762,39.034,177.935z M69.56,163.863
	c-2.047-0.135-2.605,1.135-2.608,2.678c-0.001,0.547,0.673,1.096,1.038,1.645c0.523-0.396,1.364-0.703,1.501-1.205
	C69.737,166.082,69.56,165.066,69.56,163.863z M68.188,169.486c-0.236-0.066-0.472-0.133-0.708-0.199
	c-0.242,0.566-0.822,1.287-0.65,1.668c0.286,0.629,1.055,1.041,1.622,1.543c0.177-0.135,0.354-0.268,0.53-0.4
	C68.717,171.226,68.453,170.355,68.188,169.486z M358.104,114.218c-0.076-0.144-0.152-0.288-0.227-0.432c-1.066,0-2.133,0-3.199,0
	c-0.062,0.178-0.125,0.355-0.189,0.533c0.621,0.327,1.248,0.917,1.863,0.906C356.941,115.214,357.52,114.58,358.104,114.218z"/>
<path fill="#FFFFFF" d="M-155.588,107.136c-2.114,0.328-4.219,0.801-6.348,0.955c-4.521,0.328-9.07,0.812-13.577,0.595
	c-2.442-0.118-4.927-1.33-7.21-2.423c-5.969-2.858-11.838-5.923-17.748-8.904c-1.407-0.71-2.805-1.444-4.229-2.112
	c-1.002-0.47-1.308-1.084-0.966-2.198c0.538-1.756,0.903-3.565,1.35-5.351c1.119-4.464,1.149-8.823-1.052-13.036
	c-0.567-1.086-0.882-2.305-1.312-3.462c0.144-0.156,0.288-0.312,0.432-0.468c16.903,11.912,33.808,23.825,50.71,35.737
	C-155.557,106.691-155.571,106.913-155.588,107.136z"/>
<path fill="#FFFFFF" d="M-443.188,241.366c3.4-3.576,6.771-7.183,10.223-10.709c0.702-0.717,1.804-1.029,2.55-1.717
	c1.013-0.932,3.396-0.57,2.927-2.996c-0.02-0.104,0.74-0.355,1.252-0.595c1.22,1.769,2.718,3.429,3.619,5.364
	c1.444,3.102,2.912,6.268,2.998,9.805c0.04,1.637-1.286,2.561-2.907,2.35c-2.442-0.318-4.904-0.541-7.364-0.647
	c-1.698-0.075-3.41,0.194-5.112,0.157c-2.714-0.059-5.425-0.244-8.137-0.377C-443.155,241.788-443.171,241.577-443.188,241.366z"/>
<path fill="#FFFFFF" d="M-432.729,251.358c3-0.156,6.001-0.309,9.001-0.473c3.179-0.176,4.967,1.986,3.99,5.033
	c-0.915,2.853-1.95,5.674-3.07,8.451c-1.562,3.873-2.817,4.717-6.408,1.307c-0.912-0.864-1.52-2.047-2.288-3.068
	c-0.264-0.352-0.552-0.703-0.894-0.977c-2.609-2.078-5.278-4.086-7.829-6.235c-0.825-0.692-1.542-1.661-1.96-2.649
	c-0.438-1.037,0.324-1.545,1.37-1.545c2.694-0.002,5.388-0.002,8.081-0.002C-432.733,251.252-432.731,251.306-432.729,251.358z"/>
<path fill="#FFFFFF" d="M-208.791,107.104c0.524-2.16,0.97-3.99,1.462-6.018c0.682,0.185,1.268,0.238,1.749,0.491
	c3.366,1.768,6.662,3.676,10.074,5.347c3.946,1.934,7.913,3.873,12.012,5.442c4.982,1.905,9.554,4.324,13.5,8.499
	c-1.034,0.125-1.819,0.279-2.608,0.307c-4.107,0.142-8.229,0.121-12.323,0.421c-2.374,0.174-3.907-0.583-5.271-2.519
	c-2.229-3.162-4.812-6.074-7.076-9.213c-1.537-2.132-3.654-2.647-6.01-2.744C-205.03,107.047-206.786,107.104-208.791,107.104z"/>
<path fill="#FFFFFF" d="M-450.863,259.866c6.088,5.148,12.009,10.156,18.163,15.36c-5.042,4.06-10.174,6.597-15.958,7.761
	C-450.371,279.765-452.294,262.987-450.863,259.866z"/>
<path fill="#FFFFFF" d="M-440.249,192.976c0.42-1.892-0.384-2.333-1.891-2.238c-0.829,0.054-1.823,0.019-2.478-0.396
	c-0.701-0.441-1.537-1.379-1.537-2.098c0-2.604,0.411-5.205,0.495-7.813c0.045-1.407,0.444-2.026,1.941-1.99
	c2.499,0.062,5.001-0.056,7.502-0.056c0.501,0,1.431,0.152,1.44,0.285c0.166,2.383,2.697,2.277,3.791,3.681
	c1.168,1.499,2.588,2.798,3.821,4.25c1.427,1.679,1.085,3.009-0.688,4.216c-0.397,0.271-0.231,1.367-0.334,2.161
	C-431.817,192.976-435.873,192.976-440.249,192.976z"/>
<path fill="#FFFFFF" d="M-121.345,258.243c-1.126-0.9-2.004-1.594-2.868-2.303c-0.804-0.66-1.686-1.257-2.371-2.023
	c-1.943-2.18-3.683-4.557-5.768-6.58c-0.646-0.629-1.943-0.57-2.582-1.657c-0.747-1.271-1.745-2.397-2.637-3.589
	c1.928-1.281,5.054-0.803,6.379,0.666c0.236,0.264,1.24,0.197,1.602-0.084c1.334-1.047,2.578-1.443,4.087-0.332
	c0.359,0.265,1.014,0.16,1.532,0.171c2.501,0.043,5.001,0.086,7.501,0.091c1.312,0.002,2.085,0.521,1.768,1.9
	c-0.529,2.309-1.062,4.627-1.799,6.873c-0.59,1.799-1.292,3.621-2.319,5.189C-119.408,257.463-120.745,257.868-121.345,258.243z"/>
<path fill="#FFFFFF" d="M-475.406,277.812c0.695-1.103,1.222-1.935,1.746-2.769c0.465-0.739,0.926-1.481,1.543-2.475
	c3.264-3.855,6.66-7.869,10.319-12.193c1.031,7.908,2.008,15.41,3.047,23.387C-465.212,283.063-470.656,281.237-475.406,277.812z"/>
<path fill="#FFFFFF" d="M-482.187,271.685c-3.284-4.312-5.619-8.496-6.671-13.302c-0.381-1.742,1.304-3.422,3.229-3.701
	c2.095-0.307,4.142-0.939,6.237-1.241c3.27-0.47,6.562-0.778,10.421-1.222C-473.519,258.917-477.759,265.163-482.187,271.685z"/>
<path fill="#FFFFFF" d="M-214.539,89.552c-2.017-0.894-4.04-1.806-6.077-2.687c-1.103-0.477-1.496-1.23-1.48-2.467
	c0.031-2.464-0.317-4.94-0.188-7.395c0.192-3.681,0.631-7.351,1.061-11.014c0.048-0.407,0.736-1.068,1.078-1.04
	c0.664,0.056,1.613,0.345,1.887,0.843c1.42,2.588,2.693,5.258,3.956,7.929c0.673,1.425,1.1,2.973,1.844,4.354
	c1.466,2.721,1.263,5.491,0.257,8.197C-212.649,87.469-213.716,88.433-214.539,89.552z"/>
<path fill="#FFFFFF" d="M-434.621,219.077c-5.557,5.094-10.964,10.047-16.524,15.141c0-3.586,0.328-7.047-0.092-10.413
	c-0.42-3.365,1.699-5.991,1.656-9.216c-0.1-0.055-0.417-0.217-0.736-0.383C-449.442,212.573-438.489,215.911-434.621,219.077z"/>
<path fill="#FFFFFF" d="M-118.722,222.45c-0.3-0.957-0.6-1.914-0.898-2.871c0.157-0.115,0.314-0.23,0.472-0.348
	c0.662,0.834,1.625,1.57,1.934,2.521c0.968,2.986,1.715,6.047,2.492,9.094c0.257,1.005,0.105,1.822-1.328,1.298
	c-0.048,0.782-0.092,1.497-0.139,2.249c-6.188-0.627-12.339-1.251-18.517-1.877c-0.559-1.664-0.911-3.456,1.572-4.037
	c0.771-0.182,1.661,0.137,2.593,0.234c-0.324-1.686,1.072-2.508,2.674-3.371c1.363-0.737,2.58-1.787,3.756-2.82
	C-122.026,220.687-121.162,220.649-118.722,222.45z"/>
<path fill="#FFFFFF" d="M-129.269,265.657c-3.409,2.332-7.709,3.904-12.519,4.479c-1.076-3.571-2.426-6.96-1.911-10.487
	c-0.536-0.875-1.264-1.613-1.462-2.477c-0.492-2.146-0.782-4.342-1.062-6.528c-0.064-0.507,0.231-1.06,0.363-1.591
	c0.509,0.188,1.168,0.232,1.502,0.585C-139.339,254.915-134.364,260.231-129.269,265.657z"/>
<path fill="#FFFFFF" d="M-489.247,244.233c0.688-5.309,2.827-10.059,5.778-14.518c5.377,3.283,14.019,11.562,14.035,13.834
	C-475.975,243.776-482.528,244-489.247,244.233z"/>
<path fill="#FFFFFF" d="M-166.29,114.702c5.354-0.197,10.706-0.554,16.059-0.54c4.057,0.011,6.696,2.562,8.521,5.947
	c0.46,0.854,0.481,1.945,0.841,3.533c-2.078-0.409-3.627-0.712-5.173-1.021c-0.3-0.06-0.591-0.199-0.89-0.212
	c-4.582-0.199-9.164-0.396-13.747-0.562c-1.041-0.038-1.604-0.296-1.848-1.514c-0.199-1.002-0.98-1.934-1.648-2.782
	c-0.641-0.813-1.465-1.48-2.209-2.211C-166.352,115.127-166.321,114.915-166.29,114.702z"/>
<path fill="#FFFFFF" d="M-161.651,259.545c0.514-1.362,0.713-2.33,1.205-3.113c1.26-2.003,2.633-3.936,3.996-5.87
	c0.355-0.504,0.838-0.918,1.254-1.362c1.508,7.022,2.982,13.889,4.457,20.754c-4.146,0.856-14.312-4.136-13.895-7.213
	C-161.579,263.665-163.278,259.493-161.651,259.545z"/>
<path fill="#FFFFFF" d="M-476.055,221.852c3.8-3.443,8.464-5.663,14.041-7.219c0,6.609,0,12.902,0,19.193
	c-0.18,0.047-0.359,0.094-0.54,0.141C-466.997,229.981-471.438,225.995-476.055,221.852z"/>
<path fill="#FFFFFF" d="M-134.856,218.125c-0.219-0.461-0.369-0.781-0.349-0.736c-2.676,1.529-5.333,3.049-7.991,4.566
	c-0.173-0.051-0.346-0.104-0.518-0.154c0.549-2.022,1.093-4.049,1.664-6.065c0.039-0.142,0.389-0.192,0.43-0.336
	c0.694-2.409,0.688-2.412,3.317-2.44c-0.986-0.752-1.593-1.213-1.847-1.408c0.534-1.825,1.078-3.686,1.795-6.137
	c1.316,0.285,3.246,0.539,5.06,1.143c1.569,0.521,3.172,1.229,4.45,2.244c0.995,0.789,2.238,2.32,2.054,3.266
	c-0.211,1.077-1.835,1.932-2.935,2.764c-0.652,0.494-1.522,0.688-2.217,1.142C-132.926,216.61-133.839,217.364-134.856,218.125z"/>
<path fill="#FFFFFF" d="M-250.878,80.903c1.571,0.561,2.699,0.859,3.731,1.354c2.252,1.08,4.457,2.255,6.678,3.401
	c1.133,0.585,1.732,1.166,1.316,2.77c-0.609,2.354-0.602,4.862-0.938,7.294c-0.077,0.553-0.484,1.059-0.74,1.587
	c-0.253-0.082-0.505-0.165-0.759-0.247c0.192-1.615,0.387-3.229,0.58-4.844c-0.113-0.026-0.226-0.051-0.339-0.076
	c-0.315,1.103-0.74,2.188-0.918,3.312c-0.223,1.415-0.889,1.943-2.338,2.016c-3.795,0.188-3.776,0.255-4.329-3.528
	c-0.2-1.363-0.535-2.708-0.733-4.072C-250.076,87.039-250.436,84.203-250.878,80.903z"/>
<path fill="#FFFFFF" d="M-160.907,241.411c-3.201,4.635-6.399,9.268-9.789,14.176c-2.535-4.34-3.858-8.823-4.481-13.895
	c4.661-0.359,9.153-0.707,13.646-1.055C-161.325,240.896-161.116,241.155-160.907,241.411z"/>
<path fill="#FFFFFF" d="M-160.54,231.894c-4.92,0-9.32,0-13.988,0c0.688-4.824,2.867-9.345,5.875-13.729
	C-166.002,222.653-163.468,226.938-160.54,231.894z"/>
<path fill="#FFFFFF" d="M-149.584,205.944c-1.488,5.713-2.966,11.377-4.493,17.236c-0.536-0.846-1.034-1.641-1.542-2.43
	c-1.417-2.207-2.9-4.375-4.209-6.646c-0.314-0.549-0.047-1.433-0.047-2.265c-0.615,0-1.295,0-1.995,0
	C-159.955,208.772-154.207,206.084-149.584,205.944z"/>
<path fill="#FFFFFF" d="M-142.199,185.893c3.22-8.236,4.765-16.938,8.736-24.766c0.323,0.078,0.646,0.158,0.97,0.236
	c-0.452,2.498-0.842,5.01-1.371,7.49c-1.037,4.868-2.209,9.708-3.218,14.582C-137.813,186.977-138.452,187.385-142.199,185.893z"/>
<path fill="#FFFFFF" d="M-215.266,97.782c-0.333,2.847-0.563,5.25-0.938,7.631c-0.069,0.451-0.657,1.086-1.097,1.171
	c-1.921,0.367-3.87,0.643-5.819,0.761c-0.446,0.026-1.3-0.667-1.348-1.097c-0.212-1.949-0.3-3.929-0.209-5.887
	c0.022-0.518,0.752-1.255,1.31-1.446c1.596-0.546,3.25-0.974,4.915-1.231C-217.387,97.519-216.263,97.739-215.266,97.782z"/>
<path fill="#FFFFFF" d="M-461.441,180.577c-1.429-0.396-2.867-0.762-4.282-1.201c-1.349-0.42-1.686-1.293-1.082-2.592
	c1.262-2.713,2.414-5.478,3.75-8.15c0.946-1.895,2.121-3.672,3.258-5.608c1.328,0.414,2.377,0.819,1.686,2.923
	c-1.302,3.963-2.28,8.034-3.311,12.081c-0.209,0.823-0.059,1.738-0.074,2.611L-461.441,180.577z"/>
<path fill="#FFFFFF" d="M-461.497,180.64c1.062-1.89,2.128-3.774,3.181-5.669c0.126-0.227,0.106-0.576,0.278-0.723
	c0.309-0.262,0.712-0.408,1.077-0.604c0,0.404,0,0.809,0,1.336c2.422-0.021,4.976,0.139,6.591,2.911
	c-2.96-1.077-5.812-1.498-8.512,0.606c2.991,0.008,6.066-0.485,8.683,1.744c-2.242-0.16-4.343-0.523-6.417-0.406
	c-2.638,0.148-4.09,1.693-3.996,3.908c3.177-0.795,6.365-1.428,9.6,0.668c-2.374,0-4.498-0.227-6.551,0.055
	c-2.886,0.396-4.27,1.996-3.938,4.234c2.875-0.926,5.78-1.527,8.669,0.162c-3.67-0.277-7.185-0.096-9.801,3.119
	c-0.129-0.117-0.257-0.236-0.386-0.354c0.526-3.688,1.053-7.373,1.579-11.058C-461.441,180.577-461.497,180.64-461.497,180.64z"/>
<path fill="#FFFFFF" d="M-243.526,106.623c-0.037,0.456-0.094,0.911-0.104,1.368c-0.044,2.033-0.584,2.562-2.656,2.324
	c-0.4-0.046-1.013-0.596-1.062-0.973c-0.224-1.744-0.319-3.508-0.392-5.268c-0.093-2.319,1.772-1.57,2.959-1.774
	c1.432-0.246,1.362,0.885,1.383,1.779c0.019,0.846-0.098,1.694-0.153,2.541C-243.543,106.622-243.535,106.623-243.526,106.623z"/>
<path fill="#FFFFFF" d="M-473.248,176.274c0.506-0.977,1.135-1.908,1.487-2.938c0.425-1.242,0.549-2.584,0.926-3.846
	c0.396-1.324,0.935-2.605,1.811-3.785c1.567,3.862-1.557,6.635-2.314,9.938c-0.113,0.489-0.898,0.827-1.373,1.235
	C-472.889,176.679-473.068,176.477-473.248,176.274z"/>
<path fill="#FFFFFF" d="M-445.568,168.392c-3.52-1.401-4.202-3.072-2.418-5.92C-446.344,163.704-445.091,166.771-445.568,168.392z"
	/>
<path fill="#FFFFFF" d="M-169.881,122.789c0.884,2.993-1.469,2.654-3.062,3.805c-0.254-1.217-0.442-2.128-0.634-3.039
	C-172.343,123.299-171.108,123.043-169.881,122.789z"/>
<path fill="#FFFFFF" d="M-476.619,187.922c-1.517-1.172-0.707-4.141,1.719-6.293C-473.9,182.862-474.167,183.838-476.619,187.922z"
	/>
<path fill="#FFFFFF" d="M-446.093,173.852c0,1.202,0.177,2.218-0.069,3.115c-0.137,0.5-0.978,0.81-1.501,1.203
	c-0.365-0.549-1.039-1.098-1.038-1.645C-448.698,174.985-448.14,173.717-446.093,173.852z"/>
<path fill="#FFFFFF" d="M-447.465,179.475c0.265,0.869,0.529,1.738,0.793,2.609c-0.177,0.133-0.354,0.268-0.53,0.4
	c-0.566-0.504-1.336-0.914-1.622-1.545c-0.172-0.379,0.408-1.102,0.65-1.668C-447.938,179.34-447.701,179.407-447.465,179.475z"/>
<path fill="#FFFFFF" d="M-157.548,124.207c-0.584,0.361-1.162,0.996-1.752,1.008c-0.615,0.011-1.242-0.579-1.863-0.906
	c0.063-0.178,0.127-0.355,0.188-0.533c1.066,0,2.134,0,3.199,0C-157.701,123.919-157.625,124.063-157.548,124.207z"/>
</svg>
