<?xml version="1.0" encoding="utf-8"?>
<!-- Generator: Adobe Illustrator 16.0.0, SVG Export Plug-In . SVG Version: 6.00 Build 0)  -->
<!DOCTYPE svg PUBLIC "-//W3C//DTD SVG 1.1//EN" "http://www.w3.org/Graphics/SVG/1.1/DTD/svg11.dtd">
<svg version="1.1" id="Layer_1" xmlns="http://www.w3.org/2000/svg" xmlns:xlink="http://www.w3.org/1999/xlink" x="0px" y="0px"
	 width="480px" height="320px" viewBox="0 0 480 320" enable-background="new 0 0 480 320" xml:space="preserve">
<g>
	<g>
		<path fill="#FFFFFF" d="M8.395,407.395c0-158,0-316,0-474c158,0,316,0,474,0c0,158,0,316,0,474
			C324.395,407.395,166.395,407.395,8.395,407.395z M412.664,194.3c0.334-0.986,0.633-1.595,0.74-2.236
			c0.313-1.869,0.419-3.781,0.84-5.622c1.961-8.58,4.379-17.073,4.565-25.97c0.015-0.683,0.415-1.521,0.912-2
			c2.13-2.048,4.374-3.977,6.556-5.971c2.26-2.064,2.491-4.395,0.663-6.83c-0.748-0.997-1.709-1.85-2.36-2.899
			c-2.671-4.295-5.296-8.619-7.86-12.979c-0.953-1.621-2.137-2.58-4.104-2.493c-1.479,0.064-2.117-0.736-2.454-2.228
			c-0.413-1.826-1.025-3.706-1.998-5.288c-2.627-4.275-5.855-7.883-10.406-10.451c-4.311-2.434-8.13-5.734-12.183-8.631
			c-6.197-4.429-12.443-8.792-18.607-13.268c-8.131-5.905-16.262-11.812-24.267-17.885c-3.146-2.386-6.458-4.457-9.124-7.65
			c-4.063-4.868-7.342-10.084-9.925-15.786c-1.996-4.408-5.354-8.167-6.237-13.109c-0.072-0.409-0.511-0.749-0.768-1.129
			c-0.694-1.025-1.445-2.018-2.063-3.087c-3.065-5.295-7.054-9.796-13.509-9.917c-5.862-0.109-11.778,0.776-17.612,1.625
			c-4.059,0.591-7.988,2.016-12.028,2.795c-7.465,1.438-14.95,2.634-22.027,5.68c-5.105,2.198-10.38,3.917-15.925,4.947
			c-7.739,1.438-15.367,3.479-23.042,5.261c-1.791,0.416-3.59,0.796-5.369,1.259c-2.852,0.743-5.667,1.642-8.539,2.292
			c-4.879,1.103-8.743,3.801-11.98,7.456c-0.795,0.898-0.953,2.369-1.764,3.244c-2.226,2.403-4.659,4.613-6.977,6.933
			c-1.197,1.197-2.511,2.337-3.449,3.722c-2.415,3.566-4.673,7.239-6.95,10.896c-9.894,15.887-19.771,31.783-29.66,47.673
			c-0.328,0.527-1.127,1.161-1.008,1.501c0.616,1.759-0.663,2.225-1.723,2.811c-5.38,2.978-11.294,4.232-17.259,5.349
			c-5.613,1.049-11.214,2.167-16.814,3.281c-5.927,1.179-11.85,2.381-17.771,3.589c-4.948,1.011-9.911,1.965-14.83,3.104
			c-2.743,0.635-5.364,1.867-8.124,2.351c-4.674,0.818-8.994,2.463-13.085,4.764c-0.719,0.404-1.465,1.202-1.693,1.968
			c-2.063,6.93-4.345,13.818-5.913,20.863c-1.914,8.602-1.335,17.404-0.941,26.148c0.02,0.438,0.236,0.894,0.448,1.294
			c2.181,4.111,4.396,8.205,6.552,12.329c0.28,0.536,0.366,1.22,0.38,1.839c0.021,0.938-0.102,1.879-0.145,2.531
			c-0.577,0.85-1.257,1.465-1.439,2.203c-0.294,1.195-0.421,2.483-0.331,3.711c0.137,1.858-0.67,2.585-2.418,2.788
			c-0.771,0.09-1.939,0.441-2.159,0.984c-1.304,3.22-2.401,6.524-3.521,9.815c-0.196,0.575,0.054,1.505-0.295,1.789
			c-1.417,1.156-1.234,2.431-0.407,3.673c1.629,2.448,2.452,4.717-0.683,6.642c-0.145,0.089-0.181,0.344-0.283,0.512
			c-1.284,2.106-0.673,4.051,0.582,5.882c0.793,1.157,1.168,2.072-0.15,3.219c-1.042,0.906-0.767,2.1,0.41,2.798
			c1.551,0.922,1.149,1.89,0.412,3.109c-0.399,0.661-0.82,1.655-0.604,2.283c1.168,3.408,2.267,6.914,5.418,9.157
			c1.53,1.089,2.188,2.405,1.907,4.381c-0.447,3.13,1.303,5.658,4.134,6.943c1.127,0.512,2.19,1.413,2.972,2.386
			c1.85,2.304,3.476,4.785,5.265,7.139c1.345,1.771,3.207,2.536,5.4,2.119c2.268-0.43,3.958,0.57,5.517,1.97
			c0.831,0.745,1.631,1.539,2.356,2.388c2.101,2.459,4.618,3.092,7.6,1.855c1.584-0.657,2.43-0.174,2.801,1.531
			c0.488,2.242,1.843,2.943,3.701,1.597c2.2-1.595,4.526-1.834,7.07-1.852c1.487-0.011,3.021-0.295,4.447-0.739
			c2.556-0.796,4.974-0.806,7.515,0.151c0.979,0.368,2.465,0.376,3.338-0.122c5.596-3.193,11.11-6.533,16.584-9.932
			c0.942-0.584,1.989-1.569,2.254-2.564c0.592-2.228,2.085-2.866,4.032-3.104c3.587-0.439,5.016-1.348,5.506-4.917
			c0.456-3.319,2.083-5.541,4.566-7.457c1.308-1.01,2.008-2.434,1.248-4.006c-1.052-2.176-0.152-3.721,1.375-5.028
			c1.854-1.587,3.344-3.14,1.244-5.431c4.346-4.807,4.569-5.376,3.225-6.792c0-2.402,0.095-4.461-0.03-6.507
			c-0.097-1.584,0.269-2.284,2.039-2.187c2.424,0.133,4.863-0.027,7.296-0.038c0.454-0.002,1.004-0.035,1.348,0.192
			c2.796,1.845,5.95,1.438,9,1.389c12.763-0.204,25.525-0.518,38.288-0.753c2.135-0.039,4.188-0.09,5.928-1.629
			c0.417-0.369,1.232-0.395,1.863-0.391c1.71,0.011,3.423,0.08,5.129,0.201c12.746,0.901,25.485,1.306,38.249,0.183
			c9.893-0.871,19.806-1.501,29.707-2.272c3.929-0.307,7.849-0.745,11.778-1.038c0.949-0.07,1.923,0.293,2.887,0.297
			c7.763,0.031,15.527,0.136,23.287-0.012c4.76-0.09,9.514-0.551,14.265-0.913c1.768-0.136,3.517-0.509,5.282-0.698
			c2.736-0.293,5.18,1.459,4.82,3.896c-0.661,4.48,1.25,8.043,3.255,11.706c0.934,1.705,2.075,3.342,1.565,5.618
			c-0.417,1.859,0.935,3.176,2.623,3.678c3.276,0.973,4.145,3.438,4.604,6.408c0.166,1.074,0.685,2.302,1.446,3.042
			c4.28,4.157,9.187,7.181,15.264,8.005c1.029,0.14,2.425,0.617,2.876,1.39c1.25,2.145,3.05,2.725,5.281,2.747
			c2.104,0.022,4.213,0.008,6.309,0.156c1.556,0.109,3.358,0.024,4.587,0.781c2.61,1.606,5.166,1.673,7.934,0.889
			c2.023-0.573,4.078-1.047,6.073-1.704c1.642-0.54,3.027-0.671,4.584,0.473c1.769,1.3,3.484,0.591,4.007-1.323
			c0.672-2.465,2.634-3.486,5.034-2.621c2.926,1.056,7.47-1.813,7.576-4.878c0.048-1.364,0.414-2.367,1.562-3.178
			c0.734-0.519,1.354-1.257,1.879-1.999c0.885-1.248,2.033-1.905,3.524-1.657c1.097,0.184,1.549-0.248,2.173-1.104
			c0.878-1.206,0.579-2.298,0.081-3.322c-0.729-1.499-0.233-2.48,0.889-3.436c0.435-0.369,0.696-0.937,1.115-1.329
			c0.457-0.427,0.963-0.985,1.521-1.088c2.55-0.465,4.146-3.843,2.842-6.098c-0.414-0.716-1.019-1.58-0.917-2.287
			c0.334-2.321,0.934-4.606,1.489-6.892c0.057-0.23,0.509-0.368,0.781-0.543c2.499-1.607,2.782-3.246,0.76-5.457
			c-1.005-1.098-1.578-2.179-1.327-3.698c0.114-0.695,0.074-1.479-0.13-2.152c-0.399-1.316-0.149-2.355,1.071-2.979
			c1.607-0.822,1.466-2.183,0.773-3.287c-0.345-0.552-1.63-0.465-2.44-0.789c-0.603-0.24-1.477-0.57-1.625-1.048
			c-0.611-1.966-0.816-4.067-1.522-5.989c-0.421-1.145-0.612-2.051-0.046-3.139c0.84-1.614,0.275-2.829-1.188-3.835
			c-0.412,0.859-0.78,1.63-0.912,1.905c-1.149,0-1.709,0-1.771,0c-1.136-2.275-2.135-4.278-3.22-6.451
			c0.5,0.177,0.77,0.271,0.801,0.283c-0.502-1.319-1.169-2.738-1.575-4.229c-0.453-1.662-1.236-2.805-3.075-2.905
			c-0.994-0.056-2.408,0.329-2.908-0.187c-1.583-1.634-4.706-2.006-4.521-5.188c0.015-0.246-0.31-0.605-0.566-0.762
			C417.863,195.357,415.901,193.267,412.664,194.3z"/>
		<path fill-rule="evenodd" clip-rule="evenodd" d="M412.664,194.3c3.237-1.033,5.199,1.058,7.421,2.403
			c0.257,0.156,0.581,0.516,0.566,0.762c-0.185,3.183,2.938,3.555,4.521,5.188c0.5,0.516,1.914,0.131,2.908,0.187
			c1.839,0.101,2.622,1.243,3.075,2.905c0.406,1.49,1.073,2.909,1.575,4.229c-0.031-0.012-0.301-0.106-0.801-0.283
			c1.085,2.173,2.084,4.176,3.22,6.451c0.062,0,0.622,0,1.771,0c0.132-0.275,0.5-1.046,0.912-1.905
			c1.463,1.006,2.027,2.221,1.188,3.835c-0.566,1.088-0.375,1.994,0.046,3.139c0.706,1.922,0.911,4.023,1.522,5.989
			c0.148,0.478,1.022,0.808,1.625,1.048c0.811,0.324,2.096,0.237,2.44,0.789c0.692,1.104,0.834,2.465-0.773,3.287
			c-1.221,0.624-1.471,1.663-1.071,2.979c0.204,0.673,0.244,1.457,0.13,2.152c-0.251,1.52,0.322,2.601,1.327,3.698
			c2.022,2.211,1.739,3.85-0.76,5.457c-0.272,0.175-0.725,0.312-0.781,0.543c-0.556,2.285-1.155,4.57-1.489,6.892
			c-0.102,0.707,0.503,1.571,0.917,2.287c1.305,2.255-0.292,5.633-2.842,6.098c-0.558,0.103-1.063,0.661-1.521,1.088
			c-0.419,0.393-0.681,0.96-1.115,1.329c-1.122,0.955-1.617,1.937-0.889,3.436c0.498,1.024,0.797,2.116-0.081,3.322
			c-0.624,0.856-1.076,1.288-2.173,1.104c-1.491-0.248-2.64,0.409-3.524,1.657c-0.525,0.742-1.145,1.48-1.879,1.999
			c-1.147,0.811-1.514,1.813-1.562,3.178c-0.106,3.064-4.65,5.934-7.576,4.878c-2.4-0.865-4.362,0.156-5.034,2.621
			c-0.522,1.914-2.238,2.623-4.007,1.323c-1.557-1.144-2.942-1.013-4.584-0.473c-1.995,0.657-4.05,1.131-6.073,1.704
			c-2.768,0.784-5.323,0.718-7.934-0.889c-1.229-0.757-3.031-0.672-4.587-0.781c-2.096-0.148-4.205-0.134-6.309-0.156
			c-2.231-0.022-4.031-0.603-5.281-2.747c-0.451-0.772-1.847-1.25-2.876-1.39c-6.077-0.824-10.983-3.848-15.264-8.005
			c-0.762-0.74-1.28-1.968-1.446-3.042c-0.46-2.97-1.328-5.436-4.604-6.408c-1.688-0.502-3.04-1.818-2.623-3.678
			c0.51-2.276-0.632-3.913-1.565-5.618c-2.005-3.663-3.916-7.226-3.255-11.706c0.359-2.438-2.084-4.189-4.82-3.896
			c-1.766,0.189-3.515,0.562-5.282,0.698c-4.751,0.362-9.505,0.823-14.265,0.913c-7.76,0.147-15.524,0.043-23.287,0.012
			c-0.964-0.004-1.938-0.367-2.887-0.297c-3.93,0.293-7.85,0.731-11.778,1.038c-9.901,0.771-19.814,1.401-29.707,2.272
			c-12.764,1.123-25.503,0.719-38.249-0.183c-1.706-0.121-3.419-0.19-5.129-0.201c-0.63-0.004-1.446,0.021-1.863,0.391
			c-1.74,1.539-3.792,1.59-5.928,1.629c-12.763,0.235-25.524,0.549-38.288,0.753c-3.049,0.049-6.203,0.456-9-1.389
			c-0.344-0.228-0.894-0.194-1.348-0.192c-2.433,0.011-4.873,0.171-7.296,0.038c-1.771-0.098-2.136,0.603-2.039,2.187
			c0.125,2.046,0.03,4.104,0.03,6.507c1.344,1.416,1.122,1.985-3.225,6.792c2.1,2.291,0.611,3.844-1.244,5.431
			c-1.528,1.308-2.428,2.853-1.375,5.028c0.76,1.572,0.06,2.996-1.248,4.006c-2.482,1.916-4.11,4.138-4.566,7.457
			c-0.49,3.569-1.919,4.478-5.506,4.917c-1.946,0.238-3.439,0.877-4.032,3.104c-0.265,0.995-1.312,1.98-2.254,2.564
			c-5.475,3.398-10.989,6.738-16.584,9.932c-0.873,0.498-2.359,0.49-3.338,0.122c-2.541-0.957-4.959-0.947-7.515-0.151
			c-1.425,0.444-2.959,0.729-4.447,0.739c-2.544,0.018-4.87,0.257-7.07,1.852c-1.858,1.347-3.213,0.646-3.701-1.597
			c-0.371-1.705-1.216-2.188-2.801-1.531c-2.982,1.236-5.5,0.604-7.6-1.855c-0.725-0.849-1.525-1.643-2.356-2.388
			c-1.559-1.399-3.249-2.399-5.517-1.97c-2.194,0.417-4.056-0.349-5.4-2.119c-1.789-2.354-3.415-4.835-5.265-7.139
			c-0.782-0.973-1.845-1.874-2.972-2.386c-2.831-1.285-4.581-3.813-4.134-6.943c0.282-1.976-0.376-3.292-1.907-4.381
			c-3.152-2.243-4.25-5.749-5.418-9.157c-0.216-0.628,0.205-1.622,0.604-2.283c0.737-1.22,1.139-2.188-0.412-3.109
			c-1.177-0.698-1.451-1.892-0.41-2.798c1.318-1.146,0.943-2.062,0.15-3.219c-1.254-1.831-1.865-3.775-0.582-5.882
			c0.102-0.168,0.139-0.423,0.283-0.512c3.135-1.925,2.312-4.193,0.683-6.642c-0.827-1.242-1.011-2.517,0.407-3.673
			c0.349-0.284,0.099-1.214,0.295-1.789c1.121-3.291,2.217-6.596,3.521-9.815c0.22-0.543,1.388-0.895,2.159-0.984
			c1.748-0.203,2.555-0.93,2.418-2.788c-0.09-1.228,0.036-2.516,0.331-3.711c0.182-0.738,0.862-1.354,1.439-2.203
			c0.043-0.652,0.165-1.594,0.145-2.531c-0.014-0.619-0.1-1.303-0.38-1.839c-2.155-4.124-4.371-8.218-6.552-12.329
			c-0.212-0.4-0.429-0.855-0.448-1.294c-0.395-8.744-0.973-17.547,0.941-26.148c1.567-7.045,3.849-13.934,5.913-20.863
			c0.228-0.766,0.974-1.563,1.693-1.968c4.091-2.301,8.411-3.945,13.085-4.764c2.76-0.483,5.38-1.716,8.124-2.351
			c4.919-1.139,9.881-2.093,14.83-3.104c5.921-1.208,11.844-2.41,17.771-3.589c5.601-1.114,11.201-2.232,16.814-3.281
			c5.964-1.116,11.879-2.371,17.259-5.349c1.06-0.586,2.338-1.052,1.723-2.811c-0.119-0.34,0.68-0.974,1.008-1.501
			c9.889-15.89,19.767-31.786,29.66-47.673c2.277-3.657,4.536-7.33,6.95-10.896c0.938-1.385,2.251-2.525,3.449-3.722
			c2.318-2.319,4.751-4.53,6.977-6.933c0.811-0.875,0.969-2.345,1.764-3.244c3.238-3.655,7.101-6.353,11.98-7.456
			c2.872-0.65,5.687-1.549,8.539-2.292c1.778-0.463,3.578-0.843,5.369-1.259c7.675-1.783,15.303-3.823,23.042-5.261
			c5.545-1.03,10.819-2.749,15.925-4.947c7.077-3.046,14.562-4.242,22.027-5.68c4.04-0.779,7.97-2.204,12.028-2.795
			c5.834-0.849,11.75-1.735,17.612-1.625c6.455,0.121,10.443,4.621,13.509,9.917c0.618,1.069,1.369,2.062,2.063,3.087
			c0.257,0.38,0.695,0.72,0.768,1.129c0.884,4.942,4.241,8.701,6.237,13.109c2.583,5.702,5.861,10.918,9.925,15.786
			c2.666,3.193,5.979,5.264,9.124,7.65c8.005,6.073,16.136,11.98,24.267,17.885c6.164,4.477,12.41,8.839,18.607,13.268
			c4.053,2.896,7.872,6.197,12.183,8.631c4.551,2.568,7.779,6.176,10.406,10.451c0.973,1.582,1.585,3.462,1.998,5.288
			c0.337,1.491,0.975,2.292,2.454,2.228c1.967-0.087,3.15,0.872,4.104,2.493c2.564,4.359,5.189,8.684,7.86,12.979
			c0.651,1.05,1.612,1.902,2.36,2.899c1.828,2.436,1.597,4.766-0.663,6.83c-2.182,1.994-4.426,3.923-6.556,5.971
			c-0.497,0.479-0.897,1.317-0.912,2c-0.187,8.896-2.604,17.39-4.565,25.97c-0.421,1.841-0.526,3.753-0.84,5.622
			C413.297,192.705,412.998,193.313,412.664,194.3z M83.816,184.688c-0.527,3.686-1.054,7.371-1.58,11.058
			c0.128,0.118,0.257,0.236,0.386,0.354c2.616-3.215,6.13-3.397,9.801-3.12c-2.889-1.689-5.794-1.087-8.669-0.162
			c-0.332-2.239,1.052-3.841,3.938-4.234c2.054-0.28,4.177-0.055,6.551-0.055c-3.234-2.095-6.422-1.462-9.6-0.668
			c-0.095-2.214,1.357-3.759,3.996-3.908c2.074-0.118,4.176,0.246,6.417,0.406c-2.617-2.23-5.692-1.737-8.683-1.744
			c2.7-2.105,5.552-1.685,8.512-0.607c-1.615-2.773-4.169-2.933-6.591-2.911c0-0.528,0-0.932,0-1.336
			c-0.364,0.195-0.768,0.343-1.077,0.604c-0.172,0.146-0.152,0.496-0.278,0.722c-1.053,1.894-2.119,3.78-3.181,5.669
			c0.016-0.873-0.135-1.788,0.074-2.612c1.031-4.047,2.008-8.118,3.311-12.081c0.691-2.103-0.358-2.508-1.686-2.923
			c-1.137,1.938-2.312,3.717-3.258,5.61c-1.336,2.674-2.488,5.438-3.75,8.15c-0.604,1.299-0.267,2.173,1.082,2.592
			C80.947,183.93,82.385,184.295,83.816,184.688z M279.162,70.254c0.194,0.007,0.389,0.013,0.583,0.02
			c-0.335-2.605-0.425-5.27-1.052-7.802c-1.544-6.245-3.468-12.37-6.627-18.049c-0.678-1.218-1.367-1.999-2.779-2.125
			c-0.642-0.058-1.262-0.349-1.896-0.518c-6.451-1.72-12.884-3.123-19.591-1.126c-8.75,2.605-17.589,4.917-26.331,7.548
			c-9.242,2.782-18.394,5.866-27.631,8.667c-3.71,1.125-6.181,3.343-7.937,6.753c-1.622,3.151-3.63,6.104-5.47,9.142
			c-7.908,13.057-15.803,26.12-23.747,39.154c-0.658,1.081-0.674,1.898,0.16,2.809c2.145,2.344,4.414,4.386,7.89,4.416
			c9.404,0.08,18.809,0.204,28.212,0.357c1.402,0.023,1.708-0.626,1.538-1.815c-0.279-1.953-0.703-3.902-0.765-5.862
			c-0.038-1.185-1.197-2.832,0.469-3.562c1.714-0.751,2.441,1.04,3.456,1.984c2.908,2.707,4.503,6.675,8.22,8.597
			c0.753,0.39,1.585,0.899,2.379,0.897c7.499-0.017,14.998-0.226,22.496-0.194c7.691,0.032,15.381,0.341,23.072,0.391
			c4.34,0.028,8.682-0.209,13.022-0.347c3.008-0.096,6.966-3.341,7.11-6.229c0.191-3.806,0.571-7.602,0.792-11.406
			c0.047-0.823-0.359-1.668-0.344-2.499c0.022-1.178-0.13-2.592,0.445-3.483c1.948-3.02,1.521-6.313,1.521-9.57
			c0-0.54-0.274-1.259-0.674-1.589c-2.145-1.771-1.656-3.755-0.7-5.875c0.913-2.027,1.699-4.113,2.625-6.135
			C278.02,71.904,278.638,71.101,279.162,70.254z M285.82,58.944c0.284,1.145,0.723,2.708,1.054,4.292
			c0.536,2.564,0.851,5.186,1.564,7.695c0.303,1.06,1.187,2.263,2.142,2.777c5.372,2.889,10.851,5.578,16.279,8.36
			c1,0.512,1.672,0.417,2.592-0.381c1.111-0.965,2.603-1.479,3.856-2.3c0.521-0.341,1.212-0.973,1.207-1.466
			c-0.019-1.792,0.227-3.886-0.596-5.306c-1.552-2.683-0.895-4.902,0.087-7.435c0.984-2.538,1.505-5.252,2.37-7.842
			c0.278-0.832,0.843-1.799,1.56-2.21c1.994-1.146,2.205-1.372,0.56-3.125c-2.872-3.061-5.861-6.015-8.883-8.929
			c-0.37-0.356-1.367-0.459-1.862-0.228c-5.777,2.692-11.498,5.507-17.27,8.214C287.298,52.554,286.062,55.158,285.82,58.944z
			 M389.666,111.25c0.017-0.223,0.031-0.445,0.048-0.667c-16.903-11.912-33.807-23.825-50.71-35.737
			c-0.144,0.156-0.288,0.312-0.432,0.468c0.432,1.158,0.746,2.376,1.313,3.462c2.201,4.212,2.171,8.572,1.052,13.036
			c-0.446,1.785-0.812,3.595-1.35,5.351c-0.342,1.114-0.036,1.729,0.966,2.198c1.426,0.668,2.822,1.402,4.229,2.112
			c5.91,2.981,11.779,6.046,17.748,8.904c2.284,1.093,4.768,2.305,7.21,2.423c4.507,0.217,9.057-0.267,13.578-0.595
			C385.447,112.051,387.552,111.578,389.666,111.25z M308.609,35.267c-0.709-1.489-1.138-2.674-1.795-3.714
			c-1.961-3.1-4.488-5.459-8.484-5.033c-3.38,0.361-6.747,0.903-10.09,1.528c-9.045,1.693-18.074,3.47-27.106,5.229
			c-0.44,0.085-0.853,0.317-1.592,0.601c4.05,0.9,7.674,1.833,11.347,2.486c3.58,0.637,5.904,2.618,7.358,5.846
			c0.856,1.903,1.813,3.761,2.785,5.762C290.267,43.718,299.398,39.511,308.609,35.267z M102.067,245.481
			c0.016,0.211,0.032,0.422,0.048,0.633c2.712,0.133,5.423,0.319,8.137,0.378c1.702,0.037,3.414-0.233,5.112-0.158
			c2.46,0.108,4.922,0.33,7.364,0.649c1.621,0.211,2.947-0.714,2.907-2.35c-0.086-3.538-1.554-6.703-2.998-9.805
			c-0.901-1.937-2.399-3.596-3.619-5.364c-0.512,0.237-1.272,0.49-1.252,0.594c0.469,2.426-1.914,2.065-2.927,2.997
			c-0.746,0.686-1.848,1-2.55,1.717C108.838,238.299,105.467,241.904,102.067,245.481z M112.526,255.473
			c-0.002-0.053-0.005-0.105-0.007-0.158c-2.693,0-5.387-0.001-8.081,0.001c-1.045,0-1.808,0.508-1.37,1.545
			c0.418,0.989,1.135,1.957,1.96,2.65c2.551,2.149,5.22,4.157,7.829,6.236c0.341,0.272,0.629,0.624,0.894,0.976
			c0.768,1.021,1.376,2.204,2.288,3.069c3.591,3.41,4.846,2.566,6.408-1.307c1.121-2.778,2.156-5.6,3.07-8.452
			c0.977-3.046-0.811-5.208-3.99-5.033C118.527,255.165,115.526,255.315,112.526,255.473z M336.464,111.219
			c2.005,0,3.76-0.058,5.508,0.014c2.355,0.097,4.473,0.612,6.011,2.744c2.265,3.139,4.847,6.051,7.075,9.213
			c1.363,1.936,2.896,2.692,5.271,2.519c4.096-0.3,8.216-0.279,12.324-0.421c0.789-0.027,1.573-0.182,2.608-0.307
			c-3.947-4.175-8.518-6.594-13.5-8.499c-4.099-1.569-8.064-3.509-12.012-5.442c-3.412-1.671-6.708-3.579-10.074-5.347
			c-0.481-0.253-1.067-0.307-1.749-0.491C337.434,107.229,336.988,109.059,336.464,111.219z M94.391,263.98
			c-1.431,3.121,0.493,19.898,2.205,23.122c5.784-1.165,10.916-3.702,15.958-7.761C106.4,274.137,100.479,269.13,94.391,263.98z
			 M105.006,197.09c4.376,0,8.431,0,12.062,0c0.103-0.794-0.063-1.892,0.334-2.161c1.773-1.207,2.116-2.537,0.688-4.216
			c-1.233-1.452-2.653-2.751-3.821-4.25c-1.093-1.402-3.625-1.298-3.791-3.68c-0.009-0.133-0.939-0.285-1.44-0.285
			c-2.5,0-5.003,0.117-7.502,0.055c-1.497-0.037-1.896,0.583-1.941,1.99c-0.084,2.608-0.495,5.21-0.495,7.813
			c0,0.72,0.835,1.655,1.537,2.098c0.655,0.414,1.648,0.45,2.478,0.397C104.622,194.757,105.426,195.199,105.006,197.09z
			 M423.909,262.358c0.601-0.376,1.938-0.781,2.524-1.678c1.027-1.568,1.729-3.393,2.319-5.191c0.737-2.246,1.269-4.564,1.799-6.872
			c0.317-1.38-0.456-1.899-1.768-1.901c-2.5-0.005-5-0.048-7.501-0.091c-0.519-0.01-1.173,0.094-1.532-0.171
			c-1.509-1.111-2.753-0.715-4.087,0.332c-0.36,0.283-1.364,0.348-1.601,0.085c-1.326-1.469-4.452-1.948-6.379-0.667
			c0.891,1.19,1.889,2.316,2.636,3.589c0.639,1.087,1.937,1.029,2.582,1.657c2.085,2.024,3.824,4.401,5.768,6.58
			c0.686,0.769,1.567,1.364,2.371,2.024C421.905,260.764,422.783,261.456,423.909,262.358z M69.848,281.926
			c4.75,3.426,10.194,5.252,16.656,5.95c-1.039-7.975-2.017-15.478-3.047-23.386c-3.659,4.324-7.055,8.337-10.319,12.194
			c-0.618,0.991-1.079,1.733-1.543,2.474C71.07,279.992,70.543,280.824,69.848,281.926z M63.068,275.799
			c4.427-6.521,8.668-12.768,13.216-19.466c-3.859,0.442-7.152,0.752-10.421,1.222c-2.095,0.301-4.142,0.936-6.237,1.241
			c-1.925,0.28-3.61,1.959-3.229,3.701C57.449,267.303,59.784,271.485,63.068,275.799z M330.716,93.666
			c0.822-1.119,1.891-2.083,2.335-3.278c1.006-2.706,1.209-5.476-0.257-8.197c-0.744-1.381-1.171-2.93-1.844-4.354
			c-1.262-2.671-2.536-5.341-3.956-7.929c-0.272-0.498-1.222-0.787-1.886-0.843c-0.343-0.029-1.031,0.633-1.079,1.04
			c-0.429,3.664-0.867,7.333-1.061,11.014c-0.129,2.455,0.221,4.931,0.188,7.395c-0.016,1.237,0.379,1.99,1.481,2.467
			C326.676,91.86,328.699,92.772,330.716,93.666z M110.634,223.192c-3.869-3.167-14.822-6.506-15.696-4.871
			c0.318,0.165,0.636,0.328,0.736,0.381c0.043,3.225-2.077,5.851-1.656,9.216c0.42,3.367,0.092,6.828,0.092,10.414
			C99.669,233.238,105.077,228.284,110.634,223.192z M426.532,226.565c-2.439-1.803-3.303-1.765-5.39,0.07
			c-1.176,1.033-2.393,2.083-3.756,2.82c-1.602,0.865-2.998,1.687-2.674,3.372c-0.932-0.1-1.82-0.417-2.593-0.235
			c-2.483,0.581-2.131,2.373-1.572,4.037c6.178,0.626,12.329,1.25,18.516,1.877c0.047-0.752,0.091-1.467,0.139-2.249
			c1.435,0.524,1.585-0.293,1.328-1.298c-0.777-3.046-1.524-6.106-2.492-9.094c-0.308-0.949-1.271-1.686-1.933-2.521
			c-0.157,0.116-0.314,0.232-0.472,0.349C425.934,224.651,426.232,225.608,426.532,226.565z M415.985,269.771
			c-5.095-5.425-10.07-10.741-15.088-16.018c-0.335-0.353-0.994-0.397-1.502-0.585c-0.132,0.531-0.429,1.084-0.364,1.591
			c0.281,2.188,0.571,4.384,1.063,6.529c0.198,0.861,0.926,1.601,1.462,2.476c-0.515,3.527,0.835,6.915,1.911,10.487
			C408.276,273.676,412.576,272.104,415.985,269.771z M56.008,248.347c6.718-0.231,13.272-0.456,19.813-0.682
			c-0.016-2.271-8.658-10.552-14.035-13.834C58.834,238.289,56.696,243.04,56.008,248.347z M378.965,118.816
			c-0.031,0.213-0.062,0.425-0.094,0.638c0.744,0.73,1.569,1.397,2.209,2.211c0.668,0.849,1.449,1.78,1.648,2.782
			c0.243,1.218,0.807,1.476,1.848,1.514c4.583,0.167,9.165,0.363,13.747,0.562c0.299,0.013,0.59,0.152,0.89,0.212
			c1.546,0.31,3.095,0.612,5.173,1.021c-0.359-1.588-0.381-2.68-0.841-3.533c-1.825-3.386-4.466-5.937-8.521-5.947
			C389.671,118.263,384.317,118.619,378.965,118.816z M383.603,263.659c-1.627-0.051,0.073,4.121-2.981,3.194
			c-0.419,3.078,9.749,8.07,13.895,7.212c-1.475-6.864-2.949-13.729-4.458-20.754c-0.415,0.446-0.897,0.86-1.253,1.364
			c-1.363,1.936-2.737,3.867-3.997,5.87C384.315,261.329,384.116,262.297,383.603,263.659z M69.199,225.966
			c4.619,4.145,9.06,8.13,13.501,12.115c0.18-0.047,0.36-0.093,0.54-0.14c0-6.291,0-12.583,0-19.193
			C77.663,220.303,72.999,222.521,69.199,225.966z M410.398,222.24c1.017-0.761,1.93-1.516,2.916-2.158
			c0.693-0.451,1.563-0.646,2.216-1.141c1.1-0.832,2.724-1.686,2.935-2.764c0.185-0.944-1.059-2.475-2.054-3.265
			c-1.278-1.016-2.881-1.724-4.45-2.244c-1.813-0.603-3.742-0.857-5.06-1.142c-0.716,2.45-1.26,4.311-1.794,6.137
			c0.253,0.194,0.859,0.655,1.846,1.408c-2.629,0.029-2.623,0.03-3.317,2.441c-0.041,0.142-0.391,0.194-0.43,0.335
			c-0.571,2.018-1.115,4.043-1.664,6.066c0.172,0.053,0.345,0.104,0.518,0.156c2.658-1.52,5.315-3.039,7.991-4.568
			C410.029,221.458,410.181,221.779,410.398,222.24z M294.376,85.017c0.443,3.3,0.803,6.136,1.213,8.965
			c0.198,1.364,0.533,2.709,0.733,4.072c0.553,3.783,0.534,3.717,4.33,3.528c1.449-0.072,2.114-0.601,2.337-2.016
			c0.178-1.124,0.603-2.209,0.918-3.312c0.113,0.025,0.226,0.05,0.339,0.076c-0.193,1.614-0.387,3.229-0.58,4.844
			c0.254,0.082,0.506,0.165,0.759,0.247c0.255-0.528,0.663-1.034,0.74-1.587c0.336-2.432,0.327-4.94,0.937-7.294
			c0.416-1.604-0.184-2.185-1.316-2.77c-2.22-1.146-4.426-2.321-6.677-3.401C297.075,85.875,295.947,85.578,294.376,85.017z
			 M384.347,245.526c-0.209-0.258-0.417-0.516-0.626-0.773c-4.491,0.347-8.983,0.694-13.645,1.055
			c0.623,5.069,1.946,9.555,4.481,13.893C377.947,254.792,381.146,250.159,384.347,245.526z M384.715,236.008
			c-2.929-4.955-5.463-9.241-8.114-13.729c-3.007,4.384-5.186,8.904-5.875,13.729C375.394,236.008,379.795,236.008,384.715,236.008z
			 M395.67,210.058c-4.622,0.142-10.37,2.829-12.286,5.899c0.7,0,1.38,0,1.995,0c0,0.832-0.269,1.716,0.047,2.265
			c1.308,2.27,2.792,4.438,4.209,6.645c0.507,0.789,1.006,1.584,1.542,2.429C392.704,221.435,394.181,215.771,395.67,210.058z
			 M184.992,132.737c-0.085-0.2-0.171-0.4-0.256-0.6c-0.786,0.548-1.938,0.948-2.236,1.691c-0.225,0.561,0.465,1.742,1.062,2.328
			c1.395,1.368,3.053,2.465,4.467,3.815c2.294,2.192,4.554,4.382,8.049,4.186c0.851-0.048,1.688-0.321,2.532-0.491
			c-0.292-0.875-0.396-1.887-0.913-2.599c-1.528-2.104-3.112-4.193-4.895-6.079c-0.925-0.979-2.234-1.814-3.52-2.17
			C187.946,132.449,186.429,132.737,184.992,132.737z M221.747,144.433c3.77-0.004,4.438-0.997,3.309-4.481
			c-0.619-1.91-0.947-3.913-1.542-5.832c-0.142-0.459-0.78-0.983-1.267-1.077c-1.628-0.312-3.287-0.488-4.941-0.629
			c-1.06-0.09-2.134-0.023-3.201-0.027c0.183,1.037,0.15,2.177,0.588,3.092c1.125,2.349,2.502,4.575,3.691,6.895
			C219.128,143.821,220.176,144.585,221.747,144.433z M238.329,137.535c0.394-5.79-1.104-5.509-5.266-5.496
			c-0.522,0.002-1.053,0.014-1.566,0.098c-1.896,0.307-2.672,1.304-2.25,3.156c0.507,2.228,1.114,4.438,1.804,6.616
			c0.597,1.886,2.481,2.558,5.123,1.987c1.734-0.375,2.506-1.536,2.348-3.498C238.432,139.291,238.372,138.181,238.329,137.535z
			 M203.06,131.935c-0.634,0.113-1.555,0.012-1.992,0.424c-0.533,0.503-1.137,1.8-0.887,2.128c2.549,3.355,4.227,7.496,8.01,9.74
			c0.887,0.526,2.479,0.172,3.605-0.201c0.33-0.109,0.51-1.832,0.181-2.551c-0.969-2.121-2.393-4.037-3.328-6.17
			C207.548,132.794,205.526,132.186,203.06,131.935z M403.056,190.007c3.747,1.493,4.386,1.084,5.117-2.455
			c1.009-4.874,2.181-9.714,3.218-14.582c0.529-2.481,0.919-4.993,1.371-7.49c-0.323-0.079-0.646-0.158-0.97-0.237
			C407.819,173.067,406.274,181.77,403.056,190.007z M329.988,101.896c-0.997-0.043-2.121-0.263-3.186-0.099
			c-1.665,0.258-3.32,0.686-4.915,1.231c-0.558,0.191-1.286,0.929-1.31,1.446c-0.091,1.958-0.003,3.938,0.209,5.887
			c0.048,0.43,0.901,1.123,1.348,1.097c1.949-0.118,3.898-0.394,5.819-0.761c0.438-0.085,1.026-0.72,1.097-1.171
			C329.425,107.146,329.655,104.742,329.988,101.896z M284.109,95.571c-0.083,0.478-0.228,1.244-0.348,2.014
			c-0.293,1.878-0.006,4.063-2.61,4.678c-0.217,0.051-0.473,0.521-0.478,0.801c-0.039,2.288-0.021,4.577-0.021,7.404
			c0.702-2.096,1.223-3.648,1.742-5.2c0.095,0.134,0.189,0.268,0.283,0.401c0.39-0.331,1.033-0.604,1.125-1.003
			c0.411-1.786,0.58-3.628,0.997-5.411c0.543-2.332,1.219-4.635,1.877-6.938c0.196-0.685,0.915-1.485,0.726-1.972
			c-1.019-2.61-2.249-5.138-3.406-7.695c-0.273,0.075-0.547,0.149-0.82,0.225c-0.188,3.776-0.413,7.553-0.503,11.331
			C282.664,94.591,283.479,94.996,284.109,95.571z M250.959,131.365c-0.038,0.115-0.076,0.229-0.114,0.345
			c-1.89,0.103-3.82,0.013-5.649,0.401c-0.742,0.157-1.719,1.312-1.795,2.09c-0.203,2.069-0.031,4.185,0.119,6.272
			c0.04,0.551,0.542,1.069,0.832,1.603c0.524-0.297,1.178-0.48,1.552-0.909c2.056-2.359,4.063-4.764,6.038-7.191
			c0.375-0.461,0.884-1.314,0.706-1.609C252.35,131.872,251.548,131.683,250.959,131.365z M301.728,110.737
			c-0.008,0-0.017-0.001-0.023-0.002c0.057-0.847,0.172-1.695,0.153-2.541c-0.02-0.895,0.049-2.025-1.383-1.779
			c-1.186,0.204-3.051-0.545-2.958,1.774c0.071,1.76,0.168,3.523,0.391,5.268c0.049,0.377,0.66,0.927,1.062,0.973
			c2.072,0.237,2.612-0.291,2.656-2.324C301.635,111.648,301.691,111.193,301.728,110.737z M72.007,180.389
			c0.179,0.202,0.358,0.404,0.536,0.606c0.475-0.408,1.26-0.745,1.373-1.235c0.757-3.305,3.881-6.076,2.314-9.938
			c-0.875,1.181-1.415,2.461-1.811,3.784c-0.376,1.263-0.5,2.604-0.926,3.846C73.142,178.479,72.513,179.413,72.007,180.389z
			 M99.686,172.506c0.478-1.621-0.775-4.687-2.418-5.92C95.483,169.434,96.166,171.104,99.686,172.506z M375.373,126.903
			c-1.228,0.254-2.462,0.51-3.696,0.766c0.19,0.911,0.38,1.822,0.633,3.039C373.904,129.558,376.257,129.896,375.373,126.903z
			 M68.636,192.037c2.451-4.084,2.718-5.061,1.719-6.294C67.93,187.897,67.119,190.865,68.636,192.037z M99.161,177.966
			c-2.047-0.135-2.605,1.133-2.608,2.676c-0.001,0.547,0.673,1.096,1.038,1.644c0.523-0.396,1.364-0.703,1.501-1.204
			C99.338,180.183,99.161,179.168,99.161,177.966z M97.789,183.589c-0.236-0.067-0.472-0.134-0.708-0.201
			c-0.242,0.567-0.822,1.289-0.65,1.668c0.286,0.63,1.055,1.041,1.622,1.544c0.177-0.134,0.354-0.268,0.53-0.401
			C98.318,185.328,98.054,184.458,97.789,183.589z M387.706,128.321c-0.076-0.144-0.152-0.288-0.228-0.432c-1.065,0-2.132,0-3.198,0
			c-0.062,0.178-0.126,0.355-0.189,0.533c0.621,0.327,1.248,0.917,1.863,0.906C386.544,129.317,387.122,128.683,387.706,128.321z"/>
		<path fill-rule="evenodd" clip-rule="evenodd" fill="#FFFFFF" d="M279.162,70.254c-0.524,0.847-1.143,1.65-1.554,2.548
			c-0.926,2.022-1.712,4.108-2.625,6.135c-0.956,2.12-1.444,4.105,0.7,5.875c0.399,0.331,0.674,1.05,0.674,1.589
			c0,3.256,0.428,6.55-1.521,9.57c-0.575,0.892-0.423,2.306-0.445,3.483c-0.016,0.831,0.391,1.676,0.344,2.499
			c-0.221,3.805-0.601,7.601-0.792,11.406c-0.145,2.888-4.103,6.133-7.11,6.229c-4.341,0.138-8.683,0.375-13.022,0.347
			c-7.691-0.05-15.381-0.358-23.072-0.391c-7.498-0.031-14.997,0.178-22.496,0.194c-0.794,0.002-1.626-0.508-2.379-0.897
			c-3.717-1.922-5.312-5.89-8.22-8.597c-1.014-0.944-1.741-2.735-3.456-1.984c-1.666,0.73-0.506,2.378-0.469,3.562
			c0.062,1.96,0.486,3.909,0.765,5.862c0.17,1.189-0.135,1.839-1.538,1.815c-9.403-0.153-18.808-0.277-28.212-0.357
			c-3.476-0.03-5.745-2.072-7.89-4.416c-0.833-0.91-0.818-1.728-0.16-2.809c7.944-13.034,15.839-26.098,23.747-39.154
			c1.84-3.038,3.848-5.991,5.47-9.142c1.756-3.41,4.227-5.627,7.937-6.753c9.237-2.801,18.389-5.885,27.631-8.667
			c8.742-2.632,17.581-4.943,26.331-7.548c6.707-1.997,13.14-0.594,19.591,1.126c0.634,0.169,1.254,0.46,1.896,0.518
			c1.412,0.126,2.102,0.907,2.779,2.125c3.159,5.679,5.083,11.804,6.627,18.049c0.627,2.532,0.717,5.197,1.052,7.802
			C279.551,70.267,279.356,70.261,279.162,70.254z"/>
		<path fill-rule="evenodd" clip-rule="evenodd" fill="#FFFFFF" d="M285.82,58.944c0.242-3.787,1.478-6.39,4.66-7.883
			c5.771-2.707,11.492-5.521,17.27-8.214c0.495-0.231,1.492-0.128,1.862,0.228c3.021,2.914,6.011,5.868,8.883,8.929
			c1.646,1.753,1.435,1.979-0.56,3.125c-0.717,0.411-1.281,1.378-1.56,2.21c-0.865,2.59-1.386,5.304-2.37,7.842
			c-0.981,2.533-1.639,4.752-0.087,7.435c0.822,1.42,0.577,3.514,0.596,5.306c0.005,0.493-0.686,1.125-1.207,1.466
			c-1.254,0.821-2.745,1.335-3.856,2.3c-0.92,0.798-1.592,0.893-2.592,0.381c-5.429-2.783-10.907-5.471-16.279-8.36
			c-0.955-0.514-1.839-1.717-2.142-2.777c-0.714-2.509-1.028-5.131-1.564-7.695C286.543,61.652,286.104,60.089,285.82,58.944z"/>
		<path fill-rule="evenodd" clip-rule="evenodd" fill="#FFFFFF" d="M389.666,111.25c-2.114,0.328-4.219,0.801-6.347,0.955
			c-4.521,0.328-9.071,0.812-13.578,0.595c-2.442-0.118-4.926-1.33-7.21-2.423c-5.969-2.858-11.838-5.923-17.748-8.904
			c-1.407-0.71-2.804-1.444-4.229-2.112c-1.002-0.47-1.308-1.084-0.966-2.198c0.538-1.756,0.903-3.565,1.35-5.351
			c1.119-4.464,1.149-8.823-1.052-13.036c-0.567-1.086-0.882-2.305-1.313-3.462c0.144-0.156,0.288-0.312,0.432-0.468
			c16.903,11.912,33.807,23.825,50.71,35.737C389.697,110.805,389.683,111.027,389.666,111.25z"/>
		<path fill-rule="evenodd" clip-rule="evenodd" fill="#FFFFFF" d="M308.609,35.267c-9.211,4.244-18.343,8.452-27.577,12.706
			c-0.972-2.001-1.929-3.859-2.785-5.762c-1.454-3.229-3.778-5.209-7.358-5.846c-3.673-0.653-7.297-1.586-11.347-2.486
			c0.739-0.284,1.151-0.516,1.592-0.601c9.032-1.759,18.062-3.536,27.106-5.229c3.343-0.625,6.71-1.167,10.09-1.528
			c3.996-0.427,6.523,1.933,8.484,5.033C307.472,32.593,307.9,33.777,308.609,35.267z"/>
		<path fill-rule="evenodd" clip-rule="evenodd" fill="#FFFFFF" d="M102.067,245.481c3.4-3.577,6.771-7.183,10.223-10.709
			c0.702-0.717,1.804-1.031,2.55-1.717c1.013-0.932,3.396-0.571,2.927-2.997c-0.02-0.104,0.74-0.356,1.252-0.594
			c1.22,1.769,2.718,3.428,3.619,5.364c1.444,3.102,2.912,6.267,2.998,9.805c0.04,1.636-1.286,2.561-2.907,2.35
			c-2.442-0.319-4.904-0.541-7.364-0.649c-1.698-0.075-3.41,0.195-5.112,0.158c-2.714-0.059-5.425-0.245-8.137-0.378
			C102.099,245.903,102.083,245.692,102.067,245.481z"/>
		<path fill-rule="evenodd" clip-rule="evenodd" fill="#FFFFFF" d="M112.526,255.473c3-0.157,6.001-0.308,9.001-0.473
			c3.179-0.175,4.967,1.987,3.99,5.033c-0.915,2.853-1.95,5.674-3.07,8.452c-1.562,3.873-2.817,4.717-6.408,1.307
			c-0.912-0.865-1.52-2.048-2.288-3.069c-0.264-0.352-0.552-0.703-0.894-0.976c-2.609-2.079-5.278-4.087-7.829-6.236
			c-0.825-0.693-1.542-1.661-1.96-2.65c-0.438-1.037,0.324-1.545,1.37-1.545c2.694-0.002,5.388-0.001,8.081-0.001
			C112.521,255.367,112.523,255.42,112.526,255.473z"/>
		<path fill-rule="evenodd" clip-rule="evenodd" fill="#FFFFFF" d="M336.464,111.219c0.524-2.16,0.97-3.99,1.462-6.018
			c0.682,0.185,1.268,0.238,1.749,0.491c3.366,1.768,6.662,3.676,10.074,5.347c3.947,1.934,7.913,3.873,12.012,5.442
			c4.982,1.905,9.553,4.324,13.5,8.499c-1.035,0.125-1.819,0.279-2.608,0.307c-4.108,0.142-8.229,0.121-12.324,0.421
			c-2.374,0.174-3.907-0.583-5.271-2.519c-2.229-3.162-4.811-6.074-7.075-9.213c-1.538-2.132-3.655-2.647-6.011-2.744
			C340.224,111.161,338.469,111.219,336.464,111.219z"/>
		<path fill-rule="evenodd" clip-rule="evenodd" fill="#FFFFFF" d="M94.391,263.98c6.088,5.149,12.009,10.156,18.163,15.361
			c-5.042,4.059-10.174,6.596-15.958,7.761C94.884,283.879,92.96,267.102,94.391,263.98z"/>
		<path fill-rule="evenodd" clip-rule="evenodd" fill="#FFFFFF" d="M105.006,197.09c0.42-1.891-0.384-2.333-1.891-2.238
			c-0.829,0.053-1.823,0.017-2.478-0.397c-0.701-0.442-1.537-1.378-1.537-2.098c0-2.604,0.411-5.205,0.495-7.813
			c0.045-1.407,0.444-2.027,1.941-1.99c2.499,0.062,5.001-0.055,7.502-0.055c0.501,0,1.431,0.152,1.44,0.285
			c0.166,2.382,2.697,2.277,3.791,3.68c1.168,1.499,2.588,2.798,3.821,4.25c1.427,1.679,1.085,3.009-0.688,4.216
			c-0.397,0.27-0.231,1.367-0.334,2.161C113.437,197.09,109.382,197.09,105.006,197.09z"/>
		<path fill-rule="evenodd" clip-rule="evenodd" fill="#FFFFFF" d="M423.909,262.358c-1.126-0.902-2.004-1.595-2.868-2.304
			c-0.804-0.66-1.686-1.256-2.371-2.024c-1.943-2.179-3.683-4.556-5.768-6.58c-0.646-0.628-1.943-0.57-2.582-1.657
			c-0.747-1.272-1.745-2.398-2.636-3.589c1.927-1.281,5.053-0.802,6.379,0.667c0.236,0.263,1.24,0.198,1.601-0.085
			c1.334-1.047,2.578-1.443,4.087-0.332c0.359,0.265,1.014,0.161,1.532,0.171c2.501,0.043,5.001,0.086,7.501,0.091
			c1.312,0.002,2.085,0.521,1.768,1.901c-0.53,2.308-1.062,4.626-1.799,6.872c-0.59,1.799-1.292,3.623-2.319,5.191
			C425.847,261.577,424.51,261.982,423.909,262.358z"/>
		<path fill-rule="evenodd" clip-rule="evenodd" fill="#FFFFFF" d="M69.848,281.926c0.695-1.102,1.222-1.934,1.746-2.768
			c0.465-0.74,0.926-1.482,1.543-2.474c3.264-3.857,6.66-7.87,10.319-12.194c1.031,7.908,2.008,15.411,3.047,23.386
			C80.042,287.178,74.598,285.352,69.848,281.926z"/>
		<path fill-rule="evenodd" clip-rule="evenodd" fill="#FFFFFF" d="M63.068,275.799c-3.284-4.313-5.619-8.496-6.671-13.302
			c-0.381-1.742,1.304-3.421,3.229-3.701c2.095-0.306,4.142-0.94,6.237-1.241c3.27-0.47,6.562-0.779,10.421-1.222
			C71.736,263.031,67.495,269.277,63.068,275.799z"/>
		<path fill-rule="evenodd" clip-rule="evenodd" fill="#FFFFFF" d="M330.716,93.666c-2.017-0.894-4.04-1.806-6.077-2.687
			c-1.103-0.477-1.497-1.23-1.481-2.467c0.032-2.464-0.317-4.94-0.188-7.395c0.193-3.681,0.632-7.351,1.061-11.014
			c0.048-0.407,0.736-1.068,1.079-1.04c0.664,0.056,1.613,0.345,1.886,0.843c1.42,2.588,2.694,5.258,3.956,7.929
			c0.673,1.425,1.1,2.973,1.844,4.354c1.466,2.721,1.263,5.491,0.257,8.197C332.606,91.583,331.538,92.547,330.716,93.666z"/>
		<path fill-rule="evenodd" clip-rule="evenodd" fill="#FFFFFF" d="M110.634,223.192c-5.557,5.092-10.964,10.046-16.524,15.14
			c0-3.586,0.328-7.047-0.092-10.414c-0.42-3.365,1.699-5.991,1.656-9.216c-0.1-0.053-0.417-0.216-0.736-0.381
			C95.812,216.687,106.765,220.025,110.634,223.192z"/>
		<path fill-rule="evenodd" clip-rule="evenodd" fill="#FFFFFF" d="M426.532,226.565c-0.3-0.957-0.599-1.914-0.898-2.871
			c0.157-0.116,0.314-0.232,0.472-0.349c0.662,0.835,1.625,1.571,1.933,2.521c0.968,2.987,1.715,6.048,2.492,9.094
			c0.257,1.005,0.106,1.822-1.328,1.298c-0.048,0.782-0.092,1.497-0.139,2.249c-6.187-0.627-12.338-1.251-18.516-1.877
			c-0.559-1.664-0.911-3.456,1.572-4.037c0.772-0.182,1.661,0.136,2.593,0.235c-0.324-1.686,1.072-2.507,2.674-3.372
			c1.363-0.737,2.58-1.787,3.756-2.82C423.229,224.801,424.093,224.763,426.532,226.565z"/>
		<path fill-rule="evenodd" clip-rule="evenodd" fill="#FFFFFF" d="M415.985,269.771c-3.409,2.333-7.709,3.905-12.518,4.48
			c-1.076-3.572-2.426-6.96-1.911-10.487c-0.536-0.875-1.264-1.614-1.462-2.476c-0.492-2.146-0.782-4.342-1.063-6.529
			c-0.064-0.507,0.232-1.06,0.364-1.591c0.508,0.188,1.167,0.232,1.502,0.585C405.915,259.029,410.891,264.346,415.985,269.771z"/>
		<path fill-rule="evenodd" clip-rule="evenodd" fill="#FFFFFF" d="M56.008,248.347c0.688-5.307,2.827-10.058,5.778-14.516
			c5.377,3.282,14.019,11.562,14.035,13.834C69.28,247.891,62.726,248.115,56.008,248.347z"/>
		<path fill-rule="evenodd" clip-rule="evenodd" fill="#FFFFFF" d="M378.965,118.816c5.353-0.197,10.706-0.554,16.059-0.54
			c4.056,0.011,6.696,2.562,8.521,5.947c0.46,0.854,0.481,1.945,0.841,3.533c-2.078-0.409-3.627-0.712-5.173-1.021
			c-0.3-0.06-0.591-0.199-0.89-0.212c-4.582-0.199-9.164-0.396-13.747-0.562c-1.041-0.038-1.604-0.296-1.848-1.514
			c-0.199-1.002-0.98-1.934-1.648-2.782c-0.64-0.813-1.465-1.48-2.209-2.211C378.902,119.241,378.934,119.029,378.965,118.816z"/>
		<path fill-rule="evenodd" clip-rule="evenodd" fill="#FFFFFF" d="M383.603,263.659c0.514-1.362,0.713-2.33,1.205-3.113
			c1.26-2.003,2.634-3.935,3.997-5.87c0.355-0.504,0.838-0.918,1.253-1.364c1.509,7.024,2.983,13.89,4.458,20.754
			c-4.146,0.858-14.313-4.134-13.895-7.212C383.676,267.78,381.976,263.608,383.603,263.659z"/>
		<path fill-rule="evenodd" clip-rule="evenodd" fill="#FFFFFF" d="M69.199,225.966c3.8-3.444,8.464-5.663,14.041-7.218
			c0,6.61,0,12.902,0,19.193c-0.18,0.047-0.359,0.093-0.54,0.14C78.258,234.096,73.817,230.11,69.199,225.966z"/>
		<path fill-rule="evenodd" clip-rule="evenodd" fill="#FFFFFF" d="M410.398,222.24c-0.218-0.461-0.369-0.782-0.348-0.737
			c-2.676,1.529-5.333,3.049-7.991,4.568c-0.173-0.052-0.346-0.104-0.518-0.156c0.549-2.023,1.093-4.049,1.664-6.066
			c0.039-0.141,0.389-0.193,0.43-0.335c0.694-2.411,0.688-2.412,3.317-2.441c-0.986-0.753-1.593-1.214-1.846-1.408
			c0.534-1.826,1.078-3.687,1.794-6.137c1.317,0.284,3.246,0.539,5.06,1.142c1.569,0.521,3.172,1.229,4.45,2.244
			c0.995,0.79,2.238,2.32,2.054,3.265c-0.211,1.078-1.835,1.932-2.935,2.764c-0.652,0.494-1.522,0.689-2.216,1.141
			C412.328,220.725,411.415,221.479,410.398,222.24z"/>
		<path fill-rule="evenodd" clip-rule="evenodd" fill="#FFFFFF" d="M294.376,85.017c1.571,0.561,2.699,0.859,3.732,1.354
			c2.251,1.08,4.457,2.255,6.677,3.401c1.133,0.585,1.732,1.166,1.316,2.77c-0.609,2.354-0.601,4.862-0.937,7.294
			c-0.077,0.553-0.485,1.059-0.74,1.587c-0.253-0.082-0.505-0.165-0.759-0.247c0.193-1.615,0.387-3.229,0.58-4.844
			c-0.113-0.026-0.226-0.051-0.339-0.076c-0.315,1.103-0.74,2.188-0.918,3.312c-0.223,1.415-0.888,1.943-2.337,2.016
			c-3.796,0.188-3.777,0.255-4.33-3.528c-0.2-1.363-0.535-2.708-0.733-4.072C295.179,91.153,294.819,88.317,294.376,85.017z"/>
		<path fill-rule="evenodd" clip-rule="evenodd" fill="#FFFFFF" d="M384.347,245.526c-3.2,4.633-6.399,9.266-9.789,14.174
			c-2.535-4.338-3.858-8.823-4.481-13.893c4.661-0.36,9.153-0.708,13.645-1.055C383.93,245.011,384.138,245.269,384.347,245.526z"/>
		<path fill-rule="evenodd" clip-rule="evenodd" fill="#FFFFFF" d="M384.715,236.008c-4.92,0-9.321,0-13.989,0
			c0.689-4.824,2.868-9.345,5.875-13.729C379.252,226.767,381.786,231.053,384.715,236.008z"/>
		<path fill-rule="evenodd" clip-rule="evenodd" fill="#FFFFFF" d="M395.67,210.058c-1.489,5.714-2.966,11.377-4.493,17.237
			c-0.536-0.845-1.035-1.64-1.542-2.429c-1.417-2.207-2.901-4.375-4.209-6.645c-0.315-0.549-0.047-1.433-0.047-2.265
			c-0.615,0-1.295,0-1.995,0C385.3,212.887,391.048,210.199,395.67,210.058z"/>
		<path fill-rule="evenodd" clip-rule="evenodd" fill="#FFFFFF" d="M184.992,132.737c1.438,0,2.955-0.288,4.291,0.082
			c1.286,0.355,2.595,1.191,3.52,2.17c1.783,1.886,3.366,3.975,4.895,6.079c0.518,0.712,0.621,1.724,0.913,2.599
			c-0.844,0.17-1.681,0.443-2.532,0.491c-3.495,0.196-5.755-1.993-8.049-4.186c-1.414-1.351-3.073-2.447-4.467-3.815
			c-0.597-0.586-1.287-1.768-1.062-2.328c0.298-0.743,1.451-1.144,2.236-1.691C184.821,132.337,184.906,132.537,184.992,132.737z"/>
		<path fill-rule="evenodd" clip-rule="evenodd" fill="#FFFFFF" d="M221.747,144.433c-1.571,0.152-2.619-0.611-3.363-2.061
			c-1.189-2.319-2.566-4.546-3.691-6.895c-0.438-0.915-0.405-2.055-0.588-3.092c1.067,0.004,2.142-0.062,3.201,0.027
			c1.654,0.141,3.313,0.316,4.941,0.629c0.486,0.094,1.125,0.618,1.267,1.077c0.595,1.919,0.923,3.922,1.542,5.832
			C226.185,143.436,225.517,144.429,221.747,144.433z"/>
		<path fill-rule="evenodd" clip-rule="evenodd" fill="#FFFFFF" d="M238.329,137.535c0.043,0.646,0.103,1.756,0.192,2.863
			c0.158,1.962-0.613,3.123-2.348,3.498c-2.642,0.57-4.526-0.102-5.123-1.987c-0.689-2.179-1.297-4.389-1.804-6.616
			c-0.422-1.853,0.354-2.85,2.25-3.156c0.514-0.084,1.044-0.096,1.566-0.098C237.225,132.026,238.723,131.745,238.329,137.535z"/>
		<path fill-rule="evenodd" clip-rule="evenodd" fill="#FFFFFF" d="M203.06,131.935c2.466,0.251,4.488,0.859,5.589,3.37
			c0.935,2.133,2.359,4.049,3.328,6.17c0.329,0.719,0.149,2.441-0.181,2.551c-1.127,0.373-2.719,0.728-3.605,0.201
			c-3.783-2.244-5.461-6.385-8.01-9.74c-0.25-0.328,0.354-1.625,0.887-2.128C201.505,131.946,202.426,132.048,203.06,131.935z"/>
		<path fill-rule="evenodd" clip-rule="evenodd" fill="#FFFFFF" d="M403.056,190.007c3.219-8.237,4.764-16.939,8.736-24.765
			c0.323,0.079,0.646,0.158,0.97,0.237c-0.452,2.497-0.842,5.009-1.371,7.49c-1.037,4.868-2.209,9.708-3.218,14.582
			C407.441,191.091,406.803,191.5,403.056,190.007z"/>
		<path fill-rule="evenodd" clip-rule="evenodd" fill="#FFFFFF" d="M329.988,101.896c-0.333,2.847-0.563,5.25-0.938,7.631
			c-0.07,0.451-0.658,1.086-1.097,1.171c-1.921,0.367-3.87,0.643-5.819,0.761c-0.446,0.026-1.3-0.667-1.348-1.097
			c-0.212-1.949-0.3-3.929-0.209-5.887c0.023-0.518,0.752-1.255,1.31-1.446c1.595-0.546,3.25-0.974,4.915-1.231
			C327.867,101.633,328.991,101.853,329.988,101.896z"/>
		<path fill-rule="evenodd" clip-rule="evenodd" fill="#FFFFFF" d="M83.813,184.692c-1.429-0.397-2.867-0.763-4.282-1.202
			c-1.349-0.419-1.686-1.293-1.082-2.592c1.262-2.712,2.414-5.477,3.75-8.15c0.946-1.894,2.121-3.672,3.258-5.61
			c1.328,0.415,2.377,0.82,1.686,2.923c-1.302,3.963-2.28,8.034-3.311,12.081c-0.209,0.824-0.059,1.739-0.074,2.612L83.813,184.692z
			"/>
		<path fill-rule="evenodd" clip-rule="evenodd" fill="#FFFFFF" d="M83.758,184.754c1.062-1.889,2.128-3.775,3.181-5.669
			c0.126-0.226,0.106-0.576,0.278-0.722c0.309-0.261,0.712-0.408,1.077-0.604c0,0.404,0,0.808,0,1.336
			c2.422-0.021,4.976,0.138,6.591,2.911c-2.96-1.077-5.812-1.498-8.512,0.607c2.991,0.007,6.066-0.486,8.683,1.744
			c-2.242-0.16-4.343-0.524-6.417-0.406c-2.638,0.149-4.09,1.694-3.996,3.908c3.177-0.794,6.365-1.427,9.6,0.668
			c-2.374,0-4.498-0.226-6.551,0.055c-2.886,0.394-4.27,1.995-3.938,4.234c2.875-0.925,5.78-1.527,8.669,0.162
			c-3.67-0.277-7.185-0.095-9.801,3.12c-0.129-0.118-0.257-0.236-0.386-0.354c0.526-3.687,1.053-7.372,1.579-11.056
			C83.813,184.692,83.758,184.754,83.758,184.754z"/>
		<path fill-rule="evenodd" clip-rule="evenodd" fill="#FFFFFF" d="M284.109,95.571c-0.63-0.575-1.445-0.98-1.437-1.365
			c0.09-3.778,0.315-7.555,0.503-11.331c0.273-0.075,0.547-0.15,0.82-0.225c1.157,2.557,2.388,5.084,3.406,7.695
			c0.189,0.487-0.529,1.287-0.726,1.972c-0.658,2.303-1.334,4.606-1.877,6.938c-0.417,1.783-0.586,3.625-0.997,5.411
			c-0.092,0.399-0.735,0.672-1.125,1.003c-0.094-0.134-0.188-0.268-0.283-0.401c-0.52,1.552-1.04,3.104-1.742,5.2
			c0-2.827-0.018-5.116,0.021-7.404c0.005-0.28,0.261-0.75,0.478-0.801c2.604-0.614,2.317-2.8,2.61-4.678
			C283.882,96.815,284.026,96.049,284.109,95.571z"/>
		<path fill-rule="evenodd" clip-rule="evenodd" fill="#FFFFFF" d="M250.959,131.365c0.589,0.317,1.391,0.507,1.688,1.001
			c0.178,0.295-0.331,1.148-0.706,1.609c-1.975,2.428-3.982,4.832-6.038,7.191c-0.374,0.429-1.027,0.612-1.552,0.909
			c-0.29-0.533-0.792-1.052-0.832-1.603c-0.15-2.088-0.322-4.203-0.119-6.272c0.076-0.778,1.053-1.933,1.795-2.09
			c1.829-0.389,3.76-0.299,5.649-0.401C250.883,131.595,250.921,131.48,250.959,131.365z"/>
		<path fill-rule="evenodd" clip-rule="evenodd" fill="#FFFFFF" d="M301.728,110.737c-0.036,0.456-0.093,0.911-0.103,1.368
			c-0.044,2.033-0.584,2.562-2.656,2.324c-0.401-0.046-1.013-0.596-1.062-0.973c-0.223-1.744-0.319-3.508-0.391-5.268
			c-0.093-2.319,1.772-1.57,2.958-1.774c1.432-0.246,1.363,0.885,1.383,1.779c0.019,0.846-0.097,1.694-0.153,2.541
			C301.711,110.736,301.72,110.737,301.728,110.737z"/>
		<path fill-rule="evenodd" clip-rule="evenodd" fill="#FFFFFF" d="M72.007,180.389c0.506-0.976,1.135-1.909,1.487-2.938
			c0.425-1.242,0.549-2.583,0.926-3.846c0.396-1.323,0.935-2.604,1.811-3.784c1.567,3.862-1.557,6.634-2.314,9.938
			c-0.113,0.49-0.898,0.827-1.373,1.235C72.365,180.793,72.186,180.591,72.007,180.389z"/>
		<path fill-rule="evenodd" clip-rule="evenodd" fill="#FFFFFF" d="M99.686,172.506c-3.52-1.402-4.202-3.072-2.418-5.92
			C98.91,167.819,100.163,170.885,99.686,172.506z"/>
		<path fill-rule="evenodd" clip-rule="evenodd" fill="#FFFFFF" d="M375.373,126.903c0.884,2.993-1.469,2.654-3.063,3.805
			c-0.253-1.217-0.442-2.128-0.633-3.039C372.911,127.413,374.146,127.157,375.373,126.903z"/>
		<path fill-rule="evenodd" clip-rule="evenodd" fill="#FFFFFF" d="M68.636,192.037c-1.517-1.172-0.707-4.14,1.719-6.294
			C71.354,186.977,71.087,187.953,68.636,192.037z"/>
		<path fill-rule="evenodd" clip-rule="evenodd" fill="#FFFFFF" d="M99.161,177.966c0,1.202,0.177,2.217-0.069,3.115
			c-0.137,0.501-0.978,0.809-1.501,1.204c-0.365-0.548-1.039-1.097-1.038-1.644C96.556,179.099,97.114,177.831,99.161,177.966z"/>
		<path fill-rule="evenodd" clip-rule="evenodd" fill="#FFFFFF" d="M97.789,183.589c0.265,0.869,0.529,1.739,0.793,2.609
			c-0.177,0.134-0.354,0.268-0.53,0.401c-0.566-0.503-1.336-0.914-1.622-1.544c-0.172-0.379,0.408-1.101,0.65-1.668
			C97.317,183.455,97.553,183.521,97.789,183.589z"/>
		<path fill-rule="evenodd" clip-rule="evenodd" fill="#FFFFFF" d="M387.706,128.321c-0.584,0.361-1.162,0.996-1.752,1.008
			c-0.615,0.011-1.242-0.579-1.863-0.906c0.063-0.178,0.127-0.355,0.189-0.533c1.066,0,2.133,0,3.198,0
			C387.554,128.033,387.63,128.178,387.706,128.321z"/>
	</g>
</g>
</svg>
