<?xml version="1.0" encoding="utf-8"?>
<!-- Generator: Adobe Illustrator 16.0.0, SVG Export Plug-In . SVG Version: 6.00 Build 0)  -->
<!DOCTYPE svg PUBLIC "-//W3C//DTD SVG 1.1//EN" "http://www.w3.org/Graphics/SVG/1.1/DTD/svg11.dtd">
<svg version="1.1" id="Layer_1" xmlns="http://www.w3.org/2000/svg" xmlns:xlink="http://www.w3.org/1999/xlink" x="0px" y="0px"
	 width="72.75px" height="40.25px" viewBox="-0.649 0 72.75 40.25" enable-background="new -0.649 0 72.75 40.25"
	 xml:space="preserve">
<g>
	<path fill="#FFFFFF" d="M208.32,140.241c22.64,0,45.28,0,67.921,0c0,6.239,0,12.479,0,18.719c-3.107,0.416-6.216,0.826-9.32,1.25
		c-0.312,0.043-0.609,0.189-0.922,0.242c-0.433,0.073-0.912,0.243-1.301,0.131c-2.986-0.877-5.964-1.797-8.931-2.742
		c-0.949-0.303-1.858-0.73-3.08-1.217c0.155,1.687,0.315,3.403,0.498,5.362c-1.322-0.353-2.431-0.586-3.351-1.446
		c-2.459-2.299-4.664-4.961-8.174-5.806c-0.217-0.051-0.507-0.667-0.43-0.915c0.559-1.77-0.432-2.912-1.6-3.893
		c-1.188-1-2.846-0.797-3.912,0.302c-1.186,1.222-1.482,3.245-0.701,4.758c0.068,0.134,0.109,0.283,0.252,0.664
		c-1.35,0.679-2.67,1.358-4.012,1.997c-0.17,0.081-0.475-0.014-0.67-0.115c-1.228-0.654-2.438-1.34-3.66-2
		c-0.481-0.261-0.979-0.49-1.473-0.726c-2.252-1.075-4.506-2.147-6.759-3.222c-0.034-0.017-0.063-0.053-0.081-0.086
		c-1.029-1.908-2.785-2.062-4.652-1.91c-0.957,0.076-1.475-0.27-1.879-1.215C210.913,145.627,209.586,142.946,208.32,140.241z"/>
	<path fill="#FFCB27" d="M4.177,0.238C5.444,2.943,6.77,5.625,7.946,8.369C8.35,9.315,8.87,9.662,9.825,9.583
		c1.867-0.149,3.623,0.004,4.652,1.91c0.018,0.035,0.047,0.07,0.082,0.086c2.252,1.076,4.506,2.147,6.758,3.223
		c0.494,0.234,0.992,0.465,1.473,0.725c1.223,0.661,2.434,1.348,3.66,2c0.195,0.104,0.5,0.196,0.67,0.116
		c1.342-0.638,2.662-1.319,4.012-1.997c-0.145-0.381-0.184-0.529-0.252-0.664c-0.781-1.514-0.484-3.537,0.701-4.758
		c1.066-1.098,2.725-1.301,3.912-0.303c1.168,0.98,2.158,2.123,1.599,3.894c-0.077,0.248,0.214,0.863,0.429,0.915
		c3.512,0.844,5.717,3.508,8.174,5.807c0.922,0.858,2.027,1.096,3.352,1.446c-0.184-1.96-0.342-3.677-0.498-5.364
		c1.221,0.487,2.131,0.914,3.08,1.217c2.967,0.947,5.941,1.865,8.932,2.742c0.389,0.112,0.867-0.058,1.299-0.129
		c0.312-0.054,0.609-0.201,0.922-0.244c3.105-0.422,6.213-0.834,9.32-1.248c0,0.16,0,0.32,0,0.479
		c-0.428,0.097-0.859,0.177-1.283,0.29c-2.559,0.686-5.307,0.613-7.705,1.957c-0.299,0.168-0.77,0.027-1.159,0.035
		c-0.351,0.006-0.738-0.086-1.041,0.039c-3.646,1.506-7.484,2.549-11.085,4.504c-0.262-1.219-1.286-1.273-2.428-1.314
		c-0.485-0.018-0.967-0.471-1.438-0.746c-1.512-0.895-3.016-1.795-4.324-2.576c-1.066,1.967-1.963,3.642-2.883,5.299
		c-0.98,1.767-2.585,2.789-4.23,3.896c-2.377,1.6-4.81,1.523-7.308,0.867c-2.017-0.529-3.948-1.375-5.925-2.061
		c-0.809-0.277-1.625-0.553-2.46-0.729c-0.36-0.074-0.776,0.105-1.276,0.188c0.18,0.41,0.266,0.627,0.369,0.836
		c1.139,2.287,2.27,4.576,3.426,6.855c0.43,0.846,0.389,1.356-0.67,1.67c-0.822,0.239-1.562,0.758-2.34,1.149
		c-0.32,0-0.641,0-0.96,0c-0.718-0.675-1.526-1.274-2.14-2.037c-4.68-5.819-7.941-12.444-10.52-19.386
		C2.948,13.402,1.625,8.46,0.1,3.596c0-0.72,0-1.44,0-2.16c1.041-0.399,2.08-0.8,3.12-1.2C3.538,0.238,3.858,0.238,4.177,0.238z
		 M10.723,13.225c-0.115,0.14-0.229,0.278-0.344,0.417c1.077,2.393,2.139,4.794,3.238,7.178c0.496,1.069,0.779,2.174,2.557,1.977
		c1.646-0.184,3.003-0.654,4.271-1.516c-0.36-0.785-1.01-1.506-0.892-2.064c0.38-1.799-1.05-1.971-2.01-2.555
		c-1.112-0.678-2.258-1.305-3.422-1.889C13.01,14.214,11.858,13.738,10.723,13.225z M49.821,18.113
		c-0.051,2.137,0.08,2.508,1.246,4.471c0.188,0.315,0.145,0.768,0.213,1.154c0.045,0.256,0.102,0.512,0.186,0.932
		c2.881-1.111,5.648-2.18,8.418-3.246c-0.018-0.131-0.033-0.26-0.053-0.391C56.526,20.07,53.223,19.105,49.821,18.113z
		 M25.077,26.078c-0.619-0.668-1.16-1.299-1.754-1.873c-0.205-0.197-0.572-0.398-0.813-0.351c-1.01,0.211-2,0.517-3.308,0.869
		C21.307,25.283,22.634,27.447,25.077,26.078z"/>
	<path fill="#FFFFFF" d="M222.48,179.6c0.776-0.395,1.519-0.91,2.339-1.15c1.061-0.312,1.102-0.824,0.672-1.67
		c-1.156-2.277-2.289-4.566-3.427-6.854c-0.104-0.209-0.188-0.428-0.369-0.836c0.5-0.082,0.915-0.264,1.276-0.188
		c0.835,0.177,1.652,0.451,2.46,0.729c1.978,0.685,3.909,1.527,5.925,2.06c2.499,0.656,4.932,0.729,7.309-0.868
		c1.645-1.105,3.25-2.132,4.229-3.896c0.92-1.656,1.813-3.331,2.883-5.297c1.31,0.779,2.813,1.684,4.324,2.574
		c0.471,0.276,0.948,0.729,1.438,0.748c1.141,0.039,2.164,0.096,2.426,1.313c3.602-1.955,7.439-2.998,11.086-4.503
		c0.303-0.125,0.691-0.034,1.041-0.04c0.391-0.007,0.859,0.133,1.16-0.035c2.397-1.345,5.146-1.271,7.705-1.957
		c0.422-0.112,0.854-0.194,1.283-0.29c0,6.709,0,13.418,0,20.161C258.32,179.6,240.4,179.6,222.48,179.6z"/>
	<path fill="#FFFFFF" d="M204.241,143.6c1.523,4.865,2.848,9.804,4.62,14.576c2.578,6.939,5.841,13.566,10.521,19.387
		c0.611,0.762,1.42,1.361,2.139,2.037c-5.747,0-11.494,0-17.279,0C204.241,167.6,204.241,155.6,204.241,143.6z"/>
	<path fill="#FFFFFF" d="M207.36,140.241c-1.04,0.399-2.08,0.799-3.119,1.199c0-0.4,0-0.8,0-1.199
		C205.28,140.241,206.32,140.241,207.36,140.241z"/>
	<path fill="#FFFFFF" d="M214.866,153.228c1.135,0.513,2.287,0.989,3.398,1.547c1.164,0.584,2.311,1.211,3.422,1.888
		c0.96,0.584,2.391,0.756,2.01,2.555c-0.117,0.56,0.531,1.281,0.893,2.064c-1.27,0.86-2.627,1.332-4.272,1.516
		c-1.776,0.199-2.062-0.904-2.556-1.978c-1.102-2.381-2.162-4.782-3.239-7.176C214.637,153.506,214.75,153.368,214.866,153.228z"/>
	<path fill="#FFFFFF" d="M253.963,158.116c3.402,0.992,6.705,1.957,10.01,2.92c0.02,0.131,0.035,0.26,0.053,0.391
		c-2.77,1.066-5.537,2.135-8.418,3.246c-0.084-0.42-0.141-0.676-0.186-0.932c-0.068-0.388-0.025-0.839-0.213-1.154
		C254.043,160.624,253.913,160.252,253.963,158.116z"/>
	<path fill="#FFFFFF" d="M229.219,166.081c-2.442,1.369-3.771-0.795-5.875-1.354c1.307-0.354,2.297-0.658,3.307-0.867
		c0.241-0.051,0.609,0.15,0.812,0.35C228.06,164.782,228.601,165.413,229.219,166.081z"/>
</g>
</svg>
