<?xml version="1.0" encoding="utf-8"?>
<!-- Generator: Adobe Illustrator 16.0.0, SVG Export Plug-In . SVG Version: 6.00 Build 0)  -->
<!DOCTYPE svg PUBLIC "-//W3C//DTD SVG 1.1//EN" "http://www.w3.org/Graphics/SVG/1.1/DTD/svg11.dtd">
<svg version="1.1" id="Layer_1" xmlns="http://www.w3.org/2000/svg" xmlns:xlink="http://www.w3.org/1999/xlink" x="0px" y="0px"
	 width="480px" height="320px" viewBox="0 0 480 320" enable-background="new 0 0 480 320" xml:space="preserve">
<g>
	<g>
		<path fill="#FFFFFF" d="M208.32,140.24c22.64,0,45.28,0,67.92,0c0,6.24,0,12.48,0,18.72c-3.107,0.415-6.215,0.826-9.32,1.249
			c-0.312,0.043-0.609,0.19-0.922,0.243c-0.432,0.073-0.911,0.243-1.3,0.13c-2.987-0.877-5.963-1.796-8.93-2.742
			c-0.95-0.303-1.86-0.73-3.081-1.217c0.157,1.687,0.316,3.404,0.499,5.364c-1.323-0.352-2.43-0.587-3.351-1.447
			c-2.458-2.299-4.663-4.962-8.174-5.806c-0.215-0.051-0.506-0.667-0.428-0.915c0.558-1.77-0.432-2.913-1.599-3.893
			c-1.188-0.999-2.846-0.796-3.913,0.302c-1.186,1.221-1.482,3.245-0.701,4.758c0.069,0.134,0.109,0.283,0.252,0.664
			c-1.349,0.678-2.67,1.359-4.012,1.997c-0.169,0.081-0.475-0.013-0.669-0.116c-1.228-0.654-2.438-1.339-3.661-2
			c-0.481-0.26-0.979-0.489-1.473-0.725c-2.252-1.075-4.506-2.147-6.758-3.222c-0.034-0.016-0.064-0.053-0.082-0.086
			c-1.028-1.907-2.784-2.061-4.651-1.91c-0.957,0.077-1.475-0.269-1.88-1.215C210.912,145.627,209.586,142.946,208.32,140.24z"/>
		<path fill-rule="evenodd" clip-rule="evenodd" d="M208.32,140.24c1.267,2.706,2.592,5.387,3.768,8.132
			c0.405,0.946,0.924,1.292,1.88,1.215c1.867-0.15,3.623,0.003,4.651,1.91c0.018,0.034,0.048,0.07,0.082,0.086
			c2.252,1.075,4.506,2.147,6.758,3.222c0.494,0.235,0.992,0.465,1.473,0.725c1.223,0.661,2.433,1.347,3.661,2
			c0.194,0.103,0.5,0.196,0.669,0.116c1.342-0.638,2.663-1.319,4.012-1.997c-0.144-0.381-0.184-0.53-0.252-0.664
			c-0.781-1.514-0.485-3.538,0.701-4.758c1.067-1.098,2.724-1.301,3.913-0.302c1.167,0.98,2.157,2.123,1.599,3.893
			c-0.078,0.248,0.213,0.863,0.428,0.915c3.511,0.844,5.716,3.507,8.174,5.806c0.921,0.86,2.027,1.096,3.351,1.447
			c-0.183-1.96-0.342-3.677-0.499-5.364c1.221,0.487,2.131,0.914,3.081,1.217c2.967,0.946,5.942,1.865,8.93,2.742
			c0.389,0.113,0.868-0.057,1.3-0.13c0.312-0.053,0.609-0.2,0.922-0.243c3.105-0.423,6.213-0.834,9.32-1.249c0,0.16,0,0.32,0,0.48
			c-0.428,0.096-0.86,0.177-1.283,0.29c-2.558,0.685-5.306,0.613-7.705,1.957c-0.3,0.168-0.77,0.028-1.16,0.035
			c-0.35,0.005-0.739-0.085-1.041,0.04c-3.646,1.504-7.484,2.548-11.085,4.503c-0.262-1.219-1.287-1.275-2.427-1.315
			c-0.487-0.017-0.967-0.47-1.438-0.747c-1.51-0.893-3.015-1.795-4.324-2.575c-1.067,1.966-1.962,3.64-2.883,5.298
			c-0.98,1.766-2.585,2.79-4.23,3.896c-2.377,1.6-4.81,1.525-7.308,0.868c-2.016-0.53-3.948-1.374-5.925-2.059
			c-0.809-0.279-1.625-0.554-2.46-0.729c-0.361-0.076-0.776,0.105-1.276,0.188c0.18,0.409,0.265,0.627,0.369,0.836
			c1.139,2.286,2.27,4.576,3.426,6.854c0.43,0.846,0.389,1.358-0.671,1.67c-0.821,0.241-1.562,0.758-2.339,1.151
			c-0.32,0-0.64,0-0.96,0c-0.718-0.675-1.527-1.276-2.139-2.037c-4.68-5.82-7.942-12.446-10.52-19.386
			c-1.773-4.772-3.097-9.712-4.621-14.577c0-0.72,0-1.44,0-2.16c1.04-0.4,2.08-0.8,3.12-1.2C207.68,140.24,208,140.24,208.32,140.24
			z M214.866,153.228c-0.115,0.139-0.229,0.278-0.344,0.417c1.077,2.393,2.138,4.794,3.239,7.177
			c0.495,1.071,0.779,2.175,2.556,1.977c1.646-0.184,3.003-0.655,4.272-1.516c-0.361-0.784-1.01-1.505-0.892-2.064
			c0.379-1.798-1.05-1.971-2.01-2.555c-1.112-0.677-2.258-1.304-3.422-1.888C217.153,154.217,216,153.74,214.866,153.228z
			 M253.963,158.116c-0.051,2.136,0.08,2.507,1.247,4.471c0.187,0.315,0.144,0.767,0.212,1.154c0.045,0.256,0.101,0.511,0.185,0.931
			c2.882-1.111,5.65-2.179,8.418-3.246c-0.017-0.13-0.034-0.26-0.052-0.39C260.669,160.072,257.365,159.108,253.963,158.116z
			 M229.219,166.081c-0.619-0.669-1.16-1.3-1.754-1.874c-0.204-0.196-0.572-0.398-0.813-0.349c-1.01,0.21-2,0.515-3.307,0.868
			C225.449,165.286,226.777,167.449,229.219,166.081z"/>
		<path fill-rule="evenodd" clip-rule="evenodd" fill="#FFFFFF" d="M222.48,179.6c0.777-0.394,1.518-0.91,2.339-1.151
			c1.06-0.312,1.101-0.824,0.671-1.67c-1.156-2.277-2.288-4.567-3.426-6.854c-0.104-0.209-0.189-0.427-0.369-0.836
			c0.5-0.082,0.915-0.264,1.276-0.188c0.835,0.176,1.652,0.45,2.46,0.729c1.977,0.685,3.91,1.528,5.925,2.059
			c2.499,0.657,4.931,0.731,7.308-0.868c1.645-1.106,3.25-2.131,4.23-3.896c0.921-1.658,1.815-3.332,2.883-5.298
			c1.31,0.78,2.814,1.683,4.324,2.575c0.471,0.277,0.95,0.73,1.438,0.747c1.14,0.04,2.165,0.097,2.427,1.315
			c3.601-1.955,7.439-2.999,11.085-4.503c0.302-0.125,0.691-0.035,1.041-0.04c0.391-0.007,0.86,0.133,1.16-0.035
			c2.399-1.344,5.147-1.272,7.705-1.957c0.423-0.113,0.855-0.194,1.283-0.29c0,6.709,0,13.418,0,20.16
			C258.32,179.6,240.4,179.6,222.48,179.6z"/>
		<path fill-rule="evenodd" clip-rule="evenodd" fill="#FFFFFF" d="M204.24,143.6c1.524,4.865,2.848,9.804,4.621,14.577
			c2.578,6.939,5.84,13.565,10.52,19.386c0.611,0.761,1.421,1.362,2.139,2.037c-5.747,0-11.494,0-17.28,0
			C204.24,167.6,204.24,155.6,204.24,143.6z"/>
		<path fill-rule="evenodd" clip-rule="evenodd" fill="#FFFFFF" d="M207.36,140.24c-1.04,0.4-2.08,0.8-3.12,1.2c0-0.4,0-0.8,0-1.2
			C205.28,140.24,206.32,140.24,207.36,140.24z"/>
		<path fill-rule="evenodd" clip-rule="evenodd" fill="#FFFFFF" d="M214.866,153.228c1.134,0.512,2.287,0.989,3.398,1.547
			c1.164,0.584,2.31,1.211,3.422,1.888c0.96,0.583,2.39,0.756,2.01,2.555c-0.118,0.559,0.531,1.28,0.892,2.064
			c-1.269,0.86-2.626,1.332-4.272,1.516c-1.777,0.198-2.061-0.905-2.556-1.977c-1.101-2.382-2.162-4.784-3.239-7.177
			C214.637,153.506,214.751,153.367,214.866,153.228z"/>
		<path fill-rule="evenodd" clip-rule="evenodd" fill="#FFFFFF" d="M253.963,158.116c3.402,0.992,6.706,1.957,10.01,2.92
			c0.018,0.13,0.035,0.26,0.052,0.39c-2.768,1.067-5.536,2.135-8.418,3.246c-0.084-0.42-0.14-0.675-0.185-0.931
			c-0.068-0.388-0.025-0.839-0.212-1.154C254.043,160.623,253.912,160.252,253.963,158.116z"/>
		<path fill-rule="evenodd" clip-rule="evenodd" fill="#FFFFFF" d="M229.219,166.081c-2.442,1.368-3.771-0.795-5.875-1.354
			c1.307-0.354,2.297-0.658,3.307-0.868c0.241-0.05,0.61,0.152,0.813,0.349C228.06,164.781,228.601,165.412,229.219,166.081z"/>
	</g>
</g>
</svg>
