<?xml version="1.0" encoding="utf-8"?>
<!-- Generator: Adobe Illustrator 16.0.0, SVG Export Plug-In . SVG Version: 6.00 Build 0)  -->
<!DOCTYPE svg PUBLIC "-//W3C//DTD SVG 1.1//EN" "http://www.w3.org/Graphics/SVG/1.1/DTD/svg11.dtd">
<svg version="1.1" id="Layer_1" xmlns="http://www.w3.org/2000/svg" xmlns:xlink="http://www.w3.org/1999/xlink" x="0px" y="0px"
	 width="447.268px" height="313px" viewBox="0 0 447.268 313" style="enable-background:new 0 0 447.268 313;" xml:space="preserve"
	>
<path style="fill-rule:evenodd;clip-rule:evenodd;" d="M167.261,126.954c25.75,42.859,86.378,42.919,112.429-0.282
	c13.138,20.375,31.387,32.067,55.83,32.065c24.453-0.001,42.805-11.519,56.098-32.329c13.014,20.771,31.469,31.562,55.65,32.646
	c0,10.53,0,20.784,0,31.485c-10.924,0.18-21.391-1.512-31.311-5.4c-7.237-2.837-14.119-6.645-20.967-10.373
	c-2.438-1.327-3.994-1.714-6.591-0.116c-34.915,21.488-70.026,21.565-105.097,0.366c-2.639-1.595-4.311-1.681-7.008-0.024
	c-35.114,21.567-70.383,21.544-105.544,0.12c-2.694-1.643-4.334-1.63-6.997-0.022c-34.905,21.059-69.879,21.034-104.682-0.249
	c-2.678-1.638-4.386-1.677-6.996,0.046C36.41,185.228,19.126,190.388,0,190.643c0-10.534,0-20.79,0-31.523
	c23.773-1.166,42.408-11.67,55.492-32.688c13.225,20.433,31.412,32.233,55.833,32.311
	C135.653,158.817,153.914,147.449,167.261,126.954z"/>
</svg>
