<?xml version="1.0" encoding="utf-8"?>
<!-- Generator: Adobe Illustrator 16.0.0, SVG Export Plug-In . SVG Version: 6.00 Build 0)  -->
<!DOCTYPE svg PUBLIC "-//W3C//DTD SVG 1.1//EN" "http://www.w3.org/Graphics/SVG/1.1/DTD/svg11.dtd">
<svg version="1.1" id="Layer_1" xmlns="http://www.w3.org/2000/svg" xmlns:xlink="http://www.w3.org/1999/xlink" x="0px" y="0px"
	 width="447.268px" height="313px" viewBox="0 0 447.268 313" enable-background="new 0 0 447.268 313" xml:space="preserve">
<path fill="#FFCB27" d="M167.261,126.954c25.75,42.858,86.379,42.919,112.43-0.282c13.138,20.375,31.387,32.067,55.83,32.064
	c24.453,0,42.805-11.519,56.098-32.328c13.014,20.771,31.469,31.562,55.649,32.646c0,10.529,0,20.783,0,31.484
	c-10.924,0.18-21.391-1.512-31.311-5.4c-7.237-2.837-14.119-6.645-20.967-10.373c-2.438-1.326-3.994-1.714-6.591-0.115
	c-34.916,21.488-70.026,21.564-105.098,0.365c-2.639-1.595-4.311-1.681-7.008-0.023c-35.113,21.566-70.383,21.544-105.544,0.119
	c-2.694-1.643-4.334-1.629-6.997-0.021c-34.905,21.059-69.879,21.034-104.682-0.249c-2.678-1.638-4.386-1.677-6.996,0.046
	C36.41,185.229,19.126,190.389,0,190.643c0-10.533,0-20.789,0-31.522c23.773-1.166,42.408-11.67,55.492-32.688
	c13.225,20.433,31.412,32.233,55.833,32.311C135.653,158.816,153.914,147.449,167.261,126.954z"/>
</svg>
