<?xml version="1.0" encoding="utf-8"?>
<!-- Generator: Adobe Illustrator 16.0.0, SVG Export Plug-In . SVG Version: 6.00 Build 0)  -->
<!DOCTYPE svg PUBLIC "-//W3C//DTD SVG 1.1//EN" "http://www.w3.org/Graphics/SVG/1.1/DTD/svg11.dtd">
<svg version="1.1" id="Layer_1" xmlns="http://www.w3.org/2000/svg" xmlns:xlink="http://www.w3.org/1999/xlink" x="0px" y="0px"
	 width="145px" height="145px" viewBox="0 0 145 145" enable-background="new 0 0 145 145" xml:space="preserve">
<g>
	<g>
		<path fill="#FFFFFF" d="M-35,145c0-48,0-96,0-144c72,0,144,0,216,0c0,48,0,96,0,144C109,145,37,145-35,145z M72.834,66.464
			c0.793-0.181,1.273-0.38,1.758-0.387c4.162-0.06,8.326-0.064,12.489-0.125c6.731-0.098,9.68-1.742,9.749-5.393
			c0.07-3.65-3.125-5.515-9.59-5.571c-2.832-0.025-5.664-0.01-8.496-0.013c-6.93-0.005-6.93-0.005-7.711-7.021
			c-0.875-7.858-5.423-12.479-11.901-12.092c-6.449,0.386-10.532,5.594-10.165,13.487c0.434,9.311,1.19,18.604,1.748,27.909
			c0.6,10.01,4.298,13.646,14.379,13.746c8.994,0.089,17.998,0.24,26.981-0.084c4.243-0.153,6.682,1.254,8.636,5.001
			c3.383,6.485,7.169,12.771,11.006,19.004c2.088,3.392,5.039,5.469,9.221,3.253c3.539-1.876,4.287-5.539,2.172-9.985
			c-0.213-0.449-0.471-0.88-0.719-1.312c-5.402-9.372-10.864-18.711-16.182-28.13c-2.121-3.756-5.111-5.366-9.402-5.244
			c-6.158,0.175-12.325,0.074-18.488,0.06C71.757,73.551,71.656,73.41,72.834,66.464z M97.706,102.782
			c-0.548,1.3-0.884,2.014-1.153,2.753c-4.875,13.38-14.44,21.152-28.568,22.098c-13.722,0.918-24.449-5.159-30.524-17.525
			C31.145,97.25,32.914,84.813,42.5,73.981c3.545-4.006,2.852-8.005,1.704-13.196c-1.949,1.38-3.478,2.273-4.787,3.418
			c-12.852,11.244-17.526,25.475-13.354,41.814c4.124,16.151,14.965,26.587,31.375,30.109c16.668,3.578,30.503-2.035,41.219-15.12
			C104.773,113.536,104.551,111.271,97.706,102.782z M70.231,23c-0.06-6.07-5.16-11.144-11.19-11.131
			c-5.955,0.013-11.172,5.191-11.239,11.155c-0.07,6.177,5.269,11.411,11.514,11.29C65.411,34.197,70.292,29.138,70.231,23z"/>
		<path fill-rule="evenodd" clip-rule="evenodd" d="M72.834,66.464c-1.178,6.946-1.077,7.087,5.484,7.104
			c6.163,0.015,12.33,0.115,18.488-0.06c4.291-0.122,7.281,1.488,9.402,5.244c5.317,9.419,10.779,18.758,16.182,28.13
			c0.248,0.432,0.506,0.862,0.719,1.312c2.115,4.446,1.367,8.109-2.172,9.985c-4.182,2.216-7.133,0.139-9.221-3.253
			c-3.837-6.233-7.623-12.519-11.006-19.004c-1.954-3.747-4.393-5.154-8.636-5.001c-8.983,0.324-17.987,0.173-26.981,0.084
			c-10.081-0.1-13.779-3.736-14.379-13.746c-0.558-9.305-1.314-18.599-1.748-27.909c-0.368-7.894,3.715-13.102,10.165-13.487
			c6.478-0.388,11.026,4.233,11.901,12.092c0.782,7.017,0.782,7.017,7.711,7.021c2.832,0.003,5.664-0.013,8.496,0.013
			c6.465,0.057,9.66,1.921,9.59,5.571c-0.069,3.65-3.018,5.295-9.749,5.393c-4.163,0.061-8.327,0.065-12.489,0.125
			C74.107,66.084,73.627,66.283,72.834,66.464z"/>
		<path fill-rule="evenodd" clip-rule="evenodd" d="M97.706,102.782c6.845,8.489,7.067,10.754,0.95,18.225
			c-10.716,13.085-24.551,18.698-41.219,15.12c-16.41-3.522-27.251-13.958-31.375-30.109c-4.171-16.34,0.503-30.57,13.354-41.814
			c1.309-1.145,2.838-2.038,4.787-3.418c1.148,5.191,1.841,9.19-1.704,13.196c-9.586,10.832-11.355,23.269-5.039,36.126
			c6.075,12.366,16.802,18.443,30.524,17.525c14.127-0.945,23.693-8.718,28.568-22.098
			C96.822,104.796,97.158,104.082,97.706,102.782z"/>
		<path fill-rule="evenodd" clip-rule="evenodd" d="M70.231,23c0.061,6.138-4.82,11.197-10.915,11.314
			c-6.246,0.121-11.584-5.113-11.514-11.29c0.067-5.964,5.284-11.143,11.239-11.155C65.071,11.856,70.171,16.93,70.231,23z"/>
	</g>
</g>
</svg>
