<?xml version="1.0" encoding="utf-8"?>
<!-- Generator: Adobe Illustrator 16.0.0, SVG Export Plug-In . SVG Version: 6.00 Build 0)  -->
<!DOCTYPE svg PUBLIC "-//W3C//DTD SVG 1.1//EN" "http://www.w3.org/Graphics/SVG/1.1/DTD/svg11.dtd">
<svg version="1.1" id="Layer_1" xmlns="http://www.w3.org/2000/svg" xmlns:xlink="http://www.w3.org/1999/xlink" x="0px" y="0px"
	 width="102.333px" height="127.917px" viewBox="0 0 102.333 127.917" enable-background="new 0 0 102.333 127.917"
	 xml:space="preserve">
<path fill="#FFFFFF" d="M-257.244,144.001c0-48.002,0-96,0-144.001c72,0,144,0,216,0c0,48,0,96,0,144.001
	C-113.243,144.001-185.243,144.001-257.244,144.001z M-149.409,65.462c0.793-0.182,1.273-0.381,1.758-0.387
	c4.162-0.061,8.326-0.064,12.488-0.125c6.732-0.098,9.68-1.742,9.75-5.393c0.07-3.651-3.125-5.516-9.59-5.572
	c-2.832-0.023-5.664-0.01-8.496-0.012c-6.93-0.006-6.93-0.006-7.711-7.021c-0.875-7.857-5.424-12.479-11.902-12.092
	c-6.448,0.387-10.531,5.594-10.164,13.487c0.434,9.312,1.189,18.603,1.748,27.909c0.6,10.01,4.298,13.646,14.379,13.746
	c8.994,0.09,17.998,0.24,26.98-0.084c4.244-0.152,6.682,1.254,8.637,5.002c3.383,6.484,7.168,12.77,11.006,19.004
	c2.088,3.393,5.039,5.471,9.221,3.254c3.539-1.877,4.287-5.541,2.172-9.986c-0.213-0.449-0.471-0.881-0.719-1.312
	c-5.402-9.371-10.863-18.711-16.182-28.129c-2.121-3.756-5.111-5.369-9.402-5.244c-6.158,0.175-12.324,0.074-18.488,0.06
	C-150.487,72.55-150.587,72.41-149.409,65.462z M-124.538,101.783c-0.547,1.299-0.883,2.014-1.152,2.752
	c-4.875,13.383-14.439,21.154-28.568,22.1c-13.722,0.918-24.449-5.157-30.523-17.526c-6.316-12.856-4.547-25.295,5.039-36.126
	c3.545-4.006,2.852-8.006,1.703-13.195c-1.949,1.379-3.478,2.271-4.787,3.418c-12.852,11.244-17.525,25.474-13.354,41.814
	c4.124,16.152,14.965,26.588,31.375,30.111c16.668,3.578,30.504-2.035,41.219-15.121
	C-117.47,112.537-117.692,110.271-124.538,101.783z M-152.013,22c-0.061-6.07-5.16-11.144-11.189-11.131
	c-5.955,0.013-11.172,5.191-11.24,11.155c-0.069,6.178,5.27,11.411,11.516,11.29C-156.833,33.198-151.952,28.138-152.013,22z"/>
<path fill="#FFCB27" d="M49.882,55.894c-1.178,6.945-1.078,7.088,5.484,7.105c6.161,0.016,12.329,0.115,18.487-0.062
	c4.291-0.123,7.278,1.487,9.399,5.244c5.318,9.42,10.779,18.758,16.185,28.131c0.248,0.433,0.506,0.86,0.72,1.312
	c2.114,4.446,1.366,8.108-2.173,9.987c-4.185,2.216-7.133,0.14-9.223-3.256c-3.837-6.231-7.623-12.519-11.007-19.004
	c-1.952-3.746-4.393-5.153-8.635-5c-8.983,0.323-17.988,0.172-26.981,0.084c-10.08-0.101-13.778-3.735-14.379-13.746
	c-0.557-9.306-1.312-18.599-1.748-27.91c-0.367-7.895,3.716-13.102,10.166-13.487c6.479-0.388,11.024,4.233,11.899,12.093
	c0.783,7.016,0.783,7.016,7.711,7.021c2.832,0.004,5.664-0.012,8.496,0.014c6.465,0.057,9.66,1.922,9.59,5.57
	c-0.067,3.65-3.018,5.295-9.748,5.393c-4.164,0.062-8.328,0.066-12.489,0.125C51.155,55.513,50.675,55.712,49.882,55.894z"/>
<path fill="#FFCB27" d="M74.753,92.214c6.846,8.488,7.067,10.754,0.951,18.227c-10.718,13.084-24.552,18.697-41.219,15.119
	C18.075,122.039,7.234,111.603,3.11,95.449c-4.171-16.34,0.503-30.568,13.354-41.814c1.309-1.145,2.838-2.037,4.787-3.418
	c1.147,5.191,1.84,9.189-1.705,13.197C9.96,74.246,8.192,86.683,14.507,99.539c6.076,12.369,16.803,18.445,30.526,17.527
	c14.125-0.945,23.69-8.717,28.565-22.1C73.871,94.228,74.207,93.513,74.753,92.214z"/>
<path fill="#FFCB27" d="M47.278,12.431c0.062,6.138-4.819,11.198-10.913,11.314c-6.248,0.121-11.586-5.112-11.517-11.29
	C24.916,6.491,30.132,1.312,36.087,1.3C42.119,1.287,47.218,6.361,47.278,12.431z"/>
</svg>
