<?xml version="1.0" encoding="utf-8"?>
<!-- Generator: Adobe Illustrator 16.0.0, SVG Export Plug-In . SVG Version: 6.00 Build 0)  -->
<!DOCTYPE svg PUBLIC "-//W3C//DTD SVG 1.1//EN" "http://www.w3.org/Graphics/SVG/1.1/DTD/svg11.dtd">
<svg version="1.1" id="Layer_1" xmlns="http://www.w3.org/2000/svg" xmlns:xlink="http://www.w3.org/1999/xlink" x="0px" y="0px"
	 width="102.333px" height="127.917px" viewBox="22.667 8.75 102.333 127.917"
	 style="enable-background:new 22.667 8.75 102.333 127.917;" xml:space="preserve">
<path style="fill:#FFFFFF;" d="M-257.244,144.002c0-48.002,0-96.001,0-144.002c72,0,144,0,216,0c0,48,0,96,0,144.002
	C-113.243,144.002-185.243,144.002-257.244,144.002z M-149.409,65.463c0.793-0.182,1.273-0.381,1.758-0.387
	c4.162-0.061,8.326-0.064,12.488-0.125c6.732-0.098,9.68-1.742,9.75-5.393s-3.125-5.516-9.59-5.572
	c-2.832-0.023-5.664-0.01-8.496-0.012c-6.93-0.006-6.93-0.006-7.711-7.021c-0.875-7.857-5.424-12.479-11.902-12.092
	c-6.448,0.387-10.531,5.594-10.164,13.487c0.434,9.312,1.189,18.603,1.748,27.909c0.6,10.01,4.298,13.646,14.379,13.746
	c8.994,0.09,17.998,0.24,26.98-0.084c4.244-0.152,6.682,1.254,8.637,5.002c3.383,6.484,7.168,12.77,11.006,19.004
	c2.088,3.393,5.039,5.471,9.221,3.254c3.539-1.877,4.287-5.541,2.172-9.986c-0.213-0.449-0.471-0.881-0.719-1.312
	c-5.402-9.371-10.863-18.711-16.182-28.129c-2.121-3.756-5.111-5.369-9.402-5.244c-6.158,0.174-12.324,0.074-18.488,0.059
	C-150.487,72.551-150.587,72.409-149.409,65.463z M-124.538,101.783c-0.547,1.299-0.883,2.014-1.152,2.752
	c-4.875,13.383-14.439,21.154-28.568,22.1c-13.722,0.918-24.449-5.158-30.523-17.527c-6.316-12.857-4.547-25.295,5.039-36.126
	c3.545-4.006,2.852-8.006,1.703-13.195c-1.949,1.379-3.478,2.271-4.787,3.418c-12.852,11.244-17.525,25.474-13.354,41.814
	c4.124,16.152,14.965,26.588,31.375,30.111c16.668,3.578,30.504-2.035,41.219-15.121
	C-117.47,112.537-117.692,110.271-124.538,101.783z M-152.013,22c-0.061-6.07-5.16-11.144-11.189-11.131
	c-5.955,0.013-11.172,5.191-11.24,11.155c-0.069,6.178,5.27,11.411,11.516,11.29C-156.833,33.198-151.952,28.138-152.013,22z"/>
<path d="M72.924,64.435c-1.178,6.945-1.078,7.088,5.484,7.105c6.162,0.016,12.33,0.115,18.488-0.061
	c4.291-0.123,7.279,1.488,9.4,5.244c5.318,9.42,10.779,18.758,16.184,28.131c0.248,0.432,0.506,0.861,0.719,1.311
	c2.115,4.447,1.367,8.109-2.172,9.988c-4.184,2.215-7.133,0.139-9.223-3.256c-3.836-6.232-7.623-12.518-11.006-19.004
	c-1.953-3.746-4.393-5.154-8.635-5c-8.984,0.324-17.988,0.172-26.982,0.084c-10.08-0.1-13.778-3.736-14.379-13.746
	c-0.557-9.306-1.313-18.599-1.748-27.91c-0.367-7.895,3.716-13.102,10.166-13.487c6.479-0.388,11.025,4.233,11.9,12.093
	c0.783,7.016,0.783,7.016,7.711,7.02c2.832,0.004,5.664-0.012,8.496,0.014c6.465,0.057,9.66,1.922,9.59,5.57
	c-0.068,3.65-3.018,5.295-9.748,5.393c-4.164,0.062-8.328,0.066-12.49,0.125C74.197,64.054,73.717,64.253,72.924,64.435z"/>
<path d="M97.795,100.755c6.846,8.488,7.068,10.754,0.951,18.227c-10.717,13.084-24.551,18.697-41.218,15.119
	c-16.411-3.521-27.252-13.957-31.376-30.111c-4.171-16.34,0.503-30.568,13.354-41.814c1.309-1.145,2.838-2.037,4.787-3.418
	c1.147,5.191,1.84,9.189-1.705,13.197c-9.586,10.832-11.354,23.269-5.039,36.125c6.076,12.369,16.803,18.445,30.525,17.527
	c14.126-0.945,23.691-8.717,28.566-22.1C96.912,102.769,97.248,102.054,97.795,100.755z"/>
<path d="M70.32,20.972c0.061,6.138-4.82,11.198-10.914,11.314c-6.247,0.121-11.585-5.112-11.516-11.29
	c0.068-5.964,5.285-11.143,11.24-11.155C65.161,9.828,70.26,14.902,70.32,20.972z"/>
</svg>
